<svg width="1151" height="47" viewBox="0 0 1151 47" fill="none" xmlns="http://www.w3.org/2000/svg">
  <path d="M12.024 38.324C9.864 38.324 7.98 38.06 6.372 37.532C4.764 37.004 3.528 36.26 2.664 35.3C1.824 34.316 1.404 33.176 1.404 31.88C1.404 29.912 2.736 28.928 5.4 28.928C5.496 30.752 6.108 32.132 7.236 33.068C8.388 34.004 9.996 34.472 12.06 34.472C13.764 34.472 15.084 34.184 16.02 33.608C16.956 33.008 17.424 32.18 17.424 31.124C17.424 30.428 17.244 29.864 16.884 29.432C16.524 28.976 15.912 28.58 15.048 28.244C14.184 27.884 12.924 27.524 11.268 27.164C8.916 26.612 7.056 26 5.688 25.328C4.344 24.656 3.372 23.852 2.772 22.916C2.172 21.956 1.872 20.768 1.872 19.352C1.872 17.984 2.268 16.784 3.06 15.752C3.876 14.72 5.016 13.916 6.48 13.34C7.968 12.764 9.672 12.476 11.592 12.476C13.44 12.476 15.084 12.728 16.524 13.232C17.988 13.712 19.128 14.396 19.944 15.284C20.784 16.172 21.204 17.192 21.204 18.344C21.204 20.12 19.92 21.044 17.352 21.116C17.208 19.46 16.68 18.248 15.768 17.48C14.856 16.712 13.464 16.328 11.592 16.328C9.984 16.328 8.748 16.592 7.884 17.12C7.02 17.648 6.588 18.392 6.588 19.352C6.588 20.024 6.756 20.588 7.092 21.044C7.428 21.476 7.992 21.86 8.784 22.196C9.576 22.508 10.704 22.832 12.168 23.168C14.64 23.72 16.596 24.344 18.036 25.04C19.476 25.712 20.52 26.54 21.168 27.524C21.816 28.484 22.14 29.672 22.14 31.088C22.14 32.552 21.72 33.836 20.88 34.94C20.064 36.02 18.888 36.86 17.352 37.46C15.84 38.036 14.064 38.324 12.024 38.324ZM33.1324 38.324C31.5724 38.324 30.1564 38.048 28.8844 37.496C27.6364 36.92 26.6524 36.128 25.9324 35.12C25.2124 34.112 24.8524 32.972 24.8524 31.7V26.624C24.8524 25.328 25.2004 24.152 25.8964 23.096C26.6164 22.04 27.6004 21.212 28.8484 20.612C30.0964 19.988 31.5244 19.676 33.1324 19.676C34.7404 19.676 36.1684 19.988 37.4164 20.612C38.6884 21.212 39.6724 22.04 40.3684 23.096C41.0884 24.152 41.4484 25.328 41.4484 26.624V31.7C41.4484 32.972 41.0764 34.112 40.3324 35.12C39.6124 36.128 38.6164 36.92 37.3444 37.496C36.0964 38.048 34.6924 38.324 33.1324 38.324ZM33.1324 34.472C34.3324 34.472 35.2684 34.196 35.9404 33.644C36.6364 33.092 36.9844 32.348 36.9844 31.412V26.84C36.9844 25.856 36.6364 25.064 35.9404 24.464C35.2684 23.84 34.3324 23.528 33.1324 23.528C31.9564 23.528 31.0204 23.84 30.3244 24.464C29.6284 25.064 29.2804 25.856 29.2804 26.84V31.412C29.2804 32.348 29.6284 33.092 30.3244 33.644C31.0204 34.196 31.9564 34.472 33.1324 34.472ZM44.2763 15.5C44.2763 14.54 44.6483 13.796 45.3923 13.268C46.1603 12.74 47.3003 12.476 48.8123 12.476V20.828C48.4763 21.092 48.2123 21.332 48.0203 21.548L48.1643 21.728C48.8123 21.104 49.6523 20.612 50.6843 20.252C51.7403 19.868 52.7123 19.676 53.6003 19.676C55.7363 19.676 57.4403 20.276 58.7123 21.476C59.9843 22.652 60.6203 24.2 60.6203 26.12V31.844C60.6203 33.092 60.3083 34.208 59.6843 35.192C59.0603 36.176 58.2203 36.944 57.1643 37.496C56.1083 38.048 54.9803 38.324 53.7803 38.324C52.5083 38.324 51.3923 38.072 50.4323 37.568C49.4963 37.04 48.6443 36.272 47.8763 35.264L47.7323 35.408C47.8283 35.576 47.9483 35.744 48.0923 35.912C48.2363 36.08 48.3443 36.212 48.4163 36.308C48.4163 36.98 48.0923 37.484 47.4443 37.82C46.7963 38.156 45.7403 38.324 44.2763 38.324V15.5ZM52.4483 34.436C53.6483 34.436 54.5603 34.196 55.1843 33.716C55.8323 33.212 56.1563 32.48 56.1563 31.52V26.408C56.1563 25.496 55.8323 24.8 55.1843 24.32C54.5363 23.816 53.6243 23.564 52.4483 23.564C51.3923 23.564 50.5043 23.828 49.7843 24.356C49.0883 24.884 48.7403 25.52 48.7403 26.264V31.7C48.7403 32.492 49.0883 33.152 49.7843 33.68C50.4803 34.184 51.3683 34.436 52.4483 34.436ZM73.8838 23.564C72.4678 23.564 71.3158 23.948 70.4278 24.716C69.5398 25.46 69.0958 26.396 69.0958 27.524V35.588C69.0958 36.548 68.7358 37.244 68.0158 37.676C67.2958 38.108 66.1678 38.324 64.6318 38.324V23.132C64.6318 22.028 64.9798 21.176 65.6758 20.576C66.3958 19.976 67.4758 19.676 68.9158 19.676V21.8C68.5558 22.208 68.2678 22.604 68.0518 22.988L68.2678 23.132C69.7798 20.828 71.6758 19.676 73.9558 19.676C74.9878 19.676 75.7678 19.952 76.2958 20.504C76.8238 21.032 77.0878 21.704 77.0878 22.52C77.0878 23.144 76.9198 23.672 76.5838 24.104C75.9358 23.744 75.0358 23.564 73.8838 23.564ZM86.4017 38.324C84.9137 38.324 83.5577 38.036 82.3337 37.46C81.1097 36.86 80.1377 36.056 79.4177 35.048C78.6977 34.016 78.3377 32.864 78.3377 31.592V26.804C78.3377 25.46 78.7097 24.248 79.4537 23.168C80.1977 22.088 81.1817 21.236 82.4057 20.612C83.6537 19.988 84.9977 19.676 86.4377 19.676C87.8537 19.676 89.1497 19.976 90.3257 20.576C91.5257 21.152 92.4737 21.968 93.1697 23.024C93.8657 24.056 94.2137 25.244 94.2137 26.588V28.604C94.2137 29.132 94.0097 29.576 93.6017 29.936C93.2177 30.296 92.7257 30.476 92.1257 30.476H82.6937V31.268C82.6937 32.3 83.0057 33.14 83.6297 33.788C84.2537 34.436 85.1897 34.76 86.4377 34.76C87.6377 34.76 88.5257 34.496 89.1017 33.968C89.7017 33.44 90.0017 32.756 90.0017 31.916C90.4337 31.868 90.7337 31.844 90.9017 31.844C91.7897 31.844 92.4857 32.048 92.9897 32.456C93.4937 32.84 93.7457 33.392 93.7457 34.112C93.7457 34.808 93.4217 35.48 92.7737 36.128C92.1257 36.776 91.2377 37.304 90.1097 37.712C88.9817 38.12 87.7457 38.324 86.4017 38.324ZM90.1457 27.272V26.588C90.1457 25.58 89.7977 24.764 89.1017 24.14C88.4057 23.516 87.5057 23.204 86.4017 23.204C85.2977 23.204 84.3977 23.516 83.7017 24.14C83.0297 24.74 82.6937 25.556 82.6937 26.588V27.272H90.1457ZM106.96 23.132C106.96 22.028 107.308 21.176 108.004 20.576C108.724 19.976 109.804 19.676 111.244 19.676V21.836C110.956 22.172 110.668 22.556 110.38 22.988L110.596 23.132C111.316 22.052 112.24 21.212 113.368 20.612C114.496 19.988 115.744 19.676 117.112 19.676C118.336 19.676 119.416 19.952 120.352 20.504C121.288 21.056 122.008 21.812 122.512 22.772C123.04 23.732 123.304 24.812 123.304 26.012V35.588C123.304 36.548 122.932 37.244 122.188 37.676C121.444 38.108 120.316 38.324 118.804 38.324V26.66C118.804 25.748 118.528 25.004 117.976 24.428C117.448 23.852 116.668 23.564 115.636 23.564C114.412 23.564 113.404 23.948 112.612 24.716C111.82 25.46 111.424 26.396 111.424 27.524V35.588C111.424 36.548 111.064 37.244 110.344 37.676C109.624 38.108 108.496 38.324 106.96 38.324V23.132ZM134.171 38.324C132.611 38.324 131.195 38.048 129.923 37.496C128.675 36.92 127.691 36.128 126.971 35.12C126.251 34.112 125.891 32.972 125.891 31.7V26.624C125.891 25.328 126.239 24.152 126.935 23.096C127.655 22.04 128.639 21.212 129.887 20.612C131.135 19.988 132.563 19.676 134.171 19.676C135.779 19.676 137.207 19.988 138.455 20.612C139.727 21.212 140.711 22.04 141.407 23.096C142.127 24.152 142.487 25.328 142.487 26.624V31.7C142.487 32.972 142.115 34.112 141.371 35.12C140.651 36.128 139.655 36.92 138.383 37.496C137.135 38.048 135.731 38.324 134.171 38.324ZM134.171 34.472C135.371 34.472 136.307 34.196 136.979 33.644C137.675 33.092 138.023 32.348 138.023 31.412V26.84C138.023 25.856 137.675 25.064 136.979 24.464C136.307 23.84 135.371 23.528 134.171 23.528C132.995 23.528 132.059 23.84 131.363 24.464C130.667 25.064 130.319 25.856 130.319 26.84V31.412C130.319 32.348 130.667 33.092 131.363 33.644C132.059 34.196 132.995 34.472 134.171 34.472ZM152.377 38.324C150.073 38.324 148.213 37.916 146.797 37.1C145.405 36.26 144.697 35.144 144.673 33.752C144.673 33.152 144.913 32.648 145.393 32.24C145.897 31.832 146.689 31.616 147.769 31.592C147.985 32.648 148.489 33.464 149.281 34.04C150.073 34.592 151.033 34.868 152.161 34.868C153.385 34.868 154.345 34.712 155.041 34.4C155.737 34.088 156.085 33.62 156.085 32.996C156.085 32.42 155.797 31.94 155.221 31.556C154.669 31.172 153.565 30.788 151.909 30.404C150.109 29.972 148.705 29.54 147.697 29.108C146.713 28.676 145.981 28.124 145.501 27.452C145.021 26.78 144.781 25.892 144.781 24.788C144.781 23.252 145.429 22.016 146.725 21.08C148.021 20.144 149.797 19.676 152.053 19.676C154.237 19.676 156.049 20.072 157.489 20.864C158.929 21.632 159.649 22.664 159.649 23.96C159.649 24.608 159.409 25.088 158.929 25.4C158.449 25.712 157.657 25.88 156.553 25.904C156.313 24.944 155.857 24.224 155.185 23.744C154.513 23.264 153.565 23.024 152.341 23.024C151.429 23.024 150.637 23.18 149.965 23.492C149.317 23.804 148.993 24.212 148.993 24.716C148.993 25.244 149.269 25.652 149.821 25.94C150.373 26.228 151.333 26.516 152.701 26.804C155.389 27.38 157.333 28.148 158.533 29.108C159.757 30.068 160.369 31.376 160.369 33.032C160.369 34.64 159.649 35.924 158.209 36.884C156.793 37.844 154.849 38.324 152.377 38.324ZM170.207 38.324C168.647 38.324 167.231 38.048 165.959 37.496C164.711 36.92 163.727 36.128 163.007 35.12C162.287 34.112 161.927 32.972 161.927 31.7V26.624C161.927 25.328 162.275 24.152 162.971 23.096C163.691 22.04 164.675 21.212 165.923 20.612C167.171 19.988 168.599 19.676 170.207 19.676C171.815 19.676 173.243 19.988 174.491 20.612C175.763 21.212 176.747 22.04 177.443 23.096C178.163 24.152 178.523 25.328 178.523 26.624V31.7C178.523 32.972 178.151 34.112 177.407 35.12C176.687 36.128 175.691 36.92 174.419 37.496C173.171 38.048 171.767 38.324 170.207 38.324ZM170.207 34.472C171.407 34.472 172.343 34.196 173.015 33.644C173.711 33.092 174.059 32.348 174.059 31.412V26.84C174.059 25.856 173.711 25.064 173.015 24.464C172.343 23.84 171.407 23.528 170.207 23.528C169.031 23.528 168.095 23.84 167.399 24.464C166.703 25.064 166.355 25.856 166.355 26.84V31.412C166.355 32.348 166.703 33.092 167.399 33.644C168.095 34.196 169.031 34.472 170.207 34.472ZM189.145 38.324C187.201 38.324 185.761 37.76 184.825 36.632C183.889 35.504 183.421 34.052 183.421 32.276V23.348H179.713C179.713 22.22 179.929 21.38 180.361 20.828C180.793 20.276 181.369 20 182.089 20H183.493V17.012C183.493 16.028 183.853 15.332 184.573 14.924C185.293 14.492 186.385 14.276 187.849 14.276V20H192.637C192.637 21.2 192.409 22.064 191.953 22.592C191.497 23.096 190.765 23.348 189.757 23.348H187.921V32.096C187.921 32.936 188.077 33.536 188.389 33.896C188.725 34.256 189.289 34.436 190.081 34.436C190.921 34.436 191.761 34.208 192.601 33.752C192.841 33.968 193.033 34.244 193.177 34.58C193.321 34.892 193.393 35.216 193.393 35.552C193.393 36.272 193.021 36.92 192.277 37.496C191.533 38.048 190.489 38.324 189.145 38.324ZM206.036 23.564C204.62 23.564 203.468 23.948 202.58 24.716C201.692 25.46 201.248 26.396 201.248 27.524V35.588C201.248 36.548 200.888 37.244 200.168 37.676C199.448 38.108 198.32 38.324 196.784 38.324V23.132C196.784 22.028 197.132 21.176 197.828 20.576C198.548 19.976 199.628 19.676 201.068 19.676V21.8C200.708 22.208 200.42 22.604 200.204 22.988L200.42 23.132C201.932 20.828 203.828 19.676 206.108 19.676C207.14 19.676 207.92 19.952 208.448 20.504C208.976 21.032 209.24 21.704 209.24 22.52C209.24 23.144 209.072 23.672 208.736 24.104C208.088 23.744 207.188 23.564 206.036 23.564ZM217.492 38.324C215.932 38.324 214.516 38.048 213.244 37.496C211.996 36.92 211.012 36.128 210.292 35.12C209.572 34.112 209.212 32.972 209.212 31.7V26.624C209.212 25.328 209.56 24.152 210.256 23.096C210.976 22.04 211.96 21.212 213.208 20.612C214.456 19.988 215.884 19.676 217.492 19.676C219.1 19.676 220.528 19.988 221.776 20.612C223.048 21.212 224.032 22.04 224.728 23.096C225.448 24.152 225.808 25.328 225.808 26.624V31.7C225.808 32.972 225.436 34.112 224.692 35.12C223.972 36.128 222.976 36.92 221.704 37.496C220.456 38.048 219.052 38.324 217.492 38.324ZM217.492 34.472C218.692 34.472 219.628 34.196 220.3 33.644C220.996 33.092 221.344 32.348 221.344 31.412V26.84C221.344 25.856 220.996 25.064 220.3 24.464C219.628 23.84 218.692 23.528 217.492 23.528C216.316 23.528 215.38 23.84 214.684 24.464C213.988 25.064 213.64 25.856 213.64 26.84V31.412C213.64 32.348 213.988 33.092 214.684 33.644C215.38 34.196 216.316 34.472 217.492 34.472ZM235.698 38.324C233.394 38.324 231.534 37.916 230.118 37.1C228.726 36.26 228.018 35.144 227.994 33.752C227.994 33.152 228.234 32.648 228.714 32.24C229.218 31.832 230.01 31.616 231.09 31.592C231.306 32.648 231.81 33.464 232.602 34.04C233.394 34.592 234.354 34.868 235.482 34.868C236.706 34.868 237.666 34.712 238.362 34.4C239.058 34.088 239.406 33.62 239.406 32.996C239.406 32.42 239.118 31.94 238.542 31.556C237.99 31.172 236.886 30.788 235.23 30.404C233.43 29.972 232.026 29.54 231.018 29.108C230.034 28.676 229.302 28.124 228.822 27.452C228.342 26.78 228.102 25.892 228.102 24.788C228.102 23.252 228.75 22.016 230.046 21.08C231.342 20.144 233.118 19.676 235.374 19.676C237.558 19.676 239.37 20.072 240.81 20.864C242.25 21.632 242.97 22.664 242.97 23.96C242.97 24.608 242.73 25.088 242.25 25.4C241.77 25.712 240.978 25.88 239.874 25.904C239.634 24.944 239.178 24.224 238.506 23.744C237.834 23.264 236.886 23.024 235.662 23.024C234.75 23.024 233.958 23.18 233.286 23.492C232.638 23.804 232.314 24.212 232.314 24.716C232.314 25.244 232.59 25.652 233.142 25.94C233.694 26.228 234.654 26.516 236.022 26.804C238.71 27.38 240.654 28.148 241.854 29.108C243.078 30.068 243.69 31.376 243.69 33.032C243.69 34.64 242.97 35.924 241.53 36.884C240.114 37.844 238.17 38.324 235.698 38.324Z"
        fill="#777777"/>
  <line x1="256" y1="27.5" x2="1151" y2="27.4999" stroke="#CBCBCB"/>
</svg>
