<svg width="1694" height="108" viewBox="0 0 1694 108" fill="none" xmlns="http://www.w3.org/2000/svg">
  <rect width="1694" height="108" fill="#BD3D34"/>
  <path d="M693.7 74.45C690.7 74.45 688.083 74.0833 685.85 73.35C683.617 72.6167 681.9 71.5833 680.7 70.25C679.533 68.8833 678.95 67.3 678.95 65.5C678.95 62.7667 680.8 61.4 684.5 61.4C684.633 63.9333 685.483 65.85 687.05 67.15C688.65 68.45 690.883 69.1 693.75 69.1C696.117 69.1 697.95 68.7 699.25 67.9C700.55 67.0667 701.2 65.9167 701.2 64.45C701.2 63.4833 700.95 62.7 700.45 62.1C699.95 61.4667 699.1 60.9167 697.9 60.45C696.7 59.95 694.95 59.45 692.65 58.95C689.383 58.1833 686.8 57.3333 684.9 56.4C683.033 55.4667 681.683 54.35 680.85 53.05C680.017 51.7167 679.6 50.0667 679.6 48.1C679.6 46.2 680.15 44.5333 681.25 43.1C682.383 41.6667 683.967 40.55 686 39.75C688.067 38.95 690.433 38.55 693.1 38.55C695.667 38.55 697.95 38.9 699.95 39.6C701.983 40.2667 703.567 41.2167 704.7 42.45C705.867 43.6833 706.45 45.1 706.45 46.7C706.45 49.1667 704.667 50.45 701.1 50.55C700.9 48.25 700.167 46.5667 698.9 45.5C697.633 44.4333 695.7 43.9 693.1 43.9C690.867 43.9 689.15 44.2667 687.95 45C686.75 45.7333 686.15 46.7667 686.15 48.1C686.15 49.0333 686.383 49.8167 686.85 50.45C687.317 51.05 688.1 51.5833 689.2 52.05C690.3 52.4833 691.867 52.9333 693.9 53.4C697.333 54.1667 700.05 55.0333 702.05 56C704.05 56.9333 705.5 58.0833 706.4 59.45C707.3 60.7833 707.75 62.4333 707.75 64.4C707.75 66.4333 707.167 68.2167 706 69.75C704.867 71.25 703.233 72.4167 701.1 73.25C699 74.05 696.533 74.45 693.7 74.45ZM723.017 74.45C720.851 74.45 718.884 74.0667 717.117 73.3C715.384 72.5 714.017 71.4 713.017 70C712.017 68.6 711.517 67.0167 711.517 65.25V58.2C711.517 56.4 712.001 54.7667 712.967 53.3C713.967 51.8333 715.334 50.6833 717.067 49.85C718.801 48.9833 720.784 48.55 723.017 48.55C725.251 48.55 727.234 48.9833 728.967 49.85C730.734 50.6833 732.101 51.8333 733.067 53.3C734.067 54.7667 734.567 56.4 734.567 58.2V65.25C734.567 67.0167 734.051 68.6 733.017 70C732.017 71.4 730.634 72.5 728.867 73.3C727.134 74.0667 725.184 74.45 723.017 74.45ZM723.017 69.1C724.684 69.1 725.984 68.7167 726.917 67.95C727.884 67.1833 728.367 66.15 728.367 64.85V58.5C728.367 57.1333 727.884 56.0333 726.917 55.2C725.984 54.3333 724.684 53.9 723.017 53.9C721.384 53.9 720.084 54.3333 719.117 55.2C718.151 56.0333 717.667 57.1333 717.667 58.5V64.85C717.667 66.15 718.151 67.1833 719.117 67.95C720.084 68.7167 721.384 69.1 723.017 69.1ZM738.495 42.75C738.495 41.4167 739.012 40.3833 740.045 39.65C741.112 38.9167 742.695 38.55 744.795 38.55V50.15C744.328 50.5167 743.962 50.85 743.695 51.15L743.895 51.4C744.795 50.5333 745.962 49.85 747.395 49.35C748.862 48.8167 750.212 48.55 751.445 48.55C754.412 48.55 756.778 49.3833 758.545 51.05C760.312 52.6833 761.195 54.8333 761.195 57.5V65.45C761.195 67.1833 760.762 68.7333 759.895 70.1C759.028 71.4667 757.862 72.5333 756.395 73.3C754.928 74.0667 753.362 74.45 751.695 74.45C749.928 74.45 748.378 74.1 747.045 73.4C745.745 72.6667 744.562 71.6 743.495 70.2L743.295 70.4C743.428 70.6333 743.595 70.8667 743.795 71.1C743.995 71.3333 744.145 71.5167 744.245 71.65C744.245 72.5833 743.795 73.2833 742.895 73.75C741.995 74.2167 740.528 74.45 738.495 74.45V42.75ZM749.845 69.05C751.512 69.05 752.778 68.7167 753.645 68.05C754.545 67.35 754.995 66.3333 754.995 65V57.9C754.995 56.6333 754.545 55.6667 753.645 55C752.745 54.3 751.478 53.95 749.845 53.95C748.378 53.95 747.145 54.3167 746.145 55.05C745.178 55.7833 744.695 56.6667 744.695 57.7V65.25C744.695 66.35 745.178 67.2667 746.145 68C747.112 68.7 748.345 69.05 749.845 69.05ZM779.616 53.95C777.65 53.95 776.05 54.4833 774.816 55.55C773.583 56.5833 772.966 57.8833 772.966 59.45V70.65C772.966 71.9833 772.466 72.95 771.466 73.55C770.466 74.15 768.9 74.45 766.766 74.45V53.35C766.766 51.8167 767.25 50.6333 768.216 49.8C769.216 48.9667 770.716 48.55 772.716 48.55V51.5C772.216 52.0667 771.816 52.6167 771.516 53.15L771.816 53.35C773.916 50.15 776.55 48.55 779.716 48.55C781.15 48.55 782.233 48.9333 782.966 49.7C783.7 50.4333 784.066 51.3667 784.066 52.5C784.066 53.3667 783.833 54.1 783.366 54.7C782.466 54.2 781.216 53.95 779.616 53.95ZM797.002 74.45C794.936 74.45 793.052 74.05 791.352 73.25C789.652 72.4167 788.302 71.3 787.302 69.9C786.302 68.4667 785.802 66.8667 785.802 65.1V58.45C785.802 56.5833 786.319 54.9 787.352 53.4C788.386 51.9 789.752 50.7167 791.452 49.85C793.186 48.9833 795.052 48.55 797.052 48.55C799.019 48.55 800.819 48.9667 802.452 49.8C804.119 50.6 805.436 51.7333 806.402 53.2C807.369 54.6333 807.852 56.2833 807.852 58.15V60.95C807.852 61.6833 807.569 62.3 807.002 62.8C806.469 63.3 805.786 63.55 804.952 63.55H791.852V64.65C791.852 66.0833 792.286 67.25 793.152 68.15C794.019 69.05 795.319 69.5 797.052 69.5C798.719 69.5 799.952 69.1333 800.752 68.4C801.586 67.6667 802.002 66.7167 802.002 65.55C802.602 65.4833 803.019 65.45 803.252 65.45C804.486 65.45 805.452 65.7333 806.152 66.3C806.852 66.8333 807.202 67.6 807.202 68.6C807.202 69.5667 806.752 70.5 805.852 71.4C804.952 72.3 803.719 73.0333 802.152 73.6C800.586 74.1667 798.869 74.45 797.002 74.45ZM802.202 59.1V58.15C802.202 56.75 801.719 55.6167 800.752 54.75C799.786 53.8833 798.536 53.45 797.002 53.45C795.469 53.45 794.219 53.8833 793.252 54.75C792.319 55.5833 791.852 56.7167 791.852 58.15V59.1H802.202ZM825.555 53.35C825.555 51.8167 826.039 50.6333 827.005 49.8C828.005 48.9667 829.505 48.55 831.505 48.55V51.55C831.105 52.0167 830.705 52.55 830.305 53.15L830.605 53.35C831.605 51.85 832.889 50.6833 834.455 49.85C836.022 48.9833 837.755 48.55 839.655 48.55C841.355 48.55 842.855 48.9333 844.155 49.7C845.455 50.4667 846.455 51.5167 847.155 52.85C847.889 54.1833 848.255 55.6833 848.255 57.35V70.65C848.255 71.9833 847.739 72.95 846.705 73.55C845.672 74.15 844.105 74.45 842.005 74.45V58.25C842.005 56.9833 841.622 55.95 840.855 55.15C840.122 54.35 839.039 53.95 837.605 53.95C835.905 53.95 834.505 54.4833 833.405 55.55C832.305 56.5833 831.755 57.8833 831.755 59.45V70.65C831.755 71.9833 831.255 72.95 830.255 73.55C829.255 74.15 827.689 74.45 825.555 74.45V53.35ZM863.349 74.45C861.183 74.45 859.216 74.0667 857.449 73.3C855.716 72.5 854.349 71.4 853.349 70C852.349 68.6 851.849 67.0167 851.849 65.25V58.2C851.849 56.4 852.333 54.7667 853.299 53.3C854.299 51.8333 855.666 50.6833 857.399 49.85C859.133 48.9833 861.116 48.55 863.349 48.55C865.583 48.55 867.566 48.9833 869.299 49.85C871.066 50.6833 872.433 51.8333 873.399 53.3C874.399 54.7667 874.899 56.4 874.899 58.2V65.25C874.899 67.0167 874.383 68.6 873.349 70C872.349 71.4 870.966 72.5 869.199 73.3C867.466 74.0667 865.516 74.45 863.349 74.45ZM863.349 69.1C865.016 69.1 866.316 68.7167 867.249 67.95C868.216 67.1833 868.699 66.15 868.699 64.85V58.5C868.699 57.1333 868.216 56.0333 867.249 55.2C866.316 54.3333 865.016 53.9 863.349 53.9C861.716 53.9 860.416 54.3333 859.449 55.2C858.483 56.0333 857.999 57.1333 857.999 58.5V64.85C857.999 66.15 858.483 67.1833 859.449 67.95C860.416 68.7167 861.716 69.1 863.349 69.1ZM888.635 74.45C885.435 74.45 882.852 73.8833 880.885 72.75C878.952 71.5833 877.968 70.0333 877.935 68.1C877.935 67.2667 878.268 66.5667 878.935 66C879.635 65.4333 880.735 65.1333 882.235 65.1C882.535 66.5667 883.235 67.7 884.335 68.5C885.435 69.2667 886.768 69.65 888.335 69.65C890.035 69.65 891.368 69.4333 892.335 69C893.302 68.5667 893.785 67.9167 893.785 67.05C893.785 66.25 893.385 65.5833 892.585 65.05C891.818 64.5167 890.285 63.9833 887.985 63.45C885.485 62.85 883.535 62.25 882.135 61.65C880.768 61.05 879.752 60.2833 879.085 59.35C878.418 58.4167 878.085 57.1833 878.085 55.65C878.085 53.5167 878.985 51.8 880.785 50.5C882.585 49.2 885.052 48.55 888.185 48.55C891.218 48.55 893.735 49.1 895.735 50.2C897.735 51.2667 898.735 52.7 898.735 54.5C898.735 55.4 898.402 56.0667 897.735 56.5C897.068 56.9333 895.968 57.1667 894.435 57.2C894.102 55.8667 893.468 54.8667 892.535 54.2C891.602 53.5333 890.285 53.2 888.585 53.2C887.318 53.2 886.218 53.4167 885.285 53.85C884.385 54.2833 883.935 54.85 883.935 55.55C883.935 56.2833 884.318 56.85 885.085 57.25C885.852 57.65 887.185 58.05 889.085 58.45C892.818 59.25 895.518 60.3167 897.185 61.65C898.885 62.9833 899.735 64.8 899.735 67.1C899.735 69.3333 898.735 71.1167 896.735 72.45C894.768 73.7833 892.068 74.45 888.635 74.45ZM913.398 74.45C911.231 74.45 909.265 74.0667 907.498 73.3C905.765 72.5 904.398 71.4 903.398 70C902.398 68.6 901.898 67.0167 901.898 65.25V58.2C901.898 56.4 902.381 54.7667 903.348 53.3C904.348 51.8333 905.715 50.6833 907.448 49.85C909.181 48.9833 911.165 48.55 913.398 48.55C915.631 48.55 917.615 48.9833 919.348 49.85C921.115 50.6833 922.481 51.8333 923.448 53.3C924.448 54.7667 924.948 56.4 924.948 58.2V65.25C924.948 67.0167 924.431 68.6 923.398 70C922.398 71.4 921.015 72.5 919.248 73.3C917.515 74.0667 915.565 74.45 913.398 74.45ZM913.398 69.1C915.065 69.1 916.365 68.7167 917.298 67.95C918.265 67.1833 918.748 66.15 918.748 64.85V58.5C918.748 57.1333 918.265 56.0333 917.298 55.2C916.365 54.3333 915.065 53.9 913.398 53.9C911.765 53.9 910.465 54.3333 909.498 55.2C908.531 56.0333 908.048 57.1333 908.048 58.5V64.85C908.048 66.15 908.531 67.1833 909.498 67.95C910.465 68.7167 911.765 69.1 913.398 69.1ZM939.702 74.45C937.002 74.45 935.002 73.6667 933.702 72.1C932.402 70.5333 931.752 68.5167 931.752 66.05V53.65H926.602C926.602 52.0833 926.902 50.9167 927.502 50.15C928.102 49.3833 928.902 49 929.902 49H931.852V44.85C931.852 43.4833 932.352 42.5167 933.352 41.95C934.352 41.35 935.868 41.05 937.902 41.05V49H944.552C944.552 50.6667 944.235 51.8667 943.602 52.6C942.968 53.3 941.952 53.65 940.552 53.65H938.002V65.8C938.002 66.9667 938.218 67.8 938.652 68.3C939.118 68.8 939.902 69.05 941.002 69.05C942.168 69.05 943.335 68.7333 944.502 68.1C944.835 68.4 945.102 68.7833 945.302 69.25C945.502 69.6833 945.602 70.1333 945.602 70.6C945.602 71.6 945.085 72.5 944.052 73.3C943.018 74.0667 941.568 74.45 939.702 74.45ZM963.161 53.95C961.195 53.95 959.595 54.4833 958.361 55.55C957.128 56.5833 956.511 57.8833 956.511 59.45V70.65C956.511 71.9833 956.011 72.95 955.011 73.55C954.011 74.15 952.445 74.45 950.311 74.45V53.35C950.311 51.8167 950.795 50.6333 951.761 49.8C952.761 48.9667 954.261 48.55 956.261 48.55V51.5C955.761 52.0667 955.361 52.6167 955.061 53.15L955.361 53.35C957.461 50.15 960.095 48.55 963.261 48.55C964.695 48.55 965.778 48.9333 966.511 49.7C967.245 50.4333 967.611 51.3667 967.611 52.5C967.611 53.3667 967.378 54.1 966.911 54.7C966.011 54.2 964.761 53.95 963.161 53.95ZM979.072 74.45C976.905 74.45 974.939 74.0667 973.172 73.3C971.439 72.5 970.072 71.4 969.072 70C968.072 68.6 967.572 67.0167 967.572 65.25V58.2C967.572 56.4 968.055 54.7667 969.022 53.3C970.022 51.8333 971.389 50.6833 973.122 49.85C974.855 48.9833 976.839 48.55 979.072 48.55C981.305 48.55 983.289 48.9833 985.022 49.85C986.789 50.6833 988.155 51.8333 989.122 53.3C990.122 54.7667 990.622 56.4 990.622 58.2V65.25C990.622 67.0167 990.105 68.6 989.072 70C988.072 71.4 986.689 72.5 984.922 73.3C983.189 74.0667 981.239 74.45 979.072 74.45ZM979.072 69.1C980.739 69.1 982.039 68.7167 982.972 67.95C983.939 67.1833 984.422 66.15 984.422 64.85V58.5C984.422 57.1333 983.939 56.0333 982.972 55.2C982.039 54.3333 980.739 53.9 979.072 53.9C977.439 53.9 976.139 54.3333 975.172 55.2C974.205 56.0333 973.722 57.1333 973.722 58.5V64.85C973.722 66.15 974.205 67.1833 975.172 67.95C976.139 68.7167 977.439 69.1 979.072 69.1ZM1004.36 74.45C1001.16 74.45 998.574 73.8833 996.608 72.75C994.674 71.5833 993.691 70.0333 993.658 68.1C993.658 67.2667 993.991 66.5667 994.658 66C995.358 65.4333 996.458 65.1333 997.958 65.1C998.258 66.5667 998.958 67.7 1000.06 68.5C1001.16 69.2667 1002.49 69.65 1004.06 69.65C1005.76 69.65 1007.09 69.4333 1008.06 69C1009.02 68.5667 1009.51 67.9167 1009.51 67.05C1009.51 66.25 1009.11 65.5833 1008.31 65.05C1007.54 64.5167 1006.01 63.9833 1003.71 63.45C1001.21 62.85 999.258 62.25 997.858 61.65C996.491 61.05 995.474 60.2833 994.808 59.35C994.141 58.4167 993.808 57.1833 993.808 55.65C993.808 53.5167 994.708 51.8 996.508 50.5C998.308 49.2 1000.77 48.55 1003.91 48.55C1006.94 48.55 1009.46 49.1 1011.46 50.2C1013.46 51.2667 1014.46 52.7 1014.46 54.5C1014.46 55.4 1014.12 56.0667 1013.46 56.5C1012.79 56.9333 1011.69 57.1667 1010.16 57.2C1009.82 55.8667 1009.19 54.8667 1008.26 54.2C1007.32 53.5333 1006.01 53.2 1004.31 53.2C1003.04 53.2 1001.94 53.4167 1001.01 53.85C1000.11 54.2833 999.658 54.85 999.658 55.55C999.658 56.2833 1000.04 56.85 1000.81 57.25C1001.57 57.65 1002.91 58.05 1004.81 58.45C1008.54 59.25 1011.24 60.3167 1012.91 61.65C1014.61 62.9833 1015.46 64.8 1015.46 67.1C1015.46 69.3333 1014.46 71.1167 1012.46 72.45C1010.49 73.7833 1007.79 74.45 1004.36 74.45Z"
        fill="white"/>
</svg>
