<svg width="1152" height="47" viewBox="0 0 1152 47" fill="none" xmlns="http://www.w3.org/2000/svg">
  <path d="M4.68 38.324C3.648 38.204 2.832 37.844 2.232 37.244C1.656 36.644 1.368 35.888 1.368 34.976C1.368 34.28 1.536 33.56 1.872 32.816L10.116 14.06C10.572 13.004 11.364 12.476 12.492 12.476C13.596 12.476 14.376 13.004 14.832 14.06L23.076 32.816C23.412 33.608 23.58 34.328 23.58 34.976C23.58 35.888 23.28 36.644 22.68 37.244C22.104 37.844 21.288 38.204 20.232 38.324L17.208 31.484H7.74L4.68 38.324ZM15.732 27.38L11.772 17.516L11.34 17.696L12.204 19.928L9.18 27.38H15.732ZM33.4814 45.524C32.0654 45.524 30.8054 45.32 29.7014 44.912C28.5974 44.528 27.7334 44 27.1094 43.328C26.4854 42.656 26.1734 41.912 26.1734 41.096C26.1734 40.28 26.4494 39.704 27.0014 39.368C27.5774 39.032 28.3814 38.864 29.4134 38.864C29.5094 39.848 29.8934 40.604 30.5654 41.132C31.2374 41.684 32.2094 41.96 33.4814 41.96C34.8974 41.96 35.8934 41.612 36.4694 40.916C37.0694 40.22 37.3694 39.26 37.3694 38.036V36.812C37.7294 36.548 37.9934 36.296 38.1614 36.056L38.0174 35.876C37.3934 36.5 36.5534 37.004 35.4974 37.388C34.4654 37.772 33.4934 37.964 32.5814 37.964C31.2374 37.964 30.0374 37.7 28.9814 37.172C27.9254 36.62 27.0854 35.852 26.4614 34.868C25.8614 33.884 25.5614 32.768 25.5614 31.52V26.156C25.5614 24.956 25.8734 23.864 26.4974 22.88C27.1454 21.872 27.9854 21.092 29.0174 20.54C30.0734 19.964 31.2014 19.676 32.4014 19.676C33.7214 19.676 34.8374 19.94 35.7494 20.468C36.6854 20.996 37.5374 21.752 38.3054 22.736L38.4494 22.592C38.3294 22.376 38.1014 22.064 37.7654 21.656C37.7654 20.336 39.1454 19.676 41.9054 19.676V37.388C41.9054 38.972 41.5454 40.376 40.8254 41.6C40.1054 42.824 39.0974 43.784 37.8014 44.48C36.5294 45.176 35.0894 45.524 33.4814 45.524ZM33.7334 34.112C34.7894 34.112 35.6774 33.848 36.3974 33.32C37.1174 32.768 37.4774 32.12 37.4774 31.376V26.264C37.4774 25.496 37.1174 24.848 36.3974 24.32C35.7014 23.792 34.8134 23.528 33.7334 23.528C32.5574 23.528 31.6454 23.78 30.9974 24.284C30.3734 24.788 30.0614 25.508 30.0614 26.444V31.196C30.0614 32.108 30.3734 32.828 30.9974 33.356C31.6214 33.86 32.5334 34.112 33.7334 34.112ZM55.251 23.564C53.835 23.564 52.683 23.948 51.795 24.716C50.907 25.46 50.463 26.396 50.463 27.524V35.588C50.463 36.548 50.103 37.244 49.383 37.676C48.663 38.108 47.535 38.324 45.999 38.324V23.132C45.999 22.028 46.347 21.176 47.043 20.576C47.763 19.976 48.843 19.676 50.283 19.676V21.8C49.923 22.208 49.635 22.604 49.419 22.988L49.635 23.132C51.147 20.828 53.043 19.676 55.323 19.676C56.355 19.676 57.135 19.952 57.663 20.504C58.191 21.032 58.455 21.704 58.455 22.52C58.455 23.144 58.287 23.672 57.951 24.104C57.303 23.744 56.403 23.564 55.251 23.564ZM67.7689 38.324C66.2809 38.324 64.9249 38.036 63.7009 37.46C62.4769 36.86 61.5049 36.056 60.7849 35.048C60.0649 34.016 59.7049 32.864 59.7049 31.592V26.804C59.7049 25.46 60.0769 24.248 60.8209 23.168C61.5649 22.088 62.5489 21.236 63.7729 20.612C65.0209 19.988 66.3649 19.676 67.8049 19.676C69.2209 19.676 70.5169 19.976 71.6929 20.576C72.8929 21.152 73.8409 21.968 74.5369 23.024C75.2329 24.056 75.5809 25.244 75.5809 26.588V28.604C75.5809 29.132 75.3769 29.576 74.9689 29.936C74.5849 30.296 74.0929 30.476 73.4929 30.476H64.0609V31.268C64.0609 32.3 64.3729 33.14 64.9969 33.788C65.6209 34.436 66.5569 34.76 67.8049 34.76C69.0049 34.76 69.8929 34.496 70.4689 33.968C71.0689 33.44 71.3689 32.756 71.3689 31.916C71.8009 31.868 72.1009 31.844 72.2689 31.844C73.1569 31.844 73.8529 32.048 74.3569 32.456C74.8609 32.84 75.1129 33.392 75.1129 34.112C75.1129 34.808 74.7889 35.48 74.1409 36.128C73.4929 36.776 72.6049 37.304 71.4769 37.712C70.3489 38.12 69.1129 38.324 67.7689 38.324ZM71.5129 27.272V26.588C71.5129 25.58 71.1649 24.764 70.4689 24.14C69.7729 23.516 68.8729 23.204 67.7689 23.204C66.6649 23.204 65.7649 23.516 65.0689 24.14C64.3969 24.74 64.0609 25.556 64.0609 26.588V27.272H71.5129ZM86.4619 45.524C85.0459 45.524 83.7859 45.32 82.6819 44.912C81.5779 44.528 80.7139 44 80.0899 43.328C79.4659 42.656 79.1539 41.912 79.1539 41.096C79.1539 40.28 79.4299 39.704 79.9819 39.368C80.5579 39.032 81.3619 38.864 82.3939 38.864C82.4899 39.848 82.8739 40.604 83.5459 41.132C84.2179 41.684 85.1899 41.96 86.4619 41.96C87.8779 41.96 88.8739 41.612 89.4499 40.916C90.0499 40.22 90.3499 39.26 90.3499 38.036V36.812C90.7099 36.548 90.9739 36.296 91.1419 36.056L90.9979 35.876C90.3739 36.5 89.5339 37.004 88.4779 37.388C87.4459 37.772 86.4739 37.964 85.5619 37.964C84.2179 37.964 83.0179 37.7 81.9619 37.172C80.9059 36.62 80.0659 35.852 79.4419 34.868C78.8419 33.884 78.5419 32.768 78.5419 31.52V26.156C78.5419 24.956 78.8539 23.864 79.4779 22.88C80.1259 21.872 80.9659 21.092 81.9979 20.54C83.0539 19.964 84.1819 19.676 85.3819 19.676C86.7019 19.676 87.8179 19.94 88.7299 20.468C89.6659 20.996 90.5179 21.752 91.2859 22.736L91.4299 22.592C91.3099 22.376 91.0819 22.064 90.7459 21.656C90.7459 20.336 92.1259 19.676 94.8859 19.676V37.388C94.8859 38.972 94.5259 40.376 93.8059 41.6C93.0859 42.824 92.0779 43.784 90.7819 44.48C89.5099 45.176 88.0699 45.524 86.4619 45.524ZM86.7139 34.112C87.7699 34.112 88.6579 33.848 89.3779 33.32C90.0979 32.768 90.4579 32.12 90.4579 31.376V26.264C90.4579 25.496 90.0979 24.848 89.3779 24.32C88.6819 23.792 87.7939 23.528 86.7139 23.528C85.5379 23.528 84.6259 23.78 83.9779 24.284C83.3539 24.788 83.0419 25.508 83.0419 26.444V31.196C83.0419 32.108 83.3539 32.828 83.9779 33.356C84.6019 33.86 85.5139 34.112 86.7139 34.112ZM104.955 38.324C103.731 38.324 102.603 38.084 101.571 37.604C100.563 37.124 99.7475 36.44 99.1235 35.552C98.5235 34.64 98.2235 33.56 98.2235 32.312C98.2235 31.064 98.5475 29.984 99.1955 29.072C99.8435 28.136 100.719 27.428 101.823 26.948C102.951 26.444 104.187 26.192 105.531 26.192C106.635 26.192 107.619 26.372 108.483 26.732C109.371 27.068 110.187 27.584 110.931 28.28L111.111 28.1C110.895 27.884 110.523 27.56 109.995 27.128V26.408C109.995 25.424 109.647 24.644 108.951 24.068C108.255 23.492 107.283 23.204 106.035 23.204C103.803 23.204 102.159 24.02 101.103 25.652C100.575 25.484 100.131 25.22 99.7715 24.86C99.4115 24.476 99.2315 24.068 99.2315 23.636C99.2315 22.916 99.5555 22.256 100.203 21.656C100.851 21.056 101.727 20.576 102.831 20.216C103.935 19.856 105.135 19.676 106.431 19.676C108.975 19.676 110.943 20.276 112.335 21.476C113.727 22.652 114.423 24.26 114.423 26.3V35.3C114.423 36.356 114.087 37.124 113.415 37.604C112.743 38.084 111.687 38.324 110.247 38.324V36.848C110.655 36.44 110.931 36.14 111.075 35.948L110.931 35.768C110.139 36.608 109.287 37.244 108.375 37.676C107.487 38.108 106.347 38.324 104.955 38.324ZM106.107 35.048C107.355 35.048 108.327 34.808 109.023 34.328C109.719 33.848 110.067 33.164 110.067 32.276C110.067 31.412 109.707 30.728 108.987 30.224C108.291 29.72 107.343 29.468 106.143 29.468C105.039 29.468 104.163 29.72 103.515 30.224C102.891 30.704 102.579 31.388 102.579 32.276C102.579 33.188 102.891 33.884 103.515 34.364C104.139 34.82 105.003 35.048 106.107 35.048ZM127.708 23.564C126.292 23.564 125.14 23.948 124.252 24.716C123.364 25.46 122.92 26.396 122.92 27.524V35.588C122.92 36.548 122.56 37.244 121.84 37.676C121.12 38.108 119.992 38.324 118.456 38.324V23.132C118.456 22.028 118.804 21.176 119.5 20.576C120.22 19.976 121.3 19.676 122.74 19.676V21.8C122.38 22.208 122.092 22.604 121.876 22.988L122.092 23.132C123.604 20.828 125.5 19.676 127.78 19.676C128.812 19.676 129.592 19.952 130.12 20.504C130.648 21.032 130.912 21.704 130.912 22.52C130.912 23.144 130.744 23.672 130.408 24.104C129.76 23.744 128.86 23.564 127.708 23.564ZM149.18 38.324C147.188 38.324 145.676 37.76 144.644 36.632C143.636 35.48 143.132 34.028 143.132 32.276V15.212C143.132 14.228 143.492 13.532 144.212 13.124C144.956 12.692 146.096 12.476 147.632 12.476V32.096C147.632 32.912 147.812 33.512 148.172 33.896C148.532 34.256 149.108 34.436 149.9 34.436C150.788 34.436 151.676 34.208 152.564 33.752C152.804 33.968 152.984 34.244 153.104 34.58C153.248 34.892 153.32 35.216 153.32 35.552C153.32 36.272 152.96 36.92 152.24 37.496C151.52 38.048 150.5 38.324 149.18 38.324ZM163.035 38.324C161.475 38.324 160.059 38.048 158.787 37.496C157.539 36.92 156.555 36.128 155.835 35.12C155.115 34.112 154.755 32.972 154.755 31.7V26.624C154.755 25.328 155.103 24.152 155.799 23.096C156.519 22.04 157.503 21.212 158.751 20.612C159.999 19.988 161.427 19.676 163.035 19.676C164.643 19.676 166.071 19.988 167.319 20.612C168.591 21.212 169.575 22.04 170.271 23.096C170.991 24.152 171.351 25.328 171.351 26.624V31.7C171.351 32.972 170.979 34.112 170.235 35.12C169.515 36.128 168.519 36.92 167.247 37.496C165.999 38.048 164.595 38.324 163.035 38.324ZM163.035 34.472C164.235 34.472 165.171 34.196 165.843 33.644C166.539 33.092 166.887 32.348 166.887 31.412V26.84C166.887 25.856 166.539 25.064 165.843 24.464C165.171 23.84 164.235 23.528 163.035 23.528C161.859 23.528 160.923 23.84 160.227 24.464C159.531 25.064 159.183 25.856 159.183 26.84V31.412C159.183 32.348 159.531 33.092 160.227 33.644C160.923 34.196 161.859 34.472 163.035 34.472ZM181.973 38.324C180.029 38.324 178.589 37.76 177.653 36.632C176.717 35.504 176.249 34.052 176.249 32.276V23.348H172.541C172.541 22.22 172.757 21.38 173.189 20.828C173.621 20.276 174.197 20 174.917 20H176.321V17.012C176.321 16.028 176.681 15.332 177.401 14.924C178.121 14.492 179.213 14.276 180.677 14.276V20H185.465C185.465 21.2 185.237 22.064 184.781 22.592C184.325 23.096 183.593 23.348 182.585 23.348H180.749V32.096C180.749 32.936 180.905 33.536 181.217 33.896C181.553 34.256 182.117 34.436 182.909 34.436C183.749 34.436 184.589 34.208 185.429 33.752C185.669 33.968 185.861 34.244 186.005 34.58C186.149 34.892 186.221 35.216 186.221 35.552C186.221 36.272 185.849 36.92 185.105 37.496C184.361 38.048 183.317 38.324 181.973 38.324ZM196.511 38.324C195.023 38.324 193.667 38.036 192.443 37.46C191.219 36.86 190.247 36.056 189.527 35.048C188.807 34.016 188.447 32.864 188.447 31.592V26.804C188.447 25.46 188.819 24.248 189.563 23.168C190.307 22.088 191.291 21.236 192.515 20.612C193.763 19.988 195.107 19.676 196.547 19.676C197.963 19.676 199.259 19.976 200.435 20.576C201.635 21.152 202.583 21.968 203.279 23.024C203.975 24.056 204.323 25.244 204.323 26.588V28.604C204.323 29.132 204.119 29.576 203.711 29.936C203.327 30.296 202.835 30.476 202.235 30.476H192.803V31.268C192.803 32.3 193.115 33.14 193.739 33.788C194.363 34.436 195.299 34.76 196.547 34.76C197.747 34.76 198.635 34.496 199.211 33.968C199.811 33.44 200.111 32.756 200.111 31.916C200.543 31.868 200.843 31.844 201.011 31.844C201.899 31.844 202.595 32.048 203.099 32.456C203.603 32.84 203.855 33.392 203.855 34.112C203.855 34.808 203.531 35.48 202.883 36.128C202.235 36.776 201.347 37.304 200.219 37.712C199.091 38.12 197.855 38.324 196.511 38.324ZM200.255 27.272V26.588C200.255 25.58 199.907 24.764 199.211 24.14C198.515 23.516 197.615 23.204 196.511 23.204C195.407 23.204 194.507 23.516 193.811 24.14C193.139 24.74 192.803 25.556 192.803 26.588V27.272H200.255Z"
        fill="#777777"/>
  <path d="M214 27.4492H1151.01" stroke="#CBCBCB"/>
</svg>
