<svg width="102" height="20" viewBox="0 0 102 20" fill="none" xmlns="http://www.w3.org/2000/svg">
  <path d="M6.4 15.18C5.28 15.18 4.30667 15.02 3.48 14.7C2.66667 14.38 2.04667 13.9533 1.62 13.42C1.19333 12.8867 0.98 12.3133 0.98 11.7C0.98 11.1933 1.11333 10.8067 1.38 10.54C1.64667 10.26 2.05333 10.12 2.6 10.12C2.6 11.2533 2.94 12.12 3.62 12.72C4.3 13.3067 5.25333 13.6 6.48 13.6C7.65333 13.6 8.55333 13.4067 9.18 13.02C9.80667 12.62 10.12 12.0333 10.12 11.26C10.12 10.7933 10 10.4133 9.76 10.12C9.53333 9.81333 9.14 9.55333 8.58 9.34C8.03333 9.11333 7.24 8.88667 6.2 8.66C4.97333 8.39333 4 8.08667 3.28 7.74C2.56 7.38 2.03333 6.94667 1.7 6.44C1.36667 5.93333 1.2 5.30667 1.2 4.56C1.2 3.81333 1.40667 3.16 1.82 2.6C2.24667 2.02667 2.84667 1.58667 3.62 1.28C4.39333 0.973332 5.29333 0.819999 6.32 0.819999C7.29333 0.819999 8.16 0.959999 8.92 1.24C9.69333 1.50667 10.2933 1.89333 10.72 2.4C11.16 2.89333 11.38 3.45333 11.38 4.08C11.38 4.46667 11.2533 4.77333 11 5C10.76 5.21333 10.38 5.32 9.86 5.32C9.71333 4.30667 9.35333 3.56667 8.78 3.1C8.22 2.63333 7.4 2.4 6.32 2.4C5.28 2.4 4.48 2.58667 3.92 2.96C3.36 3.32 3.08 3.83333 3.08 4.5C3.08 4.96667 3.18 5.35333 3.38 5.66C3.59333 5.95333 3.94667 6.20667 4.44 6.42C4.94667 6.63333 5.65333 6.84 6.56 7.04C7.92 7.33333 8.98667 7.66 9.76 8.02C10.5467 8.38 11.1133 8.82 11.46 9.34C11.8067 9.86 11.98 10.5 11.98 11.26C11.98 12.4733 11.4733 13.4333 10.46 14.14C9.44667 14.8333 8.09333 15.18 6.4 15.18ZM22.5911 14.74C22.4844 14.8733 22.3511 14.98 22.1911 15.06C22.0311 15.14 21.8511 15.18 21.6511 15.18C21.4378 15.18 21.2511 15.14 21.0911 15.06C20.9311 14.98 20.7844 14.8333 20.6511 14.62L17.4711 9.64L15.9911 10.96V13.92C15.9911 14.76 15.4178 15.18 14.2711 15.18V2.26C14.2711 1.3 14.8511 0.819999 16.0111 0.819999L15.9911 9.18L20.8311 4.84C21.2178 5.2 21.4111 5.50667 21.4111 5.76C21.4111 5.94667 21.3644 6.1 21.2711 6.22C21.1911 6.32667 21.0311 6.48667 20.7911 6.7L18.5511 8.68L22.5911 14.74ZM25.0753 19.16C24.2486 19.16 23.8153 18.68 23.7753 17.72C24.1753 17.7733 24.462 17.8 24.6353 17.8C25.222 17.8 25.6886 17.6267 26.0353 17.28C26.3953 16.9333 26.762 16.3333 27.1353 15.48L27.5353 14.58L23.5953 4.96C23.6886 4.92 23.8086 4.88667 23.9553 4.86C24.1153 4.83333 24.2486 4.82 24.3553 4.82C24.6353 4.83333 24.8886 4.91333 25.1153 5.06C25.342 5.19333 25.502 5.37333 25.5953 5.6L28.2753 12.44L27.9953 13.24L28.1153 13.3L31.1553 5.6C31.2486 5.36 31.402 5.17333 31.6153 5.04C31.842 4.89333 32.0953 4.82 32.3753 4.82C32.4953 4.82 32.6286 4.83333 32.7753 4.86C32.9353 4.88667 33.0553 4.92 33.1353 4.96L28.6353 15.98C28.1953 17.0467 27.702 17.84 27.1553 18.36C26.6086 18.8933 25.9153 19.16 25.0753 19.16ZM34.7398 6.3C34.7398 5.31333 35.2998 4.82 36.4198 4.82V6.1C36.2998 6.22 36.1598 6.4 35.9998 6.64L36.0798 6.72C36.4798 6.16 36.9998 5.70667 37.6398 5.36C38.2798 5 38.9732 4.82 39.7198 4.82C40.7998 4.82 41.6532 5.14 42.2798 5.78C42.9065 6.42 43.2198 7.24667 43.2198 8.26V13.9C43.2198 14.34 43.0732 14.6667 42.7798 14.88C42.4998 15.08 42.0665 15.18 41.4798 15.18V8.44C41.4798 7.8 41.2998 7.29333 40.9398 6.92C40.5798 6.54667 40.0332 6.36 39.2998 6.36C38.8065 6.36 38.3398 6.46667 37.8998 6.68C37.4732 6.88 37.1265 7.16 36.8598 7.52C36.6065 7.86667 36.4798 8.24667 36.4798 8.66V13.9C36.4798 14.34 36.3332 14.6667 36.0398 14.88C35.7598 15.08 35.3265 15.18 34.7398 15.18V6.3ZM49.8341 15.18C49.0207 15.18 48.2941 15.0267 47.6541 14.72C47.0141 14.4 46.5141 13.9667 46.1541 13.42C45.7941 12.86 45.6141 12.2333 45.6141 11.54V8.58C45.6141 7.87333 45.8007 7.23333 46.1741 6.66C46.5607 6.08667 47.0741 5.64 47.7141 5.32C48.3674 4.98667 49.0741 4.82 49.8341 4.82C50.5941 4.82 51.2874 4.98 51.9141 5.3C52.5541 5.62 53.0541 6.06 53.4141 6.62C53.7874 7.18 53.9741 7.81333 53.9741 8.52V9.8C53.9741 10.0133 53.8941 10.1933 53.7341 10.34C53.5741 10.4867 53.3807 10.56 53.1541 10.56H47.3141V11.46C47.3141 12.14 47.5274 12.6867 47.9541 13.1C48.3941 13.5133 49.0207 13.72 49.8341 13.72C50.6474 13.72 51.2674 13.54 51.6941 13.18C52.1207 12.82 52.3341 12.3333 52.3341 11.72C52.7341 11.6933 53.0674 11.7733 53.3341 11.96C53.6141 12.1333 53.7541 12.3933 53.7541 12.74C53.7541 13.1667 53.5674 13.5667 53.1941 13.94C52.8341 14.3133 52.3541 14.6133 51.7541 14.84C51.1541 15.0667 50.5141 15.18 49.8341 15.18ZM52.3541 9.2V8.52C52.3541 7.85333 52.1207 7.31333 51.6541 6.9C51.2007 6.47333 50.5941 6.26 49.8341 6.26C49.0741 6.26 48.4607 6.47333 47.9941 6.9C47.5407 7.31333 47.3141 7.85333 47.3141 8.52V9.2H52.3541ZM59.755 15.18C58.8083 15.18 58.1017 14.9133 57.635 14.38C57.1683 13.8333 56.935 13.12 56.935 12.24V6.4H55.075C55.075 5.94667 55.175 5.6 55.375 5.36C55.575 5.12 55.8483 5 56.195 5H56.955V3.1C56.955 2.66 57.095 2.34 57.375 2.14C57.6683 1.92667 58.1017 1.82 58.675 1.82V5H61.335C61.335 5.93333 60.915 6.4 60.075 6.4H58.695V12.18C58.695 12.7133 58.7883 13.0933 58.975 13.32C59.175 13.5333 59.5283 13.64 60.035 13.64C60.5017 13.64 60.9417 13.52 61.355 13.28C61.5283 13.4533 61.615 13.6867 61.615 13.98C61.615 14.3 61.4483 14.58 61.115 14.82C60.7817 15.06 60.3283 15.18 59.755 15.18ZM73.1005 15.18C72.9005 15.18 72.7205 15.1267 72.5605 15.02C72.4005 14.9133 72.2871 14.78 72.2205 14.62L68.3805 4.96C68.4605 4.92 68.5738 4.88667 68.7205 4.86C68.8671 4.83333 69.0005 4.82 69.1205 4.82C69.4138 4.82 69.6738 4.88667 69.9005 5.02C70.1271 5.15333 70.2805 5.34667 70.3605 5.6L73.0005 12.78L72.7205 13.58L72.8205 13.62L75.8205 5.6C75.9005 5.34667 76.0538 5.15333 76.2805 5.02C76.5071 4.88667 76.7605 4.82 77.0405 4.82C77.1605 4.82 77.2938 4.83333 77.4405 4.86C77.5871 4.88667 77.7071 4.92 77.8005 4.96L73.9605 14.62C73.8938 14.78 73.7805 14.9133 73.6205 15.02C73.4738 15.1267 73.3005 15.18 73.1005 15.18ZM81.9914 2.64H80.8114C80.3581 2.64 80.0047 2.49333 79.7514 2.2C79.5114 1.90667 79.3914 1.50667 79.3914 0.999999H82.9914C83.2447 0.999999 83.4514 1.08667 83.6114 1.26C83.7847 1.42 83.8714 1.61333 83.8714 1.84V13.62C83.8714 14.1267 83.7114 14.5133 83.3914 14.78C83.0714 15.0467 82.6047 15.18 81.9914 15.18V2.64ZM87.4934 15.18C87.1201 15.18 86.8068 15.06 86.5534 14.82C86.3001 14.5667 86.1734 14.2533 86.1734 13.88C86.1734 13.5067 86.3001 13.1933 86.5534 12.94C86.8068 12.6867 87.1201 12.56 87.4934 12.56C87.8534 12.56 88.1668 12.6933 88.4334 12.96C88.7001 13.2133 88.8334 13.52 88.8334 13.88C88.8334 14.24 88.7001 14.5467 88.4334 14.8C88.1668 15.0533 87.8534 15.18 87.4934 15.18ZM96.2866 15.18C95.3132 15.18 94.4132 14.9933 93.5866 14.62C92.7732 14.2333 92.1266 13.72 91.6466 13.08C91.1666 12.4267 90.9266 11.7067 90.9266 10.92V5.08C90.9266 4.29333 91.1599 3.58 91.6266 2.94C92.1066 2.28667 92.7532 1.77333 93.5666 1.4C94.3932 1.01333 95.2999 0.819999 96.2866 0.819999C97.2732 0.819999 98.1732 1.01333 98.9866 1.4C99.8132 1.77333 100.46 2.28667 100.927 2.94C101.407 3.58 101.647 4.29333 101.647 5.08V10.92C101.647 11.7067 101.407 12.4267 100.927 13.08C100.447 13.72 99.7932 14.2333 98.9666 14.62C98.1532 14.9933 97.2599 15.18 96.2866 15.18ZM96.2866 13.5C97.3132 13.5 98.1466 13.26 98.7866 12.78C99.4399 12.2867 99.7666 11.6533 99.7666 10.88V5.12C99.7666 4.34667 99.4399 3.72 98.7866 3.24C98.1466 2.74667 97.3132 2.5 96.2866 2.5C95.2599 2.5 94.4199 2.74667 93.7666 3.24C93.1266 3.72 92.8066 4.34667 92.8066 5.12V10.88C92.8066 11.6533 93.1266 12.2867 93.7666 12.78C94.4199 13.26 95.2599 13.5 96.2866 13.5Z"
        fill="#8C8C8C"/>
</svg>
