<svg width="1159" height="47" viewBox="0 0 1159 47" fill="none" xmlns="http://www.w3.org/2000/svg">
  <path d="M4.536 38C3.864 38 3.288 37.796 2.808 37.388C2.352 36.956 2.124 36.428 2.124 35.804V14.996C2.124 14.372 2.352 13.856 2.808 13.448C3.264 13.016 3.84 12.8 4.536 12.8H12.528C14.664 12.8 16.548 13.208 18.18 14.024C19.836 14.84 21.108 15.992 21.996 17.48C22.908 18.944 23.364 20.624 23.364 22.52V28.208C23.364 30.104 22.908 31.796 21.996 33.284C21.084 34.772 19.8 35.936 18.144 36.776C16.512 37.592 14.64 38 12.528 38H4.536ZM12.168 33.86C14.256 33.86 15.84 33.392 16.92 32.456C18 31.496 18.54 30.092 18.54 28.244V22.448C18.54 20.648 18 19.28 16.92 18.344C15.84 17.408 14.256 16.94 12.168 16.94H6.948V33.86H12.168ZM32.7445 38.324C31.5205 38.324 30.3925 38.084 29.3605 37.604C28.3525 37.124 27.5365 36.44 26.9125 35.552C26.3125 34.64 26.0125 33.56 26.0125 32.312C26.0125 31.064 26.3365 29.984 26.9845 29.072C27.6325 28.136 28.5085 27.428 29.6125 26.948C30.7405 26.444 31.9765 26.192 33.3205 26.192C34.4245 26.192 35.4085 26.372 36.2725 26.732C37.1605 27.068 37.9765 27.584 38.7205 28.28L38.9005 28.1C38.6845 27.884 38.3125 27.56 37.7845 27.128V26.408C37.7845 25.424 37.4365 24.644 36.7405 24.068C36.0445 23.492 35.0725 23.204 33.8245 23.204C31.5925 23.204 29.9485 24.02 28.8925 25.652C28.3645 25.484 27.9205 25.22 27.5605 24.86C27.2005 24.476 27.0205 24.068 27.0205 23.636C27.0205 22.916 27.3445 22.256 27.9925 21.656C28.6405 21.056 29.5165 20.576 30.6205 20.216C31.7245 19.856 32.9245 19.676 34.2205 19.676C36.7645 19.676 38.7325 20.276 40.1245 21.476C41.5165 22.652 42.2125 24.26 42.2125 26.3V35.3C42.2125 36.356 41.8765 37.124 41.2045 37.604C40.5325 38.084 39.4765 38.324 38.0365 38.324V36.848C38.4445 36.44 38.7205 36.14 38.8645 35.948L38.7205 35.768C37.9285 36.608 37.0765 37.244 36.1645 37.676C35.2765 38.108 34.1365 38.324 32.7445 38.324ZM33.8965 35.048C35.1445 35.048 36.1165 34.808 36.8125 34.328C37.5085 33.848 37.8565 33.164 37.8565 32.276C37.8565 31.412 37.4965 30.728 36.7765 30.224C36.0805 29.72 35.1325 29.468 33.9325 29.468C32.8285 29.468 31.9525 29.72 31.3045 30.224C30.6805 30.704 30.3685 31.388 30.3685 32.276C30.3685 33.188 30.6805 33.884 31.3045 34.364C31.9285 34.82 32.7925 35.048 33.8965 35.048ZM53.0258 38.324C50.7218 38.324 48.8618 37.916 47.4458 37.1C46.0538 36.26 45.3458 35.144 45.3218 33.752C45.3218 33.152 45.5618 32.648 46.0418 32.24C46.5458 31.832 47.3378 31.616 48.4178 31.592C48.6338 32.648 49.1378 33.464 49.9298 34.04C50.7218 34.592 51.6818 34.868 52.8098 34.868C54.0338 34.868 54.9938 34.712 55.6898 34.4C56.3858 34.088 56.7338 33.62 56.7338 32.996C56.7338 32.42 56.4458 31.94 55.8698 31.556C55.3178 31.172 54.2138 30.788 52.5578 30.404C50.7578 29.972 49.3538 29.54 48.3457 29.108C47.3618 28.676 46.6298 28.124 46.1498 27.452C45.6698 26.78 45.4298 25.892 45.4298 24.788C45.4298 23.252 46.0778 22.016 47.3738 21.08C48.6698 20.144 50.4458 19.676 52.7018 19.676C54.8858 19.676 56.6978 20.072 58.1378 20.864C59.5778 21.632 60.2978 22.664 60.2978 23.96C60.2978 24.608 60.0578 25.088 59.5778 25.4C59.0978 25.712 58.3058 25.88 57.2018 25.904C56.9618 24.944 56.5058 24.224 55.8338 23.744C55.1618 23.264 54.2138 23.024 52.9898 23.024C52.0778 23.024 51.2858 23.18 50.6138 23.492C49.9658 23.804 49.6418 24.212 49.6418 24.716C49.6418 25.244 49.9178 25.652 50.4698 25.94C51.0218 26.228 51.9818 26.516 53.3498 26.804C56.0378 27.38 57.9818 28.148 59.1818 29.108C60.4058 30.068 61.0178 31.376 61.0178 33.032C61.0178 34.64 60.2978 35.924 58.8578 36.884C57.4418 37.844 55.4978 38.324 53.0258 38.324ZM64.2451 15.932C64.2451 14.828 64.6291 13.976 65.3971 13.376C66.1651 12.776 67.2691 12.476 68.7091 12.476V21.836C68.3971 22.172 68.1091 22.556 67.8451 22.988L68.0611 23.132C69.7171 20.828 71.8291 19.676 74.3971 19.676C75.6211 19.676 76.7011 19.952 77.6371 20.504C78.5731 21.056 79.2931 21.812 79.7971 22.772C80.3251 23.732 80.5891 24.812 80.5891 26.012V35.588C80.5891 36.548 80.2171 37.244 79.4731 37.676C78.7291 38.108 77.6011 38.324 76.0891 38.324V26.66C76.0891 25.748 75.8131 25.004 75.2611 24.428C74.7331 23.852 73.9531 23.564 72.9211 23.564C71.6971 23.564 70.6891 23.948 69.8971 24.716C69.1051 25.46 68.7091 26.396 68.7091 27.524V35.588C68.7091 36.548 68.3371 37.244 67.5931 37.676C66.8491 38.108 65.7331 38.324 64.2451 38.324V15.932ZM84.4599 15.5C84.4599 14.54 84.8319 13.796 85.5759 13.268C86.3439 12.74 87.4839 12.476 88.9959 12.476V20.828C88.6599 21.092 88.3959 21.332 88.2039 21.548L88.3479 21.728C88.9959 21.104 89.8359 20.612 90.8679 20.252C91.9239 19.868 92.8959 19.676 93.7839 19.676C95.9199 19.676 97.6239 20.276 98.8959 21.476C100.168 22.652 100.804 24.2 100.804 26.12V31.844C100.804 33.092 100.492 34.208 99.8679 35.192C99.2439 36.176 98.4039 36.944 97.3479 37.496C96.2919 38.048 95.1639 38.324 93.9639 38.324C92.6919 38.324 91.5759 38.072 90.6159 37.568C89.6799 37.04 88.8279 36.272 88.0599 35.264L87.9159 35.408C88.0119 35.576 88.1319 35.744 88.2759 35.912C88.4199 36.08 88.5279 36.212 88.5999 36.308C88.5999 36.98 88.2759 37.484 87.6279 37.82C86.9799 38.156 85.9239 38.324 84.4599 38.324V15.5ZM92.6319 34.436C93.8319 34.436 94.7439 34.196 95.3679 33.716C96.0159 33.212 96.3399 32.48 96.3399 31.52V26.408C96.3399 25.496 96.0159 24.8 95.3679 24.32C94.7199 23.816 93.8079 23.564 92.6319 23.564C91.5759 23.564 90.6879 23.828 89.9679 24.356C89.2719 24.884 88.9239 25.52 88.9239 26.264V31.7C88.9239 32.492 89.2719 33.152 89.9679 33.68C90.6639 34.184 91.5519 34.436 92.6319 34.436ZM111.496 38.324C109.936 38.324 108.52 38.048 107.248 37.496C106 36.92 105.016 36.128 104.296 35.12C103.576 34.112 103.216 32.972 103.216 31.7V26.624C103.216 25.328 103.564 24.152 104.26 23.096C104.98 22.04 105.964 21.212 107.212 20.612C108.46 19.988 109.888 19.676 111.496 19.676C113.104 19.676 114.532 19.988 115.78 20.612C117.052 21.212 118.036 22.04 118.732 23.096C119.452 24.152 119.812 25.328 119.812 26.624V31.7C119.812 32.972 119.44 34.112 118.696 35.12C117.976 36.128 116.98 36.92 115.708 37.496C114.46 38.048 113.056 38.324 111.496 38.324ZM111.496 34.472C112.696 34.472 113.632 34.196 114.304 33.644C115 33.092 115.348 32.348 115.348 31.412V26.84C115.348 25.856 115 25.064 114.304 24.464C113.632 23.84 112.696 23.528 111.496 23.528C110.32 23.528 109.384 23.84 108.688 24.464C107.992 25.064 107.644 25.856 107.644 26.84V31.412C107.644 32.348 107.992 33.092 108.688 33.644C109.384 34.196 110.32 34.472 111.496 34.472ZM128.229 38.324C127.005 38.324 125.877 38.084 124.845 37.604C123.837 37.124 123.021 36.44 122.397 35.552C121.797 34.64 121.497 33.56 121.497 32.312C121.497 31.064 121.821 29.984 122.469 29.072C123.117 28.136 123.993 27.428 125.097 26.948C126.225 26.444 127.461 26.192 128.805 26.192C129.909 26.192 130.893 26.372 131.757 26.732C132.645 27.068 133.461 27.584 134.205 28.28L134.385 28.1C134.169 27.884 133.797 27.56 133.269 27.128V26.408C133.269 25.424 132.921 24.644 132.225 24.068C131.529 23.492 130.557 23.204 129.309 23.204C127.077 23.204 125.433 24.02 124.377 25.652C123.849 25.484 123.405 25.22 123.045 24.86C122.685 24.476 122.505 24.068 122.505 23.636C122.505 22.916 122.829 22.256 123.477 21.656C124.125 21.056 125.001 20.576 126.105 20.216C127.209 19.856 128.409 19.676 129.705 19.676C132.249 19.676 134.217 20.276 135.609 21.476C137.001 22.652 137.697 24.26 137.697 26.3V35.3C137.697 36.356 137.361 37.124 136.689 37.604C136.017 38.084 134.961 38.324 133.521 38.324V36.848C133.929 36.44 134.205 36.14 134.349 35.948L134.205 35.768C133.413 36.608 132.561 37.244 131.649 37.676C130.761 38.108 129.621 38.324 128.229 38.324ZM129.381 35.048C130.629 35.048 131.601 34.808 132.297 34.328C132.993 33.848 133.341 33.164 133.341 32.276C133.341 31.412 132.981 30.728 132.261 30.224C131.565 29.72 130.617 29.468 129.417 29.468C128.313 29.468 127.437 29.72 126.789 30.224C126.165 30.704 125.853 31.388 125.853 32.276C125.853 33.188 126.165 33.884 126.789 34.364C127.413 34.82 128.277 35.048 129.381 35.048ZM150.981 23.564C149.565 23.564 148.413 23.948 147.525 24.716C146.637 25.46 146.193 26.396 146.193 27.524V35.588C146.193 36.548 145.833 37.244 145.113 37.676C144.393 38.108 143.265 38.324 141.729 38.324V23.132C141.729 22.028 142.077 21.176 142.773 20.576C143.493 19.976 144.573 19.676 146.013 19.676V21.8C145.653 22.208 145.365 22.604 145.149 22.988L145.365 23.132C146.877 20.828 148.773 19.676 151.053 19.676C152.085 19.676 152.865 19.952 153.393 20.504C153.921 21.032 154.185 21.704 154.185 22.52C154.185 23.144 154.017 23.672 153.681 24.104C153.033 23.744 152.133 23.564 150.981 23.564ZM162.275 38.324C160.979 38.324 159.815 38.048 158.783 37.496C157.751 36.944 156.935 36.188 156.335 35.228C155.735 34.244 155.435 33.116 155.435 31.844V26.156C155.435 24.908 155.747 23.792 156.371 22.808C156.995 21.824 157.859 21.056 158.963 20.504C160.091 19.952 161.339 19.676 162.707 19.676C163.595 19.676 164.507 19.868 165.443 20.252C166.403 20.612 167.207 21.104 167.855 21.728L167.999 21.548C167.879 21.356 167.615 21.116 167.207 20.828V15.5C167.207 14.54 167.579 13.796 168.323 13.268C169.091 12.74 170.243 12.476 171.779 12.476V35.228C171.779 36.116 171.443 36.86 170.771 37.46C170.099 38.036 169.055 38.324 167.639 38.324V36.344C167.951 35.96 168.179 35.648 168.323 35.408L168.143 35.264C167.399 36.272 166.571 37.04 165.659 37.568C164.771 38.072 163.643 38.324 162.275 38.324ZM163.607 34.436C164.687 34.436 165.563 34.184 166.235 33.68C166.931 33.152 167.279 32.492 167.279 31.7V26.264C167.279 25.496 166.931 24.86 166.235 24.356C165.563 23.828 164.675 23.564 163.571 23.564C162.395 23.564 161.483 23.816 160.835 24.32C160.211 24.8 159.899 25.496 159.899 26.408V31.52C159.899 32.48 160.211 33.212 160.835 33.716C161.483 34.196 162.407 34.436 163.607 34.436Z"
        fill="#777777"/>
  <line x1="192.997" y1="25.9062" x2="1158" y2="25.9062" stroke="#CBCBCB"/>
</svg>
