<svg width="1152" height="47" viewBox="0 0 1152 47" fill="none" xmlns="http://www.w3.org/2000/svg">
  <path d="M4.536 38C3.864 38 3.288 37.796 2.808 37.388C2.352 36.956 2.124 36.428 2.124 35.804V14.996C2.124 14.372 2.352 13.856 2.808 13.448C3.264 13.016 3.84 12.8 4.536 12.8H12.528C14.664 12.8 16.548 13.208 18.18 14.024C19.836 14.84 21.108 15.992 21.996 17.48C22.908 18.944 23.364 20.624 23.364 22.52V28.208C23.364 30.104 22.908 31.796 21.996 33.284C21.084 34.772 19.8 35.936 18.144 36.776C16.512 37.592 14.64 38 12.528 38H4.536ZM12.168 33.86C14.256 33.86 15.84 33.392 16.92 32.456C18 31.496 18.54 30.092 18.54 28.244V22.448C18.54 20.648 18 19.28 16.92 18.344C15.84 17.408 14.256 16.94 12.168 16.94H6.948V33.86H12.168ZM34.8275 38.324C33.3395 38.324 31.9835 38.036 30.7595 37.46C29.5355 36.86 28.5635 36.056 27.8435 35.048C27.1235 34.016 26.7635 32.864 26.7635 31.592V26.804C26.7635 25.46 27.1355 24.248 27.8795 23.168C28.6235 22.088 29.6075 21.236 30.8315 20.612C32.0795 19.988 33.4235 19.676 34.8635 19.676C36.2795 19.676 37.5755 19.976 38.7515 20.576C39.9515 21.152 40.8995 21.968 41.5955 23.024C42.2915 24.056 42.6395 25.244 42.6395 26.588V28.604C42.6395 29.132 42.4355 29.576 42.0275 29.936C41.6435 30.296 41.1515 30.476 40.5515 30.476H31.1195V31.268C31.1195 32.3 31.4315 33.14 32.0555 33.788C32.6795 34.436 33.6155 34.76 34.8635 34.76C36.0635 34.76 36.9515 34.496 37.5275 33.968C38.1275 33.44 38.4275 32.756 38.4275 31.916C38.8595 31.868 39.1595 31.844 39.3275 31.844C40.2155 31.844 40.9115 32.048 41.4155 32.456C41.9195 32.84 42.1715 33.392 42.1715 34.112C42.1715 34.808 41.8475 35.48 41.1995 36.128C40.5515 36.776 39.6635 37.304 38.5355 37.712C37.4075 38.12 36.1715 38.324 34.8275 38.324ZM38.5715 27.272V26.588C38.5715 25.58 38.2235 24.764 37.5275 24.14C36.8315 23.516 35.9315 23.204 34.8275 23.204C33.7235 23.204 32.8235 23.516 32.1275 24.14C31.4555 24.74 31.1195 25.556 31.1195 26.588V27.272H38.5715ZM53.4772 38.324C51.5332 38.324 50.0932 37.76 49.1572 36.632C48.2212 35.504 47.7532 34.052 47.7532 32.276V23.348H44.0452C44.0452 22.22 44.2612 21.38 44.6932 20.828C45.1252 20.276 45.7012 20 46.4212 20H47.8252V17.012C47.8252 16.028 48.1852 15.332 48.9052 14.924C49.6252 14.492 50.7172 14.276 52.1812 14.276V20H56.9692C56.9692 21.2 56.7412 22.064 56.2852 22.592C55.8292 23.096 55.0972 23.348 54.0892 23.348H52.2532V32.096C52.2532 32.936 52.4092 33.536 52.7212 33.896C53.0572 34.256 53.6212 34.436 54.4132 34.436C55.2532 34.436 56.0932 34.208 56.9332 33.752C57.1732 33.968 57.3652 34.244 57.5092 34.58C57.6532 34.892 57.7252 35.216 57.7252 35.552C57.7252 36.272 57.3532 36.92 56.6092 37.496C55.8652 38.048 54.8212 38.324 53.4772 38.324ZM66.0023 38.324C64.7783 38.324 63.6503 38.084 62.6183 37.604C61.6103 37.124 60.7943 36.44 60.1703 35.552C59.5703 34.64 59.2703 33.56 59.2703 32.312C59.2703 31.064 59.5943 29.984 60.2423 29.072C60.8903 28.136 61.7663 27.428 62.8703 26.948C63.9983 26.444 65.2343 26.192 66.5783 26.192C67.6823 26.192 68.6663 26.372 69.5303 26.732C70.4183 27.068 71.2343 27.584 71.9783 28.28L72.1583 28.1C71.9423 27.884 71.5703 27.56 71.0423 27.128V26.408C71.0423 25.424 70.6943 24.644 69.9983 24.068C69.3023 23.492 68.3303 23.204 67.0823 23.204C64.8503 23.204 63.2063 24.02 62.1503 25.652C61.6223 25.484 61.1783 25.22 60.8183 24.86C60.4583 24.476 60.2783 24.068 60.2783 23.636C60.2783 22.916 60.6023 22.256 61.2503 21.656C61.8983 21.056 62.7743 20.576 63.8783 20.216C64.9823 19.856 66.1823 19.676 67.4783 19.676C70.0223 19.676 71.9903 20.276 73.3823 21.476C74.7743 22.652 75.4703 24.26 75.4703 26.3V35.3C75.4703 36.356 75.1343 37.124 74.4623 37.604C73.7903 38.084 72.7343 38.324 71.2943 38.324V36.848C71.7023 36.44 71.9783 36.14 72.1223 35.948L71.9783 35.768C71.1863 36.608 70.3343 37.244 69.4223 37.676C68.5343 38.108 67.3943 38.324 66.0023 38.324ZM67.1543 35.048C68.4023 35.048 69.3743 34.808 70.0703 34.328C70.7663 33.848 71.1143 33.164 71.1143 32.276C71.1143 31.412 70.7543 30.728 70.0343 30.224C69.3383 29.72 68.3903 29.468 67.1903 29.468C66.0863 29.468 65.2103 29.72 64.5623 30.224C63.9383 30.704 63.6263 31.388 63.6263 32.276C63.6263 33.188 63.9383 33.884 64.5623 34.364C65.1863 34.82 66.0503 35.048 67.1543 35.048ZM85.4069 38.324C83.4149 38.324 81.9029 37.76 80.8709 36.632C79.8629 35.48 79.3589 34.028 79.3589 32.276V15.212C79.3589 14.228 79.7189 13.532 80.4389 13.124C81.1829 12.692 82.3229 12.476 83.8589 12.476V32.096C83.8589 32.912 84.0389 33.512 84.3989 33.896C84.7589 34.256 85.3349 34.436 86.1269 34.436C87.0149 34.436 87.9029 34.208 88.7909 33.752C89.0309 33.968 89.2109 34.244 89.3309 34.58C89.4749 34.892 89.5469 35.216 89.5469 35.552C89.5469 36.272 89.1869 36.92 88.4669 37.496C87.7469 38.048 86.7269 38.324 85.4069 38.324ZM97.6413 38.324C95.6493 38.324 94.1373 37.76 93.1053 36.632C92.0973 35.48 91.5933 34.028 91.5933 32.276V15.212C91.5933 14.228 91.9533 13.532 92.6733 13.124C93.4173 12.692 94.5573 12.476 96.0933 12.476V32.096C96.0933 32.912 96.2733 33.512 96.6333 33.896C96.9933 34.256 97.5693 34.436 98.3613 34.436C99.2493 34.436 100.137 34.208 101.025 33.752C101.265 33.968 101.445 34.244 101.565 34.58C101.709 34.892 101.781 35.216 101.781 35.552C101.781 36.272 101.421 36.92 100.701 37.496C99.9813 38.048 98.9613 38.324 97.6413 38.324ZM111.82 38.324C110.332 38.324 108.976 38.036 107.752 37.46C106.528 36.86 105.556 36.056 104.836 35.048C104.116 34.016 103.756 32.864 103.756 31.592V26.804C103.756 25.46 104.128 24.248 104.872 23.168C105.616 22.088 106.6 21.236 107.824 20.612C109.072 19.988 110.416 19.676 111.856 19.676C113.272 19.676 114.568 19.976 115.744 20.576C116.944 21.152 117.892 21.968 118.588 23.024C119.284 24.056 119.632 25.244 119.632 26.588V28.604C119.632 29.132 119.428 29.576 119.02 29.936C118.636 30.296 118.144 30.476 117.544 30.476H108.112V31.268C108.112 32.3 108.424 33.14 109.048 33.788C109.672 34.436 110.608 34.76 111.856 34.76C113.056 34.76 113.944 34.496 114.52 33.968C115.12 33.44 115.42 32.756 115.42 31.916C115.852 31.868 116.152 31.844 116.32 31.844C117.208 31.844 117.904 32.048 118.408 32.456C118.912 32.84 119.164 33.392 119.164 34.112C119.164 34.808 118.84 35.48 118.192 36.128C117.544 36.776 116.656 37.304 115.528 37.712C114.4 38.12 113.164 38.324 111.82 38.324ZM115.564 27.272V26.588C115.564 25.58 115.216 24.764 114.52 24.14C113.824 23.516 112.924 23.204 111.82 23.204C110.716 23.204 109.816 23.516 109.12 24.14C108.448 24.74 108.112 25.556 108.112 26.588V27.272H115.564ZM130.405 38.324C128.101 38.324 126.241 37.916 124.825 37.1C123.433 36.26 122.725 35.144 122.701 33.752C122.701 33.152 122.941 32.648 123.421 32.24C123.925 31.832 124.717 31.616 125.797 31.592C126.013 32.648 126.517 33.464 127.309 34.04C128.101 34.592 129.061 34.868 130.189 34.868C131.413 34.868 132.373 34.712 133.069 34.4C133.765 34.088 134.113 33.62 134.113 32.996C134.113 32.42 133.825 31.94 133.249 31.556C132.697 31.172 131.593 30.788 129.937 30.404C128.137 29.972 126.733 29.54 125.725 29.108C124.741 28.676 124.009 28.124 123.529 27.452C123.049 26.78 122.809 25.892 122.809 24.788C122.809 23.252 123.457 22.016 124.753 21.08C126.049 20.144 127.825 19.676 130.081 19.676C132.265 19.676 134.077 20.072 135.517 20.864C136.957 21.632 137.677 22.664 137.677 23.96C137.677 24.608 137.437 25.088 136.957 25.4C136.477 25.712 135.685 25.88 134.581 25.904C134.341 24.944 133.885 24.224 133.213 23.744C132.541 23.264 131.593 23.024 130.369 23.024C129.457 23.024 128.665 23.18 127.993 23.492C127.345 23.804 127.021 24.212 127.021 24.716C127.021 25.244 127.297 25.652 127.849 25.94C128.401 26.228 129.361 26.516 130.729 26.804C133.417 27.38 135.361 28.148 136.561 29.108C137.785 30.068 138.397 31.376 138.397 33.032C138.397 34.64 137.677 35.924 136.237 36.884C134.821 37.844 132.877 38.324 130.405 38.324ZM157.529 38.324C156.233 38.324 155.069 38.048 154.037 37.496C153.005 36.944 152.189 36.188 151.589 35.228C150.989 34.244 150.689 33.116 150.689 31.844V26.156C150.689 24.908 151.001 23.792 151.625 22.808C152.249 21.824 153.113 21.056 154.217 20.504C155.345 19.952 156.593 19.676 157.961 19.676C158.849 19.676 159.761 19.868 160.697 20.252C161.657 20.612 162.461 21.104 163.109 21.728L163.253 21.548C163.133 21.356 162.869 21.116 162.461 20.828V15.5C162.461 14.54 162.833 13.796 163.577 13.268C164.345 12.74 165.497 12.476 167.033 12.476V35.228C167.033 36.116 166.697 36.86 166.025 37.46C165.353 38.036 164.309 38.324 162.893 38.324V36.344C163.205 35.96 163.433 35.648 163.577 35.408L163.397 35.264C162.653 36.272 161.825 37.04 160.913 37.568C160.025 38.072 158.897 38.324 157.529 38.324ZM158.861 34.436C159.941 34.436 160.817 34.184 161.489 33.68C162.185 33.152 162.533 32.492 162.533 31.7V26.264C162.533 25.496 162.185 24.86 161.489 24.356C160.817 23.828 159.929 23.564 158.825 23.564C157.649 23.564 156.737 23.816 156.089 24.32C155.465 24.8 155.153 25.496 155.153 26.408V31.52C155.153 32.48 155.465 33.212 156.089 33.716C156.737 34.196 157.661 34.436 158.861 34.436ZM179.109 38.324C177.621 38.324 176.265 38.036 175.041 37.46C173.817 36.86 172.845 36.056 172.125 35.048C171.405 34.016 171.045 32.864 171.045 31.592V26.804C171.045 25.46 171.417 24.248 172.161 23.168C172.905 22.088 173.889 21.236 175.113 20.612C176.361 19.988 177.705 19.676 179.145 19.676C180.561 19.676 181.857 19.976 183.033 20.576C184.233 21.152 185.181 21.968 185.877 23.024C186.573 24.056 186.921 25.244 186.921 26.588V28.604C186.921 29.132 186.717 29.576 186.309 29.936C185.925 30.296 185.433 30.476 184.833 30.476H175.401V31.268C175.401 32.3 175.713 33.14 176.337 33.788C176.961 34.436 177.897 34.76 179.145 34.76C180.345 34.76 181.233 34.496 181.809 33.968C182.409 33.44 182.709 32.756 182.709 31.916C183.141 31.868 183.441 31.844 183.609 31.844C184.497 31.844 185.193 32.048 185.697 32.456C186.201 32.84 186.453 33.392 186.453 34.112C186.453 34.808 186.129 35.48 185.481 36.128C184.833 36.776 183.945 37.304 182.817 37.712C181.689 38.12 180.453 38.324 179.109 38.324ZM182.853 27.272V26.588C182.853 25.58 182.505 24.764 181.809 24.14C181.113 23.516 180.213 23.204 179.109 23.204C178.005 23.204 177.105 23.516 176.409 24.14C175.737 24.74 175.401 25.556 175.401 26.588V27.272H182.853ZM196.29 38.324C194.298 38.324 192.786 37.76 191.754 36.632C190.746 35.48 190.242 34.028 190.242 32.276V15.212C190.242 14.228 190.602 13.532 191.322 13.124C192.066 12.692 193.206 12.476 194.742 12.476V32.096C194.742 32.912 194.922 33.512 195.282 33.896C195.642 34.256 196.218 34.436 197.01 34.436C197.898 34.436 198.786 34.208 199.674 33.752C199.914 33.968 200.094 34.244 200.214 34.58C200.358 34.892 200.43 35.216 200.43 35.552C200.43 36.272 200.07 36.92 199.35 37.496C198.63 38.048 197.61 38.324 196.29 38.324ZM212.815 22.772C212.815 21.884 213.163 21.152 213.859 20.576C214.555 19.976 215.587 19.676 216.955 19.676V21.62C216.547 22.172 216.319 22.496 216.271 22.592L216.415 22.736C217.183 21.728 218.023 20.972 218.935 20.468C219.871 19.94 221.023 19.676 222.391 19.676C223.711 19.676 224.875 19.952 225.883 20.504C226.915 21.032 227.719 21.788 228.295 22.772C228.871 23.756 229.159 24.884 229.159 26.156V31.844C229.159 33.14 228.835 34.28 228.187 35.264C227.563 36.248 226.699 37.004 225.595 37.532C224.491 38.06 223.243 38.324 221.851 38.324C220.963 38.324 220.039 38.144 219.079 37.784C218.143 37.4 217.351 36.884 216.703 36.236L216.559 36.416C216.727 36.656 216.991 36.908 217.351 37.172V42.5C217.351 44.516 215.839 45.524 212.815 45.524V22.772ZM220.987 34.436C222.163 34.436 223.075 34.184 223.723 33.68C224.371 33.176 224.695 32.468 224.695 31.556V26.444C224.695 25.508 224.371 24.8 223.723 24.32C223.099 23.816 222.187 23.564 220.987 23.564C219.907 23.564 219.019 23.828 218.323 24.356C217.627 24.86 217.279 25.496 217.279 26.264V31.736C217.279 32.48 217.615 33.116 218.287 33.644C218.983 34.172 219.883 34.436 220.987 34.436ZM242.001 23.564C240.585 23.564 239.433 23.948 238.545 24.716C237.657 25.46 237.213 26.396 237.213 27.524V35.588C237.213 36.548 236.853 37.244 236.133 37.676C235.413 38.108 234.285 38.324 232.749 38.324V23.132C232.749 22.028 233.097 21.176 233.793 20.576C234.513 19.976 235.593 19.676 237.033 19.676V21.8C236.673 22.208 236.385 22.604 236.169 22.988L236.385 23.132C237.897 20.828 239.793 19.676 242.073 19.676C243.105 19.676 243.885 19.952 244.413 20.504C244.941 21.032 245.205 21.704 245.205 22.52C245.205 23.144 245.037 23.672 244.701 24.104C244.053 23.744 243.153 23.564 242.001 23.564ZM253.457 38.324C251.897 38.324 250.481 38.048 249.209 37.496C247.961 36.92 246.977 36.128 246.257 35.12C245.537 34.112 245.177 32.972 245.177 31.7V26.624C245.177 25.328 245.525 24.152 246.221 23.096C246.941 22.04 247.925 21.212 249.173 20.612C250.421 19.988 251.849 19.676 253.457 19.676C255.065 19.676 256.493 19.988 257.741 20.612C259.013 21.212 259.997 22.04 260.693 23.096C261.413 24.152 261.773 25.328 261.773 26.624V31.7C261.773 32.972 261.401 34.112 260.657 35.12C259.937 36.128 258.941 36.92 257.669 37.496C256.421 38.048 255.017 38.324 253.457 38.324ZM253.457 34.472C254.657 34.472 255.593 34.196 256.265 33.644C256.961 33.092 257.309 32.348 257.309 31.412V26.84C257.309 25.856 256.961 25.064 256.265 24.464C255.593 23.84 254.657 23.528 253.457 23.528C252.281 23.528 251.345 23.84 250.649 24.464C249.953 25.064 249.605 25.856 249.605 26.84V31.412C249.605 32.348 249.953 33.092 250.649 33.644C251.345 34.196 252.281 34.472 253.457 34.472ZM271.049 38.324C269.753 38.324 268.589 38.048 267.557 37.496C266.525 36.944 265.709 36.188 265.109 35.228C264.509 34.244 264.209 33.116 264.209 31.844V26.156C264.209 24.908 264.521 23.792 265.145 22.808C265.769 21.824 266.633 21.056 267.737 20.504C268.865 19.952 270.113 19.676 271.481 19.676C272.369 19.676 273.281 19.868 274.217 20.252C275.177 20.612 275.981 21.104 276.629 21.728L276.773 21.548C276.653 21.356 276.389 21.116 275.981 20.828V15.5C275.981 14.54 276.353 13.796 277.097 13.268C277.865 12.74 279.017 12.476 280.553 12.476V35.228C280.553 36.116 280.217 36.86 279.545 37.46C278.873 38.036 277.829 38.324 276.413 38.324V36.344C276.725 35.96 276.953 35.648 277.097 35.408L276.917 35.264C276.173 36.272 275.345 37.04 274.433 37.568C273.545 38.072 272.417 38.324 271.049 38.324ZM272.381 34.436C273.461 34.436 274.337 34.184 275.009 33.68C275.705 33.152 276.053 32.492 276.053 31.7V26.264C276.053 25.496 275.705 24.86 275.009 24.356C274.337 23.828 273.449 23.564 272.345 23.564C271.169 23.564 270.257 23.816 269.609 24.32C268.985 24.8 268.673 25.496 268.673 26.408V31.52C268.673 32.48 268.985 33.212 269.609 33.716C270.257 34.196 271.181 34.436 272.381 34.436ZM300.728 34.832C300.728 35.96 300.368 36.824 299.648 37.424C298.952 38.024 297.884 38.324 296.444 38.324V36.164C296.756 35.804 297.044 35.408 297.308 34.976L297.092 34.832C295.556 37.16 293.492 38.324 290.9 38.324C289.676 38.324 288.572 38.048 287.588 37.496C286.628 36.92 285.86 36.128 285.284 35.12C284.732 34.112 284.456 32.972 284.456 31.7V22.412C284.456 21.428 284.816 20.732 285.536 20.324C286.28 19.892 287.408 19.676 288.92 19.676V31.376C288.92 32.312 289.208 33.056 289.784 33.608C290.36 34.16 291.188 34.436 292.268 34.436C293.468 34.436 294.428 34.064 295.148 33.32C295.892 32.552 296.264 31.604 296.264 30.476V22.412C296.264 21.428 296.624 20.732 297.344 20.324C298.064 19.892 299.192 19.676 300.728 19.676V34.832ZM312.7 38.324C311.14 38.324 309.76 38.048 308.56 37.496C307.36 36.92 306.424 36.128 305.752 35.12C305.08 34.112 304.744 32.972 304.744 31.7V26.66C304.744 25.292 305.08 24.08 305.752 23.024C306.424 21.968 307.36 21.152 308.56 20.576C309.76 19.976 311.128 19.676 312.664 19.676C314.104 19.676 315.376 19.88 316.48 20.288C317.608 20.696 318.484 21.272 319.108 22.016C319.732 22.736 320.044 23.576 320.044 24.536C320.044 25.28 319.756 25.88 319.18 26.336C318.604 26.792 317.848 27.02 316.912 27.02C316.648 27.02 316.456 27.008 316.336 26.984C316.336 25.952 316 25.124 315.328 24.5C314.68 23.876 313.828 23.564 312.772 23.564C311.716 23.564 310.852 23.864 310.18 24.464C309.532 25.064 309.208 25.856 309.208 26.84V31.376C309.208 32.288 309.544 33.032 310.216 33.608C310.888 34.16 311.752 34.436 312.808 34.436C313.864 34.436 314.728 34.124 315.4 33.5C316.072 32.852 316.408 32.036 316.408 31.052C316.552 31.028 316.756 31.016 317.02 31.016C317.956 31.016 318.712 31.232 319.288 31.664C319.864 32.096 320.152 32.684 320.152 33.428C320.152 34.388 319.828 35.24 319.18 35.984C318.556 36.704 317.68 37.28 316.552 37.712C315.424 38.12 314.14 38.324 312.7 38.324ZM330.965 38.324C329.021 38.324 327.581 37.76 326.645 36.632C325.709 35.504 325.241 34.052 325.241 32.276V23.348H321.533C321.533 22.22 321.749 21.38 322.181 20.828C322.613 20.276 323.189 20 323.909 20H325.313V17.012C325.313 16.028 325.673 15.332 326.393 14.924C327.113 14.492 328.205 14.276 329.669 14.276V20H334.457C334.457 21.2 334.229 22.064 333.773 22.592C333.317 23.096 332.585 23.348 331.577 23.348H329.741V32.096C329.741 32.936 329.897 33.536 330.209 33.896C330.545 34.256 331.109 34.436 331.901 34.436C332.741 34.436 333.581 34.208 334.421 33.752C334.661 33.968 334.853 34.244 334.997 34.58C335.141 34.892 335.213 35.216 335.213 35.552C335.213 36.272 334.841 36.92 334.097 37.496C333.353 38.048 332.309 38.324 330.965 38.324ZM345.214 38.324C343.654 38.324 342.238 38.048 340.966 37.496C339.718 36.92 338.734 36.128 338.014 35.12C337.294 34.112 336.934 32.972 336.934 31.7V26.624C336.934 25.328 337.282 24.152 337.978 23.096C338.698 22.04 339.682 21.212 340.93 20.612C342.178 19.988 343.606 19.676 345.214 19.676C346.822 19.676 348.25 19.988 349.498 20.612C350.77 21.212 351.754 22.04 352.45 23.096C353.17 24.152 353.53 25.328 353.53 26.624V31.7C353.53 32.972 353.158 34.112 352.414 35.12C351.694 36.128 350.698 36.92 349.426 37.496C348.178 38.048 346.774 38.324 345.214 38.324ZM345.214 34.472C346.414 34.472 347.35 34.196 348.022 33.644C348.718 33.092 349.066 32.348 349.066 31.412V26.84C349.066 25.856 348.718 25.064 348.022 24.464C347.35 23.84 346.414 23.528 345.214 23.528C344.038 23.528 343.102 23.84 342.406 24.464C341.71 25.064 341.362 25.856 341.362 26.84V31.412C341.362 32.348 341.71 33.092 342.406 33.644C343.102 34.196 344.038 34.472 345.214 34.472Z"
        fill="#777777"/>
  <line x1="368.988" y1="27.4492" x2="1151.01" y2="27.4492" stroke="#CBCBCB"/>
</svg>
