<svg width="1156" height="47" viewBox="0 0 1156 47" fill="none" xmlns="http://www.w3.org/2000/svg">
  <path d="M0.124 14.996C0.124 14.396 0.352 13.88 0.808 13.448C1.288 13.016 1.864 12.8 2.536 12.8H18.592C18.592 14.24 18.34 15.296 17.836 15.968C17.356 16.616 16.564 16.94 15.46 16.94H4.948V23.204H14.524C14.524 24.644 14.272 25.7 13.768 26.372C13.288 27.02 12.496 27.344 11.392 27.344H4.948V33.86H16.216C17.296 33.86 18.076 34.196 18.556 34.868C19.06 35.516 19.312 36.56 19.312 38H2.536C1.864 38 1.288 37.796 0.808 37.388C0.352 36.956 0.124 36.428 0.124 35.804V14.996ZM28.5097 38.324C27.2137 38.324 26.0497 38.048 25.0177 37.496C23.9857 36.944 23.1697 36.188 22.5697 35.228C21.9697 34.244 21.6697 33.116 21.6697 31.844V26.156C21.6697 24.908 21.9817 23.792 22.6057 22.808C23.2297 21.824 24.0937 21.056 25.1977 20.504C26.3257 19.952 27.5737 19.676 28.9417 19.676C29.8297 19.676 30.7417 19.868 31.6777 20.252C32.6377 20.612 33.4417 21.104 34.0897 21.728L34.2337 21.548C34.1137 21.356 33.8497 21.116 33.4417 20.828V15.5C33.4417 14.54 33.8137 13.796 34.5577 13.268C35.3257 12.74 36.4777 12.476 38.0137 12.476V35.228C38.0137 36.116 37.6777 36.86 37.0057 37.46C36.3337 38.036 35.2897 38.324 33.8737 38.324V36.344C34.1857 35.96 34.4137 35.648 34.5577 35.408L34.3777 35.264C33.6337 36.272 32.8057 37.04 31.8937 37.568C31.0057 38.072 29.8777 38.324 28.5097 38.324ZM29.8417 34.436C30.9217 34.436 31.7977 34.184 32.4697 33.68C33.1657 33.152 33.5137 32.492 33.5137 31.7V26.264C33.5137 25.496 33.1657 24.86 32.4697 24.356C31.7977 23.828 30.9097 23.564 29.8057 23.564C28.6297 23.564 27.7177 23.816 27.0697 24.32C26.4457 24.8 26.1337 25.496 26.1337 26.408V31.52C26.1337 32.48 26.4457 33.212 27.0697 33.716C27.7177 34.196 28.6417 34.436 29.8417 34.436ZM45.2292 17.984C44.3652 17.984 43.6452 17.732 43.0692 17.228C42.5172 16.7 42.2412 16.028 42.2412 15.212C42.2412 14.42 42.5172 13.772 43.0692 13.268C43.6452 12.74 44.3652 12.476 45.2292 12.476C46.0932 12.476 46.8012 12.74 47.3532 13.268C47.9292 13.772 48.2172 14.42 48.2172 15.212C48.2172 16.028 47.9292 16.7 47.3532 17.228C46.8012 17.732 46.0932 17.984 45.2292 17.984ZM42.9612 22.412C42.9612 21.428 43.3332 20.732 44.0772 20.324C44.8212 19.892 45.9492 19.676 47.4612 19.676V35.588C47.4612 36.548 47.0892 37.244 46.3452 37.676C45.6012 38.108 44.4732 38.324 42.9612 38.324V22.412ZM59.8092 38.324C57.8652 38.324 56.4252 37.76 55.4892 36.632C54.5532 35.504 54.0852 34.052 54.0852 32.276V23.348H50.3772C50.3772 22.22 50.5932 21.38 51.0252 20.828C51.4572 20.276 52.0332 20 52.7532 20H54.1572V17.012C54.1572 16.028 54.5172 15.332 55.2372 14.924C55.9572 14.492 57.0492 14.276 58.5132 14.276V20H63.3012C63.3012 21.2 63.0732 22.064 62.6172 22.592C62.1612 23.096 61.4292 23.348 60.4212 23.348H58.5852V32.096C58.5852 32.936 58.7412 33.536 59.0532 33.896C59.3892 34.256 59.9532 34.436 60.7452 34.436C61.5852 34.436 62.4252 34.208 63.2652 33.752C63.5052 33.968 63.6972 34.244 63.8412 34.58C63.9852 34.892 64.0572 35.216 64.0572 35.552C64.0572 36.272 63.6852 36.92 62.9412 37.496C62.1972 38.048 61.1532 38.324 59.8092 38.324ZM72.3344 38.324C71.1104 38.324 69.9824 38.084 68.9504 37.604C67.9424 37.124 67.1264 36.44 66.5024 35.552C65.9024 34.64 65.6024 33.56 65.6024 32.312C65.6024 31.064 65.9264 29.984 66.5744 29.072C67.2224 28.136 68.0984 27.428 69.2024 26.948C70.3304 26.444 71.5664 26.192 72.9104 26.192C74.0144 26.192 74.9984 26.372 75.8624 26.732C76.7504 27.068 77.5664 27.584 78.3104 28.28L78.4904 28.1C78.2744 27.884 77.9024 27.56 77.3744 27.128V26.408C77.3744 25.424 77.0264 24.644 76.3304 24.068C75.6344 23.492 74.6624 23.204 73.4144 23.204C71.1824 23.204 69.5384 24.02 68.4824 25.652C67.9544 25.484 67.5104 25.22 67.1504 24.86C66.7904 24.476 66.6104 24.068 66.6104 23.636C66.6104 22.916 66.9344 22.256 67.5824 21.656C68.2304 21.056 69.1064 20.576 70.2104 20.216C71.3144 19.856 72.5144 19.676 73.8104 19.676C76.3544 19.676 78.3224 20.276 79.7144 21.476C81.1064 22.652 81.8024 24.26 81.8024 26.3V35.3C81.8024 36.356 81.4664 37.124 80.7944 37.604C80.1224 38.084 79.0664 38.324 77.6264 38.324V36.848C78.0344 36.44 78.3104 36.14 78.4544 35.948L78.3104 35.768C77.5184 36.608 76.6664 37.244 75.7544 37.676C74.8664 38.108 73.7264 38.324 72.3344 38.324ZM73.4864 35.048C74.7344 35.048 75.7064 34.808 76.4024 34.328C77.0984 33.848 77.4464 33.164 77.4464 32.276C77.4464 31.412 77.0864 30.728 76.3664 30.224C75.6704 29.72 74.7224 29.468 73.5224 29.468C72.4184 29.468 71.5424 29.72 70.8944 30.224C70.2704 30.704 69.9584 31.388 69.9584 32.276C69.9584 33.188 70.2704 33.884 70.8944 34.364C71.5184 34.82 72.3824 35.048 73.4864 35.048ZM95.0869 23.564C93.6709 23.564 92.5189 23.948 91.6309 24.716C90.7429 25.46 90.2989 26.396 90.2989 27.524V35.588C90.2989 36.548 89.9389 37.244 89.2189 37.676C88.4989 38.108 87.3709 38.324 85.8349 38.324V23.132C85.8349 22.028 86.1829 21.176 86.8789 20.576C87.5989 19.976 88.6789 19.676 90.1189 19.676V21.8C89.7589 22.208 89.4709 22.604 89.2549 22.988L89.4709 23.132C90.9829 20.828 92.8789 19.676 95.1589 19.676C96.1909 19.676 96.9709 19.952 97.4989 20.504C98.0269 21.032 98.2909 21.704 98.2909 22.52C98.2909 23.144 98.1229 23.672 97.7869 24.104C97.1389 23.744 96.2389 23.564 95.0869 23.564ZM110.655 22.772C110.655 21.884 111.003 21.152 111.699 20.576C112.395 19.976 113.427 19.676 114.795 19.676V21.62C114.387 22.172 114.159 22.496 114.111 22.592L114.255 22.736C115.023 21.728 115.863 20.972 116.775 20.468C117.711 19.94 118.863 19.676 120.231 19.676C121.551 19.676 122.715 19.952 123.723 20.504C124.755 21.032 125.559 21.788 126.135 22.772C126.711 23.756 126.999 24.884 126.999 26.156V31.844C126.999 33.14 126.675 34.28 126.027 35.264C125.403 36.248 124.539 37.004 123.435 37.532C122.331 38.06 121.083 38.324 119.691 38.324C118.803 38.324 117.879 38.144 116.919 37.784C115.983 37.4 115.191 36.884 114.543 36.236L114.399 36.416C114.567 36.656 114.831 36.908 115.191 37.172V42.5C115.191 44.516 113.679 45.524 110.655 45.524V22.772ZM118.827 34.436C120.003 34.436 120.915 34.184 121.563 33.68C122.211 33.176 122.535 32.468 122.535 31.556V26.444C122.535 25.508 122.211 24.8 121.563 24.32C120.939 23.816 120.027 23.564 118.827 23.564C117.747 23.564 116.859 23.828 116.163 24.356C115.467 24.86 115.119 25.496 115.119 26.264V31.736C115.119 32.48 115.455 33.116 116.127 33.644C116.823 34.172 117.723 34.436 118.827 34.436ZM139.841 23.564C138.425 23.564 137.273 23.948 136.385 24.716C135.497 25.46 135.053 26.396 135.053 27.524V35.588C135.053 36.548 134.693 37.244 133.973 37.676C133.253 38.108 132.125 38.324 130.589 38.324V23.132C130.589 22.028 130.937 21.176 131.633 20.576C132.353 19.976 133.433 19.676 134.873 19.676V21.8C134.513 22.208 134.225 22.604 134.009 22.988L134.225 23.132C135.737 20.828 137.633 19.676 139.913 19.676C140.945 19.676 141.725 19.952 142.253 20.504C142.781 21.032 143.045 21.704 143.045 22.52C143.045 23.144 142.877 23.672 142.541 24.104C141.893 23.744 140.993 23.564 139.841 23.564ZM151.296 38.324C149.736 38.324 148.32 38.048 147.048 37.496C145.8 36.92 144.816 36.128 144.096 35.12C143.376 34.112 143.016 32.972 143.016 31.7V26.624C143.016 25.328 143.364 24.152 144.06 23.096C144.78 22.04 145.764 21.212 147.012 20.612C148.26 19.988 149.688 19.676 151.296 19.676C152.904 19.676 154.332 19.988 155.58 20.612C156.852 21.212 157.836 22.04 158.532 23.096C159.252 24.152 159.612 25.328 159.612 26.624V31.7C159.612 32.972 159.24 34.112 158.496 35.12C157.776 36.128 156.78 36.92 155.508 37.496C154.26 38.048 152.856 38.324 151.296 38.324ZM151.296 34.472C152.496 34.472 153.432 34.196 154.104 33.644C154.8 33.092 155.148 32.348 155.148 31.412V26.84C155.148 25.856 154.8 25.064 154.104 24.464C153.432 23.84 152.496 23.528 151.296 23.528C150.12 23.528 149.184 23.84 148.488 24.464C147.792 25.064 147.444 25.856 147.444 26.84V31.412C147.444 32.348 147.792 33.092 148.488 33.644C149.184 34.196 150.12 34.472 151.296 34.472ZM168.889 38.324C167.593 38.324 166.429 38.048 165.397 37.496C164.365 36.944 163.549 36.188 162.949 35.228C162.349 34.244 162.049 33.116 162.049 31.844V26.156C162.049 24.908 162.361 23.792 162.985 22.808C163.609 21.824 164.473 21.056 165.577 20.504C166.705 19.952 167.953 19.676 169.321 19.676C170.209 19.676 171.121 19.868 172.057 20.252C173.017 20.612 173.821 21.104 174.469 21.728L174.613 21.548C174.493 21.356 174.229 21.116 173.821 20.828V15.5C173.821 14.54 174.193 13.796 174.937 13.268C175.705 12.74 176.857 12.476 178.393 12.476V35.228C178.393 36.116 178.057 36.86 177.385 37.46C176.713 38.036 175.669 38.324 174.253 38.324V36.344C174.565 35.96 174.793 35.648 174.937 35.408L174.757 35.264C174.013 36.272 173.185 37.04 172.273 37.568C171.385 38.072 170.257 38.324 168.889 38.324ZM170.221 34.436C171.301 34.436 172.177 34.184 172.849 33.68C173.545 33.152 173.893 32.492 173.893 31.7V26.264C173.893 25.496 173.545 24.86 172.849 24.356C172.177 23.828 171.289 23.564 170.185 23.564C169.009 23.564 168.097 23.816 167.449 24.32C166.825 24.8 166.513 25.496 166.513 26.408V31.52C166.513 32.48 166.825 33.212 167.449 33.716C168.097 34.196 169.021 34.436 170.221 34.436ZM198.568 34.832C198.568 35.96 198.208 36.824 197.488 37.424C196.792 38.024 195.724 38.324 194.284 38.324V36.164C194.596 35.804 194.884 35.408 195.148 34.976L194.932 34.832C193.396 37.16 191.332 38.324 188.74 38.324C187.516 38.324 186.412 38.048 185.428 37.496C184.468 36.92 183.7 36.128 183.124 35.12C182.572 34.112 182.296 32.972 182.296 31.7V22.412C182.296 21.428 182.656 20.732 183.376 20.324C184.12 19.892 185.248 19.676 186.76 19.676V31.376C186.76 32.312 187.048 33.056 187.624 33.608C188.2 34.16 189.028 34.436 190.108 34.436C191.308 34.436 192.268 34.064 192.988 33.32C193.732 32.552 194.104 31.604 194.104 30.476V22.412C194.104 21.428 194.464 20.732 195.184 20.324C195.904 19.892 197.032 19.676 198.568 19.676V34.832ZM210.54 38.324C208.98 38.324 207.6 38.048 206.4 37.496C205.2 36.92 204.264 36.128 203.592 35.12C202.92 34.112 202.584 32.972 202.584 31.7V26.66C202.584 25.292 202.92 24.08 203.592 23.024C204.264 21.968 205.2 21.152 206.4 20.576C207.6 19.976 208.968 19.676 210.504 19.676C211.944 19.676 213.216 19.88 214.32 20.288C215.448 20.696 216.324 21.272 216.948 22.016C217.572 22.736 217.884 23.576 217.884 24.536C217.884 25.28 217.596 25.88 217.02 26.336C216.444 26.792 215.688 27.02 214.752 27.02C214.488 27.02 214.296 27.008 214.176 26.984C214.176 25.952 213.84 25.124 213.168 24.5C212.52 23.876 211.668 23.564 210.612 23.564C209.556 23.564 208.692 23.864 208.02 24.464C207.372 25.064 207.048 25.856 207.048 26.84V31.376C207.048 32.288 207.384 33.032 208.056 33.608C208.728 34.16 209.592 34.436 210.648 34.436C211.704 34.436 212.568 34.124 213.24 33.5C213.912 32.852 214.248 32.036 214.248 31.052C214.392 31.028 214.596 31.016 214.86 31.016C215.796 31.016 216.552 31.232 217.128 31.664C217.704 32.096 217.992 32.684 217.992 33.428C217.992 34.388 217.668 35.24 217.02 35.984C216.396 36.704 215.52 37.28 214.392 37.712C213.264 38.12 211.98 38.324 210.54 38.324ZM228.805 38.324C226.861 38.324 225.421 37.76 224.485 36.632C223.549 35.504 223.081 34.052 223.081 32.276V23.348H219.373C219.373 22.22 219.589 21.38 220.021 20.828C220.453 20.276 221.029 20 221.749 20H223.153V17.012C223.153 16.028 223.513 15.332 224.233 14.924C224.953 14.492 226.045 14.276 227.509 14.276V20H232.297C232.297 21.2 232.069 22.064 231.613 22.592C231.157 23.096 230.425 23.348 229.417 23.348H227.581V32.096C227.581 32.936 227.737 33.536 228.049 33.896C228.385 34.256 228.949 34.436 229.741 34.436C230.581 34.436 231.421 34.208 232.261 33.752C232.501 33.968 232.693 34.244 232.837 34.58C232.981 34.892 233.053 35.216 233.053 35.552C233.053 36.272 232.681 36.92 231.937 37.496C231.193 38.048 230.149 38.324 228.805 38.324ZM243.054 38.324C241.494 38.324 240.078 38.048 238.806 37.496C237.558 36.92 236.574 36.128 235.854 35.12C235.134 34.112 234.774 32.972 234.774 31.7V26.624C234.774 25.328 235.122 24.152 235.818 23.096C236.538 22.04 237.522 21.212 238.77 20.612C240.018 19.988 241.446 19.676 243.054 19.676C244.662 19.676 246.09 19.988 247.338 20.612C248.61 21.212 249.594 22.04 250.29 23.096C251.01 24.152 251.37 25.328 251.37 26.624V31.7C251.37 32.972 250.998 34.112 250.254 35.12C249.534 36.128 248.538 36.92 247.266 37.496C246.018 38.048 244.614 38.324 243.054 38.324ZM243.054 34.472C244.254 34.472 245.19 34.196 245.862 33.644C246.558 33.092 246.906 32.348 246.906 31.412V26.84C246.906 25.856 246.558 25.064 245.862 24.464C245.19 23.84 244.254 23.528 243.054 23.528C241.878 23.528 240.942 23.84 240.246 24.464C239.55 25.064 239.202 25.856 239.202 26.84V31.412C239.202 32.348 239.55 33.092 240.246 33.644C240.942 34.196 241.878 34.472 243.054 34.472Z"
        fill="#777777"/>
  <line x1="308" y1="28.5" x2="1144" y2="28.4999" stroke="#CBCBCB"/>
</svg>
