<svg width="215" height="23" viewBox="0 0 215 23" fill="none" xmlns="http://www.w3.org/2000/svg">
  <path d="M2.87 22C2.29 22 1.79 21.79 1.37 21.37C0.97 20.95 0.77 20.45 0.77 19.87V3.7C0.77 2.7 1.1 1.96 1.76 1.48C2.42 0.979999 3.43 0.729998 4.79 0.729998V18.52H12.89C13.83 18.52 14.54 18.82 15.02 19.42C15.5 20 15.74 20.86 15.74 22H2.87ZM23.2705 22.27C21.9705 22.27 20.7905 22.04 19.7305 21.58C18.6905 21.1 17.8705 20.44 17.2705 19.6C16.6705 18.76 16.3705 17.81 16.3705 16.75V12.52C16.3705 11.44 16.6605 10.46 17.2405 9.58C17.8405 8.7 18.6605 8.01 19.7005 7.51C20.7405 6.99 21.9305 6.73 23.2705 6.73C24.6105 6.73 25.8005 6.99 26.8405 7.51C27.9005 8.01 28.7205 8.7 29.3005 9.58C29.9005 10.46 30.2005 11.44 30.2005 12.52V16.75C30.2005 17.81 29.8905 18.76 29.2705 19.6C28.6705 20.44 27.8405 21.1 26.7805 21.58C25.7405 22.04 24.5705 22.27 23.2705 22.27ZM23.2705 19.06C24.2705 19.06 25.0505 18.83 25.6105 18.37C26.1905 17.91 26.4805 17.29 26.4805 16.51V12.7C26.4805 11.88 26.1905 11.22 25.6105 10.72C25.0505 10.2 24.2705 9.94 23.2705 9.94C22.2905 9.94 21.5105 10.2 20.9305 10.72C20.3505 11.22 20.0605 11.88 20.0605 12.7V16.51C20.0605 17.29 20.3505 17.91 20.9305 18.37C21.5105 18.83 22.2905 19.06 23.2705 19.06ZM39.0526 22.27C37.4326 22.27 36.2326 21.8 35.4526 20.86C34.6726 19.92 34.2826 18.71 34.2826 17.23V9.79H31.1926C31.1926 8.85 31.3726 8.15 31.7326 7.69C32.0926 7.23 32.5726 7 33.1726 7H34.3426V4.51C34.3426 3.69 34.6426 3.11 35.2426 2.77C35.8426 2.41 36.7526 2.23 37.9726 2.23V7H41.9626C41.9626 8 41.7726 8.72 41.3926 9.16C41.0126 9.58 40.4026 9.79 39.5626 9.79H38.0326V17.08C38.0326 17.78 38.1626 18.28 38.4226 18.58C38.7026 18.88 39.1726 19.03 39.8326 19.03C40.5326 19.03 41.2326 18.84 41.9326 18.46C42.1326 18.64 42.2926 18.87 42.4126 19.15C42.5326 19.41 42.5926 19.68 42.5926 19.96C42.5926 20.56 42.2826 21.1 41.6626 21.58C41.0426 22.04 40.1726 22.27 39.0526 22.27ZM51.1674 22.27C49.9274 22.27 48.7974 22.03 47.7774 21.55C46.7574 21.05 45.9474 20.38 45.3474 19.54C44.7474 18.68 44.4474 17.72 44.4474 16.66V12.67C44.4474 11.55 44.7574 10.54 45.3774 9.64C45.9974 8.74 46.8174 8.03 47.8374 7.51C48.8774 6.99 49.9974 6.73 51.1974 6.73C52.3774 6.73 53.4574 6.98 54.4374 7.48C55.4374 7.96 56.2274 8.64 56.8074 9.52C57.3874 10.38 57.6774 11.37 57.6774 12.49V14.17C57.6774 14.61 57.5074 14.98 57.1674 15.28C56.8474 15.58 56.4374 15.73 55.9374 15.73H48.0774V16.39C48.0774 17.25 48.3374 17.95 48.8574 18.49C49.3774 19.03 50.1574 19.3 51.1974 19.3C52.1974 19.3 52.9374 19.08 53.4174 18.64C53.9174 18.2 54.1674 17.63 54.1674 16.93C54.5274 16.89 54.7774 16.87 54.9174 16.87C55.6574 16.87 56.2374 17.04 56.6574 17.38C57.0774 17.7 57.2874 18.16 57.2874 18.76C57.2874 19.34 57.0174 19.9 56.4774 20.44C55.9374 20.98 55.1974 21.42 54.2574 21.76C53.3174 22.1 52.2874 22.27 51.1674 22.27ZM54.2874 13.06V12.49C54.2874 11.65 53.9974 10.97 53.4174 10.45C52.8374 9.93 52.0874 9.67 51.1674 9.67C50.2474 9.67 49.4974 9.93 48.9174 10.45C48.3574 10.95 48.0774 11.63 48.0774 12.49V13.06H54.2874ZM66.6549 22.27C64.7349 22.27 63.1849 21.93 62.0049 21.25C60.8449 20.55 60.2549 19.62 60.2349 18.46C60.2349 17.96 60.4349 17.54 60.8349 17.2C61.2549 16.86 61.9149 16.68 62.8149 16.66C62.9949 17.54 63.4149 18.22 64.0749 18.7C64.7349 19.16 65.5349 19.39 66.4749 19.39C67.4949 19.39 68.2949 19.26 68.8749 19C69.4549 18.74 69.7449 18.35 69.7449 17.83C69.7449 17.35 69.5049 16.95 69.0249 16.63C68.5649 16.31 67.6449 15.99 66.2649 15.67C64.7649 15.31 63.5949 14.95 62.7549 14.59C61.9349 14.23 61.3249 13.77 60.9249 13.21C60.5249 12.65 60.3249 11.91 60.3249 10.99C60.3249 9.71 60.8649 8.68 61.9449 7.9C63.0249 7.12 64.5049 6.73 66.3849 6.73C68.2049 6.73 69.7149 7.06 70.9149 7.72C72.1149 8.36 72.7149 9.22 72.7149 10.3C72.7149 10.84 72.5149 11.24 72.1149 11.5C71.7149 11.76 71.0549 11.9 70.1349 11.92C69.9349 11.12 69.5549 10.52 68.9949 10.12C68.4349 9.72 67.6449 9.52 66.6249 9.52C65.8649 9.52 65.2049 9.65 64.6449 9.91C64.1049 10.17 63.8349 10.51 63.8349 10.93C63.8349 11.37 64.0649 11.71 64.5249 11.95C64.9849 12.19 65.7849 12.43 66.9249 12.67C69.1649 13.15 70.7849 13.79 71.7849 14.59C72.8049 15.39 73.3149 16.48 73.3149 17.86C73.3149 19.2 72.7149 20.27 71.5149 21.07C70.3349 21.87 68.7149 22.27 66.6549 22.27ZM88.7188 22.27C87.6988 22.27 86.7588 22.07 85.8988 21.67C85.0588 21.27 84.3788 20.7 83.8588 19.96C83.3588 19.2 83.1088 18.3 83.1088 17.26C83.1088 16.22 83.3788 15.32 83.9188 14.56C84.4588 13.78 85.1888 13.19 86.1088 12.79C87.0488 12.37 88.0788 12.16 89.1988 12.16C90.1188 12.16 90.9388 12.31 91.6588 12.61C92.3988 12.89 93.0788 13.32 93.6988 13.9L93.8488 13.75C93.6688 13.57 93.3588 13.3 92.9188 12.94V12.34C92.9188 11.52 92.6288 10.87 92.0488 10.39C91.4688 9.91 90.6588 9.67 89.6188 9.67C87.7588 9.67 86.3888 10.35 85.5088 11.71C85.0688 11.57 84.6988 11.35 84.3988 11.05C84.0987 10.73 83.9487 10.39 83.9487 10.03C83.9487 9.43 84.2188 8.88 84.7588 8.38C85.2988 7.88 86.0288 7.48 86.9488 7.18C87.8688 6.88 88.8688 6.73 89.9488 6.73C92.0688 6.73 93.7088 7.23 94.8688 8.23C96.0288 9.21 96.6088 10.55 96.6088 12.25V19.75C96.6088 20.63 96.3288 21.27 95.7688 21.67C95.2088 22.07 94.3288 22.27 93.1288 22.27V21.04C93.4688 20.7 93.6988 20.45 93.8188 20.29L93.6988 20.14C93.0388 20.84 92.3288 21.37 91.5688 21.73C90.8288 22.09 89.8788 22.27 88.7188 22.27ZM89.6787 19.54C90.7188 19.54 91.5288 19.34 92.1088 18.94C92.6888 18.54 92.9788 17.97 92.9788 17.23C92.9788 16.51 92.6788 15.94 92.0788 15.52C91.4988 15.1 90.7088 14.89 89.7088 14.89C88.7888 14.89 88.0588 15.1 87.5188 15.52C86.9988 15.92 86.7388 16.49 86.7388 17.23C86.7388 17.99 86.9988 18.57 87.5188 18.97C88.0388 19.35 88.7588 19.54 89.6787 19.54ZM105.62 22.27C103.7 22.27 102.15 21.93 100.97 21.25C99.8098 20.55 99.2198 19.62 99.1998 18.46C99.1998 17.96 99.3998 17.54 99.7998 17.2C100.22 16.86 100.88 16.68 101.78 16.66C101.96 17.54 102.38 18.22 103.04 18.7C103.7 19.16 104.5 19.39 105.44 19.39C106.46 19.39 107.26 19.26 107.84 19C108.42 18.74 108.71 18.35 108.71 17.83C108.71 17.35 108.47 16.95 107.99 16.63C107.53 16.31 106.61 15.99 105.23 15.67C103.73 15.31 102.56 14.95 101.72 14.59C100.9 14.23 100.29 13.77 99.8898 13.21C99.4898 12.65 99.2898 11.91 99.2898 10.99C99.2898 9.71 99.8298 8.68 100.91 7.9C101.99 7.12 103.47 6.73 105.35 6.73C107.17 6.73 108.68 7.06 109.88 7.72C111.08 8.36 111.68 9.22 111.68 10.3C111.68 10.84 111.48 11.24 111.08 11.5C110.68 11.76 110.02 11.9 109.1 11.92C108.9 11.12 108.52 10.52 107.96 10.12C107.4 9.72 106.61 9.52 105.59 9.52C104.83 9.52 104.17 9.65 103.61 9.91C103.07 10.17 102.8 10.51 102.8 10.93C102.8 11.37 103.03 11.71 103.49 11.95C103.95 12.19 104.75 12.43 105.89 12.67C108.13 13.15 109.75 13.79 110.75 14.59C111.77 15.39 112.28 16.48 112.28 17.86C112.28 19.2 111.68 20.27 110.48 21.07C109.3 21.87 107.68 22.27 105.62 22.27ZM120.478 22.27C119.178 22.27 117.998 22.04 116.938 21.58C115.898 21.1 115.078 20.44 114.478 19.6C113.878 18.76 113.578 17.81 113.578 16.75V12.52C113.578 11.44 113.868 10.46 114.448 9.58C115.048 8.7 115.868 8.01 116.908 7.51C117.948 6.99 119.138 6.73 120.478 6.73C121.818 6.73 123.008 6.99 124.048 7.51C125.108 8.01 125.928 8.7 126.508 9.58C127.108 10.46 127.408 11.44 127.408 12.52V16.75C127.408 17.81 127.098 18.76 126.478 19.6C125.878 20.44 125.048 21.1 123.988 21.58C122.948 22.04 121.778 22.27 120.478 22.27ZM120.478 19.06C121.478 19.06 122.258 18.83 122.818 18.37C123.398 17.91 123.688 17.29 123.688 16.51V12.7C123.688 11.88 123.398 11.22 122.818 10.72C122.258 10.2 121.478 9.94 120.478 9.94C119.498 9.94 118.718 10.2 118.138 10.72C117.558 11.22 117.268 11.88 117.268 12.7V16.51C117.268 17.29 117.558 17.91 118.138 18.37C118.718 18.83 119.498 19.06 120.478 19.06ZM136.068 22.27C134.768 22.27 133.618 22.04 132.618 21.58C131.618 21.1 130.838 20.44 130.278 19.6C129.718 18.76 129.438 17.81 129.438 16.75V12.55C129.438 11.41 129.718 10.4 130.278 9.52C130.838 8.64 131.618 7.96 132.618 7.48C133.618 6.98 134.758 6.73 136.038 6.73C137.238 6.73 138.298 6.9 139.218 7.24C140.158 7.58 140.888 8.06 141.408 8.68C141.928 9.28 142.188 9.98 142.188 10.78C142.188 11.4 141.948 11.9 141.468 12.28C140.988 12.66 140.358 12.85 139.578 12.85C139.358 12.85 139.198 12.84 139.098 12.82C139.098 11.96 138.818 11.27 138.258 10.75C137.718 10.23 137.008 9.97 136.128 9.97C135.248 9.97 134.528 10.22 133.968 10.72C133.428 11.22 133.158 11.88 133.158 12.7V16.48C133.158 17.24 133.438 17.86 133.998 18.34C134.558 18.8 135.278 19.03 136.158 19.03C137.038 19.03 137.758 18.77 138.318 18.25C138.878 17.71 139.158 17.03 139.158 16.21C139.278 16.19 139.448 16.18 139.668 16.18C140.448 16.18 141.078 16.36 141.558 16.72C142.038 17.08 142.278 17.57 142.278 18.19C142.278 18.99 142.008 19.7 141.468 20.32C140.948 20.92 140.218 21.4 139.278 21.76C138.338 22.1 137.268 22.27 136.068 22.27ZM147.635 5.32C146.915 5.32 146.315 5.11 145.835 4.69C145.375 4.25 145.145 3.69 145.145 3.01C145.145 2.35 145.375 1.81 145.835 1.39C146.315 0.949999 146.915 0.729998 147.635 0.729998C148.355 0.729998 148.945 0.949999 149.405 1.39C149.885 1.81 150.125 2.35 150.125 3.01C150.125 3.69 149.885 4.25 149.405 4.69C148.945 5.11 148.355 5.32 147.635 5.32ZM145.745 9.01C145.745 8.19 146.055 7.61 146.675 7.27C147.295 6.91 148.235 6.73 149.495 6.73V19.99C149.495 20.79 149.185 21.37 148.565 21.73C147.945 22.09 147.005 22.27 145.745 22.27V9.01ZM158.65 22.27C157.63 22.27 156.69 22.07 155.83 21.67C154.99 21.27 154.31 20.7 153.79 19.96C153.29 19.2 153.04 18.3 153.04 17.26C153.04 16.22 153.31 15.32 153.85 14.56C154.39 13.78 155.12 13.19 156.04 12.79C156.98 12.37 158.01 12.16 159.13 12.16C160.05 12.16 160.87 12.31 161.59 12.61C162.33 12.89 163.01 13.32 163.63 13.9L163.78 13.75C163.6 13.57 163.29 13.3 162.85 12.94V12.34C162.85 11.52 162.56 10.87 161.98 10.39C161.4 9.91 160.59 9.67 159.55 9.67C157.69 9.67 156.32 10.35 155.44 11.71C155 11.57 154.63 11.35 154.33 11.05C154.03 10.73 153.88 10.39 153.88 10.03C153.88 9.43 154.15 8.88 154.69 8.38C155.23 7.88 155.96 7.48 156.88 7.18C157.8 6.88 158.8 6.73 159.88 6.73C162 6.73 163.64 7.23 164.8 8.23C165.96 9.21 166.54 10.55 166.54 12.25V19.75C166.54 20.63 166.26 21.27 165.7 21.67C165.14 22.07 164.26 22.27 163.06 22.27V21.04C163.4 20.7 163.63 20.45 163.75 20.29L163.63 20.14C162.97 20.84 162.26 21.37 161.5 21.73C160.76 22.09 159.81 22.27 158.65 22.27ZM159.61 19.54C160.65 19.54 161.46 19.34 162.04 18.94C162.62 18.54 162.91 17.97 162.91 17.23C162.91 16.51 162.61 15.94 162.01 15.52C161.43 15.1 160.64 14.89 159.64 14.89C158.72 14.89 157.99 15.1 157.45 15.52C156.93 15.92 156.67 16.49 156.67 17.23C156.67 17.99 156.93 18.57 157.45 18.97C157.97 19.35 158.69 19.54 159.61 19.54ZM175.421 22.27C174.341 22.27 173.371 22.04 172.511 21.58C171.651 21.12 170.971 20.49 170.471 19.69C169.971 18.87 169.721 17.93 169.721 16.87V12.13C169.721 11.09 169.981 10.16 170.501 9.34C171.021 8.52 171.741 7.88 172.661 7.42C173.601 6.96 174.641 6.73 175.781 6.73C176.521 6.73 177.281 6.89 178.061 7.21C178.861 7.51 179.531 7.92 180.071 8.44L180.191 8.29C180.091 8.13 179.871 7.93 179.531 7.69V3.25C179.531 2.45 179.841 1.83 180.461 1.39C181.101 0.949999 182.061 0.729998 183.341 0.729998V19.69C183.341 20.43 183.061 21.05 182.501 21.55C181.941 22.03 181.071 22.27 179.891 22.27V20.62C180.151 20.3 180.341 20.04 180.461 19.84L180.311 19.72C179.691 20.56 179.001 21.2 178.241 21.64C177.501 22.06 176.561 22.27 175.421 22.27ZM176.531 19.03C177.431 19.03 178.161 18.82 178.721 18.4C179.301 17.96 179.591 17.41 179.591 16.75V12.22C179.591 11.58 179.301 11.05 178.721 10.63C178.161 10.19 177.421 9.97 176.501 9.97C175.521 9.97 174.761 10.18 174.221 10.6C173.701 11 173.441 11.58 173.441 12.34V16.6C173.441 17.4 173.701 18.01 174.221 18.43C174.761 18.83 175.531 19.03 176.531 19.03ZM192.577 22.27C191.277 22.27 190.097 22.04 189.037 21.58C187.997 21.1 187.177 20.44 186.577 19.6C185.977 18.76 185.677 17.81 185.677 16.75V12.52C185.677 11.44 185.967 10.46 186.547 9.58C187.147 8.7 187.967 8.01 189.007 7.51C190.047 6.99 191.237 6.73 192.577 6.73C193.917 6.73 195.107 6.99 196.147 7.51C197.207 8.01 198.027 8.7 198.607 9.58C199.207 10.46 199.507 11.44 199.507 12.52V16.75C199.507 17.81 199.197 18.76 198.577 19.6C197.977 20.44 197.147 21.1 196.087 21.58C195.047 22.04 193.877 22.27 192.577 22.27ZM192.577 19.06C193.577 19.06 194.357 18.83 194.917 18.37C195.497 17.91 195.787 17.29 195.787 16.51V12.7C195.787 11.88 195.497 11.22 194.917 10.72C194.357 10.2 193.577 9.94 192.577 9.94C191.597 9.94 190.817 10.2 190.237 10.72C189.657 11.22 189.367 11.88 189.367 12.7V16.51C189.367 17.29 189.657 17.91 190.237 18.37C190.817 18.83 191.597 19.06 192.577 19.06ZM207.749 22.27C205.829 22.27 204.279 21.93 203.099 21.25C201.939 20.55 201.349 19.62 201.329 18.46C201.329 17.96 201.529 17.54 201.929 17.2C202.349 16.86 203.009 16.68 203.909 16.66C204.089 17.54 204.509 18.22 205.169 18.7C205.829 19.16 206.629 19.39 207.569 19.39C208.589 19.39 209.389 19.26 209.969 19C210.549 18.74 210.839 18.35 210.839 17.83C210.839 17.35 210.599 16.95 210.119 16.63C209.659 16.31 208.739 15.99 207.359 15.67C205.859 15.31 204.689 14.95 203.849 14.59C203.029 14.23 202.419 13.77 202.019 13.21C201.619 12.65 201.419 11.91 201.419 10.99C201.419 9.71 201.959 8.68 203.039 7.9C204.119 7.12 205.599 6.73 207.479 6.73C209.299 6.73 210.809 7.06 212.009 7.72C213.209 8.36 213.809 9.22 213.809 10.3C213.809 10.84 213.609 11.24 213.209 11.5C212.809 11.76 212.149 11.9 211.229 11.92C211.029 11.12 210.649 10.52 210.089 10.12C209.529 9.72 208.739 9.52 207.719 9.52C206.959 9.52 206.299 9.65 205.739 9.91C205.199 10.17 204.929 10.51 204.929 10.93C204.929 11.37 205.159 11.71 205.619 11.95C206.079 12.19 206.879 12.43 208.019 12.67C210.259 13.15 211.879 13.79 212.879 14.59C213.899 15.39 214.409 16.48 214.409 17.86C214.409 19.2 213.809 20.27 212.609 21.07C211.429 21.87 209.809 22.27 207.749 22.27Z"
        fill="#777777"/>
</svg>
