<svg width="991" height="47" viewBox="0 0 991 47" fill="none" xmlns="http://www.w3.org/2000/svg">
  <path d="M4.68 38.324C3.648 38.204 2.832 37.844 2.232 37.244C1.656 36.644 1.368 35.888 1.368 34.976C1.368 34.28 1.536 33.56 1.872 32.816L10.116 14.06C10.572 13.004 11.364 12.476 12.492 12.476C13.596 12.476 14.376 13.004 14.832 14.06L23.076 32.816C23.412 33.608 23.58 34.328 23.58 34.976C23.58 35.888 23.28 36.644 22.68 37.244C22.104 37.844 21.288 38.204 20.232 38.324L17.208 31.484H7.74L4.68 38.324ZM15.732 27.38L11.772 17.516L11.34 17.696L12.204 19.928L9.18 27.38H15.732ZM33.4814 45.524C32.0654 45.524 30.8054 45.32 29.7014 44.912C28.5974 44.528 27.7334 44 27.1094 43.328C26.4854 42.656 26.1734 41.912 26.1734 41.096C26.1734 40.28 26.4494 39.704 27.0014 39.368C27.5774 39.032 28.3814 38.864 29.4134 38.864C29.5094 39.848 29.8934 40.604 30.5654 41.132C31.2374 41.684 32.2094 41.96 33.4814 41.96C34.8974 41.96 35.8934 41.612 36.4694 40.916C37.0694 40.22 37.3694 39.26 37.3694 38.036V36.812C37.7294 36.548 37.9934 36.296 38.1614 36.056L38.0174 35.876C37.3934 36.5 36.5534 37.004 35.4974 37.388C34.4654 37.772 33.4934 37.964 32.5814 37.964C31.2374 37.964 30.0374 37.7 28.9814 37.172C27.9254 36.62 27.0854 35.852 26.4614 34.868C25.8614 33.884 25.5614 32.768 25.5614 31.52V26.156C25.5614 24.956 25.8734 23.864 26.4974 22.88C27.1454 21.872 27.9854 21.092 29.0174 20.54C30.0734 19.964 31.2014 19.676 32.4014 19.676C33.7214 19.676 34.8374 19.94 35.7494 20.468C36.6854 20.996 37.5374 21.752 38.3054 22.736L38.4494 22.592C38.3294 22.376 38.1014 22.064 37.7654 21.656C37.7654 20.336 39.1454 19.676 41.9054 19.676V37.388C41.9054 38.972 41.5454 40.376 40.8254 41.6C40.1054 42.824 39.0974 43.784 37.8014 44.48C36.5294 45.176 35.0894 45.524 33.4814 45.524ZM33.7334 34.112C34.7894 34.112 35.6774 33.848 36.3974 33.32C37.1174 32.768 37.4774 32.12 37.4774 31.376V26.264C37.4774 25.496 37.1174 24.848 36.3974 24.32C35.7014 23.792 34.8134 23.528 33.7334 23.528C32.5574 23.528 31.6454 23.78 30.9974 24.284C30.3734 24.788 30.0614 25.508 30.0614 26.444V31.196C30.0614 32.108 30.3734 32.828 30.9974 33.356C31.6214 33.86 32.5334 34.112 33.7334 34.112ZM55.251 23.564C53.835 23.564 52.683 23.948 51.795 24.716C50.907 25.46 50.463 26.396 50.463 27.524V35.588C50.463 36.548 50.103 37.244 49.383 37.676C48.663 38.108 47.535 38.324 45.999 38.324V23.132C45.999 22.028 46.347 21.176 47.043 20.576C47.763 19.976 48.843 19.676 50.283 19.676V21.8C49.923 22.208 49.635 22.604 49.419 22.988L49.635 23.132C51.147 20.828 53.043 19.676 55.323 19.676C56.355 19.676 57.135 19.952 57.663 20.504C58.191 21.032 58.455 21.704 58.455 22.52C58.455 23.144 58.287 23.672 57.951 24.104C57.303 23.744 56.403 23.564 55.251 23.564ZM67.7689 38.324C66.2809 38.324 64.9249 38.036 63.7009 37.46C62.4769 36.86 61.5049 36.056 60.7849 35.048C60.0649 34.016 59.7049 32.864 59.7049 31.592V26.804C59.7049 25.46 60.0769 24.248 60.8209 23.168C61.5649 22.088 62.5489 21.236 63.7729 20.612C65.0209 19.988 66.3649 19.676 67.8049 19.676C69.2209 19.676 70.5169 19.976 71.6929 20.576C72.8929 21.152 73.8409 21.968 74.5369 23.024C75.2329 24.056 75.5809 25.244 75.5809 26.588V28.604C75.5809 29.132 75.3769 29.576 74.9689 29.936C74.5849 30.296 74.0929 30.476 73.4929 30.476H64.0609V31.268C64.0609 32.3 64.3729 33.14 64.9969 33.788C65.6209 34.436 66.5569 34.76 67.8049 34.76C69.0049 34.76 69.8929 34.496 70.4689 33.968C71.0689 33.44 71.3689 32.756 71.3689 31.916C71.8009 31.868 72.1009 31.844 72.2689 31.844C73.1569 31.844 73.8529 32.048 74.3569 32.456C74.8609 32.84 75.1129 33.392 75.1129 34.112C75.1129 34.808 74.7889 35.48 74.1409 36.128C73.4929 36.776 72.6049 37.304 71.4769 37.712C70.3489 38.12 69.1129 38.324 67.7689 38.324ZM71.5129 27.272V26.588C71.5129 25.58 71.1649 24.764 70.4689 24.14C69.7729 23.516 68.8729 23.204 67.7689 23.204C66.6649 23.204 65.7649 23.516 65.0689 24.14C64.3969 24.74 64.0609 25.556 64.0609 26.588V27.272H71.5129ZM86.4619 45.524C85.0459 45.524 83.7859 45.32 82.6819 44.912C81.5779 44.528 80.7139 44 80.0899 43.328C79.4659 42.656 79.1539 41.912 79.1539 41.096C79.1539 40.28 79.4299 39.704 79.9819 39.368C80.5579 39.032 81.3619 38.864 82.3939 38.864C82.4899 39.848 82.8739 40.604 83.5459 41.132C84.2179 41.684 85.1899 41.96 86.4619 41.96C87.8779 41.96 88.8739 41.612 89.4499 40.916C90.0499 40.22 90.3499 39.26 90.3499 38.036V36.812C90.7099 36.548 90.9739 36.296 91.1419 36.056L90.9979 35.876C90.3739 36.5 89.5339 37.004 88.4779 37.388C87.4459 37.772 86.4739 37.964 85.5619 37.964C84.2179 37.964 83.0179 37.7 81.9619 37.172C80.9059 36.62 80.0659 35.852 79.4419 34.868C78.8419 33.884 78.5419 32.768 78.5419 31.52V26.156C78.5419 24.956 78.8539 23.864 79.4779 22.88C80.1259 21.872 80.9659 21.092 81.9979 20.54C83.0539 19.964 84.1819 19.676 85.3819 19.676C86.7019 19.676 87.8179 19.94 88.7299 20.468C89.6659 20.996 90.5179 21.752 91.2859 22.736L91.4299 22.592C91.3099 22.376 91.0819 22.064 90.7459 21.656C90.7459 20.336 92.1259 19.676 94.8859 19.676V37.388C94.8859 38.972 94.5259 40.376 93.8059 41.6C93.0859 42.824 92.0779 43.784 90.7819 44.48C89.5099 45.176 88.0699 45.524 86.4619 45.524ZM86.7139 34.112C87.7699 34.112 88.6579 33.848 89.3779 33.32C90.0979 32.768 90.4579 32.12 90.4579 31.376V26.264C90.4579 25.496 90.0979 24.848 89.3779 24.32C88.6819 23.792 87.7939 23.528 86.7139 23.528C85.5379 23.528 84.6259 23.78 83.9779 24.284C83.3539 24.788 83.0419 25.508 83.0419 26.444V31.196C83.0419 32.108 83.3539 32.828 83.9779 33.356C84.6019 33.86 85.5139 34.112 86.7139 34.112ZM104.955 38.324C103.731 38.324 102.603 38.084 101.571 37.604C100.563 37.124 99.7475 36.44 99.1235 35.552C98.5235 34.64 98.2235 33.56 98.2235 32.312C98.2235 31.064 98.5475 29.984 99.1955 29.072C99.8435 28.136 100.719 27.428 101.823 26.948C102.951 26.444 104.187 26.192 105.531 26.192C106.635 26.192 107.619 26.372 108.483 26.732C109.371 27.068 110.187 27.584 110.931 28.28L111.111 28.1C110.895 27.884 110.523 27.56 109.995 27.128V26.408C109.995 25.424 109.647 24.644 108.951 24.068C108.255 23.492 107.283 23.204 106.035 23.204C103.803 23.204 102.159 24.02 101.103 25.652C100.575 25.484 100.131 25.22 99.7715 24.86C99.4115 24.476 99.2315 24.068 99.2315 23.636C99.2315 22.916 99.5555 22.256 100.203 21.656C100.851 21.056 101.727 20.576 102.831 20.216C103.935 19.856 105.135 19.676 106.431 19.676C108.975 19.676 110.943 20.276 112.335 21.476C113.727 22.652 114.423 24.26 114.423 26.3V35.3C114.423 36.356 114.087 37.124 113.415 37.604C112.743 38.084 111.687 38.324 110.247 38.324V36.848C110.655 36.44 110.931 36.14 111.075 35.948L110.931 35.768C110.139 36.608 109.287 37.244 108.375 37.676C107.487 38.108 106.347 38.324 104.955 38.324ZM106.107 35.048C107.355 35.048 108.327 34.808 109.023 34.328C109.719 33.848 110.067 33.164 110.067 32.276C110.067 31.412 109.707 30.728 108.987 30.224C108.291 29.72 107.343 29.468 106.143 29.468C105.039 29.468 104.163 29.72 103.515 30.224C102.891 30.704 102.579 31.388 102.579 32.276C102.579 33.188 102.891 33.884 103.515 34.364C104.139 34.82 105.003 35.048 106.107 35.048ZM127.708 23.564C126.292 23.564 125.14 23.948 124.252 24.716C123.364 25.46 122.92 26.396 122.92 27.524V35.588C122.92 36.548 122.56 37.244 121.84 37.676C121.12 38.108 119.992 38.324 118.456 38.324V23.132C118.456 22.028 118.804 21.176 119.5 20.576C120.22 19.976 121.3 19.676 122.74 19.676V21.8C122.38 22.208 122.092 22.604 121.876 22.988L122.092 23.132C123.604 20.828 125.5 19.676 127.78 19.676C128.812 19.676 129.592 19.952 130.12 20.504C130.648 21.032 130.912 21.704 130.912 22.52C130.912 23.144 130.744 23.672 130.408 24.104C129.76 23.744 128.86 23.564 127.708 23.564ZM150.8 38.324C149.24 38.324 147.824 38.048 146.552 37.496C145.304 36.92 144.32 36.128 143.6 35.12C142.88 34.112 142.52 32.972 142.52 31.7V26.624C142.52 25.328 142.868 24.152 143.564 23.096C144.284 22.04 145.268 21.212 146.516 20.612C147.764 19.988 149.192 19.676 150.8 19.676C152.408 19.676 153.836 19.988 155.084 20.612C156.356 21.212 157.34 22.04 158.036 23.096C158.756 24.152 159.116 25.328 159.116 26.624V31.7C159.116 32.972 158.744 34.112 158 35.12C157.28 36.128 156.284 36.92 155.012 37.496C153.764 38.048 152.36 38.324 150.8 38.324ZM150.8 34.472C152 34.472 152.936 34.196 153.608 33.644C154.304 33.092 154.652 32.348 154.652 31.412V26.84C154.652 25.856 154.304 25.064 153.608 24.464C152.936 23.84 152 23.528 150.8 23.528C149.624 23.528 148.688 23.84 147.992 24.464C147.296 25.064 146.948 25.856 146.948 26.84V31.412C146.948 32.348 147.296 33.092 147.992 33.644C148.688 34.196 149.624 34.472 150.8 34.472ZM161.944 22.772C161.944 21.884 162.292 21.152 162.988 20.576C163.684 19.976 164.716 19.676 166.084 19.676V21.62C165.676 22.172 165.448 22.496 165.4 22.592L165.544 22.736C166.312 21.728 167.152 20.972 168.064 20.468C169 19.94 170.152 19.676 171.52 19.676C172.84 19.676 174.004 19.952 175.012 20.504C176.044 21.032 176.848 21.788 177.424 22.772C178 23.756 178.288 24.884 178.288 26.156V31.844C178.288 33.14 177.964 34.28 177.316 35.264C176.692 36.248 175.828 37.004 174.724 37.532C173.62 38.06 172.372 38.324 170.98 38.324C170.092 38.324 169.168 38.144 168.208 37.784C167.272 37.4 166.48 36.884 165.832 36.236L165.688 36.416C165.856 36.656 166.12 36.908 166.48 37.172V42.5C166.48 44.516 164.968 45.524 161.944 45.524V22.772ZM170.116 34.436C171.292 34.436 172.204 34.184 172.852 33.68C173.5 33.176 173.824 32.468 173.824 31.556V26.444C173.824 25.508 173.5 24.8 172.852 24.32C172.228 23.816 171.316 23.564 170.116 23.564C169.036 23.564 168.148 23.828 167.452 24.356C166.756 24.86 166.408 25.496 166.408 26.264V31.736C166.408 32.48 166.744 33.116 167.416 33.644C168.112 34.172 169.012 34.436 170.116 34.436ZM189.726 38.324C188.238 38.324 186.882 38.036 185.658 37.46C184.434 36.86 183.462 36.056 182.742 35.048C182.022 34.016 181.662 32.864 181.662 31.592V26.804C181.662 25.46 182.034 24.248 182.778 23.168C183.522 22.088 184.506 21.236 185.73 20.612C186.978 19.988 188.322 19.676 189.762 19.676C191.178 19.676 192.474 19.976 193.65 20.576C194.85 21.152 195.798 21.968 196.494 23.024C197.19 24.056 197.538 25.244 197.538 26.588V28.604C197.538 29.132 197.334 29.576 196.926 29.936C196.542 30.296 196.05 30.476 195.45 30.476H186.018V31.268C186.018 32.3 186.33 33.14 186.954 33.788C187.578 34.436 188.514 34.76 189.762 34.76C190.962 34.76 191.85 34.496 192.426 33.968C193.026 33.44 193.326 32.756 193.326 31.916C193.758 31.868 194.058 31.844 194.226 31.844C195.114 31.844 195.81 32.048 196.314 32.456C196.818 32.84 197.07 33.392 197.07 34.112C197.07 34.808 196.746 35.48 196.098 36.128C195.45 36.776 194.562 37.304 193.434 37.712C192.306 38.12 191.07 38.324 189.726 38.324ZM193.47 27.272V26.588C193.47 25.58 193.122 24.764 192.426 24.14C191.73 23.516 190.83 23.204 189.726 23.204C188.622 23.204 187.722 23.516 187.026 24.14C186.354 24.74 186.018 25.556 186.018 26.588V27.272H193.47ZM210.255 23.564C208.839 23.564 207.687 23.948 206.799 24.716C205.911 25.46 205.467 26.396 205.467 27.524V35.588C205.467 36.548 205.107 37.244 204.387 37.676C203.667 38.108 202.539 38.324 201.003 38.324V23.132C201.003 22.028 201.351 21.176 202.047 20.576C202.767 19.976 203.847 19.676 205.287 19.676V21.8C204.927 22.208 204.639 22.604 204.423 22.988L204.639 23.132C206.151 20.828 208.047 19.676 210.327 19.676C211.359 19.676 212.139 19.952 212.667 20.504C213.195 21.032 213.459 21.704 213.459 22.52C213.459 23.144 213.291 23.672 212.955 24.104C212.307 23.744 211.407 23.564 210.255 23.564ZM220.901 38.324C219.677 38.324 218.549 38.084 217.517 37.604C216.509 37.124 215.693 36.44 215.069 35.552C214.469 34.64 214.169 33.56 214.169 32.312C214.169 31.064 214.493 29.984 215.141 29.072C215.789 28.136 216.665 27.428 217.769 26.948C218.897 26.444 220.133 26.192 221.477 26.192C222.581 26.192 223.565 26.372 224.429 26.732C225.317 27.068 226.133 27.584 226.877 28.28L227.057 28.1C226.841 27.884 226.469 27.56 225.941 27.128V26.408C225.941 25.424 225.593 24.644 224.897 24.068C224.201 23.492 223.229 23.204 221.981 23.204C219.749 23.204 218.105 24.02 217.049 25.652C216.521 25.484 216.077 25.22 215.717 24.86C215.357 24.476 215.177 24.068 215.177 23.636C215.177 22.916 215.501 22.256 216.149 21.656C216.797 21.056 217.673 20.576 218.777 20.216C219.881 19.856 221.081 19.676 222.377 19.676C224.921 19.676 226.889 20.276 228.281 21.476C229.673 22.652 230.369 24.26 230.369 26.3V35.3C230.369 36.356 230.033 37.124 229.361 37.604C228.689 38.084 227.633 38.324 226.193 38.324V36.848C226.601 36.44 226.877 36.14 227.021 35.948L226.877 35.768C226.085 36.608 225.233 37.244 224.321 37.676C223.433 38.108 222.293 38.324 220.901 38.324ZM222.053 35.048C223.301 35.048 224.273 34.808 224.969 34.328C225.665 33.848 226.013 33.164 226.013 32.276C226.013 31.412 225.653 30.728 224.933 30.224C224.237 29.72 223.289 29.468 222.089 29.468C220.985 29.468 220.109 29.72 219.461 30.224C218.837 30.704 218.525 31.388 218.525 32.276C218.525 33.188 218.837 33.884 219.461 34.364C220.085 34.82 220.949 35.048 222.053 35.048ZM241.614 38.324C240.054 38.324 238.674 38.048 237.474 37.496C236.274 36.92 235.338 36.128 234.666 35.12C233.994 34.112 233.658 32.972 233.658 31.7V26.66C233.658 25.292 233.994 24.08 234.666 23.024C235.338 21.968 236.274 21.152 237.474 20.576C238.674 19.976 240.042 19.676 241.578 19.676C243.018 19.676 244.29 19.88 245.394 20.288C246.522 20.696 247.398 21.272 248.022 22.016C248.646 22.736 248.958 23.576 248.958 24.536C248.958 25.28 248.67 25.88 248.094 26.336C247.518 26.792 246.762 27.02 245.826 27.02C245.562 27.02 245.37 27.008 245.25 26.984C245.25 25.952 244.914 25.124 244.242 24.5C243.594 23.876 242.742 23.564 241.686 23.564C240.63 23.564 239.766 23.864 239.094 24.464C238.446 25.064 238.122 25.856 238.122 26.84V31.376C238.122 32.288 238.458 33.032 239.13 33.608C239.802 34.16 240.666 34.436 241.722 34.436C242.778 34.436 243.642 34.124 244.314 33.5C244.986 32.852 245.322 32.036 245.322 31.052C245.466 31.028 245.67 31.016 245.934 31.016C246.87 31.016 247.626 31.232 248.202 31.664C248.778 32.096 249.066 32.684 249.066 33.428C249.066 34.388 248.742 35.24 248.094 35.984C247.47 36.704 246.594 37.28 245.466 37.712C244.338 38.12 243.054 38.324 241.614 38.324ZM255.495 17.984C254.631 17.984 253.911 17.732 253.335 17.228C252.783 16.7 252.507 16.028 252.507 15.212C252.507 14.42 252.783 13.772 253.335 13.268C253.911 12.74 254.631 12.476 255.495 12.476C256.359 12.476 257.067 12.74 257.619 13.268C258.195 13.772 258.483 14.42 258.483 15.212C258.483 16.028 258.195 16.7 257.619 17.228C257.067 17.732 256.359 17.984 255.495 17.984ZM253.227 22.412C253.227 21.428 253.599 20.732 254.343 20.324C255.087 19.892 256.215 19.676 257.727 19.676V35.588C257.727 36.548 257.355 37.244 256.611 37.676C255.867 38.108 254.739 38.324 253.227 38.324V22.412ZM270.261 38.324C268.701 38.324 267.285 38.048 266.013 37.496C264.765 36.92 263.781 36.128 263.061 35.12C262.341 34.112 261.981 32.972 261.981 31.7V26.624C261.981 25.328 262.329 24.152 263.025 23.096C263.745 22.04 264.729 21.212 265.977 20.612C267.225 19.988 268.653 19.676 270.261 19.676C271.869 19.676 273.297 19.988 274.545 20.612C275.817 21.212 276.801 22.04 277.497 23.096C278.217 24.152 278.577 25.328 278.577 26.624V31.7C278.577 32.972 278.205 34.112 277.461 35.12C276.741 36.128 275.745 36.92 274.473 37.496C273.225 38.048 271.821 38.324 270.261 38.324ZM270.261 34.472C271.461 34.472 272.397 34.196 273.069 33.644C273.765 33.092 274.113 32.348 274.113 31.412V26.84C274.113 25.856 273.765 25.064 273.069 24.464C272.397 23.84 271.461 23.528 270.261 23.528C269.085 23.528 268.149 23.84 267.453 24.464C266.757 25.064 266.409 25.856 266.409 26.84V31.412C266.409 32.348 266.757 33.092 267.453 33.644C268.149 34.196 269.085 34.472 270.261 34.472ZM270.369 12.764C270.513 12.38 270.801 12.068 271.233 11.828C271.665 11.588 272.265 11.468 273.033 11.468H276.129L272.421 17.192C272.181 17.504 271.869 17.744 271.485 17.912C271.101 18.056 270.477 18.128 269.613 18.128C269.133 18.128 268.737 18.116 268.425 18.092L270.369 12.764ZM282.073 23.132C282.073 22.028 282.421 21.176 283.117 20.576C283.837 19.976 284.917 19.676 286.357 19.676V21.836C286.069 22.172 285.781 22.556 285.493 22.988L285.709 23.132C286.429 22.052 287.353 21.212 288.481 20.612C289.609 19.988 290.857 19.676 292.225 19.676C293.449 19.676 294.529 19.952 295.465 20.504C296.401 21.056 297.121 21.812 297.625 22.772C298.153 23.732 298.417 24.812 298.417 26.012V35.588C298.417 36.548 298.045 37.244 297.301 37.676C296.557 38.108 295.429 38.324 293.917 38.324V26.66C293.917 25.748 293.641 25.004 293.089 24.428C292.561 23.852 291.781 23.564 290.749 23.564C289.525 23.564 288.517 23.948 287.725 24.716C286.933 25.46 286.537 26.396 286.537 27.524V35.588C286.537 36.548 286.177 37.244 285.457 37.676C284.737 38.108 283.609 38.324 282.073 38.324V23.132Z"
        fill="#777777"/>
  <line x1="315" y1="27.5" x2="991" y2="27.4999" stroke="#CBCBCB"/>
</svg>
