<svg width="1157" height="47" viewBox="0 0 1157 47" fill="none" xmlns="http://www.w3.org/2000/svg">
  <path d="M3.68 38.324C2.648 38.204 1.832 37.844 1.232 37.244C0.656 36.644 0.368 35.888 0.368 34.976C0.368 34.28 0.536 33.56 0.872 32.816L9.116 14.06C9.572 13.004 10.364 12.476 11.492 12.476C12.596 12.476 13.376 13.004 13.832 14.06L22.076 32.816C22.412 33.608 22.58 34.328 22.58 34.976C22.58 35.888 22.28 36.644 21.68 37.244C21.104 37.844 20.288 38.204 19.232 38.324L16.208 31.484H6.74L3.68 38.324ZM14.732 27.38L10.772 17.516L10.34 17.696L11.204 19.928L8.18 27.38H14.732ZM32.4814 45.524C31.0654 45.524 29.8054 45.32 28.7014 44.912C27.5974 44.528 26.7334 44 26.1094 43.328C25.4854 42.656 25.1734 41.912 25.1734 41.096C25.1734 40.28 25.4494 39.704 26.0014 39.368C26.5774 39.032 27.3814 38.864 28.4134 38.864C28.5094 39.848 28.8934 40.604 29.5654 41.132C30.2374 41.684 31.2094 41.96 32.4814 41.96C33.8974 41.96 34.8934 41.612 35.4694 40.916C36.0694 40.22 36.3694 39.26 36.3694 38.036V36.812C36.7294 36.548 36.9934 36.296 37.1614 36.056L37.0174 35.876C36.3934 36.5 35.5534 37.004 34.4974 37.388C33.4654 37.772 32.4934 37.964 31.5814 37.964C30.2374 37.964 29.0374 37.7 27.9814 37.172C26.9254 36.62 26.0854 35.852 25.4614 34.868C24.8614 33.884 24.5614 32.768 24.5614 31.52V26.156C24.5614 24.956 24.8734 23.864 25.4974 22.88C26.1454 21.872 26.9854 21.092 28.0174 20.54C29.0734 19.964 30.2014 19.676 31.4014 19.676C32.7214 19.676 33.8374 19.94 34.7494 20.468C35.6854 20.996 36.5374 21.752 37.3054 22.736L37.4494 22.592C37.3294 22.376 37.1014 22.064 36.7654 21.656C36.7654 20.336 38.1454 19.676 40.9054 19.676V37.388C40.9054 38.972 40.5454 40.376 39.8254 41.6C39.1054 42.824 38.0974 43.784 36.8014 44.48C35.5294 45.176 34.0894 45.524 32.4814 45.524ZM32.7334 34.112C33.7894 34.112 34.6774 33.848 35.3974 33.32C36.1174 32.768 36.4774 32.12 36.4774 31.376V26.264C36.4774 25.496 36.1174 24.848 35.3974 24.32C34.7014 23.792 33.8134 23.528 32.7334 23.528C31.5574 23.528 30.6454 23.78 29.9974 24.284C29.3734 24.788 29.0614 25.508 29.0614 26.444V31.196C29.0614 32.108 29.3734 32.828 29.9974 33.356C30.6214 33.86 31.5334 34.112 32.7334 34.112ZM54.251 23.564C52.835 23.564 51.683 23.948 50.795 24.716C49.907 25.46 49.463 26.396 49.463 27.524V35.588C49.463 36.548 49.103 37.244 48.383 37.676C47.663 38.108 46.535 38.324 44.999 38.324V23.132C44.999 22.028 45.347 21.176 46.043 20.576C46.763 19.976 47.843 19.676 49.283 19.676V21.8C48.923 22.208 48.635 22.604 48.419 22.988L48.635 23.132C50.147 20.828 52.043 19.676 54.323 19.676C55.355 19.676 56.135 19.952 56.663 20.504C57.191 21.032 57.455 21.704 57.455 22.52C57.455 23.144 57.287 23.672 56.951 24.104C56.303 23.744 55.403 23.564 54.251 23.564ZM66.7689 38.324C65.2809 38.324 63.9249 38.036 62.7009 37.46C61.4769 36.86 60.5049 36.056 59.7849 35.048C59.0649 34.016 58.7049 32.864 58.7049 31.592V26.804C58.7049 25.46 59.0769 24.248 59.8209 23.168C60.5649 22.088 61.5489 21.236 62.7729 20.612C64.0209 19.988 65.3649 19.676 66.8049 19.676C68.2209 19.676 69.5169 19.976 70.6929 20.576C71.8929 21.152 72.8409 21.968 73.5369 23.024C74.2329 24.056 74.5809 25.244 74.5809 26.588V28.604C74.5809 29.132 74.3769 29.576 73.9689 29.936C73.5849 30.296 73.0929 30.476 72.4929 30.476H63.0609V31.268C63.0609 32.3 63.3729 33.14 63.9969 33.788C64.6209 34.436 65.5569 34.76 66.8049 34.76C68.0049 34.76 68.8929 34.496 69.4689 33.968C70.0689 33.44 70.3689 32.756 70.3689 31.916C70.8009 31.868 71.1009 31.844 71.2689 31.844C72.1569 31.844 72.8529 32.048 73.3569 32.456C73.8609 32.84 74.1129 33.392 74.1129 34.112C74.1129 34.808 73.7889 35.48 73.1409 36.128C72.4929 36.776 71.6049 37.304 70.4769 37.712C69.3489 38.12 68.1129 38.324 66.7689 38.324ZM70.5129 27.272V26.588C70.5129 25.58 70.1649 24.764 69.4689 24.14C68.7729 23.516 67.8729 23.204 66.7689 23.204C65.6649 23.204 64.7649 23.516 64.0689 24.14C63.3969 24.74 63.0609 25.556 63.0609 26.588V27.272H70.5129ZM85.4619 45.524C84.0459 45.524 82.7859 45.32 81.6819 44.912C80.5779 44.528 79.7139 44 79.0899 43.328C78.4659 42.656 78.1539 41.912 78.1539 41.096C78.1539 40.28 78.4299 39.704 78.9819 39.368C79.5579 39.032 80.3619 38.864 81.3939 38.864C81.4899 39.848 81.8739 40.604 82.5459 41.132C83.2179 41.684 84.1899 41.96 85.4619 41.96C86.8779 41.96 87.8739 41.612 88.4499 40.916C89.0499 40.22 89.3499 39.26 89.3499 38.036V36.812C89.7099 36.548 89.9739 36.296 90.1419 36.056L89.9979 35.876C89.3739 36.5 88.5339 37.004 87.4779 37.388C86.4459 37.772 85.4739 37.964 84.5619 37.964C83.2179 37.964 82.0179 37.7 80.9619 37.172C79.9059 36.62 79.0659 35.852 78.4419 34.868C77.8419 33.884 77.5419 32.768 77.5419 31.52V26.156C77.5419 24.956 77.8539 23.864 78.4779 22.88C79.1259 21.872 79.9659 21.092 80.9979 20.54C82.0539 19.964 83.1819 19.676 84.3819 19.676C85.7019 19.676 86.8179 19.94 87.7299 20.468C88.6659 20.996 89.5179 21.752 90.2859 22.736L90.4299 22.592C90.3099 22.376 90.0819 22.064 89.7459 21.656C89.7459 20.336 91.1259 19.676 93.8859 19.676V37.388C93.8859 38.972 93.5259 40.376 92.8059 41.6C92.0859 42.824 91.0779 43.784 89.7819 44.48C88.5099 45.176 87.0699 45.524 85.4619 45.524ZM85.7139 34.112C86.7699 34.112 87.6579 33.848 88.3779 33.32C89.0979 32.768 89.4579 32.12 89.4579 31.376V26.264C89.4579 25.496 89.0979 24.848 88.3779 24.32C87.6819 23.792 86.7939 23.528 85.7139 23.528C84.5379 23.528 83.6259 23.78 82.9779 24.284C82.3539 24.788 82.0419 25.508 82.0419 26.444V31.196C82.0419 32.108 82.3539 32.828 82.9779 33.356C83.6019 33.86 84.5139 34.112 85.7139 34.112ZM103.955 38.324C102.731 38.324 101.603 38.084 100.571 37.604C99.5635 37.124 98.7475 36.44 98.1235 35.552C97.5235 34.64 97.2235 33.56 97.2235 32.312C97.2235 31.064 97.5475 29.984 98.1955 29.072C98.8435 28.136 99.7195 27.428 100.823 26.948C101.951 26.444 103.187 26.192 104.531 26.192C105.635 26.192 106.619 26.372 107.483 26.732C108.371 27.068 109.187 27.584 109.931 28.28L110.111 28.1C109.895 27.884 109.523 27.56 108.995 27.128V26.408C108.995 25.424 108.647 24.644 107.951 24.068C107.255 23.492 106.283 23.204 105.035 23.204C102.803 23.204 101.159 24.02 100.103 25.652C99.5755 25.484 99.1315 25.22 98.7715 24.86C98.4115 24.476 98.2315 24.068 98.2315 23.636C98.2315 22.916 98.5555 22.256 99.2035 21.656C99.8515 21.056 100.727 20.576 101.831 20.216C102.935 19.856 104.135 19.676 105.431 19.676C107.975 19.676 109.943 20.276 111.335 21.476C112.727 22.652 113.423 24.26 113.423 26.3V35.3C113.423 36.356 113.087 37.124 112.415 37.604C111.743 38.084 110.687 38.324 109.247 38.324V36.848C109.655 36.44 109.931 36.14 110.075 35.948L109.931 35.768C109.139 36.608 108.287 37.244 107.375 37.676C106.487 38.108 105.347 38.324 103.955 38.324ZM105.107 35.048C106.355 35.048 107.327 34.808 108.023 34.328C108.719 33.848 109.067 33.164 109.067 32.276C109.067 31.412 108.707 30.728 107.987 30.224C107.291 29.72 106.343 29.468 105.143 29.468C104.039 29.468 103.163 29.72 102.515 30.224C101.891 30.704 101.579 31.388 101.579 32.276C101.579 33.188 101.891 33.884 102.515 34.364C103.139 34.82 104.003 35.048 105.107 35.048ZM126.708 23.564C125.292 23.564 124.14 23.948 123.252 24.716C122.364 25.46 121.92 26.396 121.92 27.524V35.588C121.92 36.548 121.56 37.244 120.84 37.676C120.12 38.108 118.992 38.324 117.456 38.324V23.132C117.456 22.028 117.804 21.176 118.5 20.576C119.22 19.976 120.3 19.676 121.74 19.676V21.8C121.38 22.208 121.092 22.604 120.876 22.988L121.092 23.132C122.604 20.828 124.5 19.676 126.78 19.676C127.812 19.676 128.592 19.952 129.12 20.504C129.648 21.032 129.912 21.704 129.912 22.52C129.912 23.144 129.744 23.672 129.408 24.104C128.76 23.744 127.86 23.564 126.708 23.564ZM142.276 22.772C142.276 21.884 142.624 21.152 143.32 20.576C144.016 19.976 145.048 19.676 146.416 19.676V21.62C146.008 22.172 145.78 22.496 145.732 22.592L145.876 22.736C146.644 21.728 147.484 20.972 148.396 20.468C149.332 19.94 150.484 19.676 151.852 19.676C153.172 19.676 154.336 19.952 155.344 20.504C156.376 21.032 157.18 21.788 157.756 22.772C158.332 23.756 158.62 24.884 158.62 26.156V31.844C158.62 33.14 158.296 34.28 157.648 35.264C157.024 36.248 156.16 37.004 155.056 37.532C153.952 38.06 152.704 38.324 151.312 38.324C150.424 38.324 149.5 38.144 148.54 37.784C147.604 37.4 146.812 36.884 146.164 36.236L146.02 36.416C146.188 36.656 146.452 36.908 146.812 37.172V42.5C146.812 44.516 145.3 45.524 142.276 45.524V22.772ZM150.448 34.436C151.624 34.436 152.536 34.184 153.184 33.68C153.832 33.176 154.156 32.468 154.156 31.556V26.444C154.156 25.508 153.832 24.8 153.184 24.32C152.56 23.816 151.648 23.564 150.448 23.564C149.368 23.564 148.48 23.828 147.784 24.356C147.088 24.86 146.74 25.496 146.74 26.264V31.736C146.74 32.48 147.076 33.116 147.748 33.644C148.444 34.172 149.344 34.436 150.448 34.436ZM171.462 23.564C170.046 23.564 168.894 23.948 168.006 24.716C167.118 25.46 166.674 26.396 166.674 27.524V35.588C166.674 36.548 166.314 37.244 165.594 37.676C164.874 38.108 163.746 38.324 162.21 38.324V23.132C162.21 22.028 162.558 21.176 163.254 20.576C163.974 19.976 165.054 19.676 166.494 19.676V21.8C166.134 22.208 165.846 22.604 165.63 22.988L165.846 23.132C167.358 20.828 169.254 19.676 171.534 19.676C172.566 19.676 173.346 19.952 173.874 20.504C174.402 21.032 174.666 21.704 174.666 22.52C174.666 23.144 174.498 23.672 174.162 24.104C173.514 23.744 172.614 23.564 171.462 23.564ZM182.918 38.324C181.358 38.324 179.942 38.048 178.67 37.496C177.422 36.92 176.438 36.128 175.718 35.12C174.998 34.112 174.638 32.972 174.638 31.7V26.624C174.638 25.328 174.986 24.152 175.682 23.096C176.402 22.04 177.386 21.212 178.634 20.612C179.882 19.988 181.31 19.676 182.918 19.676C184.526 19.676 185.954 19.988 187.202 20.612C188.474 21.212 189.458 22.04 190.154 23.096C190.874 24.152 191.234 25.328 191.234 26.624V31.7C191.234 32.972 190.862 34.112 190.118 35.12C189.398 36.128 188.402 36.92 187.13 37.496C185.882 38.048 184.478 38.324 182.918 38.324ZM182.918 34.472C184.118 34.472 185.054 34.196 185.726 33.644C186.422 33.092 186.77 32.348 186.77 31.412V26.84C186.77 25.856 186.422 25.064 185.726 24.464C185.054 23.84 184.118 23.528 182.918 23.528C181.742 23.528 180.806 23.84 180.11 24.464C179.414 25.064 179.066 25.856 179.066 26.84V31.412C179.066 32.348 179.414 33.092 180.11 33.644C180.806 34.196 181.742 34.472 182.918 34.472ZM200.51 38.324C199.214 38.324 198.05 38.048 197.018 37.496C195.986 36.944 195.17 36.188 194.57 35.228C193.97 34.244 193.67 33.116 193.67 31.844V26.156C193.67 24.908 193.982 23.792 194.606 22.808C195.23 21.824 196.094 21.056 197.198 20.504C198.326 19.952 199.574 19.676 200.942 19.676C201.83 19.676 202.742 19.868 203.678 20.252C204.638 20.612 205.442 21.104 206.09 21.728L206.234 21.548C206.114 21.356 205.85 21.116 205.442 20.828V15.5C205.442 14.54 205.814 13.796 206.558 13.268C207.326 12.74 208.478 12.476 210.014 12.476V35.228C210.014 36.116 209.678 36.86 209.006 37.46C208.334 38.036 207.29 38.324 205.874 38.324V36.344C206.186 35.96 206.414 35.648 206.558 35.408L206.378 35.264C205.634 36.272 204.806 37.04 203.894 37.568C203.006 38.072 201.878 38.324 200.51 38.324ZM201.842 34.436C202.922 34.436 203.798 34.184 204.47 33.68C205.166 33.152 205.514 32.492 205.514 31.7V26.264C205.514 25.496 205.166 24.86 204.47 24.356C203.798 23.828 202.91 23.564 201.806 23.564C200.63 23.564 199.718 23.816 199.07 24.32C198.446 24.8 198.134 25.496 198.134 26.408V31.52C198.134 32.48 198.446 33.212 199.07 33.716C199.718 34.196 200.642 34.436 201.842 34.436ZM230.189 34.832C230.189 35.96 229.829 36.824 229.109 37.424C228.413 38.024 227.345 38.324 225.905 38.324V36.164C226.217 35.804 226.505 35.408 226.769 34.976L226.553 34.832C225.017 37.16 222.953 38.324 220.361 38.324C219.137 38.324 218.033 38.048 217.049 37.496C216.089 36.92 215.321 36.128 214.745 35.12C214.193 34.112 213.917 32.972 213.917 31.7V22.412C213.917 21.428 214.277 20.732 214.997 20.324C215.741 19.892 216.869 19.676 218.381 19.676V31.376C218.381 32.312 218.669 33.056 219.245 33.608C219.821 34.16 220.649 34.436 221.729 34.436C222.929 34.436 223.889 34.064 224.609 33.32C225.353 32.552 225.725 31.604 225.725 30.476V22.412C225.725 21.428 226.085 20.732 226.805 20.324C227.525 19.892 228.653 19.676 230.189 19.676V34.832ZM242.161 38.324C240.601 38.324 239.221 38.048 238.021 37.496C236.821 36.92 235.885 36.128 235.213 35.12C234.541 34.112 234.205 32.972 234.205 31.7V26.66C234.205 25.292 234.541 24.08 235.213 23.024C235.885 21.968 236.821 21.152 238.021 20.576C239.221 19.976 240.589 19.676 242.125 19.676C243.565 19.676 244.837 19.88 245.941 20.288C247.069 20.696 247.945 21.272 248.569 22.016C249.193 22.736 249.505 23.576 249.505 24.536C249.505 25.28 249.217 25.88 248.641 26.336C248.065 26.792 247.309 27.02 246.373 27.02C246.109 27.02 245.917 27.008 245.797 26.984C245.797 25.952 245.461 25.124 244.789 24.5C244.141 23.876 243.289 23.564 242.233 23.564C241.177 23.564 240.313 23.864 239.641 24.464C238.993 25.064 238.669 25.856 238.669 26.84V31.376C238.669 32.288 239.005 33.032 239.677 33.608C240.349 34.16 241.213 34.436 242.269 34.436C243.325 34.436 244.189 34.124 244.861 33.5C245.533 32.852 245.869 32.036 245.869 31.052C246.013 31.028 246.217 31.016 246.481 31.016C247.417 31.016 248.173 31.232 248.749 31.664C249.325 32.096 249.613 32.684 249.613 33.428C249.613 34.388 249.289 35.24 248.641 35.984C248.017 36.704 247.141 37.28 246.013 37.712C244.885 38.12 243.601 38.324 242.161 38.324ZM260.426 38.324C258.482 38.324 257.042 37.76 256.106 36.632C255.17 35.504 254.702 34.052 254.702 32.276V23.348H250.994C250.994 22.22 251.21 21.38 251.642 20.828C252.074 20.276 252.65 20 253.37 20H254.774V17.012C254.774 16.028 255.134 15.332 255.854 14.924C256.574 14.492 257.666 14.276 259.13 14.276V20H263.918C263.918 21.2 263.69 22.064 263.234 22.592C262.778 23.096 262.046 23.348 261.038 23.348H259.202V32.096C259.202 32.936 259.358 33.536 259.67 33.896C260.006 34.256 260.57 34.436 261.362 34.436C262.202 34.436 263.042 34.208 263.882 33.752C264.122 33.968 264.314 34.244 264.458 34.58C264.602 34.892 264.674 35.216 264.674 35.552C264.674 36.272 264.302 36.92 263.558 37.496C262.814 38.048 261.77 38.324 260.426 38.324ZM274.675 38.324C273.115 38.324 271.699 38.048 270.427 37.496C269.179 36.92 268.195 36.128 267.475 35.12C266.755 34.112 266.395 32.972 266.395 31.7V26.624C266.395 25.328 266.743 24.152 267.439 23.096C268.159 22.04 269.143 21.212 270.391 20.612C271.639 19.988 273.067 19.676 274.675 19.676C276.283 19.676 277.711 19.988 278.959 20.612C280.231 21.212 281.215 22.04 281.911 23.096C282.631 24.152 282.991 25.328 282.991 26.624V31.7C282.991 32.972 282.619 34.112 281.875 35.12C281.155 36.128 280.159 36.92 278.887 37.496C277.639 38.048 276.235 38.324 274.675 38.324ZM274.675 34.472C275.875 34.472 276.811 34.196 277.483 33.644C278.179 33.092 278.527 32.348 278.527 31.412V26.84C278.527 25.856 278.179 25.064 277.483 24.464C276.811 23.84 275.875 23.528 274.675 23.528C273.499 23.528 272.563 23.84 271.867 24.464C271.171 25.064 270.823 25.856 270.823 26.84V31.412C270.823 32.348 271.171 33.092 271.867 33.644C272.563 34.196 273.499 34.472 274.675 34.472Z"
        fill="#777777"/>
  <line x1="309" y1="28.5" x2="1145" y2="28.4999" stroke="#CBCBCB"/>
</svg>
