<svg width="1159" height="47" viewBox="0 0 1159 47" fill="none" xmlns="http://www.w3.org/2000/svg">
  <path d="M12.492 38.324C10.356 38.324 8.448 37.916 6.768 37.1C5.112 36.284 3.816 35.144 2.88 33.68C1.944 32.216 1.476 30.548 1.476 28.676V22.052C1.476 20.18 1.932 18.524 2.844 17.084C3.78 15.62 5.064 14.492 6.696 13.7C8.328 12.884 10.2 12.476 12.312 12.476C14.424 12.476 16.296 12.8 17.928 13.448C19.584 14.072 20.868 14.96 21.78 16.112C22.692 17.24 23.148 18.536 23.148 20C23.148 20.888 22.848 21.596 22.248 22.124C21.672 22.628 20.892 22.88 19.908 22.88C19.428 22.88 18.9 22.808 18.324 22.664C18.372 22.088 18.396 21.524 18.396 20.972C18.396 19.7 17.832 18.668 16.704 17.876C15.576 17.084 14.112 16.688 12.312 16.688C10.536 16.688 9.084 17.192 7.956 18.2C6.852 19.184 6.3 20.468 6.3 22.052V28.676C6.3 30.284 6.876 31.592 8.028 32.6C9.18 33.608 10.668 34.112 12.492 34.112C14.292 34.112 15.756 33.716 16.884 32.924C18.012 32.132 18.576 31.112 18.576 29.864C18.576 29.288 18.552 28.736 18.504 28.208C19.104 28.088 19.608 28.028 20.016 28.028C21.024 28.028 21.828 28.292 22.428 28.82C23.028 29.348 23.328 30.068 23.328 30.98C23.328 32.396 22.872 33.668 21.96 34.796C21.048 35.9 19.764 36.764 18.108 37.388C16.476 38.012 14.604 38.324 12.492 38.324ZM36.0557 23.564C34.6397 23.564 33.4877 23.948 32.5997 24.716C31.7117 25.46 31.2677 26.396 31.2677 27.524V35.588C31.2677 36.548 30.9077 37.244 30.1877 37.676C29.4677 38.108 28.3397 38.324 26.8037 38.324V23.132C26.8037 22.028 27.1517 21.176 27.8477 20.576C28.5677 19.976 29.6477 19.676 31.0877 19.676V21.8C30.7277 22.208 30.4397 22.604 30.2237 22.988L30.4397 23.132C31.9517 20.828 33.8477 19.676 36.1277 19.676C37.1597 19.676 37.9397 19.952 38.4677 20.504C38.9957 21.032 39.2597 21.704 39.2597 22.52C39.2597 23.144 39.0917 23.672 38.7557 24.104C38.1077 23.744 37.2077 23.564 36.0557 23.564ZM48.5736 38.324C47.0856 38.324 45.7296 38.036 44.5056 37.46C43.2816 36.86 42.3096 36.056 41.5896 35.048C40.8696 34.016 40.5096 32.864 40.5096 31.592V26.804C40.5096 25.46 40.8816 24.248 41.6256 23.168C42.3696 22.088 43.3536 21.236 44.5776 20.612C45.8256 19.988 47.1696 19.676 48.6096 19.676C50.0256 19.676 51.3216 19.976 52.4976 20.576C53.6976 21.152 54.6456 21.968 55.3416 23.024C56.0376 24.056 56.3856 25.244 56.3856 26.588V28.604C56.3856 29.132 56.1816 29.576 55.7736 29.936C55.3896 30.296 54.8976 30.476 54.2976 30.476H44.8656V31.268C44.8656 32.3 45.1776 33.14 45.8016 33.788C46.4256 34.436 47.3616 34.76 48.6096 34.76C49.8096 34.76 50.6976 34.496 51.2736 33.968C51.8736 33.44 52.1736 32.756 52.1736 31.916C52.6056 31.868 52.9056 31.844 53.0736 31.844C53.9616 31.844 54.6576 32.048 55.1616 32.456C55.6656 32.84 55.9176 33.392 55.9176 34.112C55.9176 34.808 55.5936 35.48 54.9456 36.128C54.2976 36.776 53.4096 37.304 52.2816 37.712C51.1536 38.12 49.9176 38.324 48.5736 38.324ZM52.3176 27.272V26.588C52.3176 25.58 51.9696 24.764 51.2736 24.14C50.5776 23.516 49.6776 23.204 48.5736 23.204C47.4696 23.204 46.5696 23.516 45.8736 24.14C45.2016 24.74 44.8656 25.556 44.8656 26.588V27.272H52.3176ZM65.2992 38.324C64.0752 38.324 62.9472 38.084 61.9152 37.604C60.9072 37.124 60.0912 36.44 59.4672 35.552C58.8672 34.64 58.5672 33.56 58.5672 32.312C58.5672 31.064 58.8912 29.984 59.5392 29.072C60.1872 28.136 61.0632 27.428 62.1672 26.948C63.2952 26.444 64.5312 26.192 65.8752 26.192C66.9792 26.192 67.9632 26.372 68.8272 26.732C69.7152 27.068 70.5312 27.584 71.2752 28.28L71.4552 28.1C71.2392 27.884 70.8672 27.56 70.3392 27.128V26.408C70.3392 25.424 69.9912 24.644 69.2952 24.068C68.5992 23.492 67.6272 23.204 66.3792 23.204C64.1472 23.204 62.5032 24.02 61.4472 25.652C60.9192 25.484 60.4752 25.22 60.1152 24.86C59.7552 24.476 59.5752 24.068 59.5752 23.636C59.5752 22.916 59.8992 22.256 60.5472 21.656C61.1952 21.056 62.0712 20.576 63.1752 20.216C64.2792 19.856 65.4792 19.676 66.7752 19.676C69.3192 19.676 71.2872 20.276 72.6792 21.476C74.0712 22.652 74.7672 24.26 74.7672 26.3V35.3C74.7672 36.356 74.4312 37.124 73.7592 37.604C73.0872 38.084 72.0312 38.324 70.5912 38.324V36.848C70.9992 36.44 71.2752 36.14 71.4192 35.948L71.2752 35.768C70.4832 36.608 69.6312 37.244 68.7192 37.676C67.8312 38.108 66.6912 38.324 65.2992 38.324ZM66.4512 35.048C67.6992 35.048 68.6712 34.808 69.3672 34.328C70.0632 33.848 70.4112 33.164 70.4112 32.276C70.4112 31.412 70.0512 30.728 69.3312 30.224C68.6352 29.72 67.6872 29.468 66.4872 29.468C65.3832 29.468 64.5072 29.72 63.8592 30.224C63.2352 30.704 62.9232 31.388 62.9232 32.276C62.9232 33.188 63.2352 33.884 63.8592 34.364C64.4832 34.82 65.3472 35.048 66.4512 35.048ZM88.0518 23.564C86.6358 23.564 85.4838 23.948 84.5958 24.716C83.7078 25.46 83.2638 26.396 83.2638 27.524V35.588C83.2638 36.548 82.9038 37.244 82.1838 37.676C81.4638 38.108 80.3358 38.324 78.7998 38.324V23.132C78.7998 22.028 79.1478 21.176 79.8438 20.576C80.5638 19.976 81.6438 19.676 83.0838 19.676V21.8C82.7238 22.208 82.4358 22.604 82.2198 22.988L82.4358 23.132C83.9478 20.828 85.8438 19.676 88.1238 19.676C89.1558 19.676 89.9358 19.952 90.4638 20.504C90.9918 21.032 91.2558 21.704 91.2558 22.52C91.2558 23.144 91.0878 23.672 90.7518 24.104C90.1038 23.744 89.2038 23.564 88.0518 23.564ZM119.568 34.832C119.568 35.96 119.208 36.824 118.488 37.424C117.792 38.024 116.724 38.324 115.284 38.324V36.164C115.596 35.804 115.884 35.408 116.148 34.976L115.932 34.832C114.396 37.16 112.332 38.324 109.74 38.324C108.516 38.324 107.412 38.048 106.428 37.496C105.468 36.92 104.7 36.128 104.124 35.12C103.572 34.112 103.296 32.972 103.296 31.7V22.412C103.296 21.428 103.656 20.732 104.376 20.324C105.12 19.892 106.248 19.676 107.76 19.676V31.376C107.76 32.312 108.048 33.056 108.624 33.608C109.2 34.16 110.028 34.436 111.108 34.436C112.308 34.436 113.268 34.064 113.988 33.32C114.732 32.552 115.104 31.604 115.104 30.476V22.412C115.104 21.428 115.464 20.732 116.184 20.324C116.904 19.892 118.032 19.676 119.568 19.676V34.832ZM131.108 38.324C128.804 38.324 126.944 37.916 125.528 37.1C124.136 36.26 123.428 35.144 123.404 33.752C123.404 33.152 123.644 32.648 124.124 32.24C124.628 31.832 125.42 31.616 126.5 31.592C126.716 32.648 127.22 33.464 128.012 34.04C128.804 34.592 129.764 34.868 130.892 34.868C132.116 34.868 133.076 34.712 133.772 34.4C134.468 34.088 134.816 33.62 134.816 32.996C134.816 32.42 134.528 31.94 133.952 31.556C133.4 31.172 132.296 30.788 130.64 30.404C128.84 29.972 127.436 29.54 126.428 29.108C125.444 28.676 124.712 28.124 124.232 27.452C123.752 26.78 123.512 25.892 123.512 24.788C123.512 23.252 124.16 22.016 125.456 21.08C126.752 20.144 128.528 19.676 130.784 19.676C132.968 19.676 134.78 20.072 136.22 20.864C137.66 21.632 138.38 22.664 138.38 23.96C138.38 24.608 138.14 25.088 137.66 25.4C137.18 25.712 136.388 25.88 135.284 25.904C135.044 24.944 134.588 24.224 133.916 23.744C133.244 23.264 132.296 23.024 131.072 23.024C130.16 23.024 129.368 23.18 128.696 23.492C128.048 23.804 127.724 24.212 127.724 24.716C127.724 25.244 128 25.652 128.552 25.94C129.104 26.228 130.064 26.516 131.432 26.804C134.12 27.38 136.064 28.148 137.264 29.108C138.488 30.068 139.1 31.376 139.1 33.032C139.1 34.64 138.38 35.924 136.94 36.884C135.524 37.844 133.58 38.324 131.108 38.324ZM158.275 34.832C158.275 35.96 157.915 36.824 157.195 37.424C156.499 38.024 155.431 38.324 153.991 38.324V36.164C154.303 35.804 154.591 35.408 154.855 34.976L154.639 34.832C153.103 37.16 151.039 38.324 148.447 38.324C147.223 38.324 146.119 38.048 145.135 37.496C144.175 36.92 143.407 36.128 142.831 35.12C142.279 34.112 142.003 32.972 142.003 31.7V22.412C142.003 21.428 142.363 20.732 143.083 20.324C143.827 19.892 144.955 19.676 146.467 19.676V31.376C146.467 32.312 146.755 33.056 147.331 33.608C147.907 34.16 148.735 34.436 149.815 34.436C151.015 34.436 151.975 34.064 152.695 33.32C153.439 32.552 153.811 31.604 153.811 30.476V22.412C153.811 21.428 154.171 20.732 154.891 20.324C155.611 19.892 156.739 19.676 158.275 19.676V34.832ZM168.483 38.324C167.259 38.324 166.131 38.084 165.099 37.604C164.091 37.124 163.275 36.44 162.651 35.552C162.051 34.64 161.751 33.56 161.751 32.312C161.751 31.064 162.075 29.984 162.723 29.072C163.371 28.136 164.247 27.428 165.351 26.948C166.479 26.444 167.715 26.192 169.059 26.192C170.163 26.192 171.147 26.372 172.011 26.732C172.899 27.068 173.715 27.584 174.459 28.28L174.639 28.1C174.423 27.884 174.051 27.56 173.523 27.128V26.408C173.523 25.424 173.175 24.644 172.479 24.068C171.783 23.492 170.811 23.204 169.563 23.204C167.331 23.204 165.687 24.02 164.631 25.652C164.103 25.484 163.659 25.22 163.299 24.86C162.939 24.476 162.759 24.068 162.759 23.636C162.759 22.916 163.083 22.256 163.731 21.656C164.379 21.056 165.255 20.576 166.359 20.216C167.463 19.856 168.663 19.676 169.959 19.676C172.503 19.676 174.471 20.276 175.863 21.476C177.255 22.652 177.951 24.26 177.951 26.3V35.3C177.951 36.356 177.615 37.124 176.943 37.604C176.271 38.084 175.215 38.324 173.775 38.324V36.848C174.183 36.44 174.459 36.14 174.603 35.948L174.459 35.768C173.667 36.608 172.815 37.244 171.903 37.676C171.015 38.108 169.875 38.324 168.483 38.324ZM169.635 35.048C170.883 35.048 171.855 34.808 172.551 34.328C173.247 33.848 173.595 33.164 173.595 32.276C173.595 31.412 173.235 30.728 172.515 30.224C171.819 29.72 170.871 29.468 169.671 29.468C168.567 29.468 167.691 29.72 167.043 30.224C166.419 30.704 166.107 31.388 166.107 32.276C166.107 33.188 166.419 33.884 167.043 34.364C167.667 34.82 168.531 35.048 169.635 35.048ZM191.235 23.564C189.819 23.564 188.667 23.948 187.779 24.716C186.891 25.46 186.447 26.396 186.447 27.524V35.588C186.447 36.548 186.087 37.244 185.367 37.676C184.647 38.108 183.519 38.324 181.983 38.324V23.132C181.983 22.028 182.331 21.176 183.027 20.576C183.747 19.976 184.827 19.676 186.267 19.676V21.8C185.907 22.208 185.619 22.604 185.403 22.988L185.619 23.132C187.131 20.828 189.027 19.676 191.307 19.676C192.339 19.676 193.119 19.952 193.647 20.504C194.175 21.032 194.439 21.704 194.439 22.52C194.439 23.144 194.271 23.672 193.935 24.104C193.287 23.744 192.387 23.564 191.235 23.564ZM199.596 17.984C198.732 17.984 198.012 17.732 197.436 17.228C196.884 16.7 196.608 16.028 196.608 15.212C196.608 14.42 196.884 13.772 197.436 13.268C198.012 12.74 198.732 12.476 199.596 12.476C200.46 12.476 201.168 12.74 201.72 13.268C202.296 13.772 202.584 14.42 202.584 15.212C202.584 16.028 202.296 16.7 201.72 17.228C201.168 17.732 200.46 17.984 199.596 17.984ZM197.328 22.412C197.328 21.428 197.7 20.732 198.444 20.324C199.188 19.892 200.316 19.676 201.828 19.676V35.588C201.828 36.548 201.456 37.244 200.712 37.676C199.968 38.108 198.84 38.324 197.328 38.324V22.412ZM213.449 38.324C211.889 38.324 210.473 38.048 209.201 37.496C207.953 36.92 206.969 36.128 206.249 35.12C205.529 34.112 205.169 32.972 205.169 31.7V26.624C205.169 25.328 205.517 24.152 206.213 23.096C206.933 22.04 207.917 21.212 209.165 20.612C210.413 19.988 211.841 19.676 213.449 19.676C215.057 19.676 216.485 19.988 217.733 20.612C219.005 21.212 219.989 22.04 220.685 23.096C221.405 24.152 221.765 25.328 221.765 26.624V31.7C221.765 32.972 221.393 34.112 220.649 35.12C219.929 36.128 218.933 36.92 217.661 37.496C216.413 38.048 215.009 38.324 213.449 38.324ZM213.449 34.472C214.649 34.472 215.585 34.196 216.257 33.644C216.953 33.092 217.301 32.348 217.301 31.412V26.84C217.301 25.856 216.953 25.064 216.257 24.464C215.585 23.84 214.649 23.528 213.449 23.528C212.273 23.528 211.337 23.84 210.641 24.464C209.945 25.064 209.597 25.856 209.597 26.84V31.412C209.597 32.348 209.945 33.092 210.641 33.644C211.337 34.196 212.273 34.472 213.449 34.472Z"
        fill="#777777"/>
  <line x1="239.997" y1="28.2031" x2="1158.01" y2="28.2031" stroke="#CBCBCB"/>
</svg>
