<svg width="1151" height="47" viewBox="0 0 1151 47" fill="none" xmlns="http://www.w3.org/2000/svg">
  <path d="M14.492 38.324C12.356 38.324 10.448 37.916 8.768 37.1C7.112 36.284 5.816 35.144 4.88 33.68C3.944 32.216 3.476 30.548 3.476 28.676V22.052C3.476 20.18 3.932 18.524 4.844 17.084C5.78 15.62 7.064 14.492 8.696 13.7C10.328 12.884 12.2 12.476 14.312 12.476C16.424 12.476 18.296 12.8 19.928 13.448C21.584 14.072 22.868 14.96 23.78 16.112C24.692 17.24 25.148 18.536 25.148 20C25.148 20.888 24.848 21.596 24.248 22.124C23.672 22.628 22.892 22.88 21.908 22.88C21.428 22.88 20.9 22.808 20.324 22.664C20.372 22.088 20.396 21.524 20.396 20.972C20.396 19.7 19.832 18.668 18.704 17.876C17.576 17.084 16.112 16.688 14.312 16.688C12.536 16.688 11.084 17.192 9.956 18.2C8.852 19.184 8.3 20.468 8.3 22.052V28.676C8.3 30.284 8.876 31.592 10.028 32.6C11.18 33.608 12.668 34.112 14.492 34.112C16.292 34.112 17.756 33.716 18.884 32.924C20.012 32.132 20.576 31.112 20.576 29.864C20.576 29.288 20.552 28.736 20.504 28.208C21.104 28.088 21.608 28.028 22.016 28.028C23.024 28.028 23.828 28.292 24.428 28.82C25.028 29.348 25.328 30.068 25.328 30.98C25.328 32.396 24.872 33.668 23.96 34.796C23.048 35.9 21.764 36.764 20.108 37.388C18.476 38.012 16.604 38.324 14.492 38.324ZM38.0557 23.564C36.6397 23.564 35.4877 23.948 34.5997 24.716C33.7117 25.46 33.2677 26.396 33.2677 27.524V35.588C33.2677 36.548 32.9077 37.244 32.1877 37.676C31.4677 38.108 30.3397 38.324 28.8037 38.324V23.132C28.8037 22.028 29.1517 21.176 29.8477 20.576C30.5677 19.976 31.6477 19.676 33.0877 19.676V21.8C32.7277 22.208 32.4397 22.604 32.2237 22.988L32.4397 23.132C33.9517 20.828 35.8477 19.676 38.1277 19.676C39.1597 19.676 39.9397 19.952 40.4677 20.504C40.9957 21.032 41.2597 21.704 41.2597 22.52C41.2597 23.144 41.0917 23.672 40.7557 24.104C40.1077 23.744 39.2077 23.564 38.0557 23.564ZM50.5736 38.324C49.0856 38.324 47.7296 38.036 46.5056 37.46C45.2816 36.86 44.3096 36.056 43.5896 35.048C42.8696 34.016 42.5096 32.864 42.5096 31.592V26.804C42.5096 25.46 42.8816 24.248 43.6256 23.168C44.3696 22.088 45.3536 21.236 46.5776 20.612C47.8256 19.988 49.1696 19.676 50.6096 19.676C52.0256 19.676 53.3216 19.976 54.4976 20.576C55.6976 21.152 56.6456 21.968 57.3416 23.024C58.0376 24.056 58.3856 25.244 58.3856 26.588V28.604C58.3856 29.132 58.1816 29.576 57.7736 29.936C57.3896 30.296 56.8976 30.476 56.2976 30.476H46.8656V31.268C46.8656 32.3 47.1776 33.14 47.8016 33.788C48.4256 34.436 49.3616 34.76 50.6096 34.76C51.8096 34.76 52.6976 34.496 53.2736 33.968C53.8736 33.44 54.1736 32.756 54.1736 31.916C54.6056 31.868 54.9056 31.844 55.0736 31.844C55.9616 31.844 56.6576 32.048 57.1616 32.456C57.6656 32.84 57.9176 33.392 57.9176 34.112C57.9176 34.808 57.5936 35.48 56.9456 36.128C56.2976 36.776 55.4096 37.304 54.2816 37.712C53.1536 38.12 51.9176 38.324 50.5736 38.324ZM54.3176 27.272V26.588C54.3176 25.58 53.9696 24.764 53.2736 24.14C52.5776 23.516 51.6776 23.204 50.5736 23.204C49.4696 23.204 48.5696 23.516 47.8736 24.14C47.2016 24.74 46.8656 25.556 46.8656 26.588V27.272H54.3176ZM67.2992 38.324C66.0752 38.324 64.9472 38.084 63.9152 37.604C62.9072 37.124 62.0912 36.44 61.4672 35.552C60.8672 34.64 60.5672 33.56 60.5672 32.312C60.5672 31.064 60.8912 29.984 61.5392 29.072C62.1872 28.136 63.0632 27.428 64.1672 26.948C65.2952 26.444 66.5312 26.192 67.8752 26.192C68.9792 26.192 69.9632 26.372 70.8272 26.732C71.7152 27.068 72.5312 27.584 73.2752 28.28L73.4552 28.1C73.2392 27.884 72.8672 27.56 72.3392 27.128V26.408C72.3392 25.424 71.9912 24.644 71.2952 24.068C70.5992 23.492 69.6272 23.204 68.3792 23.204C66.1472 23.204 64.5032 24.02 63.4472 25.652C62.9192 25.484 62.4752 25.22 62.1152 24.86C61.7552 24.476 61.5752 24.068 61.5752 23.636C61.5752 22.916 61.8992 22.256 62.5472 21.656C63.1952 21.056 64.0712 20.576 65.1752 20.216C66.2792 19.856 67.4792 19.676 68.7752 19.676C71.3192 19.676 73.2872 20.276 74.6792 21.476C76.0712 22.652 76.7672 24.26 76.7672 26.3V35.3C76.7672 36.356 76.4312 37.124 75.7592 37.604C75.0872 38.084 74.0312 38.324 72.5912 38.324V36.848C72.9992 36.44 73.2752 36.14 73.4192 35.948L73.2752 35.768C72.4832 36.608 71.6312 37.244 70.7192 37.676C69.8312 38.108 68.6912 38.324 67.2992 38.324ZM68.4512 35.048C69.6992 35.048 70.6712 34.808 71.3672 34.328C72.0632 33.848 72.4112 33.164 72.4112 32.276C72.4112 31.412 72.0512 30.728 71.3312 30.224C70.6352 29.72 69.6872 29.468 68.4872 29.468C67.3832 29.468 66.5072 29.72 65.8592 30.224C65.2352 30.704 64.9232 31.388 64.9232 32.276C64.9232 33.188 65.2352 33.884 65.8592 34.364C66.4832 34.82 67.3472 35.048 68.4512 35.048ZM90.0518 23.564C88.6358 23.564 87.4838 23.948 86.5958 24.716C85.7078 25.46 85.2638 26.396 85.2638 27.524V35.588C85.2638 36.548 84.9038 37.244 84.1838 37.676C83.4638 38.108 82.3358 38.324 80.7998 38.324V23.132C80.7998 22.028 81.1478 21.176 81.8438 20.576C82.5638 19.976 83.6438 19.676 85.0838 19.676V21.8C84.7238 22.208 84.4358 22.604 84.2198 22.988L84.4358 23.132C85.9478 20.828 87.8438 19.676 90.1238 19.676C91.1558 19.676 91.9358 19.952 92.4638 20.504C92.9918 21.032 93.2558 21.704 93.2558 22.52C93.2558 23.144 93.0878 23.672 92.7518 24.104C92.1038 23.744 91.2038 23.564 90.0518 23.564ZM114.872 23.564C113.456 23.564 112.304 23.948 111.416 24.716C110.528 25.46 110.084 26.396 110.084 27.524V35.588C110.084 36.548 109.724 37.244 109.004 37.676C108.284 38.108 107.156 38.324 105.62 38.324V23.132C105.62 22.028 105.968 21.176 106.664 20.576C107.384 19.976 108.464 19.676 109.904 19.676V21.8C109.544 22.208 109.256 22.604 109.04 22.988L109.256 23.132C110.768 20.828 112.664 19.676 114.944 19.676C115.976 19.676 116.756 19.952 117.284 20.504C117.812 21.032 118.076 21.704 118.076 22.52C118.076 23.144 117.908 23.672 117.572 24.104C116.924 23.744 116.024 23.564 114.872 23.564ZM136.193 34.832C136.193 35.96 135.833 36.824 135.113 37.424C134.417 38.024 133.349 38.324 131.909 38.324V36.164C132.221 35.804 132.509 35.408 132.773 34.976L132.557 34.832C131.021 37.16 128.957 38.324 126.365 38.324C125.141 38.324 124.037 38.048 123.053 37.496C122.093 36.92 121.325 36.128 120.749 35.12C120.197 34.112 119.921 32.972 119.921 31.7V22.412C119.921 21.428 120.281 20.732 121.001 20.324C121.745 19.892 122.873 19.676 124.385 19.676V31.376C124.385 32.312 124.673 33.056 125.249 33.608C125.825 34.16 126.653 34.436 127.733 34.436C128.933 34.436 129.893 34.064 130.613 33.32C131.357 32.552 131.729 31.604 131.729 30.476V22.412C131.729 21.428 132.089 20.732 132.809 20.324C133.529 19.892 134.657 19.676 136.193 19.676V34.832ZM148.325 38.324C146.381 38.324 144.941 37.76 144.005 36.632C143.069 35.504 142.601 34.052 142.601 32.276V23.348H138.893C138.893 22.22 139.109 21.38 139.541 20.828C139.973 20.276 140.549 20 141.269 20H142.673V17.012C142.673 16.028 143.033 15.332 143.753 14.924C144.473 14.492 145.565 14.276 147.029 14.276V20H151.817C151.817 21.2 151.589 22.064 151.133 22.592C150.677 23.096 149.945 23.348 148.937 23.348H147.101V32.096C147.101 32.936 147.257 33.536 147.569 33.896C147.905 34.256 148.469 34.436 149.261 34.436C150.101 34.436 150.941 34.208 151.781 33.752C152.021 33.968 152.213 34.244 152.357 34.58C152.501 34.892 152.573 35.216 152.573 35.552C152.573 36.272 152.201 36.92 151.457 37.496C150.713 38.048 149.669 38.324 148.325 38.324ZM160.85 38.324C159.626 38.324 158.498 38.084 157.466 37.604C156.458 37.124 155.642 36.44 155.018 35.552C154.418 34.64 154.118 33.56 154.118 32.312C154.118 31.064 154.442 29.984 155.09 29.072C155.738 28.136 156.614 27.428 157.718 26.948C158.846 26.444 160.082 26.192 161.426 26.192C162.53 26.192 163.514 26.372 164.378 26.732C165.266 27.068 166.082 27.584 166.826 28.28L167.006 28.1C166.79 27.884 166.418 27.56 165.89 27.128V26.408C165.89 25.424 165.542 24.644 164.846 24.068C164.15 23.492 163.178 23.204 161.93 23.204C159.698 23.204 158.054 24.02 156.998 25.652C156.47 25.484 156.026 25.22 155.666 24.86C155.306 24.476 155.126 24.068 155.126 23.636C155.126 22.916 155.45 22.256 156.098 21.656C156.746 21.056 157.622 20.576 158.726 20.216C159.83 19.856 161.03 19.676 162.326 19.676C164.87 19.676 166.838 20.276 168.23 21.476C169.622 22.652 170.318 24.26 170.318 26.3V35.3C170.318 36.356 169.982 37.124 169.31 37.604C168.638 38.084 167.582 38.324 166.142 38.324V36.848C166.55 36.44 166.826 36.14 166.97 35.948L166.826 35.768C166.034 36.608 165.182 37.244 164.27 37.676C163.382 38.108 162.242 38.324 160.85 38.324ZM162.002 35.048C163.25 35.048 164.222 34.808 164.918 34.328C165.614 33.848 165.962 33.164 165.962 32.276C165.962 31.412 165.602 30.728 164.882 30.224C164.186 29.72 163.238 29.468 162.038 29.468C160.934 29.468 160.058 29.72 159.41 30.224C158.786 30.704 158.474 31.388 158.474 32.276C158.474 33.188 158.786 33.884 159.41 34.364C160.034 34.82 160.898 35.048 162.002 35.048Z"
        fill="#777777"/>
  <line x1="197" y1="28.5" x2="1139" y2="28.5001" stroke="#CBCBCB"/>
</svg>
