<svg width="162" height="27" viewBox="0 0 162 27" fill="none" xmlns="http://www.w3.org/2000/svg">
  <path fill-rule="evenodd" clip-rule="evenodd"
        d="M21.1538 15.1071C21.3462 16.1786 21.5385 17.0714 21.9231 18.1429L23.0769 21.1786L22.1154 22.4286H15.3846C15.3846 23.3214 15 24.2143 14.2308 24.9286C13.4615 25.6429 12.5 26 11.5385 26C10.5769 26 9.42308 25.6429 8.84615 24.9286C8.07692 24.2143 7.69231 23.3214 7.69231 22.4286H0.961538L0 21.1786L1.15385 18.1429C1.53846 16.7143 1.92308 15.2857 1.92308 13.8571V9.92857C1.92308 8.67857 2.11538 7.42857 2.69231 6.35714C3.26923 5.10714 4.03846 4.21429 5 3.32143C5.96154 2.42857 7.11538 1.89286 8.46154 1.53571C9.42308 1.17857 10.5769 1 11.5385 1C11.1538 1.53571 10.7692 2.25 10.3846 2.96429C10 2.96429 9.61538 2.96429 9.03846 3.32143C8.07692 3.5 7.11538 4.03571 6.34615 4.75C5.57692 5.28571 4.80769 6.17857 4.42308 7.07143C4.03846 7.96429 3.84615 8.85714 3.84615 9.92857V13.8571C3.84615 15.4643 3.46154 17.0714 3.07692 18.6786L2.30769 20.6429H20.7692L20 18.6786C19.6635 17.7393 19.4731 16.6607 19.3019 15.6893L19.2308 15.2857C20 15.2857 20.5769 15.2857 21.1538 15.1071ZM11.5385 24.2143C11.9231 24.2143 12.5 24.0357 12.8846 23.6786C13.2692 23.3214 13.4615 22.9643 13.4615 22.4286H9.61538C9.61538 22.9643 9.80769 23.3214 10.1923 23.6786C10.5769 24.0357 11.1538 24.2143 11.5385 24.2143ZM25 6.35714C25 7.77795 24.3922 9.14056 23.3102 10.1452C22.2283 11.1499 20.7609 11.7143 19.2308 11.7143C17.7007 11.7143 16.2332 11.1499 15.1513 10.1452C14.0694 9.14056 13.4615 7.77795 13.4615 6.35714C13.4615 4.93634 14.0694 3.57373 15.1513 2.56907C16.2332 1.56441 17.7007 1 19.2308 1C20.7609 1 22.2283 1.56441 23.3102 2.56907C24.3922 3.57373 25 4.93634 25 6.35714V6.35714Z"
        fill="#3A3A3A"/>
  <path d="M36.4 8.94C36.4 8.43333 36.5533 8.04 36.86 7.76C37.18 7.46667 37.62 7.32 38.18 7.32L45.94 19.12L46.08 19L45.5 18.04V7.32C46.1133 7.32 46.5733 7.45333 46.88 7.72C47.2 7.98667 47.36 8.37333 47.36 8.88V20.2C47.36 20.6267 47.2067 20.98 46.9 21.26C46.6067 21.54 46.2267 21.68 45.76 21.68L37.82 9.62L37.68 9.74L38.26 10.7V20.12C38.26 20.6267 38.1 21.0133 37.78 21.28C37.4733 21.5467 37.0133 21.68 36.4 21.68V8.94ZM53.4617 21.68C52.6484 21.68 51.9084 21.5267 51.2417 21.22C50.5884 20.9133 50.0751 20.5 49.7017 19.98C49.3417 19.4467 49.1617 18.8533 49.1617 18.2V14.92C49.1617 14.2533 49.3417 13.6467 49.7017 13.1C50.0751 12.5533 50.5884 12.12 51.2417 11.8C51.8951 11.48 52.6351 11.32 53.4617 11.32C54.2884 11.32 55.0284 11.48 55.6817 11.8C56.3484 12.12 56.8617 12.5533 57.2217 13.1C57.5951 13.6467 57.7817 14.2533 57.7817 14.92V18.2C57.7817 18.8533 57.5951 19.4467 57.2217 19.98C56.8484 20.5 56.3351 20.9133 55.6817 21.22C55.0284 21.5267 54.2884 21.68 53.4617 21.68ZM53.4617 20.18C54.2617 20.18 54.8951 19.9933 55.3617 19.62C55.8417 19.2333 56.0817 18.7333 56.0817 18.12V14.98C56.0817 14.34 55.8417 13.82 55.3617 13.42C54.8951 13.02 54.2617 12.82 53.4617 12.82C52.6751 12.82 52.0417 13.02 51.5617 13.42C51.0817 13.82 50.8417 14.34 50.8417 14.98V18.12C50.8417 18.7333 51.0751 19.2333 51.5417 19.62C52.0217 19.9933 52.6617 20.18 53.4617 20.18ZM63.5636 21.68C62.6169 21.68 61.9103 21.4133 61.4436 20.88C60.9769 20.3333 60.7436 19.62 60.7436 18.74V12.9H58.8836C58.8836 12.4467 58.9836 12.1 59.1836 11.86C59.3836 11.62 59.6569 11.5 60.0036 11.5H60.7636V9.6C60.7636 9.16 60.9036 8.84 61.1836 8.64C61.4769 8.42667 61.9103 8.32 62.4836 8.32V11.5H65.1436C65.1436 12.4333 64.7236 12.9 63.8836 12.9H62.5036V18.68C62.5036 19.2133 62.5969 19.5933 62.7836 19.82C62.9836 20.0333 63.3369 20.14 63.8436 20.14C64.3103 20.14 64.7503 20.02 65.1636 19.78C65.3369 19.9533 65.4236 20.1867 65.4236 20.48C65.4236 20.8 65.2569 21.08 64.9236 21.32C64.5903 21.56 64.1369 21.68 63.5636 21.68ZM68.8528 9.82C68.4795 9.82 68.1661 9.7 67.9128 9.46C67.6595 9.22 67.5328 8.92 67.5328 8.56C67.5328 8.2 67.6595 7.90667 67.9128 7.68C68.1661 7.44 68.4795 7.32 68.8528 7.32C69.2128 7.32 69.5195 7.44 69.7728 7.68C70.0261 7.90667 70.1528 8.2 70.1528 8.56C70.1528 8.92 70.0261 9.22 69.7728 9.46C69.5195 9.7 69.2128 9.82 68.8528 9.82ZM67.9728 12.6C67.9728 12.16 68.1128 11.84 68.3928 11.64C68.6861 11.4267 69.1261 11.32 69.7128 11.32V20.4C69.7128 20.84 69.5661 21.1667 69.2728 21.38C68.9928 21.58 68.5595 21.68 67.9728 21.68V12.6ZM73.9225 12.8H72.2625C72.2625 11.8667 72.6092 11.4 73.3025 11.4H73.9225V10.4C73.9225 9.46667 74.2092 8.72 74.7825 8.16C75.3692 7.6 76.1492 7.32 77.1225 7.32C77.6558 7.32 78.1092 7.44667 78.4825 7.7C78.8692 7.94 79.0625 8.23333 79.0625 8.58C79.0625 8.86 78.9758 9.08667 78.8025 9.26C78.3358 8.99333 77.8225 8.86 77.2625 8.86C76.7558 8.86 76.3625 9 76.0825 9.28C75.8025 9.56 75.6625 9.96 75.6625 10.48V11.4H81.9825V20.4C81.9825 21.2533 81.4025 21.68 80.2425 21.68V12.8H75.6625V20.4C75.6625 20.84 75.5225 21.1667 75.2425 21.38C74.9625 21.58 74.5225 21.68 73.9225 21.68V12.8ZM81.1225 9.82C80.7492 9.82 80.4358 9.7 80.1825 9.46C79.9292 9.22 79.8025 8.92 79.8025 8.56C79.8025 8.21333 79.9292 7.92 80.1825 7.68C80.4358 7.44 80.7492 7.32 81.1225 7.32C81.4958 7.32 81.8025 7.44 82.0425 7.68C82.2958 7.92 82.4225 8.21333 82.4225 8.56C82.4225 8.90667 82.2958 9.20667 82.0425 9.46C81.8025 9.7 81.4958 9.82 81.1225 9.82ZM89.2281 21.68C88.4148 21.68 87.6881 21.5333 87.0481 21.24C86.4081 20.9467 85.9081 20.5333 85.5481 20C85.2015 19.4667 85.0281 18.86 85.0281 18.18V14.94C85.0281 14.2333 85.2015 13.6067 85.5481 13.06C85.9081 12.5133 86.4015 12.0867 87.0281 11.78C87.6548 11.4733 88.3748 11.32 89.1881 11.32C89.9481 11.32 90.6215 11.4333 91.2081 11.66C91.8081 11.8733 92.2748 12.18 92.6081 12.58C92.9415 12.98 93.1081 13.4333 93.1081 13.94C93.1081 14.2733 92.9748 14.5467 92.7081 14.76C92.4548 14.96 92.1215 15.0467 91.7081 15.02C91.7081 14.38 91.4748 13.86 91.0081 13.46C90.5548 13.06 89.9615 12.86 89.2281 12.86C88.4948 12.86 87.9015 13.06 87.4481 13.46C86.9948 13.8467 86.7681 14.3533 86.7681 14.98V18.1C86.7681 18.7 87.0015 19.1933 87.4681 19.58C87.9348 19.9533 88.5348 20.14 89.2681 20.14C90.0015 20.14 90.5948 19.94 91.0481 19.54C91.5148 19.14 91.7481 18.6267 91.7481 18C92.1748 17.9733 92.5148 18.06 92.7681 18.26C93.0348 18.4467 93.1681 18.7133 93.1681 19.06C93.1681 19.5667 93.0015 20.02 92.6681 20.42C92.3348 20.82 91.8681 21.1333 91.2681 21.36C90.6681 21.5733 89.9881 21.68 89.2281 21.68ZM98.4895 21.68C97.3429 21.68 96.4162 21.3733 95.7095 20.76C95.0162 20.1467 94.6695 19.34 94.6695 18.34C94.6695 17.3267 95.0362 16.5133 95.7695 15.9C96.5029 15.2733 97.4695 14.96 98.6695 14.96C99.9495 14.96 101.003 15.4133 101.83 16.32L101.91 16.24C101.763 16.08 101.596 15.9133 101.41 15.74V14.9C101.41 14.22 101.196 13.6933 100.77 13.32C100.343 12.9467 99.7362 12.76 98.9495 12.76C97.5495 12.76 96.5495 13.3133 95.9495 14.42C95.7362 14.3133 95.5562 14.1733 95.4095 14C95.2762 13.8133 95.2095 13.6267 95.2095 13.44C95.2095 13.08 95.3895 12.74 95.7495 12.42C96.1095 12.0867 96.5829 11.82 97.1695 11.62C97.7695 11.42 98.3962 11.32 99.0495 11.32C100.316 11.32 101.31 11.6333 102.03 12.26C102.763 12.8867 103.13 13.7533 103.13 14.86V20.34C103.13 20.8067 102.996 21.1467 102.73 21.36C102.463 21.5733 102.043 21.68 101.47 21.68V20.74C101.75 20.4467 101.903 20.2733 101.93 20.22L101.85 20.14C100.983 21.1667 99.8629 21.68 98.4895 21.68ZM98.7895 20.3C99.6162 20.3 100.263 20.1267 100.73 19.78C101.21 19.4333 101.45 18.9533 101.45 18.34C101.45 17.7267 101.216 17.24 100.75 16.88C100.283 16.52 99.6429 16.34 98.8295 16.34C98.0695 16.34 97.4695 16.52 97.0295 16.88C96.6029 17.2267 96.3895 17.7133 96.3895 18.34C96.3895 18.9667 96.5962 19.4533 97.0095 19.8C97.4362 20.1333 98.0295 20.3 98.7895 20.3ZM109.541 21.68C108.727 21.68 108.001 21.5333 107.361 21.24C106.721 20.9467 106.221 20.5333 105.861 20C105.514 19.4667 105.341 18.86 105.341 18.18V14.94C105.341 14.2333 105.514 13.6067 105.861 13.06C106.221 12.5133 106.714 12.0867 107.341 11.78C107.967 11.4733 108.687 11.32 109.501 11.32C110.261 11.32 110.934 11.4333 111.521 11.66C112.121 11.8733 112.587 12.18 112.921 12.58C113.254 12.98 113.421 13.4333 113.421 13.94C113.421 14.2733 113.287 14.5467 113.021 14.76C112.767 14.96 112.434 15.0467 112.021 15.02C112.021 14.38 111.787 13.86 111.321 13.46C110.867 13.06 110.274 12.86 109.541 12.86C108.807 12.86 108.214 13.06 107.761 13.46C107.307 13.8467 107.081 14.3533 107.081 14.98V18.1C107.081 18.7 107.314 19.1933 107.781 19.58C108.247 19.9533 108.847 20.14 109.581 20.14C110.314 20.14 110.907 19.94 111.361 19.54C111.827 19.14 112.061 18.6267 112.061 18C112.487 17.9733 112.827 18.06 113.081 18.26C113.347 18.4467 113.481 18.7133 113.481 19.06C113.481 19.5667 113.314 20.02 112.981 20.42C112.647 20.82 112.181 21.1333 111.581 21.36C110.981 21.5733 110.301 21.68 109.541 21.68ZM117.095 9.82C116.722 9.82 116.408 9.7 116.155 9.46C115.902 9.22 115.775 8.92 115.775 8.56C115.775 8.2 115.902 7.90667 116.155 7.68C116.408 7.44 116.722 7.32 117.095 7.32C117.455 7.32 117.762 7.44 118.015 7.68C118.268 7.90667 118.395 8.2 118.395 8.56C118.395 8.92 118.268 9.22 118.015 9.46C117.762 9.7 117.455 9.82 117.095 9.82ZM116.215 12.6C116.215 12.16 116.355 11.84 116.635 11.64C116.928 11.4267 117.368 11.32 117.955 11.32V20.4C117.955 20.84 117.808 21.1667 117.515 21.38C117.235 21.58 116.802 21.68 116.215 21.68V12.6ZM124.497 21.68C123.684 21.68 122.944 21.5267 122.277 21.22C121.624 20.9133 121.11 20.5 120.737 19.98C120.377 19.4467 120.197 18.8533 120.197 18.2V14.92C120.197 14.2533 120.377 13.6467 120.737 13.1C121.11 12.5533 121.624 12.12 122.277 11.8C122.93 11.48 123.67 11.32 124.497 11.32C125.324 11.32 126.064 11.48 126.717 11.8C127.384 12.12 127.897 12.5533 128.257 13.1C128.63 13.6467 128.817 14.2533 128.817 14.92V18.2C128.817 18.8533 128.63 19.4467 128.257 19.98C127.884 20.5 127.37 20.9133 126.717 21.22C126.064 21.5267 125.324 21.68 124.497 21.68ZM124.497 20.18C125.297 20.18 125.93 19.9933 126.397 19.62C126.877 19.2333 127.117 18.7333 127.117 18.12V14.98C127.117 14.34 126.877 13.82 126.397 13.42C125.93 13.02 125.297 12.82 124.497 12.82C123.71 12.82 123.077 13.02 122.597 13.42C122.117 13.82 121.877 14.34 121.877 14.98V18.12C121.877 18.7333 122.11 19.2333 122.577 19.62C123.057 19.9933 123.697 20.18 124.497 20.18ZM131.127 12.8C131.127 11.8133 131.687 11.32 132.807 11.32V12.6C132.687 12.72 132.547 12.9 132.387 13.14L132.467 13.22C132.867 12.66 133.387 12.2067 134.027 11.86C134.667 11.5 135.36 11.32 136.107 11.32C137.187 11.32 138.04 11.64 138.667 12.28C139.293 12.92 139.607 13.7467 139.607 14.76V20.4C139.607 20.84 139.46 21.1667 139.167 21.38C138.887 21.58 138.453 21.68 137.867 21.68V14.94C137.867 14.3 137.687 13.7933 137.327 13.42C136.967 13.0467 136.42 12.86 135.687 12.86C135.193 12.86 134.727 12.9667 134.287 13.18C133.86 13.38 133.513 13.66 133.247 14.02C132.993 14.3667 132.867 14.7467 132.867 15.16V20.4C132.867 20.84 132.72 21.1667 132.427 21.38C132.147 21.58 131.713 21.68 131.127 21.68V12.8ZM146.221 21.68C145.407 21.68 144.681 21.5267 144.041 21.22C143.401 20.9 142.901 20.4667 142.541 19.92C142.181 19.36 142.001 18.7333 142.001 18.04V15.08C142.001 14.3733 142.187 13.7333 142.561 13.16C142.947 12.5867 143.461 12.14 144.101 11.82C144.754 11.4867 145.461 11.32 146.221 11.32C146.981 11.32 147.674 11.48 148.301 11.8C148.941 12.12 149.441 12.56 149.801 13.12C150.174 13.68 150.361 14.3133 150.361 15.02V16.3C150.361 16.5133 150.281 16.6933 150.121 16.84C149.961 16.9867 149.767 17.06 149.541 17.06H143.701V17.96C143.701 18.64 143.914 19.1867 144.341 19.6C144.781 20.0133 145.407 20.22 146.221 20.22C147.034 20.22 147.654 20.04 148.081 19.68C148.507 19.32 148.721 18.8333 148.721 18.22C149.121 18.1933 149.454 18.2733 149.721 18.46C150.001 18.6333 150.141 18.8933 150.141 19.24C150.141 19.6667 149.954 20.0667 149.581 20.44C149.221 20.8133 148.741 21.1133 148.141 21.34C147.541 21.5667 146.901 21.68 146.221 21.68ZM148.741 15.7V15.02C148.741 14.3533 148.507 13.8133 148.041 13.4C147.587 12.9733 146.981 12.76 146.221 12.76C145.461 12.76 144.847 12.9733 144.381 13.4C143.927 13.8133 143.701 14.3533 143.701 15.02V15.7H148.741ZM156.29 21.68C155.61 21.68 154.97 21.58 154.37 21.38C153.77 21.1667 153.283 20.8667 152.91 20.48C152.55 20.0933 152.37 19.64 152.37 19.12C152.37 18.48 152.756 18.1333 153.53 18.08C153.663 18.8267 153.976 19.38 154.47 19.74C154.976 20.0867 155.616 20.26 156.39 20.26C157.163 20.26 157.763 20.1467 158.19 19.92C158.616 19.6933 158.83 19.3467 158.83 18.88C158.83 18.5467 158.743 18.28 158.57 18.08C158.396 17.8667 158.116 17.6867 157.73 17.54C157.356 17.38 156.816 17.2267 156.11 17.08C155.23 16.88 154.53 16.6667 154.01 16.44C153.49 16.2133 153.09 15.9133 152.81 15.54C152.543 15.1667 152.41 14.6733 152.41 14.06C152.41 13.54 152.57 13.0733 152.89 12.66C153.21 12.2333 153.65 11.9067 154.21 11.68C154.783 11.44 155.43 11.32 156.15 11.32C156.816 11.32 157.443 11.4133 158.03 11.6C158.63 11.7867 159.11 12.0533 159.47 12.4C159.843 12.7467 160.03 13.1467 160.03 13.6C160.03 13.9067 159.91 14.1533 159.67 14.34C159.43 14.5133 159.096 14.6133 158.67 14.64C158.63 14.0533 158.39 13.5933 157.95 13.26C157.523 12.9133 156.923 12.74 156.15 12.74C155.51 12.74 155.003 12.86 154.63 13.1C154.256 13.34 154.07 13.66 154.07 14.06C154.07 14.4867 154.243 14.8067 154.59 15.02C154.95 15.22 155.556 15.4133 156.41 15.6C157.81 15.88 158.836 16.2667 159.49 16.76C160.156 17.24 160.49 17.9267 160.49 18.82C160.49 19.7267 160.123 20.4333 159.39 20.94C158.656 21.4333 157.623 21.68 156.29 21.68Z"
        fill="#3A3A3A"/>
</svg>
