<svg width="1152" height="47" viewBox="0 0 1152 47" fill="none" xmlns="http://www.w3.org/2000/svg">
  <path d="M4.536 38C3.864 38 3.288 37.796 2.808 37.388C2.352 36.956 2.124 36.428 2.124 35.804V14.996C2.124 14.372 2.352 13.856 2.808 13.448C3.264 13.016 3.84 12.8 4.536 12.8H12.528C14.664 12.8 16.548 13.208 18.18 14.024C19.836 14.84 21.108 15.992 21.996 17.48C22.908 18.944 23.364 20.624 23.364 22.52V28.208C23.364 30.104 22.908 31.796 21.996 33.284C21.084 34.772 19.8 35.936 18.144 36.776C16.512 37.592 14.64 38 12.528 38H4.536ZM12.168 33.86C14.256 33.86 15.84 33.392 16.92 32.456C18 31.496 18.54 30.092 18.54 28.244V22.448C18.54 20.648 18 19.28 16.92 18.344C15.84 17.408 14.256 16.94 12.168 16.94H6.948V33.86H12.168ZM34.8275 38.324C33.3395 38.324 31.9835 38.036 30.7595 37.46C29.5355 36.86 28.5635 36.056 27.8435 35.048C27.1235 34.016 26.7635 32.864 26.7635 31.592V26.804C26.7635 25.46 27.1355 24.248 27.8795 23.168C28.6235 22.088 29.6075 21.236 30.8315 20.612C32.0795 19.988 33.4235 19.676 34.8635 19.676C36.2795 19.676 37.5755 19.976 38.7515 20.576C39.9515 21.152 40.8995 21.968 41.5955 23.024C42.2915 24.056 42.6395 25.244 42.6395 26.588V28.604C42.6395 29.132 42.4355 29.576 42.0275 29.936C41.6435 30.296 41.1515 30.476 40.5515 30.476H31.1195V31.268C31.1195 32.3 31.4315 33.14 32.0555 33.788C32.6795 34.436 33.6155 34.76 34.8635 34.76C36.0635 34.76 36.9515 34.496 37.5275 33.968C38.1275 33.44 38.4275 32.756 38.4275 31.916C38.8595 31.868 39.1595 31.844 39.3275 31.844C40.2155 31.844 40.9115 32.048 41.4155 32.456C41.9195 32.84 42.1715 33.392 42.1715 34.112C42.1715 34.808 41.8475 35.48 41.1995 36.128C40.5515 36.776 39.6635 37.304 38.5355 37.712C37.4075 38.12 36.1715 38.324 34.8275 38.324ZM38.5715 27.272V26.588C38.5715 25.58 38.2235 24.764 37.5275 24.14C36.8315 23.516 35.9315 23.204 34.8275 23.204C33.7235 23.204 32.8235 23.516 32.1275 24.14C31.4555 24.74 31.1195 25.556 31.1195 26.588V27.272H38.5715ZM53.4772 38.324C51.5332 38.324 50.0932 37.76 49.1572 36.632C48.2212 35.504 47.7532 34.052 47.7532 32.276V23.348H44.0452C44.0452 22.22 44.2612 21.38 44.6932 20.828C45.1252 20.276 45.7012 20 46.4212 20H47.8252V17.012C47.8252 16.028 48.1852 15.332 48.9052 14.924C49.6252 14.492 50.7172 14.276 52.1812 14.276V20H56.9692C56.9692 21.2 56.7412 22.064 56.2852 22.592C55.8292 23.096 55.0972 23.348 54.0892 23.348H52.2532V32.096C52.2532 32.936 52.4092 33.536 52.7212 33.896C53.0572 34.256 53.6212 34.436 54.4132 34.436C55.2532 34.436 56.0932 34.208 56.9332 33.752C57.1732 33.968 57.3652 34.244 57.5092 34.58C57.6532 34.892 57.7252 35.216 57.7252 35.552C57.7252 36.272 57.3532 36.92 56.6092 37.496C55.8652 38.048 54.8212 38.324 53.4772 38.324ZM66.0023 38.324C64.7783 38.324 63.6503 38.084 62.6183 37.604C61.6103 37.124 60.7943 36.44 60.1703 35.552C59.5703 34.64 59.2703 33.56 59.2703 32.312C59.2703 31.064 59.5943 29.984 60.2423 29.072C60.8903 28.136 61.7663 27.428 62.8703 26.948C63.9983 26.444 65.2343 26.192 66.5783 26.192C67.6823 26.192 68.6663 26.372 69.5303 26.732C70.4183 27.068 71.2343 27.584 71.9783 28.28L72.1583 28.1C71.9423 27.884 71.5703 27.56 71.0423 27.128V26.408C71.0423 25.424 70.6943 24.644 69.9983 24.068C69.3023 23.492 68.3303 23.204 67.0823 23.204C64.8503 23.204 63.2063 24.02 62.1503 25.652C61.6223 25.484 61.1783 25.22 60.8183 24.86C60.4583 24.476 60.2783 24.068 60.2783 23.636C60.2783 22.916 60.6023 22.256 61.2503 21.656C61.8983 21.056 62.7743 20.576 63.8783 20.216C64.9823 19.856 66.1823 19.676 67.4783 19.676C70.0223 19.676 71.9903 20.276 73.3823 21.476C74.7743 22.652 75.4703 24.26 75.4703 26.3V35.3C75.4703 36.356 75.1343 37.124 74.4623 37.604C73.7903 38.084 72.7343 38.324 71.2943 38.324V36.848C71.7023 36.44 71.9783 36.14 72.1223 35.948L71.9783 35.768C71.1863 36.608 70.3343 37.244 69.4223 37.676C68.5343 38.108 67.3943 38.324 66.0023 38.324ZM67.1543 35.048C68.4023 35.048 69.3743 34.808 70.0703 34.328C70.7663 33.848 71.1143 33.164 71.1143 32.276C71.1143 31.412 70.7543 30.728 70.0343 30.224C69.3383 29.72 68.3903 29.468 67.1903 29.468C66.0863 29.468 65.2103 29.72 64.5623 30.224C63.9383 30.704 63.6263 31.388 63.6263 32.276C63.6263 33.188 63.9383 33.884 64.5623 34.364C65.1863 34.82 66.0503 35.048 67.1543 35.048ZM85.4069 38.324C83.4149 38.324 81.9029 37.76 80.8709 36.632C79.8629 35.48 79.3589 34.028 79.3589 32.276V15.212C79.3589 14.228 79.7189 13.532 80.4389 13.124C81.1829 12.692 82.3229 12.476 83.8589 12.476V32.096C83.8589 32.912 84.0389 33.512 84.3989 33.896C84.7589 34.256 85.3349 34.436 86.1269 34.436C87.0149 34.436 87.9029 34.208 88.7909 33.752C89.0309 33.968 89.2109 34.244 89.3309 34.58C89.4749 34.892 89.5469 35.216 89.5469 35.552C89.5469 36.272 89.1869 36.92 88.4669 37.496C87.7469 38.048 86.7269 38.324 85.4069 38.324ZM97.6413 38.324C95.6493 38.324 94.1373 37.76 93.1053 36.632C92.0973 35.48 91.5933 34.028 91.5933 32.276V15.212C91.5933 14.228 91.9533 13.532 92.6733 13.124C93.4173 12.692 94.5573 12.476 96.0933 12.476V32.096C96.0933 32.912 96.2733 33.512 96.6333 33.896C96.9933 34.256 97.5693 34.436 98.3613 34.436C99.2493 34.436 100.137 34.208 101.025 33.752C101.265 33.968 101.445 34.244 101.565 34.58C101.709 34.892 101.781 35.216 101.781 35.552C101.781 36.272 101.421 36.92 100.701 37.496C99.9813 38.048 98.9613 38.324 97.6413 38.324ZM111.82 38.324C110.332 38.324 108.976 38.036 107.752 37.46C106.528 36.86 105.556 36.056 104.836 35.048C104.116 34.016 103.756 32.864 103.756 31.592V26.804C103.756 25.46 104.128 24.248 104.872 23.168C105.616 22.088 106.6 21.236 107.824 20.612C109.072 19.988 110.416 19.676 111.856 19.676C113.272 19.676 114.568 19.976 115.744 20.576C116.944 21.152 117.892 21.968 118.588 23.024C119.284 24.056 119.632 25.244 119.632 26.588V28.604C119.632 29.132 119.428 29.576 119.02 29.936C118.636 30.296 118.144 30.476 117.544 30.476H108.112V31.268C108.112 32.3 108.424 33.14 109.048 33.788C109.672 34.436 110.608 34.76 111.856 34.76C113.056 34.76 113.944 34.496 114.52 33.968C115.12 33.44 115.42 32.756 115.42 31.916C115.852 31.868 116.152 31.844 116.32 31.844C117.208 31.844 117.904 32.048 118.408 32.456C118.912 32.84 119.164 33.392 119.164 34.112C119.164 34.808 118.84 35.48 118.192 36.128C117.544 36.776 116.656 37.304 115.528 37.712C114.4 38.12 113.164 38.324 111.82 38.324ZM115.564 27.272V26.588C115.564 25.58 115.216 24.764 114.52 24.14C113.824 23.516 112.924 23.204 111.82 23.204C110.716 23.204 109.816 23.516 109.12 24.14C108.448 24.74 108.112 25.556 108.112 26.588V27.272H115.564ZM130.405 38.324C128.101 38.324 126.241 37.916 124.825 37.1C123.433 36.26 122.725 35.144 122.701 33.752C122.701 33.152 122.941 32.648 123.421 32.24C123.925 31.832 124.717 31.616 125.797 31.592C126.013 32.648 126.517 33.464 127.309 34.04C128.101 34.592 129.061 34.868 130.189 34.868C131.413 34.868 132.373 34.712 133.069 34.4C133.765 34.088 134.113 33.62 134.113 32.996C134.113 32.42 133.825 31.94 133.249 31.556C132.697 31.172 131.593 30.788 129.937 30.404C128.137 29.972 126.733 29.54 125.725 29.108C124.741 28.676 124.009 28.124 123.529 27.452C123.049 26.78 122.809 25.892 122.809 24.788C122.809 23.252 123.457 22.016 124.753 21.08C126.049 20.144 127.825 19.676 130.081 19.676C132.265 19.676 134.077 20.072 135.517 20.864C136.957 21.632 137.677 22.664 137.677 23.96C137.677 24.608 137.437 25.088 136.957 25.4C136.477 25.712 135.685 25.88 134.581 25.904C134.341 24.944 133.885 24.224 133.213 23.744C132.541 23.264 131.593 23.024 130.369 23.024C129.457 23.024 128.665 23.18 127.993 23.492C127.345 23.804 127.021 24.212 127.021 24.716C127.021 25.244 127.297 25.652 127.849 25.94C128.401 26.228 129.361 26.516 130.729 26.804C133.417 27.38 135.361 28.148 136.561 29.108C137.785 30.068 138.397 31.376 138.397 33.032C138.397 34.64 137.677 35.924 136.237 36.884C134.821 37.844 132.877 38.324 130.405 38.324ZM157.529 38.324C156.233 38.324 155.069 38.048 154.037 37.496C153.005 36.944 152.189 36.188 151.589 35.228C150.989 34.244 150.689 33.116 150.689 31.844V26.156C150.689 24.908 151.001 23.792 151.625 22.808C152.249 21.824 153.113 21.056 154.217 20.504C155.345 19.952 156.593 19.676 157.961 19.676C158.849 19.676 159.761 19.868 160.697 20.252C161.657 20.612 162.461 21.104 163.109 21.728L163.253 21.548C163.133 21.356 162.869 21.116 162.461 20.828V15.5C162.461 14.54 162.833 13.796 163.577 13.268C164.345 12.74 165.497 12.476 167.033 12.476V35.228C167.033 36.116 166.697 36.86 166.025 37.46C165.353 38.036 164.309 38.324 162.893 38.324V36.344C163.205 35.96 163.433 35.648 163.577 35.408L163.397 35.264C162.653 36.272 161.825 37.04 160.913 37.568C160.025 38.072 158.897 38.324 157.529 38.324ZM158.861 34.436C159.941 34.436 160.817 34.184 161.489 33.68C162.185 33.152 162.533 32.492 162.533 31.7V26.264C162.533 25.496 162.185 24.86 161.489 24.356C160.817 23.828 159.929 23.564 158.825 23.564C157.649 23.564 156.737 23.816 156.089 24.32C155.465 24.8 155.153 25.496 155.153 26.408V31.52C155.153 32.48 155.465 33.212 156.089 33.716C156.737 34.196 157.661 34.436 158.861 34.436ZM179.109 38.324C177.621 38.324 176.265 38.036 175.041 37.46C173.817 36.86 172.845 36.056 172.125 35.048C171.405 34.016 171.045 32.864 171.045 31.592V26.804C171.045 25.46 171.417 24.248 172.161 23.168C172.905 22.088 173.889 21.236 175.113 20.612C176.361 19.988 177.705 19.676 179.145 19.676C180.561 19.676 181.857 19.976 183.033 20.576C184.233 21.152 185.181 21.968 185.877 23.024C186.573 24.056 186.921 25.244 186.921 26.588V28.604C186.921 29.132 186.717 29.576 186.309 29.936C185.925 30.296 185.433 30.476 184.833 30.476H175.401V31.268C175.401 32.3 175.713 33.14 176.337 33.788C176.961 34.436 177.897 34.76 179.145 34.76C180.345 34.76 181.233 34.496 181.809 33.968C182.409 33.44 182.709 32.756 182.709 31.916C183.141 31.868 183.441 31.844 183.609 31.844C184.497 31.844 185.193 32.048 185.697 32.456C186.201 32.84 186.453 33.392 186.453 34.112C186.453 34.808 186.129 35.48 185.481 36.128C184.833 36.776 183.945 37.304 182.817 37.712C181.689 38.12 180.453 38.324 179.109 38.324ZM182.853 27.272V26.588C182.853 25.58 182.505 24.764 181.809 24.14C181.113 23.516 180.213 23.204 179.109 23.204C178.005 23.204 177.105 23.516 176.409 24.14C175.737 24.74 175.401 25.556 175.401 26.588V27.272H182.853ZM205.571 38.324C203.579 38.324 202.067 37.76 201.035 36.632C200.027 35.48 199.523 34.028 199.523 32.276V15.212C199.523 14.228 199.883 13.532 200.603 13.124C201.347 12.692 202.487 12.476 204.023 12.476V32.096C204.023 32.912 204.203 33.512 204.563 33.896C204.923 34.256 205.499 34.436 206.291 34.436C207.179 34.436 208.067 34.208 208.955 33.752C209.195 33.968 209.375 34.244 209.495 34.58C209.639 34.892 209.711 35.216 209.711 35.552C209.711 36.272 209.351 36.92 208.631 37.496C207.911 38.048 206.891 38.324 205.571 38.324ZM217.877 38.324C216.653 38.324 215.525 38.084 214.493 37.604C213.485 37.124 212.669 36.44 212.045 35.552C211.445 34.64 211.145 33.56 211.145 32.312C211.145 31.064 211.469 29.984 212.117 29.072C212.765 28.136 213.641 27.428 214.745 26.948C215.873 26.444 217.109 26.192 218.453 26.192C219.557 26.192 220.541 26.372 221.405 26.732C222.293 27.068 223.109 27.584 223.853 28.28L224.033 28.1C223.817 27.884 223.445 27.56 222.917 27.128V26.408C222.917 25.424 222.569 24.644 221.873 24.068C221.177 23.492 220.205 23.204 218.957 23.204C216.725 23.204 215.081 24.02 214.025 25.652C213.497 25.484 213.053 25.22 212.693 24.86C212.333 24.476 212.153 24.068 212.153 23.636C212.153 22.916 212.477 22.256 213.125 21.656C213.773 21.056 214.649 20.576 215.753 20.216C216.857 19.856 218.057 19.676 219.353 19.676C221.897 19.676 223.865 20.276 225.257 21.476C226.649 22.652 227.345 24.26 227.345 26.3V35.3C227.345 36.356 227.009 37.124 226.337 37.604C225.665 38.084 224.609 38.324 223.169 38.324V36.848C223.577 36.44 223.853 36.14 223.997 35.948L223.853 35.768C223.061 36.608 222.209 37.244 221.297 37.676C220.409 38.108 219.269 38.324 217.877 38.324ZM219.029 35.048C220.277 35.048 221.249 34.808 221.945 34.328C222.641 33.848 222.989 33.164 222.989 32.276C222.989 31.412 222.629 30.728 221.909 30.224C221.213 29.72 220.265 29.468 219.065 29.468C217.961 29.468 217.085 29.72 216.437 30.224C215.813 30.704 215.501 31.388 215.501 32.276C215.501 33.188 215.813 33.884 216.437 34.364C217.061 34.82 217.925 35.048 219.029 35.048ZM248.183 38.324C246.623 38.324 245.207 38.048 243.935 37.496C242.687 36.92 241.703 36.128 240.983 35.12C240.263 34.112 239.903 32.972 239.903 31.7V26.624C239.903 25.328 240.251 24.152 240.947 23.096C241.667 22.04 242.651 21.212 243.899 20.612C245.147 19.988 246.575 19.676 248.183 19.676C249.791 19.676 251.219 19.988 252.467 20.612C253.739 21.212 254.723 22.04 255.419 23.096C256.139 24.152 256.499 25.328 256.499 26.624V31.7C256.499 32.972 256.127 34.112 255.383 35.12C254.663 36.128 253.667 36.92 252.395 37.496C251.147 38.048 249.743 38.324 248.183 38.324ZM248.183 34.472C249.383 34.472 250.319 34.196 250.991 33.644C251.687 33.092 252.035 32.348 252.035 31.412V26.84C252.035 25.856 251.687 25.064 250.991 24.464C250.319 23.84 249.383 23.528 248.183 23.528C247.007 23.528 246.071 23.84 245.375 24.464C244.679 25.064 244.331 25.856 244.331 26.84V31.412C244.331 32.348 244.679 33.092 245.375 33.644C246.071 34.196 247.007 34.472 248.183 34.472ZM259.327 22.772C259.327 21.884 259.675 21.152 260.371 20.576C261.067 19.976 262.099 19.676 263.467 19.676V21.62C263.059 22.172 262.831 22.496 262.783 22.592L262.927 22.736C263.695 21.728 264.535 20.972 265.447 20.468C266.383 19.94 267.535 19.676 268.903 19.676C270.223 19.676 271.387 19.952 272.395 20.504C273.427 21.032 274.231 21.788 274.807 22.772C275.383 23.756 275.671 24.884 275.671 26.156V31.844C275.671 33.14 275.347 34.28 274.699 35.264C274.075 36.248 273.211 37.004 272.107 37.532C271.003 38.06 269.755 38.324 268.363 38.324C267.475 38.324 266.551 38.144 265.591 37.784C264.655 37.4 263.863 36.884 263.215 36.236L263.071 36.416C263.239 36.656 263.503 36.908 263.863 37.172V42.5C263.863 44.516 262.351 45.524 259.327 45.524V22.772ZM267.499 34.436C268.675 34.436 269.587 34.184 270.235 33.68C270.883 33.176 271.207 32.468 271.207 31.556V26.444C271.207 25.508 270.883 24.8 270.235 24.32C269.611 23.816 268.699 23.564 267.499 23.564C266.419 23.564 265.531 23.828 264.835 24.356C264.139 24.86 263.791 25.496 263.791 26.264V31.736C263.791 32.48 264.127 33.116 264.799 33.644C265.495 34.172 266.395 34.436 267.499 34.436ZM287.109 38.324C285.621 38.324 284.265 38.036 283.041 37.46C281.817 36.86 280.845 36.056 280.125 35.048C279.405 34.016 279.045 32.864 279.045 31.592V26.804C279.045 25.46 279.417 24.248 280.161 23.168C280.905 22.088 281.889 21.236 283.113 20.612C284.361 19.988 285.705 19.676 287.145 19.676C288.561 19.676 289.857 19.976 291.033 20.576C292.233 21.152 293.181 21.968 293.877 23.024C294.573 24.056 294.921 25.244 294.921 26.588V28.604C294.921 29.132 294.717 29.576 294.309 29.936C293.925 30.296 293.433 30.476 292.833 30.476H283.401V31.268C283.401 32.3 283.713 33.14 284.337 33.788C284.961 34.436 285.897 34.76 287.145 34.76C288.345 34.76 289.233 34.496 289.809 33.968C290.409 33.44 290.709 32.756 290.709 31.916C291.141 31.868 291.441 31.844 291.609 31.844C292.497 31.844 293.193 32.048 293.697 32.456C294.201 32.84 294.453 33.392 294.453 34.112C294.453 34.808 294.129 35.48 293.481 36.128C292.833 36.776 291.945 37.304 290.817 37.712C289.689 38.12 288.453 38.324 287.109 38.324ZM290.853 27.272V26.588C290.853 25.58 290.505 24.764 289.809 24.14C289.113 23.516 288.213 23.204 287.109 23.204C286.005 23.204 285.105 23.516 284.409 24.14C283.737 24.74 283.401 25.556 283.401 26.588V27.272H290.853ZM307.638 23.564C306.222 23.564 305.07 23.948 304.182 24.716C303.294 25.46 302.85 26.396 302.85 27.524V35.588C302.85 36.548 302.49 37.244 301.77 37.676C301.05 38.108 299.922 38.324 298.386 38.324V23.132C298.386 22.028 298.734 21.176 299.43 20.576C300.15 19.976 301.23 19.676 302.67 19.676V21.8C302.31 22.208 302.022 22.604 301.806 22.988L302.022 23.132C303.534 20.828 305.43 19.676 307.71 19.676C308.742 19.676 309.522 19.952 310.05 20.504C310.578 21.032 310.842 21.704 310.842 22.52C310.842 23.144 310.674 23.672 310.338 24.104C309.69 23.744 308.79 23.564 307.638 23.564ZM318.284 38.324C317.06 38.324 315.932 38.084 314.9 37.604C313.892 37.124 313.076 36.44 312.452 35.552C311.852 34.64 311.552 33.56 311.552 32.312C311.552 31.064 311.876 29.984 312.524 29.072C313.172 28.136 314.048 27.428 315.152 26.948C316.28 26.444 317.516 26.192 318.86 26.192C319.964 26.192 320.948 26.372 321.812 26.732C322.7 27.068 323.516 27.584 324.26 28.28L324.44 28.1C324.224 27.884 323.852 27.56 323.324 27.128V26.408C323.324 25.424 322.976 24.644 322.28 24.068C321.584 23.492 320.612 23.204 319.364 23.204C317.132 23.204 315.488 24.02 314.432 25.652C313.904 25.484 313.46 25.22 313.1 24.86C312.74 24.476 312.56 24.068 312.56 23.636C312.56 22.916 312.884 22.256 313.532 21.656C314.18 21.056 315.056 20.576 316.16 20.216C317.264 19.856 318.464 19.676 319.76 19.676C322.304 19.676 324.272 20.276 325.664 21.476C327.056 22.652 327.752 24.26 327.752 26.3V35.3C327.752 36.356 327.416 37.124 326.744 37.604C326.072 38.084 325.016 38.324 323.576 38.324V36.848C323.984 36.44 324.26 36.14 324.404 35.948L324.26 35.768C323.468 36.608 322.616 37.244 321.704 37.676C320.816 38.108 319.676 38.324 318.284 38.324ZM319.436 35.048C320.684 35.048 321.656 34.808 322.352 34.328C323.048 33.848 323.396 33.164 323.396 32.276C323.396 31.412 323.036 30.728 322.316 30.224C321.62 29.72 320.672 29.468 319.472 29.468C318.368 29.468 317.492 29.72 316.844 30.224C316.22 30.704 315.908 31.388 315.908 32.276C315.908 33.188 316.22 33.884 316.844 34.364C317.468 34.82 318.332 35.048 319.436 35.048ZM338.997 38.324C337.437 38.324 336.057 38.048 334.857 37.496C333.657 36.92 332.721 36.128 332.049 35.12C331.377 34.112 331.041 32.972 331.041 31.7V26.66C331.041 25.292 331.377 24.08 332.049 23.024C332.721 21.968 333.657 21.152 334.857 20.576C336.057 19.976 337.425 19.676 338.961 19.676C340.401 19.676 341.673 19.88 342.777 20.288C343.905 20.696 344.781 21.272 345.405 22.016C346.029 22.736 346.341 23.576 346.341 24.536C346.341 25.28 346.053 25.88 345.477 26.336C344.901 26.792 344.145 27.02 343.209 27.02C342.945 27.02 342.753 27.008 342.633 26.984C342.633 25.952 342.297 25.124 341.625 24.5C340.977 23.876 340.125 23.564 339.069 23.564C338.013 23.564 337.149 23.864 336.477 24.464C335.829 25.064 335.505 25.856 335.505 26.84V31.376C335.505 32.288 335.841 33.032 336.513 33.608C337.185 34.16 338.049 34.436 339.105 34.436C340.161 34.436 341.025 34.124 341.697 33.5C342.369 32.852 342.705 32.036 342.705 31.052C342.849 31.028 343.053 31.016 343.317 31.016C344.253 31.016 345.009 31.232 345.585 31.664C346.161 32.096 346.449 32.684 346.449 33.428C346.449 34.388 346.125 35.24 345.477 35.984C344.853 36.704 343.977 37.28 342.849 37.712C341.721 38.12 340.437 38.324 338.997 38.324ZM352.878 17.984C352.014 17.984 351.294 17.732 350.718 17.228C350.166 16.7 349.89 16.028 349.89 15.212C349.89 14.42 350.166 13.772 350.718 13.268C351.294 12.74 352.014 12.476 352.878 12.476C353.742 12.476 354.45 12.74 355.002 13.268C355.578 13.772 355.866 14.42 355.866 15.212C355.866 16.028 355.578 16.7 355.002 17.228C354.45 17.732 353.742 17.984 352.878 17.984ZM350.61 22.412C350.61 21.428 350.982 20.732 351.726 20.324C352.47 19.892 353.598 19.676 355.11 19.676V35.588C355.11 36.548 354.738 37.244 353.994 37.676C353.25 38.108 352.122 38.324 350.61 38.324V22.412ZM367.644 38.324C366.084 38.324 364.668 38.048 363.396 37.496C362.148 36.92 361.164 36.128 360.444 35.12C359.724 34.112 359.364 32.972 359.364 31.7V26.624C359.364 25.328 359.712 24.152 360.408 23.096C361.128 22.04 362.112 21.212 363.36 20.612C364.608 19.988 366.036 19.676 367.644 19.676C369.252 19.676 370.68 19.988 371.928 20.612C373.2 21.212 374.184 22.04 374.88 23.096C375.6 24.152 375.96 25.328 375.96 26.624V31.7C375.96 32.972 375.588 34.112 374.844 35.12C374.124 36.128 373.128 36.92 371.856 37.496C370.608 38.048 369.204 38.324 367.644 38.324ZM367.644 34.472C368.844 34.472 369.78 34.196 370.452 33.644C371.148 33.092 371.496 32.348 371.496 31.412V26.84C371.496 25.856 371.148 25.064 370.452 24.464C369.78 23.84 368.844 23.528 367.644 23.528C366.468 23.528 365.532 23.84 364.836 24.464C364.14 25.064 363.792 25.856 363.792 26.84V31.412C363.792 32.348 364.14 33.092 364.836 33.644C365.532 34.196 366.468 34.472 367.644 34.472ZM367.752 12.764C367.896 12.38 368.184 12.068 368.616 11.828C369.048 11.588 369.648 11.468 370.416 11.468H373.512L369.804 17.192C369.564 17.504 369.252 17.744 368.868 17.912C368.484 18.056 367.86 18.128 366.996 18.128C366.516 18.128 366.12 18.116 365.808 18.092L367.752 12.764ZM379.456 23.132C379.456 22.028 379.804 21.176 380.5 20.576C381.22 19.976 382.3 19.676 383.74 19.676V21.836C383.452 22.172 383.164 22.556 382.876 22.988L383.092 23.132C383.812 22.052 384.736 21.212 385.864 20.612C386.992 19.988 388.24 19.676 389.608 19.676C390.832 19.676 391.912 19.952 392.848 20.504C393.784 21.056 394.504 21.812 395.008 22.772C395.536 23.732 395.8 24.812 395.8 26.012V35.588C395.8 36.548 395.428 37.244 394.684 37.676C393.94 38.108 392.812 38.324 391.3 38.324V26.66C391.3 25.748 391.024 25.004 390.472 24.428C389.944 23.852 389.164 23.564 388.132 23.564C386.908 23.564 385.9 23.948 385.108 24.716C384.316 25.46 383.92 26.396 383.92 27.524V35.588C383.92 36.548 383.56 37.244 382.84 37.676C382.12 38.108 380.992 38.324 379.456 38.324V23.132Z"
        fill="#777777"/>
  <path d="M431 27.2754L1151.01 31.7246" stroke="#CBCBCB"/>
</svg>
