<svg width="268" height="29" viewBox="0 0 268 29" fill="none" xmlns="http://www.w3.org/2000/svg">
  <path d="M0.77 2.83C0.77 2.31 0.96 1.88 1.34 1.54C1.72 1.18 2.2 0.999999 2.78 0.999999H11.12C12.56 0.999999 13.83 1.29 14.93 1.87C16.05 2.43 16.91 3.24 17.51 4.3C18.13 5.34 18.44 6.55 18.44 7.93C18.44 9.33 18.14 10.56 17.54 11.62C16.94 12.66 16.09 13.47 14.99 14.05C13.89 14.61 12.6 14.89 11.12 14.89H4.79V19.3C4.79 20.26 4.44 21 3.74 21.52C3.06 22.02 2.07 22.27 0.77 22.27V2.83ZM11.12 11.41C12.18 11.41 13 11.1 13.58 10.48C14.16 9.86 14.45 9 14.45 7.9C14.45 6.82 14.15 5.98 13.55 5.38C12.97 4.78 12.16 4.48 11.12 4.48H4.79V11.41H11.12ZM25.9135 22.27C24.6735 22.27 23.5435 22.03 22.5235 21.55C21.5035 21.05 20.6935 20.38 20.0935 19.54C19.4935 18.68 19.1935 17.72 19.1935 16.66V12.67C19.1935 11.55 19.5035 10.54 20.1235 9.64C20.7435 8.74 21.5635 8.03 22.5835 7.51C23.6235 6.99 24.7435 6.73 25.9435 6.73C27.1235 6.73 28.2035 6.98 29.1835 7.48C30.1835 7.96 30.9735 8.64 31.5535 9.52C32.1335 10.38 32.4235 11.37 32.4235 12.49V14.17C32.4235 14.61 32.2535 14.98 31.9135 15.28C31.5935 15.58 31.1835 15.73 30.6835 15.73H22.8235V16.39C22.8235 17.25 23.0835 17.95 23.6035 18.49C24.1235 19.03 24.9035 19.3 25.9435 19.3C26.9435 19.3 27.6835 19.08 28.1635 18.64C28.6635 18.2 28.9135 17.63 28.9135 16.93C29.2735 16.89 29.5235 16.87 29.6635 16.87C30.4035 16.87 30.9835 17.04 31.4035 17.38C31.8235 17.7 32.0335 18.16 32.0335 18.76C32.0335 19.34 31.7635 19.9 31.2235 20.44C30.6835 20.98 29.9435 21.42 29.0035 21.76C28.0635 22.1 27.0335 22.27 25.9135 22.27ZM29.0335 13.06V12.49C29.0335 11.65 28.7435 10.97 28.1635 10.45C27.5835 9.93 26.8335 9.67 25.9135 9.67C24.9935 9.67 24.2435 9.93 23.6635 10.45C23.1035 10.95 22.8235 11.63 22.8235 12.49V13.06H29.0335ZM43.021 9.97C41.841 9.97 40.881 10.29 40.141 10.93C39.401 11.55 39.031 12.33 39.031 13.27V19.99C39.031 20.79 38.731 21.37 38.131 21.73C37.531 22.09 36.591 22.27 35.311 22.27V9.61C35.311 8.69 35.601 7.98 36.181 7.48C36.781 6.98 37.681 6.73 38.881 6.73V8.5C38.581 8.84 38.341 9.17 38.161 9.49L38.341 9.61C39.601 7.69 41.181 6.73 43.081 6.73C43.941 6.73 44.591 6.96 45.031 7.42C45.471 7.86 45.691 8.42 45.691 9.1C45.691 9.62 45.551 10.06 45.271 10.42C44.731 10.12 43.981 9.97 43.021 9.97ZM53.5885 22.27C51.6685 22.27 50.1185 21.93 48.9385 21.25C47.7785 20.55 47.1885 19.62 47.1685 18.46C47.1685 17.96 47.3685 17.54 47.7685 17.2C48.1885 16.86 48.8485 16.68 49.7485 16.66C49.9285 17.54 50.3485 18.22 51.0085 18.7C51.6685 19.16 52.4685 19.39 53.4085 19.39C54.4285 19.39 55.2285 19.26 55.8085 19C56.3885 18.74 56.6785 18.35 56.6785 17.83C56.6785 17.35 56.4385 16.95 55.9585 16.63C55.4985 16.31 54.5785 15.99 53.1985 15.67C51.6985 15.31 50.5285 14.95 49.6885 14.59C48.8685 14.23 48.2585 13.77 47.8585 13.21C47.4585 12.65 47.2585 11.91 47.2585 10.99C47.2585 9.71 47.7985 8.68 48.8785 7.9C49.9585 7.12 51.4385 6.73 53.3185 6.73C55.1385 6.73 56.6485 7.06 57.8485 7.72C59.0485 8.36 59.6485 9.22 59.6485 10.3C59.6485 10.84 59.4485 11.24 59.0485 11.5C58.6485 11.76 57.9885 11.9 57.0685 11.92C56.8685 11.12 56.4885 10.52 55.9285 10.12C55.3685 9.72 54.5785 9.52 53.5585 9.52C52.7985 9.52 52.1385 9.65 51.5785 9.91C51.0385 10.17 50.7685 10.51 50.7685 10.93C50.7685 11.37 50.9985 11.71 51.4585 11.95C51.9185 12.19 52.7185 12.43 53.8585 12.67C56.0985 13.15 57.7185 13.79 58.7185 14.59C59.7385 15.39 60.2485 16.48 60.2485 17.86C60.2485 19.2 59.6485 20.27 58.4485 21.07C57.2685 21.87 55.6485 22.27 53.5885 22.27ZM68.4463 22.27C67.1463 22.27 65.9663 22.04 64.9063 21.58C63.8663 21.1 63.0463 20.44 62.4463 19.6C61.8463 18.76 61.5463 17.81 61.5463 16.75V12.52C61.5463 11.44 61.8363 10.46 62.4163 9.58C63.0163 8.7 63.8363 8.01 64.8763 7.51C65.9163 6.99 67.1063 6.73 68.4463 6.73C69.7863 6.73 70.9763 6.99 72.0163 7.51C73.0763 8.01 73.8963 8.7 74.4763 9.58C75.0763 10.46 75.3763 11.44 75.3763 12.52V16.75C75.3763 17.81 75.0663 18.76 74.4463 19.6C73.8463 20.44 73.0163 21.1 71.9563 21.58C70.9163 22.04 69.7463 22.27 68.4463 22.27ZM68.4463 19.06C69.4463 19.06 70.2263 18.83 70.7863 18.37C71.3663 17.91 71.6563 17.29 71.6563 16.51V12.7C71.6563 11.88 71.3663 11.22 70.7863 10.72C70.2263 10.2 69.4463 9.94 68.4463 9.94C67.4663 9.94 66.6863 10.2 66.1063 10.72C65.5263 11.22 65.2363 11.88 65.2363 12.7V16.51C65.2363 17.29 65.5263 17.91 66.1063 18.37C66.6863 18.83 67.4663 19.06 68.4463 19.06ZM77.7329 9.61C77.7329 8.69 78.0229 7.98 78.6029 7.48C79.2029 6.98 80.1029 6.73 81.3029 6.73V8.53C81.0629 8.81 80.8229 9.13 80.5829 9.49L80.7629 9.61C81.3629 8.71 82.1329 8.01 83.0729 7.51C84.0129 6.99 85.0529 6.73 86.1929 6.73C87.2129 6.73 88.1129 6.96 88.8929 7.42C89.6729 7.88 90.2729 8.51 90.6929 9.31C91.1329 10.11 91.3529 11.01 91.3529 12.01V19.99C91.3529 20.79 91.0429 21.37 90.4229 21.73C89.8029 22.09 88.8629 22.27 87.6029 22.27V12.55C87.6029 11.79 87.3729 11.17 86.9129 10.69C86.4729 10.21 85.8229 9.97 84.9629 9.97C83.9429 9.97 83.1029 10.29 82.4429 10.93C81.7829 11.55 81.4529 12.33 81.4529 13.27V19.99C81.4529 20.79 81.1529 21.37 80.5529 21.73C79.9529 22.09 79.0129 22.27 77.7329 22.27V9.61ZM99.6758 22.27C98.6558 22.27 97.7158 22.07 96.8558 21.67C96.0158 21.27 95.3358 20.7 94.8158 19.96C94.3158 19.2 94.0658 18.3 94.0658 17.26C94.0658 16.22 94.3358 15.32 94.8758 14.56C95.4158 13.78 96.1458 13.19 97.0658 12.79C98.0058 12.37 99.0358 12.16 100.156 12.16C101.076 12.16 101.896 12.31 102.616 12.61C103.356 12.89 104.036 13.32 104.656 13.9L104.806 13.75C104.626 13.57 104.316 13.3 103.876 12.94V12.34C103.876 11.52 103.586 10.87 103.006 10.39C102.426 9.91 101.616 9.67 100.576 9.67C98.7158 9.67 97.3458 10.35 96.4658 11.71C96.0258 11.57 95.6558 11.35 95.3558 11.05C95.0558 10.73 94.9058 10.39 94.9058 10.03C94.9058 9.43 95.1758 8.88 95.7158 8.38C96.2558 7.88 96.9858 7.48 97.9058 7.18C98.8258 6.88 99.8258 6.73 100.906 6.73C103.026 6.73 104.666 7.23 105.826 8.23C106.986 9.21 107.566 10.55 107.566 12.25V19.75C107.566 20.63 107.286 21.27 106.726 21.67C106.166 22.07 105.286 22.27 104.086 22.27V21.04C104.426 20.7 104.656 20.45 104.776 20.29L104.656 20.14C103.996 20.84 103.286 21.37 102.526 21.73C101.786 22.09 100.836 22.27 99.6758 22.27ZM100.636 19.54C101.676 19.54 102.486 19.34 103.066 18.94C103.646 18.54 103.936 17.97 103.936 17.23C103.936 16.51 103.636 15.94 103.036 15.52C102.456 15.1 101.666 14.89 100.666 14.89C99.7458 14.89 99.0158 15.1 98.4758 15.52C97.9558 15.92 97.6958 16.49 97.6958 17.23C97.6958 17.99 97.9558 18.57 98.4758 18.97C98.9958 19.35 99.7158 19.54 100.636 19.54ZM115.846 22.27C114.186 22.27 112.926 21.8 112.066 20.86C111.226 19.9 110.806 18.69 110.806 17.23V3.01C110.806 2.19 111.106 1.61 111.706 1.27C112.326 0.909999 113.276 0.729998 114.556 0.729998V17.08C114.556 17.76 114.706 18.26 115.006 18.58C115.306 18.88 115.786 19.03 116.446 19.03C117.186 19.03 117.926 18.84 118.666 18.46C118.866 18.64 119.016 18.87 119.116 19.15C119.236 19.41 119.296 19.68 119.296 19.96C119.296 20.56 118.996 21.1 118.396 21.58C117.796 22.04 116.946 22.27 115.846 22.27ZM136.158 22.27C134.918 22.27 133.788 22.03 132.768 21.55C131.748 21.05 130.938 20.38 130.338 19.54C129.738 18.68 129.438 17.72 129.438 16.66V12.67C129.438 11.55 129.748 10.54 130.368 9.64C130.988 8.74 131.808 8.03 132.828 7.51C133.868 6.99 134.988 6.73 136.188 6.73C137.368 6.73 138.448 6.98 139.428 7.48C140.428 7.96 141.218 8.64 141.798 9.52C142.378 10.38 142.668 11.37 142.668 12.49V14.17C142.668 14.61 142.498 14.98 142.158 15.28C141.838 15.58 141.428 15.73 140.928 15.73H133.068V16.39C133.068 17.25 133.328 17.95 133.848 18.49C134.368 19.03 135.148 19.3 136.188 19.3C137.188 19.3 137.928 19.08 138.408 18.64C138.908 18.2 139.158 17.63 139.158 16.93C139.518 16.89 139.768 16.87 139.908 16.87C140.648 16.87 141.228 17.04 141.648 17.38C142.068 17.7 142.278 18.16 142.278 18.76C142.278 19.34 142.008 19.9 141.468 20.44C140.928 20.98 140.188 21.42 139.248 21.76C138.308 22.1 137.278 22.27 136.158 22.27ZM139.278 13.06V12.49C139.278 11.65 138.988 10.97 138.408 10.45C137.828 9.93 137.078 9.67 136.158 9.67C135.238 9.67 134.488 9.93 133.908 10.45C133.348 10.95 133.068 11.63 133.068 12.49V13.06H139.278ZM145.555 9.61C145.555 8.69 145.845 7.98 146.425 7.48C147.025 6.98 147.925 6.73 149.125 6.73V8.53C148.885 8.81 148.645 9.13 148.405 9.49L148.585 9.61C149.185 8.71 149.955 8.01 150.895 7.51C151.835 6.99 152.875 6.73 154.015 6.73C155.035 6.73 155.935 6.96 156.715 7.42C157.495 7.88 158.095 8.51 158.515 9.31C158.955 10.11 159.175 11.01 159.175 12.01V19.99C159.175 20.79 158.865 21.37 158.245 21.73C157.625 22.09 156.685 22.27 155.425 22.27V12.55C155.425 11.79 155.195 11.17 154.735 10.69C154.295 10.21 153.645 9.97 152.785 9.97C151.765 9.97 150.925 10.29 150.265 10.93C149.605 11.55 149.275 12.33 149.275 13.27V19.99C149.275 20.79 148.975 21.37 148.375 21.73C147.775 22.09 146.835 22.27 145.555 22.27V9.61ZM168.968 22.27C167.668 22.27 166.518 22.04 165.518 21.58C164.518 21.1 163.738 20.44 163.178 19.6C162.618 18.76 162.338 17.81 162.338 16.75V12.55C162.338 11.41 162.618 10.4 163.178 9.52C163.738 8.64 164.518 7.96 165.518 7.48C166.518 6.98 167.658 6.73 168.938 6.73C170.138 6.73 171.198 6.9 172.118 7.24C173.058 7.58 173.788 8.06 174.308 8.68C174.828 9.28 175.088 9.98 175.088 10.78C175.088 11.4 174.848 11.9 174.368 12.28C173.888 12.66 173.258 12.85 172.478 12.85C172.258 12.85 172.098 12.84 171.998 12.82C171.998 11.96 171.718 11.27 171.158 10.75C170.618 10.23 169.908 9.97 169.028 9.97C168.148 9.97 167.428 10.22 166.868 10.72C166.328 11.22 166.058 11.88 166.058 12.7V16.48C166.058 17.24 166.338 17.86 166.898 18.34C167.458 18.8 168.178 19.03 169.058 19.03C169.938 19.03 170.658 18.77 171.218 18.25C171.778 17.71 172.058 17.03 172.058 16.21C172.178 16.19 172.348 16.18 172.568 16.18C173.348 16.18 173.978 16.36 174.458 16.72C174.938 17.08 175.178 17.57 175.178 18.19C175.178 18.99 174.908 19.7 174.368 20.32C173.848 20.92 173.118 21.4 172.178 21.76C171.238 22.1 170.168 22.27 168.968 22.27ZM182.586 22.27C181.566 22.27 180.626 22.07 179.766 21.67C178.926 21.27 178.246 20.7 177.726 19.96C177.226 19.2 176.976 18.3 176.976 17.26C176.976 16.22 177.246 15.32 177.786 14.56C178.326 13.78 179.056 13.19 179.976 12.79C180.916 12.37 181.946 12.16 183.066 12.16C183.986 12.16 184.806 12.31 185.526 12.61C186.266 12.89 186.946 13.32 187.566 13.9L187.716 13.75C187.536 13.57 187.226 13.3 186.786 12.94V12.34C186.786 11.52 186.496 10.87 185.916 10.39C185.336 9.91 184.526 9.67 183.486 9.67C181.626 9.67 180.256 10.35 179.376 11.71C178.936 11.57 178.566 11.35 178.266 11.05C177.966 10.73 177.816 10.39 177.816 10.03C177.816 9.43 178.086 8.88 178.626 8.38C179.166 7.88 179.896 7.48 180.816 7.18C181.736 6.88 182.736 6.73 183.816 6.73C185.936 6.73 187.576 7.23 188.736 8.23C189.896 9.21 190.476 10.55 190.476 12.25V19.75C190.476 20.63 190.196 21.27 189.636 21.67C189.076 22.07 188.196 22.27 186.996 22.27V21.04C187.336 20.7 187.566 20.45 187.686 20.29L187.566 20.14C186.906 20.84 186.196 21.37 185.436 21.73C184.696 22.09 183.746 22.27 182.586 22.27ZM183.546 19.54C184.586 19.54 185.396 19.34 185.976 18.94C186.556 18.54 186.846 17.97 186.846 17.23C186.846 16.51 186.546 15.94 185.946 15.52C185.366 15.1 184.576 14.89 183.576 14.89C182.656 14.89 181.926 15.1 181.386 15.52C180.866 15.92 180.606 16.49 180.606 17.23C180.606 17.99 180.866 18.57 181.386 18.97C181.906 19.35 182.626 19.54 183.546 19.54ZM201.546 9.97C200.366 9.97 199.406 10.29 198.666 10.93C197.926 11.55 197.556 12.33 197.556 13.27V19.99C197.556 20.79 197.256 21.37 196.656 21.73C196.056 22.09 195.116 22.27 193.836 22.27V9.61C193.836 8.69 194.126 7.98 194.706 7.48C195.306 6.98 196.206 6.73 197.406 6.73V8.5C197.106 8.84 196.866 9.17 196.686 9.49L196.866 9.61C198.126 7.69 199.706 6.73 201.606 6.73C202.466 6.73 203.116 6.96 203.556 7.42C203.996 7.86 204.216 8.42 204.216 9.1C204.216 9.62 204.076 10.06 203.796 10.42C203.256 10.12 202.506 9.97 201.546 9.97ZM211.618 28.27C210.438 28.27 209.388 28.1 208.468 27.76C207.548 27.44 206.828 27 206.308 26.44C205.788 25.88 205.528 25.26 205.528 24.58C205.528 23.9 205.758 23.42 206.218 23.14C206.698 22.86 207.368 22.72 208.228 22.72C208.308 23.54 208.628 24.17 209.188 24.61C209.748 25.07 210.558 25.3 211.618 25.3C212.798 25.3 213.628 25.01 214.108 24.43C214.608 23.85 214.858 23.05 214.858 22.03V21.01C215.158 20.79 215.378 20.58 215.518 20.38L215.398 20.23C214.878 20.75 214.178 21.17 213.298 21.49C212.438 21.81 211.628 21.97 210.868 21.97C209.748 21.97 208.748 21.75 207.868 21.31C206.988 20.85 206.288 20.21 205.768 19.39C205.268 18.57 205.018 17.64 205.018 16.6V12.13C205.018 11.13 205.278 10.22 205.798 9.4C206.338 8.56 207.038 7.91 207.898 7.45C208.778 6.97 209.718 6.73 210.718 6.73C211.818 6.73 212.748 6.95 213.508 7.39C214.288 7.83 214.998 8.46 215.638 9.28L215.758 9.16C215.658 8.98 215.468 8.72 215.188 8.38C215.188 7.28 216.338 6.73 218.638 6.73V21.49C218.638 22.81 218.338 23.98 217.738 25C217.138 26.02 216.298 26.82 215.218 27.4C214.158 27.98 212.958 28.27 211.618 28.27ZM211.828 18.76C212.708 18.76 213.448 18.54 214.048 18.1C214.648 17.64 214.948 17.1 214.948 16.48V12.22C214.948 11.58 214.648 11.04 214.048 10.6C213.468 10.16 212.728 9.94 211.828 9.94C210.848 9.94 210.088 10.15 209.548 10.57C209.028 10.99 208.768 11.59 208.768 12.37V16.33C208.768 17.09 209.028 17.69 209.548 18.13C210.068 18.55 210.828 18.76 211.828 18.76ZM227.029 22.27C226.009 22.27 225.069 22.07 224.209 21.67C223.369 21.27 222.689 20.7 222.169 19.96C221.669 19.2 221.419 18.3 221.419 17.26C221.419 16.22 221.689 15.32 222.229 14.56C222.769 13.78 223.499 13.19 224.419 12.79C225.359 12.37 226.389 12.16 227.509 12.16C228.429 12.16 229.249 12.31 229.969 12.61C230.709 12.89 231.389 13.32 232.009 13.9L232.159 13.75C231.979 13.57 231.669 13.3 231.229 12.94V12.34C231.229 11.52 230.939 10.87 230.359 10.39C229.779 9.91 228.969 9.67 227.929 9.67C226.069 9.67 224.699 10.35 223.819 11.71C223.379 11.57 223.009 11.35 222.709 11.05C222.409 10.73 222.259 10.39 222.259 10.03C222.259 9.43 222.529 8.88 223.069 8.38C223.609 7.88 224.339 7.48 225.259 7.18C226.179 6.88 227.179 6.73 228.259 6.73C230.379 6.73 232.019 7.23 233.179 8.23C234.339 9.21 234.919 10.55 234.919 12.25V19.75C234.919 20.63 234.639 21.27 234.079 21.67C233.519 22.07 232.639 22.27 231.439 22.27V21.04C231.779 20.7 232.009 20.45 232.129 20.29L232.009 20.14C231.349 20.84 230.639 21.37 229.879 21.73C229.139 22.09 228.189 22.27 227.029 22.27ZM227.989 19.54C229.029 19.54 229.839 19.34 230.419 18.94C230.999 18.54 231.289 17.97 231.289 17.23C231.289 16.51 230.989 15.94 230.389 15.52C229.809 15.1 229.019 14.89 228.019 14.89C227.099 14.89 226.369 15.1 225.829 15.52C225.309 15.92 225.049 16.49 225.049 17.23C225.049 17.99 225.309 18.57 225.829 18.97C226.349 19.35 227.069 19.54 227.989 19.54ZM243.8 22.27C242.72 22.27 241.75 22.04 240.89 21.58C240.03 21.12 239.35 20.49 238.85 19.69C238.35 18.87 238.1 17.93 238.1 16.87V12.13C238.1 11.09 238.36 10.16 238.88 9.34C239.4 8.52 240.12 7.88 241.04 7.42C241.98 6.96 243.02 6.73 244.16 6.73C244.9 6.73 245.66 6.89 246.44 7.21C247.24 7.51 247.91 7.92 248.45 8.44L248.57 8.29C248.47 8.13 248.25 7.93 247.91 7.69V3.25C247.91 2.45 248.22 1.83 248.84 1.39C249.48 0.949999 250.44 0.729998 251.72 0.729998V19.69C251.72 20.43 251.44 21.05 250.88 21.55C250.32 22.03 249.45 22.27 248.27 22.27V20.62C248.53 20.3 248.72 20.04 248.84 19.84L248.69 19.72C248.07 20.56 247.38 21.2 246.62 21.64C245.88 22.06 244.94 22.27 243.8 22.27ZM244.91 19.03C245.81 19.03 246.54 18.82 247.1 18.4C247.68 17.96 247.97 17.41 247.97 16.75V12.22C247.97 11.58 247.68 11.05 247.1 10.63C246.54 10.19 245.8 9.97 244.88 9.97C243.9 9.97 243.14 10.18 242.6 10.6C242.08 11 241.82 11.58 241.82 12.34V16.6C241.82 17.4 242.08 18.01 242.6 18.43C243.14 18.83 243.91 19.03 244.91 19.03ZM260.956 22.27C259.656 22.27 258.476 22.04 257.416 21.58C256.376 21.1 255.556 20.44 254.956 19.6C254.356 18.76 254.056 17.81 254.056 16.75V12.52C254.056 11.44 254.346 10.46 254.926 9.58C255.526 8.7 256.346 8.01 257.386 7.51C258.426 6.99 259.616 6.73 260.956 6.73C262.296 6.73 263.486 6.99 264.526 7.51C265.586 8.01 266.406 8.7 266.986 9.58C267.586 10.46 267.886 11.44 267.886 12.52V16.75C267.886 17.81 267.576 18.76 266.956 19.6C266.356 20.44 265.526 21.1 264.466 21.58C263.426 22.04 262.256 22.27 260.956 22.27ZM260.956 19.06C261.956 19.06 262.736 18.83 263.296 18.37C263.876 17.91 264.166 17.29 264.166 16.51V12.7C264.166 11.88 263.876 11.22 263.296 10.72C262.736 10.2 261.956 9.94 260.956 9.94C259.976 9.94 259.196 10.2 258.616 10.72C258.036 11.22 257.746 11.88 257.746 12.7V16.51C257.746 17.29 258.036 17.91 258.616 18.37C259.196 18.83 259.976 19.06 260.956 19.06Z"
        fill="#777777"/>
</svg>
