<svg width="929" height="47" viewBox="0 0 929 47" fill="none" xmlns="http://www.w3.org/2000/svg">
  <path d="M2.124 14.996C2.124 14.372 2.352 13.856 2.808 13.448C3.264 13.016 3.84 12.8 4.536 12.8H14.544C16.272 12.8 17.796 13.148 19.116 13.844C20.46 14.516 21.492 15.488 22.212 16.76C22.956 18.008 23.328 19.46 23.328 21.116C23.328 22.796 22.968 24.272 22.248 25.544C21.528 26.792 20.508 27.764 19.188 28.46C17.868 29.132 16.32 29.468 14.544 29.468H6.948V34.76C6.948 35.912 6.528 36.8 5.688 37.424C4.872 38.024 3.684 38.324 2.124 38.324V14.996ZM14.544 25.292C15.816 25.292 16.8 24.92 17.496 24.176C18.192 23.432 18.54 22.4 18.54 21.08C18.54 19.784 18.18 18.776 17.46 18.056C16.764 17.336 15.792 16.976 14.544 16.976H6.948V25.292H14.544ZM34.7901 23.564C33.3741 23.564 32.2221 23.948 31.3341 24.716C30.4461 25.46 30.0021 26.396 30.0021 27.524V35.588C30.0021 36.548 29.6421 37.244 28.9221 37.676C28.2021 38.108 27.0741 38.324 25.5381 38.324V23.132C25.5381 22.028 25.8861 21.176 26.5821 20.576C27.3021 19.976 28.3821 19.676 29.8221 19.676V21.8C29.4621 22.208 29.1741 22.604 28.9581 22.988L29.1741 23.132C30.6861 20.828 32.5821 19.676 34.8621 19.676C35.8941 19.676 36.6741 19.952 37.2021 20.504C37.7301 21.032 37.9941 21.704 37.9941 22.52C37.9941 23.144 37.8261 23.672 37.4901 24.104C36.8421 23.744 35.9421 23.564 34.7901 23.564ZM46.2457 38.324C44.6857 38.324 43.2697 38.048 41.9977 37.496C40.7497 36.92 39.7657 36.128 39.0457 35.12C38.3257 34.112 37.9657 32.972 37.9657 31.7V26.624C37.9657 25.328 38.3137 24.152 39.0097 23.096C39.7297 22.04 40.7137 21.212 41.9617 20.612C43.2097 19.988 44.6377 19.676 46.2457 19.676C47.8537 19.676 49.2817 19.988 50.5297 20.612C51.8017 21.212 52.7857 22.04 53.4817 23.096C54.2017 24.152 54.5617 25.328 54.5617 26.624V31.7C54.5617 32.972 54.1897 34.112 53.4457 35.12C52.7257 36.128 51.7297 36.92 50.4577 37.496C49.2097 38.048 47.8057 38.324 46.2457 38.324ZM46.2457 34.472C47.4457 34.472 48.3817 34.196 49.0537 33.644C49.7497 33.092 50.0977 32.348 50.0977 31.412V26.84C50.0977 25.856 49.7497 25.064 49.0537 24.464C48.3817 23.84 47.4457 23.528 46.2457 23.528C45.0697 23.528 44.1337 23.84 43.4377 24.464C42.7417 25.064 42.3937 25.856 42.3937 26.84V31.412C42.3937 32.348 42.7417 33.092 43.4377 33.644C44.1337 34.196 45.0697 34.472 46.2457 34.472ZM63.8378 38.324C62.5418 38.324 61.3778 38.048 60.3458 37.496C59.3138 36.944 58.4978 36.188 57.8978 35.228C57.2978 34.244 56.9978 33.116 56.9978 31.844V26.156C56.9978 24.908 57.3098 23.792 57.9338 22.808C58.5578 21.824 59.4218 21.056 60.5258 20.504C61.6538 19.952 62.9018 19.676 64.2698 19.676C65.1578 19.676 66.0698 19.868 67.0058 20.252C67.9658 20.612 68.7698 21.104 69.4178 21.728L69.5618 21.548C69.4418 21.356 69.1778 21.116 68.7698 20.828V15.5C68.7698 14.54 69.1418 13.796 69.8858 13.268C70.6538 12.74 71.8058 12.476 73.3418 12.476V35.228C73.3418 36.116 73.0058 36.86 72.3338 37.46C71.6618 38.036 70.6178 38.324 69.2018 38.324V36.344C69.5138 35.96 69.7418 35.648 69.8858 35.408L69.7058 35.264C68.9618 36.272 68.1338 37.04 67.2218 37.568C66.3338 38.072 65.2058 38.324 63.8378 38.324ZM65.1698 34.436C66.2498 34.436 67.1258 34.184 67.7978 33.68C68.4938 33.152 68.8418 32.492 68.8418 31.7V26.264C68.8418 25.496 68.4938 24.86 67.7978 24.356C67.1258 23.828 66.2378 23.564 65.1338 23.564C63.9578 23.564 63.0458 23.816 62.3978 24.32C61.7738 24.8 61.4618 25.496 61.4618 26.408V31.52C61.4618 32.48 61.7738 33.212 62.3978 33.716C63.0458 34.196 63.9698 34.436 65.1698 34.436ZM93.5173 34.832C93.5173 35.96 93.1573 36.824 92.4373 37.424C91.7413 38.024 90.6733 38.324 89.2333 38.324V36.164C89.5453 35.804 89.8333 35.408 90.0973 34.976L89.8813 34.832C88.3453 37.16 86.2813 38.324 83.6893 38.324C82.4653 38.324 81.3613 38.048 80.3773 37.496C79.4173 36.92 78.6493 36.128 78.0733 35.12C77.5213 34.112 77.2453 32.972 77.2453 31.7V22.412C77.2453 21.428 77.6053 20.732 78.3253 20.324C79.0693 19.892 80.1973 19.676 81.7093 19.676V31.376C81.7093 32.312 81.9973 33.056 82.5733 33.608C83.1493 34.16 83.9773 34.436 85.0573 34.436C86.2573 34.436 87.2173 34.064 87.9373 33.32C88.6813 32.552 89.0533 31.604 89.0533 30.476V22.412C89.0533 21.428 89.4133 20.732 90.1333 20.324C90.8533 19.892 91.9813 19.676 93.5173 19.676V34.832ZM105.489 38.324C103.929 38.324 102.549 38.048 101.349 37.496C100.149 36.92 99.213 36.128 98.541 35.12C97.869 34.112 97.533 32.972 97.533 31.7V26.66C97.533 25.292 97.869 24.08 98.541 23.024C99.213 21.968 100.149 21.152 101.349 20.576C102.549 19.976 103.917 19.676 105.453 19.676C106.893 19.676 108.165 19.88 109.269 20.288C110.397 20.696 111.273 21.272 111.897 22.016C112.521 22.736 112.833 23.576 112.833 24.536C112.833 25.28 112.545 25.88 111.969 26.336C111.393 26.792 110.637 27.02 109.701 27.02C109.437 27.02 109.245 27.008 109.125 26.984C109.125 25.952 108.789 25.124 108.117 24.5C107.469 23.876 106.617 23.564 105.561 23.564C104.505 23.564 103.641 23.864 102.969 24.464C102.321 25.064 101.997 25.856 101.997 26.84V31.376C101.997 32.288 102.333 33.032 103.005 33.608C103.677 34.16 104.541 34.436 105.597 34.436C106.653 34.436 107.517 34.124 108.189 33.5C108.861 32.852 109.197 32.036 109.197 31.052C109.341 31.028 109.545 31.016 109.809 31.016C110.745 31.016 111.501 31.232 112.077 31.664C112.653 32.096 112.941 32.684 112.941 33.428C112.941 34.388 112.617 35.24 111.969 35.984C111.345 36.704 110.469 37.28 109.341 37.712C108.213 38.12 106.929 38.324 105.489 38.324ZM123.755 38.324C121.811 38.324 120.371 37.76 119.435 36.632C118.499 35.504 118.031 34.052 118.031 32.276V23.348H114.323C114.323 22.22 114.539 21.38 114.971 20.828C115.403 20.276 115.979 20 116.699 20H118.103V17.012C118.103 16.028 118.463 15.332 119.183 14.924C119.903 14.492 120.995 14.276 122.459 14.276V20H127.247C127.247 21.2 127.019 22.064 126.563 22.592C126.107 23.096 125.375 23.348 124.367 23.348H122.531V32.096C122.531 32.936 122.687 33.536 122.999 33.896C123.335 34.256 123.899 34.436 124.691 34.436C125.531 34.436 126.371 34.208 127.211 33.752C127.451 33.968 127.643 34.244 127.787 34.58C127.931 34.892 128.003 35.216 128.003 35.552C128.003 36.272 127.631 36.92 126.887 37.496C126.143 38.048 125.099 38.324 123.755 38.324ZM138.003 38.324C136.443 38.324 135.027 38.048 133.755 37.496C132.507 36.92 131.523 36.128 130.803 35.12C130.083 34.112 129.723 32.972 129.723 31.7V26.624C129.723 25.328 130.071 24.152 130.767 23.096C131.487 22.04 132.471 21.212 133.719 20.612C134.967 19.988 136.395 19.676 138.003 19.676C139.611 19.676 141.039 19.988 142.287 20.612C143.559 21.212 144.543 22.04 145.239 23.096C145.959 24.152 146.319 25.328 146.319 26.624V31.7C146.319 32.972 145.947 34.112 145.203 35.12C144.483 36.128 143.487 36.92 142.215 37.496C140.967 38.048 139.563 38.324 138.003 38.324ZM138.003 34.472C139.203 34.472 140.139 34.196 140.811 33.644C141.507 33.092 141.855 32.348 141.855 31.412V26.84C141.855 25.856 141.507 25.064 140.811 24.464C140.139 23.84 139.203 23.528 138.003 23.528C136.827 23.528 135.891 23.84 135.195 24.464C134.499 25.064 134.151 25.856 134.151 26.84V31.412C134.151 32.348 134.499 33.092 135.195 33.644C135.891 34.196 136.827 34.472 138.003 34.472ZM156.209 38.324C153.905 38.324 152.045 37.916 150.629 37.1C149.237 36.26 148.529 35.144 148.505 33.752C148.505 33.152 148.745 32.648 149.225 32.24C149.729 31.832 150.521 31.616 151.601 31.592C151.817 32.648 152.321 33.464 153.113 34.04C153.905 34.592 154.865 34.868 155.993 34.868C157.217 34.868 158.177 34.712 158.873 34.4C159.569 34.088 159.917 33.62 159.917 32.996C159.917 32.42 159.629 31.94 159.053 31.556C158.501 31.172 157.397 30.788 155.741 30.404C153.941 29.972 152.537 29.54 151.529 29.108C150.545 28.676 149.813 28.124 149.333 27.452C148.853 26.78 148.613 25.892 148.613 24.788C148.613 23.252 149.261 22.016 150.557 21.08C151.853 20.144 153.629 19.676 155.885 19.676C158.069 19.676 159.881 20.072 161.321 20.864C162.761 21.632 163.481 22.664 163.481 23.96C163.481 24.608 163.241 25.088 162.761 25.4C162.281 25.712 161.489 25.88 160.385 25.904C160.145 24.944 159.689 24.224 159.017 23.744C158.345 23.264 157.397 23.024 156.173 23.024C155.261 23.024 154.469 23.18 153.797 23.492C153.149 23.804 152.825 24.212 152.825 24.716C152.825 25.244 153.101 25.652 153.653 25.94C154.205 26.228 155.165 26.516 156.533 26.804C159.221 27.38 161.165 28.148 162.365 29.108C163.589 30.068 164.201 31.376 164.201 33.032C164.201 34.64 163.481 35.924 162.041 36.884C160.625 37.844 158.681 38.324 156.209 38.324Z"
        fill="#777777"/>
  <line x1="185.965" y1="28.3848" x2="928.002" y2="28.3848" stroke="#CBCBCB"/>
</svg>
