<svg width="1151" height="47" viewBox="0 0 1151 47" fill="none" xmlns="http://www.w3.org/2000/svg">
  <path d="M4.124 14.996C4.124 14.372 4.352 13.856 4.808 13.448C5.264 13.016 5.84 12.8 6.536 12.8H16.148C18.74 12.8 20.744 13.484 22.16 14.852C23.6 16.22 24.32 18.14 24.32 20.612C24.32 22.028 24.032 23.228 23.456 24.212C22.88 25.172 22.004 25.94 20.828 26.516V26.624C22.94 27.56 23.996 29.336 23.996 31.952V34.76C23.996 35.912 23.588 36.8 22.772 37.424C21.956 38.024 20.756 38.324 19.172 38.324V32.168C19.172 30.896 18.92 29.96 18.416 29.36C17.912 28.76 17.144 28.46 16.112 28.46H8.876V34.76C8.876 35.936 8.468 36.824 7.652 37.424C6.86 38.024 5.684 38.324 4.124 38.324V14.996ZM15.896 24.356C17.048 24.356 17.936 24.032 18.56 23.384C19.184 22.712 19.496 21.776 19.496 20.576C19.496 18.128 18.296 16.904 15.896 16.904H8.876V24.356H15.896ZM35.14 38.324C33.652 38.324 32.296 38.036 31.072 37.46C29.848 36.86 28.876 36.056 28.156 35.048C27.436 34.016 27.076 32.864 27.076 31.592V26.804C27.076 25.46 27.448 24.248 28.192 23.168C28.936 22.088 29.92 21.236 31.144 20.612C32.392 19.988 33.736 19.676 35.176 19.676C36.592 19.676 37.888 19.976 39.064 20.576C40.264 21.152 41.212 21.968 41.908 23.024C42.604 24.056 42.952 25.244 42.952 26.588V28.604C42.952 29.132 42.748 29.576 42.34 29.936C41.956 30.296 41.464 30.476 40.864 30.476H31.432V31.268C31.432 32.3 31.744 33.14 32.368 33.788C32.992 34.436 33.928 34.76 35.176 34.76C36.376 34.76 37.264 34.496 37.84 33.968C38.44 33.44 38.74 32.756 38.74 31.916C39.172 31.868 39.472 31.844 39.64 31.844C40.528 31.844 41.224 32.048 41.728 32.456C42.232 32.84 42.484 33.392 42.484 34.112C42.484 34.808 42.16 35.48 41.512 36.128C40.864 36.776 39.976 37.304 38.848 37.712C37.72 38.12 36.484 38.324 35.14 38.324ZM38.884 27.272V26.588C38.884 25.58 38.536 24.764 37.84 24.14C37.144 23.516 36.244 23.204 35.14 23.204C34.036 23.204 33.136 23.516 32.44 24.14C31.768 24.74 31.432 25.556 31.432 26.588V27.272H38.884ZM53.833 45.524C52.417 45.524 51.157 45.32 50.053 44.912C48.949 44.528 48.085 44 47.461 43.328C46.837 42.656 46.525 41.912 46.525 41.096C46.525 40.28 46.801 39.704 47.353 39.368C47.929 39.032 48.733 38.864 49.765 38.864C49.861 39.848 50.245 40.604 50.917 41.132C51.589 41.684 52.561 41.96 53.833 41.96C55.249 41.96 56.245 41.612 56.821 40.916C57.421 40.22 57.721 39.26 57.721 38.036V36.812C58.081 36.548 58.345 36.296 58.513 36.056L58.369 35.876C57.745 36.5 56.905 37.004 55.849 37.388C54.817 37.772 53.845 37.964 52.933 37.964C51.589 37.964 50.389 37.7 49.333 37.172C48.277 36.62 47.437 35.852 46.813 34.868C46.213 33.884 45.913 32.768 45.913 31.52V26.156C45.913 24.956 46.225 23.864 46.849 22.88C47.497 21.872 48.337 21.092 49.369 20.54C50.425 19.964 51.553 19.676 52.753 19.676C54.073 19.676 55.189 19.94 56.101 20.468C57.037 20.996 57.889 21.752 58.657 22.736L58.801 22.592C58.681 22.376 58.453 22.064 58.117 21.656C58.117 20.336 59.497 19.676 62.257 19.676V37.388C62.257 38.972 61.897 40.376 61.177 41.6C60.457 42.824 59.449 43.784 58.153 44.48C56.881 45.176 55.441 45.524 53.833 45.524ZM54.085 34.112C55.141 34.112 56.029 33.848 56.749 33.32C57.469 32.768 57.829 32.12 57.829 31.376V26.264C57.829 25.496 57.469 24.848 56.749 24.32C56.053 23.792 55.165 23.528 54.085 23.528C52.909 23.528 51.997 23.78 51.349 24.284C50.725 24.788 50.413 25.508 50.413 26.444V31.196C50.413 32.108 50.725 32.828 51.349 33.356C51.973 33.86 52.885 34.112 54.085 34.112ZM69.3386 17.984C68.4746 17.984 67.7546 17.732 67.1786 17.228C66.6266 16.7 66.3506 16.028 66.3506 15.212C66.3506 14.42 66.6266 13.772 67.1786 13.268C67.7546 12.74 68.4746 12.476 69.3386 12.476C70.2026 12.476 70.9106 12.74 71.4626 13.268C72.0386 13.772 72.3266 14.42 72.3266 15.212C72.3266 16.028 72.0386 16.7 71.4626 17.228C70.9106 17.732 70.2026 17.984 69.3386 17.984ZM67.0706 22.412C67.0706 21.428 67.4426 20.732 68.1866 20.324C68.9306 19.892 70.0586 19.676 71.5706 19.676V35.588C71.5706 36.548 71.1986 37.244 70.4546 37.676C69.7106 38.108 68.5826 38.324 67.0706 38.324V22.412ZM83.889 38.324C81.585 38.324 79.725 37.916 78.309 37.1C76.917 36.26 76.209 35.144 76.185 33.752C76.185 33.152 76.425 32.648 76.905 32.24C77.409 31.832 78.201 31.616 79.281 31.592C79.497 32.648 80.001 33.464 80.793 34.04C81.585 34.592 82.545 34.868 83.673 34.868C84.897 34.868 85.857 34.712 86.553 34.4C87.249 34.088 87.597 33.62 87.597 32.996C87.597 32.42 87.309 31.94 86.733 31.556C86.181 31.172 85.077 30.788 83.421 30.404C81.621 29.972 80.217 29.54 79.209 29.108C78.225 28.676 77.493 28.124 77.013 27.452C76.533 26.78 76.293 25.892 76.293 24.788C76.293 23.252 76.941 22.016 78.237 21.08C79.533 20.144 81.309 19.676 83.565 19.676C85.749 19.676 87.561 20.072 89.001 20.864C90.441 21.632 91.161 22.664 91.161 23.96C91.161 24.608 90.921 25.088 90.441 25.4C89.961 25.712 89.169 25.88 88.065 25.904C87.825 24.944 87.369 24.224 86.697 23.744C86.025 23.264 85.077 23.024 83.853 23.024C82.941 23.024 82.149 23.18 81.477 23.492C80.829 23.804 80.505 24.212 80.505 24.716C80.505 25.244 80.781 25.652 81.333 25.94C81.885 26.228 82.845 26.516 84.213 26.804C86.901 27.38 88.845 28.148 90.045 29.108C91.269 30.068 91.881 31.376 91.881 33.032C91.881 34.64 91.161 35.924 89.721 36.884C88.305 37.844 86.361 38.324 83.889 38.324ZM102.059 38.324C100.115 38.324 98.6752 37.76 97.7392 36.632C96.8032 35.504 96.3352 34.052 96.3352 32.276V23.348H92.6272C92.6272 22.22 92.8432 21.38 93.2752 20.828C93.7072 20.276 94.2832 20 95.0032 20H96.4072V17.012C96.4072 16.028 96.7672 15.332 97.4872 14.924C98.2072 14.492 99.2992 14.276 100.763 14.276V20H105.551C105.551 21.2 105.323 22.064 104.867 22.592C104.411 23.096 103.679 23.348 102.671 23.348H100.835V32.096C100.835 32.936 100.991 33.536 101.303 33.896C101.639 34.256 102.203 34.436 102.995 34.436C103.835 34.436 104.675 34.208 105.515 33.752C105.755 33.968 105.947 34.244 106.091 34.58C106.235 34.892 106.307 35.216 106.307 35.552C106.307 36.272 105.935 36.92 105.191 37.496C104.447 38.048 103.403 38.324 102.059 38.324ZM118.95 23.564C117.534 23.564 116.382 23.948 115.494 24.716C114.606 25.46 114.162 26.396 114.162 27.524V35.588C114.162 36.548 113.802 37.244 113.082 37.676C112.362 38.108 111.234 38.324 109.698 38.324V23.132C109.698 22.028 110.046 21.176 110.742 20.576C111.462 19.976 112.542 19.676 113.982 19.676V21.8C113.622 22.208 113.334 22.604 113.118 22.988L113.334 23.132C114.846 20.828 116.742 19.676 119.022 19.676C120.054 19.676 120.834 19.952 121.362 20.504C121.89 21.032 122.154 21.704 122.154 22.52C122.154 23.144 121.986 23.672 121.65 24.104C121.002 23.744 120.102 23.564 118.95 23.564ZM129.596 38.324C128.372 38.324 127.244 38.084 126.212 37.604C125.204 37.124 124.388 36.44 123.764 35.552C123.164 34.64 122.864 33.56 122.864 32.312C122.864 31.064 123.188 29.984 123.836 29.072C124.484 28.136 125.36 27.428 126.464 26.948C127.592 26.444 128.828 26.192 130.172 26.192C131.276 26.192 132.26 26.372 133.124 26.732C134.012 27.068 134.828 27.584 135.572 28.28L135.752 28.1C135.536 27.884 135.164 27.56 134.636 27.128V26.408C134.636 25.424 134.288 24.644 133.592 24.068C132.896 23.492 131.924 23.204 130.676 23.204C128.444 23.204 126.8 24.02 125.744 25.652C125.216 25.484 124.772 25.22 124.412 24.86C124.052 24.476 123.872 24.068 123.872 23.636C123.872 22.916 124.196 22.256 124.844 21.656C125.492 21.056 126.368 20.576 127.472 20.216C128.576 19.856 129.776 19.676 131.072 19.676C133.616 19.676 135.584 20.276 136.976 21.476C138.368 22.652 139.064 24.26 139.064 26.3V35.3C139.064 36.356 138.728 37.124 138.056 37.604C137.384 38.084 136.328 38.324 134.888 38.324V36.848C135.296 36.44 135.572 36.14 135.716 35.948L135.572 35.768C134.78 36.608 133.928 37.244 133.016 37.676C132.128 38.108 130.988 38.324 129.596 38.324ZM130.748 35.048C131.996 35.048 132.968 34.808 133.664 34.328C134.36 33.848 134.708 33.164 134.708 32.276C134.708 31.412 134.348 30.728 133.628 30.224C132.932 29.72 131.984 29.468 130.784 29.468C129.68 29.468 128.804 29.72 128.156 30.224C127.532 30.704 127.22 31.388 127.22 32.276C127.22 33.188 127.532 33.884 128.156 34.364C128.78 34.82 129.644 35.048 130.748 35.048ZM152.349 23.564C150.933 23.564 149.781 23.948 148.893 24.716C148.005 25.46 147.561 26.396 147.561 27.524V35.588C147.561 36.548 147.201 37.244 146.481 37.676C145.761 38.108 144.633 38.324 143.097 38.324V23.132C143.097 22.028 143.445 21.176 144.141 20.576C144.861 19.976 145.941 19.676 147.381 19.676V21.8C147.021 22.208 146.733 22.604 146.517 22.988L146.733 23.132C148.245 20.828 150.141 19.676 152.421 19.676C153.453 19.676 154.233 19.952 154.761 20.504C155.289 21.032 155.553 21.704 155.553 22.52C155.553 23.144 155.385 23.672 155.049 24.104C154.401 23.744 153.501 23.564 152.349 23.564ZM193.146 34.832C193.146 35.96 192.786 36.824 192.066 37.424C191.37 38.024 190.302 38.324 188.862 38.324V36.164C189.174 35.804 189.462 35.408 189.726 34.976L189.51 34.832C187.974 37.16 185.91 38.324 183.318 38.324C182.094 38.324 180.99 38.048 180.006 37.496C179.046 36.92 178.278 36.128 177.702 35.12C177.15 34.112 176.874 32.972 176.874 31.7V22.412C176.874 21.428 177.234 20.732 177.954 20.324C178.698 19.892 179.826 19.676 181.338 19.676V31.376C181.338 32.312 181.626 33.056 182.202 33.608C182.778 34.16 183.606 34.436 184.686 34.436C185.886 34.436 186.846 34.064 187.566 33.32C188.31 32.552 188.682 31.604 188.682 30.476V22.412C188.682 21.428 189.042 20.732 189.762 20.324C190.482 19.892 191.61 19.676 193.146 19.676V34.832ZM204.686 38.324C202.382 38.324 200.522 37.916 199.106 37.1C197.714 36.26 197.006 35.144 196.982 33.752C196.982 33.152 197.222 32.648 197.702 32.24C198.206 31.832 198.998 31.616 200.078 31.592C200.294 32.648 200.798 33.464 201.59 34.04C202.382 34.592 203.342 34.868 204.47 34.868C205.694 34.868 206.654 34.712 207.35 34.4C208.046 34.088 208.394 33.62 208.394 32.996C208.394 32.42 208.106 31.94 207.53 31.556C206.978 31.172 205.874 30.788 204.218 30.404C202.418 29.972 201.014 29.54 200.006 29.108C199.022 28.676 198.29 28.124 197.81 27.452C197.33 26.78 197.09 25.892 197.09 24.788C197.09 23.252 197.738 22.016 199.034 21.08C200.33 20.144 202.106 19.676 204.362 19.676C206.546 19.676 208.358 20.072 209.798 20.864C211.238 21.632 211.958 22.664 211.958 23.96C211.958 24.608 211.718 25.088 211.238 25.4C210.758 25.712 209.966 25.88 208.862 25.904C208.622 24.944 208.166 24.224 207.494 23.744C206.822 23.264 205.874 23.024 204.65 23.024C203.738 23.024 202.946 23.18 202.274 23.492C201.626 23.804 201.302 24.212 201.302 24.716C201.302 25.244 201.578 25.652 202.13 25.94C202.682 26.228 203.642 26.516 205.01 26.804C207.698 27.38 209.642 28.148 210.842 29.108C212.066 30.068 212.678 31.376 212.678 33.032C212.678 34.64 211.958 35.924 210.518 36.884C209.102 37.844 207.158 38.324 204.686 38.324ZM231.853 34.832C231.853 35.96 231.493 36.824 230.773 37.424C230.077 38.024 229.009 38.324 227.569 38.324V36.164C227.881 35.804 228.169 35.408 228.433 34.976L228.217 34.832C226.681 37.16 224.617 38.324 222.025 38.324C220.801 38.324 219.697 38.048 218.713 37.496C217.753 36.92 216.985 36.128 216.409 35.12C215.857 34.112 215.581 32.972 215.581 31.7V22.412C215.581 21.428 215.941 20.732 216.661 20.324C217.405 19.892 218.533 19.676 220.045 19.676V31.376C220.045 32.312 220.333 33.056 220.909 33.608C221.485 34.16 222.313 34.436 223.393 34.436C224.593 34.436 225.553 34.064 226.273 33.32C227.017 32.552 227.389 31.604 227.389 30.476V22.412C227.389 21.428 227.749 20.732 228.469 20.324C229.189 19.892 230.317 19.676 231.853 19.676V34.832ZM242.061 38.324C240.837 38.324 239.709 38.084 238.677 37.604C237.669 37.124 236.853 36.44 236.229 35.552C235.629 34.64 235.329 33.56 235.329 32.312C235.329 31.064 235.653 29.984 236.301 29.072C236.949 28.136 237.825 27.428 238.929 26.948C240.057 26.444 241.293 26.192 242.637 26.192C243.741 26.192 244.725 26.372 245.589 26.732C246.477 27.068 247.293 27.584 248.037 28.28L248.217 28.1C248.001 27.884 247.629 27.56 247.101 27.128V26.408C247.101 25.424 246.753 24.644 246.057 24.068C245.361 23.492 244.389 23.204 243.141 23.204C240.909 23.204 239.265 24.02 238.209 25.652C237.681 25.484 237.237 25.22 236.877 24.86C236.517 24.476 236.337 24.068 236.337 23.636C236.337 22.916 236.661 22.256 237.309 21.656C237.957 21.056 238.833 20.576 239.937 20.216C241.041 19.856 242.241 19.676 243.537 19.676C246.081 19.676 248.049 20.276 249.441 21.476C250.833 22.652 251.529 24.26 251.529 26.3V35.3C251.529 36.356 251.193 37.124 250.521 37.604C249.849 38.084 248.793 38.324 247.353 38.324V36.848C247.761 36.44 248.037 36.14 248.181 35.948L248.037 35.768C247.245 36.608 246.393 37.244 245.481 37.676C244.593 38.108 243.453 38.324 242.061 38.324ZM243.213 35.048C244.461 35.048 245.433 34.808 246.129 34.328C246.825 33.848 247.173 33.164 247.173 32.276C247.173 31.412 246.813 30.728 246.093 30.224C245.397 29.72 244.449 29.468 243.249 29.468C242.145 29.468 241.269 29.72 240.621 30.224C239.997 30.704 239.685 31.388 239.685 32.276C239.685 33.188 239.997 33.884 240.621 34.364C241.245 34.82 242.109 35.048 243.213 35.048ZM264.814 23.564C263.398 23.564 262.246 23.948 261.358 24.716C260.47 25.46 260.026 26.396 260.026 27.524V35.588C260.026 36.548 259.666 37.244 258.946 37.676C258.226 38.108 257.098 38.324 255.562 38.324V23.132C255.562 22.028 255.91 21.176 256.606 20.576C257.326 19.976 258.406 19.676 259.846 19.676V21.8C259.486 22.208 259.198 22.604 258.982 22.988L259.198 23.132C260.71 20.828 262.606 19.676 264.886 19.676C265.918 19.676 266.698 19.952 267.226 20.504C267.754 21.032 268.018 21.704 268.018 22.52C268.018 23.144 267.85 23.672 267.514 24.104C266.866 23.744 265.966 23.564 264.814 23.564ZM273.175 17.984C272.311 17.984 271.591 17.732 271.015 17.228C270.463 16.7 270.187 16.028 270.187 15.212C270.187 14.42 270.463 13.772 271.015 13.268C271.591 12.74 272.311 12.476 273.175 12.476C274.039 12.476 274.747 12.74 275.299 13.268C275.875 13.772 276.163 14.42 276.163 15.212C276.163 16.028 275.875 16.7 275.299 17.228C274.747 17.732 274.039 17.984 273.175 17.984ZM270.907 22.412C270.907 21.428 271.279 20.732 272.023 20.324C272.767 19.892 273.895 19.676 275.407 19.676V35.588C275.407 36.548 275.035 37.244 274.291 37.676C273.547 38.108 272.419 38.324 270.907 38.324V22.412ZM287.027 38.324C285.467 38.324 284.051 38.048 282.779 37.496C281.531 36.92 280.547 36.128 279.827 35.12C279.107 34.112 278.747 32.972 278.747 31.7V26.624C278.747 25.328 279.095 24.152 279.791 23.096C280.511 22.04 281.495 21.212 282.743 20.612C283.991 19.988 285.419 19.676 287.027 19.676C288.635 19.676 290.063 19.988 291.311 20.612C292.583 21.212 293.567 22.04 294.263 23.096C294.983 24.152 295.343 25.328 295.343 26.624V31.7C295.343 32.972 294.971 34.112 294.227 35.12C293.507 36.128 292.511 36.92 291.239 37.496C289.991 38.048 288.587 38.324 287.027 38.324ZM287.027 34.472C288.227 34.472 289.163 34.196 289.835 33.644C290.531 33.092 290.879 32.348 290.879 31.412V26.84C290.879 25.856 290.531 25.064 289.835 24.464C289.163 23.84 288.227 23.528 287.027 23.528C285.851 23.528 284.915 23.84 284.219 24.464C283.523 25.064 283.175 25.856 283.175 26.84V31.412C283.175 32.348 283.523 33.092 284.219 33.644C284.915 34.196 285.851 34.472 287.027 34.472Z"
        fill="#777777"/>
  <line x1="312" y1="28.5" x2="1139" y2="28.5001" stroke="#CBCBCB"/>
</svg>
