<svg width="991" height="47" viewBox="0 0 991 47" fill="none" xmlns="http://www.w3.org/2000/svg">
  <path d="M4.536 38C3.864 38 3.288 37.796 2.808 37.388C2.352 36.956 2.124 36.428 2.124 35.804V14.996C2.124 14.372 2.352 13.856 2.808 13.448C3.264 13.016 3.84 12.8 4.536 12.8H12.528C14.664 12.8 16.548 13.208 18.18 14.024C19.836 14.84 21.108 15.992 21.996 17.48C22.908 18.944 23.364 20.624 23.364 22.52V28.208C23.364 30.104 22.908 31.796 21.996 33.284C21.084 34.772 19.8 35.936 18.144 36.776C16.512 37.592 14.64 38 12.528 38H4.536ZM12.168 33.86C14.256 33.86 15.84 33.392 16.92 32.456C18 31.496 18.54 30.092 18.54 28.244V22.448C18.54 20.648 18 19.28 16.92 18.344C15.84 17.408 14.256 16.94 12.168 16.94H6.948V33.86H12.168ZM34.8275 38.324C33.3395 38.324 31.9835 38.036 30.7595 37.46C29.5355 36.86 28.5635 36.056 27.8435 35.048C27.1235 34.016 26.7635 32.864 26.7635 31.592V26.804C26.7635 25.46 27.1355 24.248 27.8795 23.168C28.6235 22.088 29.6075 21.236 30.8315 20.612C32.0795 19.988 33.4235 19.676 34.8635 19.676C36.2795 19.676 37.5755 19.976 38.7515 20.576C39.9515 21.152 40.8995 21.968 41.5955 23.024C42.2915 24.056 42.6395 25.244 42.6395 26.588V28.604C42.6395 29.132 42.4355 29.576 42.0275 29.936C41.6435 30.296 41.1515 30.476 40.5515 30.476H31.1195V31.268C31.1195 32.3 31.4315 33.14 32.0555 33.788C32.6795 34.436 33.6155 34.76 34.8635 34.76C36.0635 34.76 36.9515 34.496 37.5275 33.968C38.1275 33.44 38.4275 32.756 38.4275 31.916C38.8595 31.868 39.1595 31.844 39.3275 31.844C40.2155 31.844 40.9115 32.048 41.4155 32.456C41.9195 32.84 42.1715 33.392 42.1715 34.112C42.1715 34.808 41.8475 35.48 41.1995 36.128C40.5515 36.776 39.6635 37.304 38.5355 37.712C37.4075 38.12 36.1715 38.324 34.8275 38.324ZM38.5715 27.272V26.588C38.5715 25.58 38.2235 24.764 37.5275 24.14C36.8315 23.516 35.9315 23.204 34.8275 23.204C33.7235 23.204 32.8235 23.516 32.1275 24.14C31.4555 24.74 31.1195 25.556 31.1195 26.588V27.272H38.5715ZM53.4772 38.324C51.5332 38.324 50.0932 37.76 49.1572 36.632C48.2212 35.504 47.7532 34.052 47.7532 32.276V23.348H44.0452C44.0452 22.22 44.2612 21.38 44.6932 20.828C45.1252 20.276 45.7012 20 46.4212 20H47.8252V17.012C47.8252 16.028 48.1852 15.332 48.9052 14.924C49.6252 14.492 50.7172 14.276 52.1812 14.276V20H56.9692C56.9692 21.2 56.7412 22.064 56.2852 22.592C55.8292 23.096 55.0972 23.348 54.0892 23.348H52.2532V32.096C52.2532 32.936 52.4092 33.536 52.7212 33.896C53.0572 34.256 53.6212 34.436 54.4132 34.436C55.2532 34.436 56.0932 34.208 56.9332 33.752C57.1732 33.968 57.3652 34.244 57.5092 34.58C57.6532 34.892 57.7252 35.216 57.7252 35.552C57.7252 36.272 57.3532 36.92 56.6092 37.496C55.8652 38.048 54.8212 38.324 53.4772 38.324ZM66.0023 38.324C64.7783 38.324 63.6503 38.084 62.6183 37.604C61.6103 37.124 60.7943 36.44 60.1703 35.552C59.5703 34.64 59.2703 33.56 59.2703 32.312C59.2703 31.064 59.5943 29.984 60.2423 29.072C60.8903 28.136 61.7663 27.428 62.8703 26.948C63.9983 26.444 65.2343 26.192 66.5783 26.192C67.6823 26.192 68.6663 26.372 69.5303 26.732C70.4183 27.068 71.2343 27.584 71.9783 28.28L72.1583 28.1C71.9423 27.884 71.5703 27.56 71.0423 27.128V26.408C71.0423 25.424 70.6943 24.644 69.9983 24.068C69.3023 23.492 68.3303 23.204 67.0823 23.204C64.8503 23.204 63.2063 24.02 62.1503 25.652C61.6223 25.484 61.1783 25.22 60.8183 24.86C60.4583 24.476 60.2783 24.068 60.2783 23.636C60.2783 22.916 60.6023 22.256 61.2503 21.656C61.8983 21.056 62.7743 20.576 63.8783 20.216C64.9823 19.856 66.1823 19.676 67.4783 19.676C70.0223 19.676 71.9903 20.276 73.3823 21.476C74.7743 22.652 75.4703 24.26 75.4703 26.3V35.3C75.4703 36.356 75.1343 37.124 74.4623 37.604C73.7903 38.084 72.7343 38.324 71.2943 38.324V36.848C71.7023 36.44 71.9783 36.14 72.1223 35.948L71.9783 35.768C71.1863 36.608 70.3343 37.244 69.4223 37.676C68.5343 38.108 67.3943 38.324 66.0023 38.324ZM67.1543 35.048C68.4023 35.048 69.3743 34.808 70.0703 34.328C70.7663 33.848 71.1143 33.164 71.1143 32.276C71.1143 31.412 70.7543 30.728 70.0343 30.224C69.3383 29.72 68.3903 29.468 67.1903 29.468C66.0863 29.468 65.2103 29.72 64.5623 30.224C63.9383 30.704 63.6263 31.388 63.6263 32.276C63.6263 33.188 63.9383 33.884 64.5623 34.364C65.1863 34.82 66.0503 35.048 67.1543 35.048ZM85.4069 38.324C83.4149 38.324 81.9029 37.76 80.8709 36.632C79.8629 35.48 79.3589 34.028 79.3589 32.276V15.212C79.3589 14.228 79.7189 13.532 80.4389 13.124C81.1829 12.692 82.3229 12.476 83.8589 12.476V32.096C83.8589 32.912 84.0389 33.512 84.3989 33.896C84.7589 34.256 85.3349 34.436 86.1269 34.436C87.0149 34.436 87.9029 34.208 88.7909 33.752C89.0309 33.968 89.2109 34.244 89.3309 34.58C89.4749 34.892 89.5469 35.216 89.5469 35.552C89.5469 36.272 89.1869 36.92 88.4669 37.496C87.7469 38.048 86.7269 38.324 85.4069 38.324ZM97.6413 38.324C95.6493 38.324 94.1373 37.76 93.1053 36.632C92.0973 35.48 91.5933 34.028 91.5933 32.276V15.212C91.5933 14.228 91.9533 13.532 92.6733 13.124C93.4173 12.692 94.5573 12.476 96.0933 12.476V32.096C96.0933 32.912 96.2733 33.512 96.6333 33.896C96.9933 34.256 97.5693 34.436 98.3613 34.436C99.2493 34.436 100.137 34.208 101.025 33.752C101.265 33.968 101.445 34.244 101.565 34.58C101.709 34.892 101.781 35.216 101.781 35.552C101.781 36.272 101.421 36.92 100.701 37.496C99.9813 38.048 98.9613 38.324 97.6413 38.324ZM111.82 38.324C110.332 38.324 108.976 38.036 107.752 37.46C106.528 36.86 105.556 36.056 104.836 35.048C104.116 34.016 103.756 32.864 103.756 31.592V26.804C103.756 25.46 104.128 24.248 104.872 23.168C105.616 22.088 106.6 21.236 107.824 20.612C109.072 19.988 110.416 19.676 111.856 19.676C113.272 19.676 114.568 19.976 115.744 20.576C116.944 21.152 117.892 21.968 118.588 23.024C119.284 24.056 119.632 25.244 119.632 26.588V28.604C119.632 29.132 119.428 29.576 119.02 29.936C118.636 30.296 118.144 30.476 117.544 30.476H108.112V31.268C108.112 32.3 108.424 33.14 109.048 33.788C109.672 34.436 110.608 34.76 111.856 34.76C113.056 34.76 113.944 34.496 114.52 33.968C115.12 33.44 115.42 32.756 115.42 31.916C115.852 31.868 116.152 31.844 116.32 31.844C117.208 31.844 117.904 32.048 118.408 32.456C118.912 32.84 119.164 33.392 119.164 34.112C119.164 34.808 118.84 35.48 118.192 36.128C117.544 36.776 116.656 37.304 115.528 37.712C114.4 38.12 113.164 38.324 111.82 38.324ZM115.564 27.272V26.588C115.564 25.58 115.216 24.764 114.52 24.14C113.824 23.516 112.924 23.204 111.82 23.204C110.716 23.204 109.816 23.516 109.12 24.14C108.448 24.74 108.112 25.556 108.112 26.588V27.272H115.564ZM130.405 38.324C128.101 38.324 126.241 37.916 124.825 37.1C123.433 36.26 122.725 35.144 122.701 33.752C122.701 33.152 122.941 32.648 123.421 32.24C123.925 31.832 124.717 31.616 125.797 31.592C126.013 32.648 126.517 33.464 127.309 34.04C128.101 34.592 129.061 34.868 130.189 34.868C131.413 34.868 132.373 34.712 133.069 34.4C133.765 34.088 134.113 33.62 134.113 32.996C134.113 32.42 133.825 31.94 133.249 31.556C132.697 31.172 131.593 30.788 129.937 30.404C128.137 29.972 126.733 29.54 125.725 29.108C124.741 28.676 124.009 28.124 123.529 27.452C123.049 26.78 122.809 25.892 122.809 24.788C122.809 23.252 123.457 22.016 124.753 21.08C126.049 20.144 127.825 19.676 130.081 19.676C132.265 19.676 134.077 20.072 135.517 20.864C136.957 21.632 137.677 22.664 137.677 23.96C137.677 24.608 137.437 25.088 136.957 25.4C136.477 25.712 135.685 25.88 134.581 25.904C134.341 24.944 133.885 24.224 133.213 23.744C132.541 23.264 131.593 23.024 130.369 23.024C129.457 23.024 128.665 23.18 127.993 23.492C127.345 23.804 127.021 24.212 127.021 24.716C127.021 25.244 127.297 25.652 127.849 25.94C128.401 26.228 129.361 26.516 130.729 26.804C133.417 27.38 135.361 28.148 136.561 29.108C137.785 30.068 138.397 31.376 138.397 33.032C138.397 34.64 137.677 35.924 136.237 36.884C134.821 37.844 132.877 38.324 130.405 38.324ZM157.529 38.324C156.233 38.324 155.069 38.048 154.037 37.496C153.005 36.944 152.189 36.188 151.589 35.228C150.989 34.244 150.689 33.116 150.689 31.844V26.156C150.689 24.908 151.001 23.792 151.625 22.808C152.249 21.824 153.113 21.056 154.217 20.504C155.345 19.952 156.593 19.676 157.961 19.676C158.849 19.676 159.761 19.868 160.697 20.252C161.657 20.612 162.461 21.104 163.109 21.728L163.253 21.548C163.133 21.356 162.869 21.116 162.461 20.828V15.5C162.461 14.54 162.833 13.796 163.577 13.268C164.345 12.74 165.497 12.476 167.033 12.476V35.228C167.033 36.116 166.697 36.86 166.025 37.46C165.353 38.036 164.309 38.324 162.893 38.324V36.344C163.205 35.96 163.433 35.648 163.577 35.408L163.397 35.264C162.653 36.272 161.825 37.04 160.913 37.568C160.025 38.072 158.897 38.324 157.529 38.324ZM158.861 34.436C159.941 34.436 160.817 34.184 161.489 33.68C162.185 33.152 162.533 32.492 162.533 31.7V26.264C162.533 25.496 162.185 24.86 161.489 24.356C160.817 23.828 159.929 23.564 158.825 23.564C157.649 23.564 156.737 23.816 156.089 24.32C155.465 24.8 155.153 25.496 155.153 26.408V31.52C155.153 32.48 155.465 33.212 156.089 33.716C156.737 34.196 157.661 34.436 158.861 34.436ZM179.109 38.324C177.621 38.324 176.265 38.036 175.041 37.46C173.817 36.86 172.845 36.056 172.125 35.048C171.405 34.016 171.045 32.864 171.045 31.592V26.804C171.045 25.46 171.417 24.248 172.161 23.168C172.905 22.088 173.889 21.236 175.113 20.612C176.361 19.988 177.705 19.676 179.145 19.676C180.561 19.676 181.857 19.976 183.033 20.576C184.233 21.152 185.181 21.968 185.877 23.024C186.573 24.056 186.921 25.244 186.921 26.588V28.604C186.921 29.132 186.717 29.576 186.309 29.936C185.925 30.296 185.433 30.476 184.833 30.476H175.401V31.268C175.401 32.3 175.713 33.14 176.337 33.788C176.961 34.436 177.897 34.76 179.145 34.76C180.345 34.76 181.233 34.496 181.809 33.968C182.409 33.44 182.709 32.756 182.709 31.916C183.141 31.868 183.441 31.844 183.609 31.844C184.497 31.844 185.193 32.048 185.697 32.456C186.201 32.84 186.453 33.392 186.453 34.112C186.453 34.808 186.129 35.48 185.481 36.128C184.833 36.776 183.945 37.304 182.817 37.712C181.689 38.12 180.453 38.324 179.109 38.324ZM182.853 27.272V26.588C182.853 25.58 182.505 24.764 181.809 24.14C181.113 23.516 180.213 23.204 179.109 23.204C178.005 23.204 177.105 23.516 176.409 24.14C175.737 24.74 175.401 25.556 175.401 26.588V27.272H182.853ZM205.571 38.324C203.579 38.324 202.067 37.76 201.035 36.632C200.027 35.48 199.523 34.028 199.523 32.276V15.212C199.523 14.228 199.883 13.532 200.603 13.124C201.347 12.692 202.487 12.476 204.023 12.476V32.096C204.023 32.912 204.203 33.512 204.563 33.896C204.923 34.256 205.499 34.436 206.291 34.436C207.179 34.436 208.067 34.208 208.955 33.752C209.195 33.968 209.375 34.244 209.495 34.58C209.639 34.892 209.711 35.216 209.711 35.552C209.711 36.272 209.351 36.92 208.631 37.496C207.911 38.048 206.891 38.324 205.571 38.324ZM217.877 38.324C216.653 38.324 215.525 38.084 214.493 37.604C213.485 37.124 212.669 36.44 212.045 35.552C211.445 34.64 211.145 33.56 211.145 32.312C211.145 31.064 211.469 29.984 212.117 29.072C212.765 28.136 213.641 27.428 214.745 26.948C215.873 26.444 217.109 26.192 218.453 26.192C219.557 26.192 220.541 26.372 221.405 26.732C222.293 27.068 223.109 27.584 223.853 28.28L224.033 28.1C223.817 27.884 223.445 27.56 222.917 27.128V26.408C222.917 25.424 222.569 24.644 221.873 24.068C221.177 23.492 220.205 23.204 218.957 23.204C216.725 23.204 215.081 24.02 214.025 25.652C213.497 25.484 213.053 25.22 212.693 24.86C212.333 24.476 212.153 24.068 212.153 23.636C212.153 22.916 212.477 22.256 213.125 21.656C213.773 21.056 214.649 20.576 215.753 20.216C216.857 19.856 218.057 19.676 219.353 19.676C221.897 19.676 223.865 20.276 225.257 21.476C226.649 22.652 227.345 24.26 227.345 26.3V35.3C227.345 36.356 227.009 37.124 226.337 37.604C225.665 38.084 224.609 38.324 223.169 38.324V36.848C223.577 36.44 223.853 36.14 223.997 35.948L223.853 35.768C223.061 36.608 222.209 37.244 221.297 37.676C220.409 38.108 219.269 38.324 217.877 38.324ZM219.029 35.048C220.277 35.048 221.249 34.808 221.945 34.328C222.641 33.848 222.989 33.164 222.989 32.276C222.989 31.412 222.629 30.728 221.909 30.224C221.213 29.72 220.265 29.468 219.065 29.468C217.961 29.468 217.085 29.72 216.437 30.224C215.813 30.704 215.501 31.388 215.501 32.276C215.501 33.188 215.813 33.884 216.437 34.364C217.061 34.82 217.925 35.048 219.029 35.048ZM249.911 23.564C248.495 23.564 247.343 23.948 246.455 24.716C245.567 25.46 245.123 26.396 245.123 27.524V35.588C245.123 36.548 244.763 37.244 244.043 37.676C243.323 38.108 242.195 38.324 240.659 38.324V23.132C240.659 22.028 241.007 21.176 241.703 20.576C242.423 19.976 243.503 19.676 244.943 19.676V21.8C244.583 22.208 244.295 22.604 244.079 22.988L244.295 23.132C245.807 20.828 247.703 19.676 249.983 19.676C251.015 19.676 251.795 19.952 252.323 20.504C252.851 21.032 253.115 21.704 253.115 22.52C253.115 23.144 252.947 23.672 252.611 24.104C251.963 23.744 251.063 23.564 249.911 23.564ZM271.232 34.832C271.232 35.96 270.872 36.824 270.152 37.424C269.456 38.024 268.388 38.324 266.948 38.324V36.164C267.26 35.804 267.548 35.408 267.812 34.976L267.596 34.832C266.06 37.16 263.996 38.324 261.404 38.324C260.18 38.324 259.076 38.048 258.092 37.496C257.132 36.92 256.364 36.128 255.788 35.12C255.236 34.112 254.96 32.972 254.96 31.7V22.412C254.96 21.428 255.32 20.732 256.04 20.324C256.784 19.892 257.912 19.676 259.424 19.676V31.376C259.424 32.312 259.712 33.056 260.288 33.608C260.864 34.16 261.692 34.436 262.772 34.436C263.972 34.436 264.932 34.064 265.652 33.32C266.396 32.552 266.768 31.604 266.768 30.476V22.412C266.768 21.428 267.128 20.732 267.848 20.324C268.568 19.892 269.696 19.676 271.232 19.676V34.832ZM283.364 38.324C281.42 38.324 279.98 37.76 279.044 36.632C278.108 35.504 277.64 34.052 277.64 32.276V23.348H273.932C273.932 22.22 274.148 21.38 274.58 20.828C275.012 20.276 275.588 20 276.308 20H277.712V17.012C277.712 16.028 278.072 15.332 278.792 14.924C279.512 14.492 280.604 14.276 282.068 14.276V20H286.856C286.856 21.2 286.628 22.064 286.172 22.592C285.716 23.096 284.984 23.348 283.976 23.348H282.14V32.096C282.14 32.936 282.296 33.536 282.608 33.896C282.944 34.256 283.508 34.436 284.3 34.436C285.14 34.436 285.98 34.208 286.82 33.752C287.06 33.968 287.252 34.244 287.396 34.58C287.54 34.892 287.612 35.216 287.612 35.552C287.612 36.272 287.24 36.92 286.496 37.496C285.752 38.048 284.708 38.324 283.364 38.324ZM295.889 38.324C294.665 38.324 293.537 38.084 292.505 37.604C291.497 37.124 290.681 36.44 290.057 35.552C289.457 34.64 289.157 33.56 289.157 32.312C289.157 31.064 289.481 29.984 290.129 29.072C290.777 28.136 291.653 27.428 292.757 26.948C293.885 26.444 295.121 26.192 296.465 26.192C297.569 26.192 298.553 26.372 299.417 26.732C300.305 27.068 301.121 27.584 301.865 28.28L302.045 28.1C301.829 27.884 301.457 27.56 300.929 27.128V26.408C300.929 25.424 300.581 24.644 299.885 24.068C299.189 23.492 298.217 23.204 296.969 23.204C294.737 23.204 293.093 24.02 292.037 25.652C291.509 25.484 291.065 25.22 290.705 24.86C290.345 24.476 290.165 24.068 290.165 23.636C290.165 22.916 290.489 22.256 291.137 21.656C291.785 21.056 292.661 20.576 293.765 20.216C294.869 19.856 296.069 19.676 297.365 19.676C299.909 19.676 301.877 20.276 303.269 21.476C304.661 22.652 305.357 24.26 305.357 26.3V35.3C305.357 36.356 305.021 37.124 304.349 37.604C303.677 38.084 302.621 38.324 301.181 38.324V36.848C301.589 36.44 301.865 36.14 302.009 35.948L301.865 35.768C301.073 36.608 300.221 37.244 299.309 37.676C298.421 38.108 297.281 38.324 295.889 38.324ZM297.041 35.048C298.289 35.048 299.261 34.808 299.957 34.328C300.653 33.848 301.001 33.164 301.001 32.276C301.001 31.412 300.641 30.728 299.921 30.224C299.225 29.72 298.277 29.468 297.077 29.468C295.973 29.468 295.097 29.72 294.449 30.224C293.825 30.704 293.513 31.388 293.513 32.276C293.513 33.188 293.825 33.884 294.449 34.364C295.073 34.82 295.937 35.048 297.041 35.048Z"
        fill="#777777"/>
  <line x1="330" y1="27.5" x2="991" y2="27.4999" stroke="#CBCBCB"/>
</svg>
