<svg width="952" height="47" viewBox="0 0 952 47" fill="none" xmlns="http://www.w3.org/2000/svg">
  <path d="M2.124 14.996C2.124 14.372 2.352 13.856 2.808 13.448C3.264 13.016 3.84 12.8 4.536 12.8H14.148C16.74 12.8 18.744 13.484 20.16 14.852C21.6 16.22 22.32 18.14 22.32 20.612C22.32 22.028 22.032 23.228 21.456 24.212C20.88 25.172 20.004 25.94 18.828 26.516V26.624C20.94 27.56 21.996 29.336 21.996 31.952V34.76C21.996 35.912 21.588 36.8 20.772 37.424C19.956 38.024 18.756 38.324 17.172 38.324V32.168C17.172 30.896 16.92 29.96 16.416 29.36C15.912 28.76 15.144 28.46 14.112 28.46H6.876V34.76C6.876 35.936 6.468 36.824 5.652 37.424C4.86 38.024 3.684 38.324 2.124 38.324V14.996ZM13.896 24.356C15.048 24.356 15.936 24.032 16.56 23.384C17.184 22.712 17.496 21.776 17.496 20.576C17.496 18.128 16.296 16.904 13.896 16.904H6.876V24.356H13.896ZM42.154 34.832C42.154 35.96 41.794 36.824 41.074 37.424C40.378 38.024 39.31 38.324 37.87 38.324V36.164C38.182 35.804 38.47 35.408 38.734 34.976L38.518 34.832C36.982 37.16 34.918 38.324 32.326 38.324C31.102 38.324 29.998 38.048 29.014 37.496C28.054 36.92 27.286 36.128 26.71 35.12C26.158 34.112 25.882 32.972 25.882 31.7V22.412C25.882 21.428 26.242 20.732 26.962 20.324C27.706 19.892 28.834 19.676 30.346 19.676V31.376C30.346 32.312 30.634 33.056 31.21 33.608C31.786 34.16 32.614 34.436 33.694 34.436C34.894 34.436 35.854 34.064 36.574 33.32C37.318 32.552 37.69 31.604 37.69 30.476V22.412C37.69 21.428 38.05 20.732 38.77 20.324C39.49 19.892 40.618 19.676 42.154 19.676V34.832ZM54.2858 38.324C52.3418 38.324 50.9018 37.76 49.9658 36.632C49.0298 35.504 48.5618 34.052 48.5618 32.276V23.348H44.8538C44.8538 22.22 45.0698 21.38 45.5018 20.828C45.9338 20.276 46.5098 20 47.2298 20H48.6338V17.012C48.6338 16.028 48.9938 15.332 49.7138 14.924C50.4338 14.492 51.5258 14.276 52.9898 14.276V20H57.7778C57.7778 21.2 57.5498 22.064 57.0938 22.592C56.6378 23.096 55.9058 23.348 54.8978 23.348H53.0618V32.096C53.0618 32.936 53.2178 33.536 53.5298 33.896C53.8658 34.256 54.4298 34.436 55.2218 34.436C56.0618 34.436 56.9018 34.208 57.7418 33.752C57.9818 33.968 58.1738 34.244 58.3178 34.58C58.4618 34.892 58.5338 35.216 58.5338 35.552C58.5338 36.272 58.1618 36.92 57.4178 37.496C56.6738 38.048 55.6298 38.324 54.2858 38.324ZM66.8109 38.324C65.5869 38.324 64.4589 38.084 63.4269 37.604C62.4189 37.124 61.6029 36.44 60.9789 35.552C60.3789 34.64 60.0789 33.56 60.0789 32.312C60.0789 31.064 60.4029 29.984 61.0509 29.072C61.6989 28.136 62.5749 27.428 63.6789 26.948C64.8069 26.444 66.0429 26.192 67.3869 26.192C68.4909 26.192 69.4749 26.372 70.3389 26.732C71.2269 27.068 72.0429 27.584 72.7869 28.28L72.9669 28.1C72.7509 27.884 72.3789 27.56 71.8509 27.128V26.408C71.8509 25.424 71.5029 24.644 70.8069 24.068C70.1109 23.492 69.1389 23.204 67.8909 23.204C65.6589 23.204 64.0149 24.02 62.9589 25.652C62.4309 25.484 61.9869 25.22 61.6269 24.86C61.2669 24.476 61.0869 24.068 61.0869 23.636C61.0869 22.916 61.4109 22.256 62.0589 21.656C62.7069 21.056 63.5829 20.576 64.6869 20.216C65.7909 19.856 66.9909 19.676 68.2869 19.676C70.8309 19.676 72.7989 20.276 74.1909 21.476C75.5829 22.652 76.2789 24.26 76.2789 26.3V35.3C76.2789 36.356 75.9429 37.124 75.2709 37.604C74.5989 38.084 73.5429 38.324 72.1029 38.324V36.848C72.5109 36.44 72.7869 36.14 72.9309 35.948L72.7869 35.768C71.9949 36.608 71.1429 37.244 70.2309 37.676C69.3429 38.108 68.2029 38.324 66.8109 38.324ZM67.9629 35.048C69.2109 35.048 70.1829 34.808 70.8789 34.328C71.5749 33.848 71.9229 33.164 71.9229 32.276C71.9229 31.412 71.5629 30.728 70.8429 30.224C70.1469 29.72 69.1989 29.468 67.9989 29.468C66.8949 29.468 66.0189 29.72 65.3709 30.224C64.7469 30.704 64.4349 31.388 64.4349 32.276C64.4349 33.188 64.7469 33.884 65.3709 34.364C65.9949 34.82 66.8589 35.048 67.9629 35.048ZM87.0922 38.324C84.7882 38.324 82.9282 37.916 81.5122 37.1C80.1202 36.26 79.4122 35.144 79.3882 33.752C79.3882 33.152 79.6282 32.648 80.1082 32.24C80.6122 31.832 81.4042 31.616 82.4842 31.592C82.7002 32.648 83.2042 33.464 83.9962 34.04C84.7882 34.592 85.7482 34.868 86.8762 34.868C88.1002 34.868 89.0602 34.712 89.7562 34.4C90.4522 34.088 90.8002 33.62 90.8002 32.996C90.8002 32.42 90.5122 31.94 89.9362 31.556C89.3842 31.172 88.2802 30.788 86.6242 30.404C84.8242 29.972 83.4202 29.54 82.4122 29.108C81.4282 28.676 80.6962 28.124 80.2162 27.452C79.7362 26.78 79.4962 25.892 79.4962 24.788C79.4962 23.252 80.1442 22.016 81.4402 21.08C82.7362 20.144 84.5122 19.676 86.7682 19.676C88.9522 19.676 90.7642 20.072 92.2042 20.864C93.6442 21.632 94.3642 22.664 94.3642 23.96C94.3642 24.608 94.1242 25.088 93.6442 25.4C93.1642 25.712 92.3722 25.88 91.2682 25.904C91.0282 24.944 90.5722 24.224 89.9002 23.744C89.2282 23.264 88.2802 23.024 87.0562 23.024C86.1442 23.024 85.3522 23.18 84.6802 23.492C84.0322 23.804 83.7082 24.212 83.7082 24.716C83.7082 25.244 83.9842 25.652 84.5362 25.94C85.0882 26.228 86.0482 26.516 87.4162 26.804C90.1042 27.38 92.0482 28.148 93.2482 29.108C94.4722 30.068 95.0842 31.376 95.0842 33.032C95.0842 34.64 94.3642 35.924 92.9242 36.884C91.5082 37.844 89.5642 38.324 87.0922 38.324Z"
        fill="#777777"/>
  <line x1="114" y1="27.5" x2="952" y2="27.4999" stroke="#CBCBCB"/>
</svg>
