<svg width="163" height="27" viewBox="0 0 163 27" fill="none" xmlns="http://www.w3.org/2000/svg">
  <path d="M0.124 2.996C0.124 2.372 0.352 1.856 0.808 1.448C1.264 1.016 1.84 0.799998 2.536 0.799998H12.544C14.272 0.799998 15.796 1.148 17.116 1.844C18.46 2.516 19.492 3.488 20.212 4.76C20.956 6.008 21.328 7.46 21.328 9.116C21.328 10.796 20.968 12.272 20.248 13.544C19.528 14.792 18.508 15.764 17.188 16.46C15.868 17.132 14.32 17.468 12.544 17.468H4.948V22.76C4.948 23.912 4.528 24.8 3.688 25.424C2.872 26.024 1.684 26.324 0.124 26.324V2.996ZM12.544 13.292C13.816 13.292 14.8 12.92 15.496 12.176C16.192 11.432 16.54 10.4 16.54 9.08C16.54 7.784 16.18 6.776 15.46 6.056C14.764 5.336 13.792 4.976 12.544 4.976H4.948V13.292H12.544ZM32.7901 11.564C31.3741 11.564 30.2221 11.948 29.3341 12.716C28.4461 13.46 28.0021 14.396 28.0021 15.524V23.588C28.0021 24.548 27.6421 25.244 26.9221 25.676C26.2021 26.108 25.0741 26.324 23.5381 26.324V11.132C23.5381 10.028 23.8861 9.176 24.5821 8.576C25.3021 7.976 26.3821 7.676 27.8221 7.676V9.8C27.4621 10.208 27.1741 10.604 26.9581 10.988L27.1741 11.132C28.6861 8.828 30.5821 7.676 32.8621 7.676C33.8941 7.676 34.6741 7.952 35.2021 8.504C35.7301 9.032 35.9941 9.704 35.9941 10.52C35.9941 11.144 35.8261 11.672 35.4901 12.104C34.8421 11.744 33.9421 11.564 32.7901 11.564ZM44.2457 26.324C42.6857 26.324 41.2697 26.048 39.9977 25.496C38.7497 24.92 37.7657 24.128 37.0457 23.12C36.3257 22.112 35.9657 20.972 35.9657 19.7V14.624C35.9657 13.328 36.3137 12.152 37.0097 11.096C37.7297 10.04 38.7137 9.212 39.9617 8.612C41.2097 7.988 42.6377 7.676 44.2457 7.676C45.8537 7.676 47.2817 7.988 48.5297 8.612C49.8017 9.212 50.7857 10.04 51.4817 11.096C52.2017 12.152 52.5617 13.328 52.5617 14.624V19.7C52.5617 20.972 52.1897 22.112 51.4457 23.12C50.7257 24.128 49.7297 24.92 48.4577 25.496C47.2097 26.048 45.8057 26.324 44.2457 26.324ZM44.2457 22.472C45.4457 22.472 46.3817 22.196 47.0537 21.644C47.7497 21.092 48.0977 20.348 48.0977 19.412V14.84C48.0977 13.856 47.7497 13.064 47.0537 12.464C46.3817 11.84 45.4457 11.528 44.2457 11.528C43.0697 11.528 42.1337 11.84 41.4377 12.464C40.7417 13.064 40.3937 13.856 40.3937 14.84V19.412C40.3937 20.348 40.7417 21.092 41.4377 21.644C42.1337 22.196 43.0697 22.472 44.2457 22.472ZM61.8378 26.324C60.5418 26.324 59.3778 26.048 58.3458 25.496C57.3138 24.944 56.4978 24.188 55.8978 23.228C55.2978 22.244 54.9978 21.116 54.9978 19.844V14.156C54.9978 12.908 55.3098 11.792 55.9338 10.808C56.5578 9.824 57.4218 9.056 58.5258 8.504C59.6538 7.952 60.9018 7.676 62.2698 7.676C63.1578 7.676 64.0698 7.868 65.0058 8.252C65.9658 8.612 66.7698 9.104 67.4178 9.728L67.5618 9.548C67.4418 9.356 67.1778 9.116 66.7698 8.828V3.5C66.7698 2.54 67.1418 1.796 67.8858 1.268C68.6538 0.739998 69.8058 0.475998 71.3418 0.475998V23.228C71.3418 24.116 71.0058 24.86 70.3338 25.46C69.6618 26.036 68.6178 26.324 67.2018 26.324V24.344C67.5138 23.96 67.7418 23.648 67.8858 23.408L67.7058 23.264C66.9618 24.272 66.1338 25.04 65.2218 25.568C64.3338 26.072 63.2058 26.324 61.8378 26.324ZM63.1698 22.436C64.2498 22.436 65.1258 22.184 65.7978 21.68C66.4938 21.152 66.8418 20.492 66.8418 19.7V14.264C66.8418 13.496 66.4938 12.86 65.7978 12.356C65.1258 11.828 64.2378 11.564 63.1338 11.564C61.9578 11.564 61.0458 11.816 60.3978 12.32C59.7738 12.8 59.4618 13.496 59.4618 14.408V19.52C59.4618 20.48 59.7738 21.212 60.3978 21.716C61.0458 22.196 61.9698 22.436 63.1698 22.436ZM91.5173 22.832C91.5173 23.96 91.1573 24.824 90.4373 25.424C89.7413 26.024 88.6733 26.324 87.2333 26.324V24.164C87.5453 23.804 87.8333 23.408 88.0973 22.976L87.8813 22.832C86.3453 25.16 84.2813 26.324 81.6893 26.324C80.4653 26.324 79.3613 26.048 78.3773 25.496C77.4173 24.92 76.6493 24.128 76.0733 23.12C75.5213 22.112 75.2453 20.972 75.2453 19.7V10.412C75.2453 9.428 75.6053 8.732 76.3253 8.324C77.0693 7.892 78.1973 7.676 79.7093 7.676V19.376C79.7093 20.312 79.9973 21.056 80.5733 21.608C81.1493 22.16 81.9773 22.436 83.0573 22.436C84.2573 22.436 85.2173 22.064 85.9373 21.32C86.6813 20.552 87.0533 19.604 87.0533 18.476V10.412C87.0533 9.428 87.4133 8.732 88.1333 8.324C88.8533 7.892 89.9813 7.676 91.5173 7.676V22.832ZM103.489 26.324C101.929 26.324 100.549 26.048 99.349 25.496C98.149 24.92 97.213 24.128 96.541 23.12C95.869 22.112 95.533 20.972 95.533 19.7V14.66C95.533 13.292 95.869 12.08 96.541 11.024C97.213 9.968 98.149 9.152 99.349 8.576C100.549 7.976 101.917 7.676 103.453 7.676C104.893 7.676 106.165 7.88 107.269 8.288C108.397 8.696 109.273 9.272 109.897 10.016C110.521 10.736 110.833 11.576 110.833 12.536C110.833 13.28 110.545 13.88 109.969 14.336C109.393 14.792 108.637 15.02 107.701 15.02C107.437 15.02 107.245 15.008 107.125 14.984C107.125 13.952 106.789 13.124 106.117 12.5C105.469 11.876 104.617 11.564 103.561 11.564C102.505 11.564 101.641 11.864 100.969 12.464C100.321 13.064 99.997 13.856 99.997 14.84V19.376C99.997 20.288 100.333 21.032 101.005 21.608C101.677 22.16 102.541 22.436 103.597 22.436C104.653 22.436 105.517 22.124 106.189 21.5C106.861 20.852 107.197 20.036 107.197 19.052C107.341 19.028 107.545 19.016 107.809 19.016C108.745 19.016 109.501 19.232 110.077 19.664C110.653 20.096 110.941 20.684 110.941 21.428C110.941 22.388 110.617 23.24 109.969 23.984C109.345 24.704 108.469 25.28 107.341 25.712C106.213 26.12 104.929 26.324 103.489 26.324ZM121.755 26.324C119.811 26.324 118.371 25.76 117.435 24.632C116.499 23.504 116.031 22.052 116.031 20.276V11.348H112.323C112.323 10.22 112.539 9.38 112.971 8.828C113.403 8.276 113.979 8 114.699 8H116.103V5.012C116.103 4.028 116.463 3.332 117.183 2.924C117.903 2.492 118.995 2.276 120.459 2.276V8H125.247C125.247 9.2 125.019 10.064 124.563 10.592C124.107 11.096 123.375 11.348 122.367 11.348H120.531V20.096C120.531 20.936 120.687 21.536 120.999 21.896C121.335 22.256 121.899 22.436 122.691 22.436C123.531 22.436 124.371 22.208 125.211 21.752C125.451 21.968 125.643 22.244 125.787 22.58C125.931 22.892 126.003 23.216 126.003 23.552C126.003 24.272 125.631 24.92 124.887 25.496C124.143 26.048 123.099 26.324 121.755 26.324ZM136.003 26.324C134.443 26.324 133.027 26.048 131.755 25.496C130.507 24.92 129.523 24.128 128.803 23.12C128.083 22.112 127.723 20.972 127.723 19.7V14.624C127.723 13.328 128.071 12.152 128.767 11.096C129.487 10.04 130.471 9.212 131.719 8.612C132.967 7.988 134.395 7.676 136.003 7.676C137.611 7.676 139.039 7.988 140.287 8.612C141.559 9.212 142.543 10.04 143.239 11.096C143.959 12.152 144.319 13.328 144.319 14.624V19.7C144.319 20.972 143.947 22.112 143.203 23.12C142.483 24.128 141.487 24.92 140.215 25.496C138.967 26.048 137.563 26.324 136.003 26.324ZM136.003 22.472C137.203 22.472 138.139 22.196 138.811 21.644C139.507 21.092 139.855 20.348 139.855 19.412V14.84C139.855 13.856 139.507 13.064 138.811 12.464C138.139 11.84 137.203 11.528 136.003 11.528C134.827 11.528 133.891 11.84 133.195 12.464C132.499 13.064 132.151 13.856 132.151 14.84V19.412C132.151 20.348 132.499 21.092 133.195 21.644C133.891 22.196 134.827 22.472 136.003 22.472ZM154.209 26.324C151.905 26.324 150.045 25.916 148.629 25.1C147.237 24.26 146.529 23.144 146.505 21.752C146.505 21.152 146.745 20.648 147.225 20.24C147.729 19.832 148.521 19.616 149.601 19.592C149.817 20.648 150.321 21.464 151.113 22.04C151.905 22.592 152.865 22.868 153.993 22.868C155.217 22.868 156.177 22.712 156.873 22.4C157.569 22.088 157.917 21.62 157.917 20.996C157.917 20.42 157.629 19.94 157.053 19.556C156.501 19.172 155.397 18.788 153.741 18.404C151.941 17.972 150.537 17.54 149.529 17.108C148.545 16.676 147.813 16.124 147.333 15.452C146.853 14.78 146.613 13.892 146.613 12.788C146.613 11.252 147.261 10.016 148.557 9.08C149.853 8.144 151.629 7.676 153.885 7.676C156.069 7.676 157.881 8.072 159.321 8.864C160.761 9.632 161.481 10.664 161.481 11.96C161.481 12.608 161.241 13.088 160.761 13.4C160.281 13.712 159.489 13.88 158.385 13.904C158.145 12.944 157.689 12.224 157.017 11.744C156.345 11.264 155.397 11.024 154.173 11.024C153.261 11.024 152.469 11.18 151.797 11.492C151.149 11.804 150.825 12.212 150.825 12.716C150.825 13.244 151.101 13.652 151.653 13.94C152.205 14.228 153.165 14.516 154.533 14.804C157.221 15.38 159.165 16.148 160.365 17.108C161.589 18.068 162.201 19.376 162.201 21.032C162.201 22.64 161.481 23.924 160.041 24.884C158.625 25.844 156.681 26.324 154.209 26.324Z"
        fill="#777777"/>
</svg>
