<svg width="199" height="34" viewBox="0 0 199 34" fill="none" xmlns="http://www.w3.org/2000/svg">
  <path d="M11.06 26.324C9.092 26.324 7.292 25.94 5.66 25.172C4.028 24.38 2.732 23.312 1.772 21.968C0.836 20.624 0.368 19.16 0.368 17.576V9.188C0.368 7.604 0.836 6.152 1.772 4.832C2.732 3.488 4.028 2.432 5.66 1.664C7.292 0.871998 9.092 0.475998 11.06 0.475998C13.028 0.475998 14.828 0.871998 16.46 1.664C18.116 2.432 19.412 3.488 20.348 4.832C21.308 6.152 21.788 7.604 21.788 9.188V17.576C21.788 19.16 21.308 20.624 20.348 21.968C19.412 23.312 18.116 24.38 16.46 25.172C14.828 25.94 13.028 26.324 11.06 26.324ZM11.06 22.112C12.86 22.112 14.3 21.692 15.38 20.852C16.46 19.988 17 18.872 17 17.504V9.296C17 7.904 16.46 6.788 15.38 5.948C14.3 5.084 12.86 4.652 11.06 4.652C9.284 4.652 7.856 5.084 6.776 5.948C5.696 6.788 5.156 7.904 5.156 9.296V17.504C5.156 18.872 5.696 19.988 6.776 20.852C7.856 21.692 9.284 22.112 11.06 22.112ZM25.2763 10.772C25.2763 9.884 25.6243 9.152 26.3203 8.576C27.0163 7.976 28.0483 7.676 29.4163 7.676V9.62C29.0083 10.172 28.7803 10.496 28.7323 10.592L28.8763 10.736C29.6443 9.728 30.4843 8.972 31.3963 8.468C32.3323 7.94 33.4843 7.676 34.8523 7.676C36.1723 7.676 37.3363 7.952 38.3443 8.504C39.3763 9.032 40.1803 9.788 40.7563 10.772C41.3323 11.756 41.6203 12.884 41.6203 14.156V19.844C41.6203 21.14 41.2963 22.28 40.6483 23.264C40.0243 24.248 39.1603 25.004 38.0563 25.532C36.9523 26.06 35.7043 26.324 34.3123 26.324C33.4243 26.324 32.5003 26.144 31.5403 25.784C30.6043 25.4 29.8123 24.884 29.1643 24.236L29.0203 24.416C29.1883 24.656 29.4523 24.908 29.8123 25.172V30.5C29.8123 32.516 28.3003 33.524 25.2763 33.524V10.772ZM33.4483 22.436C34.6243 22.436 35.5363 22.184 36.1843 21.68C36.8323 21.176 37.1563 20.468 37.1563 19.556V14.444C37.1563 13.508 36.8323 12.8 36.1843 12.32C35.5603 11.816 34.6483 11.564 33.4483 11.564C32.3683 11.564 31.4803 11.828 30.7843 12.356C30.0883 12.86 29.7403 13.496 29.7403 14.264V19.736C29.7403 20.48 30.0763 21.116 30.7483 21.644C31.4443 22.172 32.3443 22.436 33.4483 22.436ZM53.0579 26.324C51.5699 26.324 50.2139 26.036 48.9899 25.46C47.7659 24.86 46.7939 24.056 46.0739 23.048C45.3539 22.016 44.9939 20.864 44.9939 19.592V14.804C44.9939 13.46 45.3659 12.248 46.1099 11.168C46.8539 10.088 47.8379 9.236 49.0619 8.612C50.3099 7.988 51.6539 7.676 53.0939 7.676C54.5099 7.676 55.8059 7.976 56.9819 8.576C58.1819 9.152 59.1299 9.968 59.8259 11.024C60.5219 12.056 60.8699 13.244 60.8699 14.588V16.604C60.8699 17.132 60.6659 17.576 60.2579 17.936C59.8739 18.296 59.3819 18.476 58.7819 18.476H49.3499V19.268C49.3499 20.3 49.6619 21.14 50.2859 21.788C50.9099 22.436 51.8459 22.76 53.0939 22.76C54.2939 22.76 55.1819 22.496 55.7579 21.968C56.3579 21.44 56.6579 20.756 56.6579 19.916C57.0899 19.868 57.3899 19.844 57.5579 19.844C58.4459 19.844 59.1419 20.048 59.6459 20.456C60.1499 20.84 60.4019 21.392 60.4019 22.112C60.4019 22.808 60.0779 23.48 59.4299 24.128C58.7819 24.776 57.8939 25.304 56.7659 25.712C55.6379 26.12 54.4019 26.324 53.0579 26.324ZM56.8019 15.272V14.588C56.8019 13.58 56.4539 12.764 55.7579 12.14C55.0619 11.516 54.1619 11.204 53.0579 11.204C51.9539 11.204 51.0539 11.516 50.3579 12.14C49.6859 12.74 49.3499 13.556 49.3499 14.588V15.272H56.8019ZM73.5869 11.564C72.1709 11.564 71.0189 11.948 70.1309 12.716C69.2429 13.46 68.7989 14.396 68.7989 15.524V23.588C68.7989 24.548 68.4389 25.244 67.7189 25.676C66.9989 26.108 65.8709 26.324 64.3349 26.324V11.132C64.3349 10.028 64.6829 9.176 65.3789 8.576C66.0989 7.976 67.1789 7.676 68.6189 7.676V9.8C68.2589 10.208 67.9709 10.604 67.7549 10.988L67.9709 11.132C69.4829 8.828 71.3789 7.676 73.6589 7.676C74.6909 7.676 75.4709 7.952 75.9989 8.504C76.5269 9.032 76.7909 9.704 76.7909 10.52C76.7909 11.144 76.6229 11.672 76.2869 12.104C75.6389 11.744 74.7389 11.564 73.5869 11.564ZM84.2328 26.324C83.0088 26.324 81.8808 26.084 80.8488 25.604C79.8408 25.124 79.0248 24.44 78.4008 23.552C77.8008 22.64 77.5008 21.56 77.5008 20.312C77.5008 19.064 77.8248 17.984 78.4728 17.072C79.1208 16.136 79.9968 15.428 81.1008 14.948C82.2288 14.444 83.4648 14.192 84.8088 14.192C85.9128 14.192 86.8968 14.372 87.7608 14.732C88.6488 15.068 89.4648 15.584 90.2088 16.28L90.3888 16.1C90.1728 15.884 89.8008 15.56 89.2728 15.128V14.408C89.2728 13.424 88.9248 12.644 88.2288 12.068C87.5328 11.492 86.5608 11.204 85.3128 11.204C83.0808 11.204 81.4368 12.02 80.3808 13.652C79.8528 13.484 79.4088 13.22 79.0488 12.86C78.6888 12.476 78.5088 12.068 78.5088 11.636C78.5088 10.916 78.8328 10.256 79.4808 9.656C80.1288 9.056 81.0048 8.576 82.1088 8.216C83.2128 7.856 84.4128 7.676 85.7088 7.676C88.2528 7.676 90.2208 8.276 91.6128 9.476C93.0048 10.652 93.7008 12.26 93.7008 14.3V23.3C93.7008 24.356 93.3648 25.124 92.6928 25.604C92.0208 26.084 90.9648 26.324 89.5248 26.324V24.848C89.9328 24.44 90.2088 24.14 90.3528 23.948L90.2088 23.768C89.4168 24.608 88.5648 25.244 87.6528 25.676C86.7648 26.108 85.6248 26.324 84.2328 26.324ZM85.3848 23.048C86.6328 23.048 87.6048 22.808 88.3008 22.328C88.9968 21.848 89.3448 21.164 89.3448 20.276C89.3448 19.412 88.9848 18.728 88.2648 18.224C87.5688 17.72 86.6208 17.468 85.4208 17.468C84.3168 17.468 83.4408 17.72 82.7928 18.224C82.1688 18.704 81.8568 19.388 81.8568 20.276C81.8568 21.188 82.1688 21.884 82.7928 22.364C83.4168 22.82 84.2808 23.048 85.3848 23.048ZM104.946 26.324C103.386 26.324 102.006 26.048 100.806 25.496C99.606 24.92 98.67 24.128 97.998 23.12C97.326 22.112 96.99 20.972 96.99 19.7V14.66C96.99 13.292 97.326 12.08 97.998 11.024C98.67 9.968 99.606 9.152 100.806 8.576C102.006 7.976 103.374 7.676 104.91 7.676C106.35 7.676 107.622 7.88 108.726 8.288C109.854 8.696 110.73 9.272 111.354 10.016C111.978 10.736 112.29 11.576 112.29 12.536C112.29 13.28 112.002 13.88 111.426 14.336C110.85 14.792 110.094 15.02 109.158 15.02C108.894 15.02 108.702 15.008 108.582 14.984C108.582 13.952 108.246 13.124 107.574 12.5C106.926 11.876 106.074 11.564 105.018 11.564C103.962 11.564 103.098 11.864 102.426 12.464C101.778 13.064 101.454 13.856 101.454 14.84V19.376C101.454 20.288 101.79 21.032 102.462 21.608C103.134 22.16 103.998 22.436 105.054 22.436C106.11 22.436 106.974 22.124 107.646 21.5C108.318 20.852 108.654 20.036 108.654 19.052C108.798 19.028 109.002 19.016 109.266 19.016C110.202 19.016 110.958 19.232 111.534 19.664C112.11 20.096 112.398 20.684 112.398 21.428C112.398 22.388 112.074 23.24 111.426 23.984C110.802 24.704 109.926 25.28 108.798 25.712C107.67 26.12 106.386 26.324 104.946 26.324ZM118.827 5.984C117.963 5.984 117.243 5.732 116.667 5.228C116.115 4.7 115.839 4.028 115.839 3.212C115.839 2.42 116.115 1.772 116.667 1.268C117.243 0.739998 117.963 0.475998 118.827 0.475998C119.691 0.475998 120.399 0.739998 120.951 1.268C121.527 1.772 121.815 2.42 121.815 3.212C121.815 4.028 121.527 4.7 120.951 5.228C120.399 5.732 119.691 5.984 118.827 5.984ZM116.559 10.412C116.559 9.428 116.931 8.732 117.675 8.324C118.419 7.892 119.547 7.676 121.059 7.676V23.588C121.059 24.548 120.687 25.244 119.943 25.676C119.199 26.108 118.071 26.324 116.559 26.324V10.412ZM132.679 26.324C131.119 26.324 129.703 26.048 128.431 25.496C127.183 24.92 126.199 24.128 125.479 23.12C124.759 22.112 124.399 20.972 124.399 19.7V14.624C124.399 13.328 124.747 12.152 125.443 11.096C126.163 10.04 127.147 9.212 128.395 8.612C129.643 7.988 131.071 7.676 132.679 7.676C134.287 7.676 135.715 7.988 136.963 8.612C138.235 9.212 139.219 10.04 139.915 11.096C140.635 12.152 140.995 13.328 140.995 14.624V19.7C140.995 20.972 140.623 22.112 139.879 23.12C139.159 24.128 138.163 24.92 136.891 25.496C135.643 26.048 134.239 26.324 132.679 26.324ZM132.679 22.472C133.879 22.472 134.815 22.196 135.487 21.644C136.183 21.092 136.531 20.348 136.531 19.412V14.84C136.531 13.856 136.183 13.064 135.487 12.464C134.815 11.84 133.879 11.528 132.679 11.528C131.503 11.528 130.567 11.84 129.871 12.464C129.175 13.064 128.827 13.856 128.827 14.84V19.412C128.827 20.348 129.175 21.092 129.871 21.644C130.567 22.196 131.503 22.472 132.679 22.472ZM143.823 11.132C143.823 10.028 144.171 9.176 144.867 8.576C145.587 7.976 146.667 7.676 148.107 7.676V9.836C147.819 10.172 147.531 10.556 147.243 10.988L147.459 11.132C148.179 10.052 149.103 9.212 150.231 8.612C151.359 7.988 152.607 7.676 153.975 7.676C155.199 7.676 156.279 7.952 157.215 8.504C158.151 9.056 158.871 9.812 159.375 10.772C159.903 11.732 160.167 12.812 160.167 14.012V23.588C160.167 24.548 159.795 25.244 159.051 25.676C158.307 26.108 157.179 26.324 155.667 26.324V14.66C155.667 13.748 155.391 13.004 154.839 12.428C154.311 11.852 153.531 11.564 152.499 11.564C151.275 11.564 150.267 11.948 149.475 12.716C148.683 13.46 148.287 14.396 148.287 15.524V23.588C148.287 24.548 147.927 25.244 147.207 25.676C146.487 26.108 145.359 26.324 143.823 26.324V11.132ZM172.027 26.324C170.539 26.324 169.183 26.036 167.959 25.46C166.735 24.86 165.763 24.056 165.043 23.048C164.323 22.016 163.963 20.864 163.963 19.592V14.804C163.963 13.46 164.335 12.248 165.079 11.168C165.823 10.088 166.807 9.236 168.031 8.612C169.279 7.988 170.623 7.676 172.063 7.676C173.479 7.676 174.775 7.976 175.951 8.576C177.151 9.152 178.099 9.968 178.795 11.024C179.491 12.056 179.839 13.244 179.839 14.588V16.604C179.839 17.132 179.635 17.576 179.227 17.936C178.843 18.296 178.351 18.476 177.751 18.476H168.319V19.268C168.319 20.3 168.631 21.14 169.255 21.788C169.879 22.436 170.815 22.76 172.063 22.76C173.263 22.76 174.151 22.496 174.727 21.968C175.327 21.44 175.627 20.756 175.627 19.916C176.059 19.868 176.359 19.844 176.527 19.844C177.415 19.844 178.111 20.048 178.615 20.456C179.119 20.84 179.371 21.392 179.371 22.112C179.371 22.808 179.047 23.48 178.399 24.128C177.751 24.776 176.863 25.304 175.735 25.712C174.607 26.12 173.371 26.324 172.027 26.324ZM175.771 15.272V14.588C175.771 13.58 175.423 12.764 174.727 12.14C174.031 11.516 173.131 11.204 172.027 11.204C170.923 11.204 170.023 11.516 169.327 12.14C168.655 12.74 168.319 13.556 168.319 14.588V15.272H175.771ZM190.612 26.324C188.308 26.324 186.448 25.916 185.032 25.1C183.64 24.26 182.932 23.144 182.908 21.752C182.908 21.152 183.148 20.648 183.628 20.24C184.132 19.832 184.924 19.616 186.004 19.592C186.22 20.648 186.724 21.464 187.516 22.04C188.308 22.592 189.268 22.868 190.396 22.868C191.62 22.868 192.58 22.712 193.276 22.4C193.972 22.088 194.32 21.62 194.32 20.996C194.32 20.42 194.032 19.94 193.456 19.556C192.904 19.172 191.8 18.788 190.144 18.404C188.344 17.972 186.94 17.54 185.932 17.108C184.948 16.676 184.216 16.124 183.736 15.452C183.256 14.78 183.016 13.892 183.016 12.788C183.016 11.252 183.664 10.016 184.96 9.08C186.256 8.144 188.032 7.676 190.288 7.676C192.472 7.676 194.284 8.072 195.724 8.864C197.164 9.632 197.884 10.664 197.884 11.96C197.884 12.608 197.644 13.088 197.164 13.4C196.684 13.712 195.892 13.88 194.788 13.904C194.548 12.944 194.092 12.224 193.42 11.744C192.748 11.264 191.8 11.024 190.576 11.024C189.664 11.024 188.872 11.18 188.2 11.492C187.552 11.804 187.228 12.212 187.228 12.716C187.228 13.244 187.504 13.652 188.056 13.94C188.608 14.228 189.568 14.516 190.936 14.804C193.624 15.38 195.568 16.148 196.768 17.108C197.992 18.068 198.604 19.376 198.604 21.032C198.604 22.64 197.884 23.924 196.444 24.884C195.028 25.844 193.084 26.324 190.612 26.324Z"
        fill="#777777"/>
</svg>
