<svg width="140" height="16" viewBox="0 0 140 16" fill="none" xmlns="http://www.w3.org/2000/svg">
  <path d="M5.47133 15.18C4.43133 15.18 3.49133 14.9533 2.65133 14.5C1.82466 14.0467 1.17799 13.42 0.711328 12.62C0.244662 11.8067 0.0113282 10.9 0.0113282 9.9C0.0113282 9.22 0.151328 8.54667 0.431328 7.88C0.711328 7.2 1.11133 6.58 1.63133 6.02L5.97133 1.32C6.26466 0.986666 6.59799 0.819999 6.97133 0.819999C7.438 0.819999 7.84466 1.01333 8.19133 1.4L5.09133 4.76C4.78466 4.82667 4.458 4.93333 4.11133 5.08L4.19133 5.24C4.43133 5.14667 4.71133 5.06667 5.03133 5C5.35133 4.93333 5.638 4.9 5.89133 4.9C6.82466 4.9 7.67799 5.12 8.45133 5.56C9.22466 6 9.83133 6.6 10.2713 7.36C10.7113 8.12 10.9313 8.96667 10.9313 9.9C10.9313 10.9 10.6913 11.8067 10.2113 12.62C9.74466 13.42 9.098 14.0467 8.27133 14.5C7.44466 14.9533 6.51133 15.18 5.47133 15.18ZM5.47133 13.52C6.15133 13.52 6.76466 13.3667 7.31133 13.06C7.87133 12.74 8.30466 12.3067 8.61133 11.76C8.93133 11.2 9.09133 10.58 9.09133 9.9C9.09133 9.22 8.93133 8.60667 8.61133 8.06C8.30466 7.5 7.87133 7.06667 7.31133 6.76C6.76466 6.44 6.15133 6.28 5.47133 6.28C4.79133 6.28 4.178 6.44 3.63133 6.76C3.08466 7.06667 2.65133 7.5 2.33133 8.06C2.02466 8.60667 1.87133 9.22 1.87133 9.9C1.87133 10.58 2.02466 11.2 2.33133 11.76C2.65133 12.3067 3.08466 12.74 3.63133 13.06C4.178 13.3667 4.79133 13.52 5.47133 13.52ZM20.8462 2.64H13.9462C13.4928 2.64 13.1395 2.5 12.8862 2.22C12.6462 1.94 12.5262 1.53333 12.5262 0.999999H22.2462C22.5262 0.999999 22.7462 1.07333 22.9062 1.22C23.0662 1.36667 23.1462 1.56 23.1462 1.8C23.1462 1.96 23.1128 2.10667 23.0462 2.24L16.8662 14.46C16.6262 14.94 16.2595 15.18 15.7662 15.18C15.3528 15.18 14.9862 15.0667 14.6662 14.84L20.8462 2.64ZM30.0179 15.18C29.0046 15.18 28.0979 15.02 27.2979 14.7C26.4979 14.38 25.8712 13.94 25.4179 13.38C24.9646 12.8067 24.7379 12.16 24.7379 11.44C24.7379 10.9333 24.8846 10.5667 25.1779 10.34C25.4846 10.1 25.9512 9.98667 26.5779 10C26.5512 10.3733 26.5379 10.62 26.5379 10.74C26.5379 11.6333 26.8379 12.32 27.4379 12.8C28.0379 13.2667 28.8979 13.5 30.0179 13.5C32.3379 13.5 33.4979 12.7067 33.4979 11.12C33.4979 10.3333 33.2246 9.73333 32.6779 9.32C32.1312 8.89333 31.3379 8.68 30.2979 8.68H29.5979C29.3579 8.68 29.1579 8.60667 28.9979 8.46C28.8512 8.3 28.7779 8.1 28.7779 7.86C28.7779 7.60667 28.8512 7.40667 28.9979 7.26C29.1579 7.11333 29.3579 7.04 29.5979 7.04H30.3179C31.1712 7.04 31.8446 6.83333 32.3379 6.42C32.8446 5.99333 33.0979 5.42667 33.0979 4.72C33.0979 3.98667 32.8446 3.43333 32.3379 3.06C31.8446 2.68667 31.1112 2.5 30.1379 2.5C29.0979 2.5 28.2979 2.68667 27.7379 3.06C27.1912 3.42 26.9179 3.94667 26.9179 4.64C26.9179 4.92 26.9446 5.16 26.9979 5.36C26.4379 5.38667 25.9846 5.28 25.6379 5.04C25.2912 4.8 25.1179 4.46667 25.1179 4.04C25.1179 3.42667 25.3312 2.88 25.7579 2.4C26.1979 1.90667 26.7979 1.52 27.5579 1.24C28.3179 0.959999 29.1779 0.819999 30.1379 0.819999C31.1112 0.819999 31.9646 0.979999 32.6979 1.3C33.4446 1.62 34.0179 2.07333 34.4179 2.66C34.8179 3.24667 35.0179 3.93333 35.0179 4.72C35.0179 6.09333 34.2912 7.13333 32.8379 7.84C33.7312 8.2 34.3779 8.64 34.7779 9.16C35.1912 9.68 35.3979 10.3333 35.3979 11.12C35.3979 12.3733 34.9179 13.3667 33.9579 14.1C32.9979 14.82 31.6846 15.18 30.0179 15.18ZM42.8551 1.88C42.8551 1.62667 42.9417 1.42 43.1151 1.26C43.3017 1.08667 43.5351 0.999999 43.8151 0.999999H49.3351C50.6284 0.999999 51.6551 1.38 52.4151 2.14C53.1884 2.88667 53.5751 3.88667 53.5751 5.14C53.5751 6.71333 52.8884 7.82667 51.5151 8.48V8.54C52.1151 8.79333 52.5751 9.18 52.8951 9.7C53.2151 10.2067 53.3751 10.8267 53.3751 11.56V13.62C53.3751 14.1267 53.2151 14.5133 52.8951 14.78C52.5751 15.0467 52.1084 15.18 51.4951 15.18V11.68C51.4951 10.8933 51.3151 10.3 50.9551 9.9C50.6084 9.48667 50.0884 9.28 49.3951 9.28H44.7151V13.62C44.7151 14.1267 44.5551 14.5133 44.2351 14.78C43.9284 15.0467 43.4684 15.18 42.8551 15.18V1.88ZM49.2751 7.66C50.0084 7.66 50.5884 7.43333 51.0151 6.98C51.4551 6.52667 51.6751 5.90667 51.6751 5.12C51.6751 4.32 51.4684 3.70667 51.0551 3.28C50.6417 2.85333 50.0484 2.64 49.2751 2.64H44.7151V7.66H49.2751ZM59.6876 15.18C58.8742 15.18 58.1476 15.0267 57.5076 14.72C56.8676 14.4 56.3676 13.9667 56.0076 13.42C55.6476 12.86 55.4676 12.2333 55.4676 11.54V8.58C55.4676 7.87333 55.6542 7.23333 56.0276 6.66C56.4142 6.08667 56.9276 5.64 57.5676 5.32C58.2209 4.98667 58.9276 4.82 59.6876 4.82C60.4476 4.82 61.1409 4.98 61.7676 5.3C62.4076 5.62 62.9076 6.06 63.2676 6.62C63.6409 7.18 63.8276 7.81333 63.8276 8.52V9.8C63.8276 10.0133 63.7476 10.1933 63.5876 10.34C63.4276 10.4867 63.2342 10.56 63.0076 10.56H57.1676V11.46C57.1676 12.14 57.3809 12.6867 57.8076 13.1C58.2476 13.5133 58.8742 13.72 59.6876 13.72C60.5009 13.72 61.1209 13.54 61.5476 13.18C61.9742 12.82 62.1876 12.3333 62.1876 11.72C62.5876 11.6933 62.9209 11.7733 63.1876 11.96C63.4676 12.1333 63.6076 12.3933 63.6076 12.74C63.6076 13.1667 63.4209 13.5667 63.0476 13.94C62.6876 14.3133 62.2076 14.6133 61.6076 14.84C61.0076 15.0667 60.3676 15.18 59.6876 15.18ZM62.2076 9.2V8.52C62.2076 7.85333 61.9742 7.31333 61.5076 6.9C61.0542 6.47333 60.4476 6.26 59.6876 6.26C58.9276 6.26 58.3142 6.47333 57.8476 6.9C57.3942 7.31333 57.1676 7.85333 57.1676 8.52V9.2H62.2076ZM69.7563 15.18C69.0763 15.18 68.4363 15.08 67.8363 14.88C67.2363 14.6667 66.7497 14.3667 66.3763 13.98C66.0163 13.5933 65.8363 13.14 65.8363 12.62C65.8363 11.98 66.223 11.6333 66.9963 11.58C67.1297 12.3267 67.443 12.88 67.9363 13.24C68.443 13.5867 69.083 13.76 69.8563 13.76C70.6297 13.76 71.2297 13.6467 71.6563 13.42C72.083 13.1933 72.2963 12.8467 72.2963 12.38C72.2963 12.0467 72.2097 11.78 72.0363 11.58C71.863 11.3667 71.583 11.1867 71.1963 11.04C70.823 10.88 70.283 10.7267 69.5763 10.58C68.6963 10.38 67.9963 10.1667 67.4763 9.94C66.9563 9.71333 66.5563 9.41333 66.2763 9.04C66.0097 8.66667 65.8763 8.17333 65.8763 7.56C65.8763 7.04 66.0363 6.57333 66.3563 6.16C66.6763 5.73333 67.1163 5.40667 67.6763 5.18C68.2497 4.94 68.8963 4.82 69.6163 4.82C70.283 4.82 70.9097 4.91333 71.4963 5.1C72.0963 5.28667 72.5763 5.55333 72.9363 5.9C73.3097 6.24667 73.4963 6.64667 73.4963 7.1C73.4963 7.40667 73.3763 7.65333 73.1363 7.84C72.8963 8.01333 72.563 8.11333 72.1363 8.14C72.0963 7.55333 71.8563 7.09333 71.4163 6.76C70.9897 6.41333 70.3897 6.24 69.6163 6.24C68.9763 6.24 68.4697 6.36 68.0963 6.6C67.723 6.84 67.5363 7.16 67.5363 7.56C67.5363 7.98667 67.7097 8.30667 68.0563 8.52C68.4163 8.72 69.023 8.91333 69.8763 9.1C71.2763 9.38 72.303 9.76667 72.9563 10.26C73.623 10.74 73.9563 11.4267 73.9563 12.32C73.9563 13.2267 73.5897 13.9333 72.8563 14.44C72.123 14.9333 71.0897 15.18 69.7563 15.18ZM84.5335 13.7C84.5335 14.6867 83.9735 15.18 82.8535 15.18V13.9C82.9735 13.78 83.1135 13.6 83.2735 13.36L83.1935 13.28C82.7935 13.8533 82.2868 14.3133 81.6735 14.66C81.0735 15.0067 80.4135 15.18 79.6935 15.18C78.9735 15.18 78.3335 15.0267 77.7735 14.72C77.2268 14.4133 76.8002 13.9867 76.4935 13.44C76.2002 12.8933 76.0535 12.28 76.0535 11.6V6.1C76.0535 5.66 76.2002 5.34 76.4935 5.14C76.7868 4.92667 77.2268 4.82 77.8135 4.82V11.52C77.8135 12.16 78.0002 12.6733 78.3735 13.06C78.7602 13.4467 79.3268 13.64 80.0735 13.64C80.5668 13.64 81.0202 13.54 81.4335 13.34C81.8468 13.1267 82.1735 12.8467 82.4135 12.5C82.6668 12.14 82.7935 11.7533 82.7935 11.34V6.1C82.7935 5.66 82.9335 5.34 83.2135 5.14C83.5068 4.92667 83.9468 4.82 84.5335 4.82V13.7ZM90.2277 15.18C89.2544 15.18 88.5277 14.9133 88.0477 14.38C87.5677 13.8333 87.3277 13.12 87.3277 12.24V2.1C87.3277 1.66 87.4677 1.34 87.7477 1.14C88.0411 0.926666 88.4811 0.819999 89.0677 0.819999V12.18C89.0677 12.7 89.1744 13.0733 89.3877 13.3C89.6011 13.5267 89.9544 13.64 90.4477 13.64C90.9411 13.64 91.3944 13.52 91.8077 13.28C91.9811 13.48 92.0677 13.7133 92.0677 13.98C92.0677 14.3 91.9011 14.58 91.5677 14.82C91.2344 15.06 90.7877 15.18 90.2277 15.18ZM96.8351 15.18C95.8884 15.18 95.1817 14.9133 94.7151 14.38C94.2484 13.8333 94.0151 13.12 94.0151 12.24V6.4H92.1551C92.1551 5.94667 92.2551 5.6 92.4551 5.36C92.6551 5.12 92.9284 5 93.2751 5H94.0351V3.1C94.0351 2.66 94.1751 2.34 94.4551 2.14C94.7484 1.92667 95.1817 1.82 95.7551 1.82V5H98.4151C98.4151 5.93333 97.9951 6.4 97.1551 6.4H95.7751V12.18C95.7751 12.7133 95.8684 13.0933 96.0551 13.32C96.2551 13.5333 96.6084 13.64 97.1151 13.64C97.5817 13.64 98.0217 13.52 98.4351 13.28C98.6084 13.4533 98.6951 13.6867 98.6951 13.98C98.6951 14.3 98.5284 14.58 98.1951 14.82C97.8617 15.06 97.4084 15.18 96.8351 15.18ZM103.831 15.18C102.685 15.18 101.758 14.8733 101.051 14.26C100.358 13.6467 100.011 12.84 100.011 11.84C100.011 10.8267 100.378 10.0133 101.111 9.4C101.845 8.77333 102.811 8.46 104.011 8.46C105.291 8.46 106.345 8.91333 107.171 9.82L107.251 9.74C107.105 9.58 106.938 9.41333 106.751 9.24V8.4C106.751 7.72 106.538 7.19333 106.111 6.82C105.685 6.44667 105.078 6.26 104.291 6.26C102.891 6.26 101.891 6.81333 101.291 7.92C101.078 7.81333 100.898 7.67333 100.751 7.5C100.618 7.31333 100.551 7.12667 100.551 6.94C100.551 6.58 100.731 6.24 101.091 5.92C101.451 5.58667 101.925 5.32 102.511 5.12C103.111 4.92 103.738 4.82 104.391 4.82C105.658 4.82 106.651 5.13333 107.371 5.76C108.105 6.38667 108.471 7.25333 108.471 8.36V13.84C108.471 14.3067 108.338 14.6467 108.071 14.86C107.805 15.0733 107.385 15.18 106.811 15.18V14.24C107.091 13.9467 107.245 13.7733 107.271 13.72L107.191 13.64C106.325 14.6667 105.205 15.18 103.831 15.18ZM104.131 13.8C104.958 13.8 105.605 13.6267 106.071 13.28C106.551 12.9333 106.791 12.4533 106.791 11.84C106.791 11.2267 106.558 10.74 106.091 10.38C105.625 10.02 104.985 9.84 104.171 9.84C103.411 9.84 102.811 10.02 102.371 10.38C101.945 10.7267 101.731 11.2133 101.731 11.84C101.731 12.4667 101.938 12.9533 102.351 13.3C102.778 13.6333 103.371 13.8 104.131 13.8ZM114.835 15.18C113.689 15.18 112.755 14.8667 112.035 14.24C111.329 13.6 110.975 12.7533 110.975 11.7V8.28C110.975 7.6 111.142 7 111.475 6.48C111.809 5.94667 112.269 5.54 112.855 5.26C113.455 4.96667 114.142 4.82 114.915 4.82C115.542 4.82 116.122 4.95333 116.655 5.22C117.189 5.47333 117.655 5.81333 118.055 6.24L118.115 6.14C118.022 6.00667 117.882 5.86 117.695 5.7V2.18C117.695 1.74 117.842 1.40667 118.135 1.18C118.429 0.939999 118.869 0.819999 119.455 0.819999V13.76C119.455 14.2 119.322 14.5467 119.055 14.8C118.802 15.0533 118.389 15.18 117.815 15.18V14.06C118.002 13.82 118.129 13.6467 118.195 13.54L118.135 13.46C117.709 13.9933 117.235 14.4133 116.715 14.72C116.195 15.0267 115.569 15.18 114.835 15.18ZM115.215 13.64C115.922 13.64 116.515 13.46 116.995 13.1C117.475 12.7267 117.715 12.2667 117.715 11.72V8.26C117.715 7.72667 117.489 7.28 117.035 6.92C116.582 6.54667 115.969 6.36 115.195 6.36C114.409 6.36 113.795 6.54 113.355 6.9C112.929 7.24667 112.715 7.73333 112.715 8.36V11.62C112.715 12.2733 112.929 12.7733 113.355 13.12C113.795 13.4667 114.415 13.64 115.215 13.64ZM126.05 15.18C125.236 15.18 124.496 15.0267 123.83 14.72C123.176 14.4133 122.663 14 122.29 13.48C121.93 12.9467 121.75 12.3533 121.75 11.7V8.42C121.75 7.75333 121.93 7.14667 122.29 6.6C122.663 6.05333 123.176 5.62 123.83 5.3C124.483 4.98 125.223 4.82 126.05 4.82C126.876 4.82 127.616 4.98 128.27 5.3C128.936 5.62 129.45 6.05333 129.81 6.6C130.183 7.14667 130.37 7.75333 130.37 8.42V11.7C130.37 12.3533 130.183 12.9467 129.81 13.48C129.436 14 128.923 14.4133 128.27 14.72C127.616 15.0267 126.876 15.18 126.05 15.18ZM126.05 13.68C126.85 13.68 127.483 13.4933 127.95 13.12C128.43 12.7333 128.67 12.2333 128.67 11.62V8.48C128.67 7.84 128.43 7.32 127.95 6.92C127.483 6.52 126.85 6.32 126.05 6.32C125.263 6.32 124.63 6.52 124.15 6.92C123.67 7.32 123.43 7.84 123.43 8.48V11.62C123.43 12.2333 123.663 12.7333 124.13 13.12C124.61 13.4933 125.25 13.68 126.05 13.68ZM135.791 15.18C135.111 15.18 134.471 15.08 133.871 14.88C133.271 14.6667 132.785 14.3667 132.411 13.98C132.051 13.5933 131.871 13.14 131.871 12.62C131.871 11.98 132.258 11.6333 133.031 11.58C133.165 12.3267 133.478 12.88 133.971 13.24C134.478 13.5867 135.118 13.76 135.891 13.76C136.665 13.76 137.265 13.6467 137.691 13.42C138.118 13.1933 138.331 12.8467 138.331 12.38C138.331 12.0467 138.245 11.78 138.071 11.58C137.898 11.3667 137.618 11.1867 137.231 11.04C136.858 10.88 136.318 10.7267 135.611 10.58C134.731 10.38 134.031 10.1667 133.511 9.94C132.991 9.71333 132.591 9.41333 132.311 9.04C132.045 8.66667 131.911 8.17333 131.911 7.56C131.911 7.04 132.071 6.57333 132.391 6.16C132.711 5.73333 133.151 5.40667 133.711 5.18C134.285 4.94 134.931 4.82 135.651 4.82C136.318 4.82 136.945 4.91333 137.531 5.1C138.131 5.28667 138.611 5.55333 138.971 5.9C139.345 6.24667 139.531 6.64667 139.531 7.1C139.531 7.40667 139.411 7.65333 139.171 7.84C138.931 8.01333 138.598 8.11333 138.171 8.14C138.131 7.55333 137.891 7.09333 137.451 6.76C137.025 6.41333 136.425 6.24 135.651 6.24C135.011 6.24 134.505 6.36 134.131 6.6C133.758 6.84 133.571 7.16 133.571 7.56C133.571 7.98667 133.745 8.30667 134.091 8.52C134.451 8.72 135.058 8.91333 135.911 9.1C137.311 9.38 138.338 9.76667 138.991 10.26C139.658 10.74 139.991 11.4267 139.991 12.32C139.991 13.2267 139.625 13.9333 138.891 14.44C138.158 14.9333 137.125 15.18 135.791 15.18Z"
        fill="#A5A5A5"/>
</svg>
