<svg width="628" height="41" viewBox="0 0 628 41" fill="none" xmlns="http://www.w3.org/2000/svg">
  <rect x="324.5" y="0.5" width="303" height="40" rx="4.5" fill="white" stroke="#A5A5A5"/>
  <path d="M338.475 28C338.209 28 337.982 27.9133 337.795 27.74C337.609 27.5667 337.515 27.36 337.515 27.12V14.88C337.515 14.6267 337.609 14.42 337.795 14.26C337.982 14.0867 338.209 14 338.475 14H344.035C345.195 14 346.115 14.3467 346.795 15.04C347.489 15.7333 347.835 16.6667 347.835 17.84C347.835 18.4667 347.669 19.0533 347.335 19.6C347.002 20.1467 346.569 20.5533 346.035 20.82V20.86C346.795 21.0867 347.382 21.48 347.795 22.04C348.209 22.5867 348.415 23.2533 348.415 24.04C348.415 24.8133 348.249 25.5 347.915 26.1C347.595 26.7 347.142 27.1667 346.555 27.5C345.969 27.8333 345.295 28 344.535 28H338.475ZM343.995 20.18C344.542 20.18 345.009 19.96 345.395 19.52C345.795 19.0667 345.995 18.52 345.995 17.88C345.995 17.1733 345.815 16.62 345.455 16.22C345.109 15.82 344.622 15.62 343.995 15.62H339.375V20.18H343.995ZM344.395 26.38C345.075 26.38 345.609 26.18 345.995 25.78C346.382 25.3667 346.575 24.7933 346.575 24.06C346.575 23.3533 346.382 22.8 345.995 22.4C345.622 22 345.089 21.8 344.395 21.8H339.375V26.38H344.395ZM358.998 26.7C358.998 27.6867 358.438 28.18 357.318 28.18V26.9C357.438 26.78 357.578 26.6 357.738 26.36L357.658 26.28C357.258 26.8533 356.752 27.3133 356.138 27.66C355.538 28.0067 354.878 28.18 354.158 28.18C353.438 28.18 352.798 28.0267 352.238 27.72C351.692 27.4133 351.265 26.9867 350.958 26.44C350.665 25.8933 350.518 25.28 350.518 24.6V19.1C350.518 18.66 350.665 18.34 350.958 18.14C351.252 17.9267 351.692 17.82 352.278 17.82V24.52C352.278 25.16 352.465 25.6733 352.838 26.06C353.225 26.4467 353.792 26.64 354.538 26.64C355.032 26.64 355.485 26.54 355.898 26.34C356.312 26.1267 356.638 25.8467 356.878 25.5C357.132 25.14 357.258 24.7533 357.258 24.34V19.1C357.258 18.66 357.398 18.34 357.678 18.14C357.972 17.9267 358.412 17.82 358.998 17.82V26.7ZM355.078 14.08C355.265 13.6267 355.778 13.4 356.618 13.4H357.798L355.758 16.36C355.652 16.5333 355.518 16.6467 355.358 16.7C355.198 16.7533 354.945 16.78 354.598 16.78L353.958 16.76L355.078 14.08ZM365.413 28.18C364.733 28.18 364.093 28.08 363.493 27.88C362.893 27.6667 362.406 27.3667 362.033 26.98C361.673 26.5933 361.493 26.14 361.493 25.62C361.493 24.98 361.879 24.6333 362.653 24.58C362.786 25.3267 363.099 25.88 363.593 26.24C364.099 26.5867 364.739 26.76 365.513 26.76C366.286 26.76 366.886 26.6467 367.313 26.42C367.739 26.1933 367.953 25.8467 367.953 25.38C367.953 25.0467 367.866 24.78 367.693 24.58C367.519 24.3667 367.239 24.1867 366.853 24.04C366.479 23.88 365.939 23.7267 365.233 23.58C364.353 23.38 363.653 23.1667 363.133 22.94C362.613 22.7133 362.213 22.4133 361.933 22.04C361.666 21.6667 361.533 21.1733 361.533 20.56C361.533 20.04 361.693 19.5733 362.013 19.16C362.333 18.7333 362.773 18.4067 363.333 18.18C363.906 17.94 364.553 17.82 365.273 17.82C365.939 17.82 366.566 17.9133 367.153 18.1C367.753 18.2867 368.233 18.5533 368.593 18.9C368.966 19.2467 369.153 19.6467 369.153 20.1C369.153 20.4067 369.033 20.6533 368.793 20.84C368.553 21.0133 368.219 21.1133 367.793 21.14C367.753 20.5533 367.513 20.0933 367.073 19.76C366.646 19.4133 366.046 19.24 365.273 19.24C364.633 19.24 364.126 19.36 363.753 19.6C363.379 19.84 363.193 20.16 363.193 20.56C363.193 20.9867 363.366 21.3067 363.713 21.52C364.073 21.72 364.679 21.9133 365.533 22.1C366.933 22.38 367.959 22.7667 368.613 23.26C369.279 23.74 369.613 24.4267 369.613 25.32C369.613 26.2267 369.246 26.9333 368.513 27.44C367.779 27.9333 366.746 28.18 365.413 28.18ZM380.21 30.82C380.21 31.7267 379.623 32.18 378.45 32.18V27.3C378.636 27.14 378.776 26.9933 378.87 26.86L378.81 26.76C378.423 27.1733 377.936 27.5133 377.35 27.78C376.776 28.0467 376.196 28.18 375.61 28.18C374.436 28.18 373.49 27.8667 372.77 27.24C372.063 26.6133 371.71 25.7733 371.71 24.72V21.3C371.71 20.6067 371.876 20 372.21 19.48C372.556 18.9467 373.023 18.54 373.61 18.26C374.21 17.9667 374.87 17.82 375.59 17.82C376.896 17.82 377.99 18.3933 378.87 19.54L378.95 19.46L378.55 18.96C378.55 18.5867 378.676 18.3067 378.93 18.12C379.196 17.92 379.623 17.82 380.21 17.82V30.82ZM375.97 19.36C375.17 19.36 374.55 19.5333 374.11 19.88C373.67 20.2267 373.45 20.7267 373.45 21.38V24.64C373.45 25.2667 373.67 25.76 374.11 26.12C374.55 26.4667 375.156 26.64 375.93 26.64C376.636 26.64 377.236 26.4533 377.73 26.08C378.223 25.7067 378.47 25.26 378.47 24.74V21.28C378.47 20.7467 378.23 20.2933 377.75 19.92C377.27 19.5467 376.676 19.36 375.97 19.36ZM391.284 26.7C391.284 27.6867 390.724 28.18 389.604 28.18V26.9C389.724 26.78 389.864 26.6 390.024 26.36L389.944 26.28C389.544 26.8533 389.037 27.3133 388.424 27.66C387.824 28.0067 387.164 28.18 386.444 28.18C385.724 28.18 385.084 28.0267 384.524 27.72C383.977 27.4133 383.55 26.9867 383.244 26.44C382.95 25.8933 382.804 25.28 382.804 24.6V19.1C382.804 18.66 382.95 18.34 383.244 18.14C383.537 17.9267 383.977 17.82 384.564 17.82V24.52C384.564 25.16 384.75 25.6733 385.124 26.06C385.51 26.4467 386.077 26.64 386.824 26.64C387.317 26.64 387.77 26.54 388.184 26.34C388.597 26.1267 388.924 25.8467 389.164 25.5C389.417 25.14 389.544 24.7533 389.544 24.34V19.1C389.544 18.66 389.684 18.34 389.964 18.14C390.257 17.9267 390.697 17.82 391.284 17.82V26.7ZM398.098 28.18C397.284 28.18 396.558 28.0267 395.918 27.72C395.278 27.4 394.778 26.9667 394.418 26.42C394.058 25.86 393.878 25.2333 393.878 24.54V21.58C393.878 20.8733 394.064 20.2333 394.438 19.66C394.824 19.0867 395.338 18.64 395.978 18.32C396.631 17.9867 397.338 17.82 398.098 17.82C398.858 17.82 399.551 17.98 400.178 18.3C400.818 18.62 401.318 19.06 401.678 19.62C402.051 20.18 402.238 20.8133 402.238 21.52V22.8C402.238 23.0133 402.158 23.1933 401.998 23.34C401.838 23.4867 401.644 23.56 401.418 23.56H395.578V24.46C395.578 25.14 395.791 25.6867 396.218 26.1C396.658 26.5133 397.284 26.72 398.098 26.72C398.911 26.72 399.531 26.54 399.958 26.18C400.384 25.82 400.598 25.3333 400.598 24.72C400.998 24.6933 401.331 24.7733 401.598 24.96C401.878 25.1333 402.018 25.3933 402.018 25.74C402.018 26.1667 401.831 26.5667 401.458 26.94C401.098 27.3133 400.618 27.6133 400.018 27.84C399.418 28.0667 398.778 28.18 398.098 28.18ZM400.618 22.2V21.52C400.618 20.8533 400.384 20.3133 399.918 19.9C399.464 19.4733 398.858 19.26 398.098 19.26C397.338 19.26 396.724 19.4733 396.258 19.9C395.804 20.3133 395.578 20.8533 395.578 21.52V22.2H400.618ZM408.206 28.18C407.06 28.18 406.126 27.8667 405.406 27.24C404.7 26.6 404.346 25.7533 404.346 24.7V21.28C404.346 20.6 404.513 20 404.846 19.48C405.18 18.9467 405.64 18.54 406.226 18.26C406.826 17.9667 407.513 17.82 408.286 17.82C408.913 17.82 409.493 17.9533 410.026 18.22C410.56 18.4733 411.026 18.8133 411.426 19.24L411.486 19.14C411.393 19.0067 411.253 18.86 411.066 18.7V15.18C411.066 14.74 411.213 14.4067 411.506 14.18C411.8 13.94 412.24 13.82 412.826 13.82V26.76C412.826 27.2 412.693 27.5467 412.426 27.8C412.173 28.0533 411.76 28.18 411.186 28.18V27.06C411.373 26.82 411.5 26.6467 411.566 26.54L411.506 26.46C411.08 26.9933 410.606 27.4133 410.086 27.72C409.566 28.0267 408.94 28.18 408.206 28.18ZM408.586 26.64C409.293 26.64 409.886 26.46 410.366 26.1C410.846 25.7267 411.086 25.2667 411.086 24.72V21.26C411.086 20.7267 410.86 20.28 410.406 19.92C409.953 19.5467 409.34 19.36 408.566 19.36C407.78 19.36 407.166 19.54 406.726 19.9C406.3 20.2467 406.086 20.7333 406.086 21.36V24.62C406.086 25.2733 406.3 25.7733 406.726 26.12C407.166 26.4667 407.786 26.64 408.586 26.64ZM418.941 28.18C417.794 28.18 416.867 27.8733 416.161 27.26C415.467 26.6467 415.121 25.84 415.121 24.84C415.121 23.8267 415.487 23.0133 416.221 22.4C416.954 21.7733 417.921 21.46 419.121 21.46C420.401 21.46 421.454 21.9133 422.281 22.82L422.361 22.74C422.214 22.58 422.047 22.4133 421.861 22.24V21.4C421.861 20.72 421.647 20.1933 421.221 19.82C420.794 19.4467 420.187 19.26 419.401 19.26C418.001 19.26 417.001 19.8133 416.401 20.92C416.187 20.8133 416.007 20.6733 415.861 20.5C415.727 20.3133 415.661 20.1267 415.661 19.94C415.661 19.58 415.841 19.24 416.201 18.92C416.561 18.5867 417.034 18.32 417.621 18.12C418.221 17.92 418.847 17.82 419.501 17.82C420.767 17.82 421.761 18.1333 422.481 18.76C423.214 19.3867 423.581 20.2533 423.581 21.36V26.84C423.581 27.3067 423.447 27.6467 423.181 27.86C422.914 28.0733 422.494 28.18 421.921 28.18V27.24C422.201 26.9467 422.354 26.7733 422.381 26.72L422.301 26.64C421.434 27.6667 420.314 28.18 418.941 28.18ZM419.241 26.8C420.067 26.8 420.714 26.6267 421.181 26.28C421.661 25.9333 421.901 25.4533 421.901 24.84C421.901 24.2267 421.667 23.74 421.201 23.38C420.734 23.02 420.094 22.84 419.281 22.84C418.521 22.84 417.921 23.02 417.481 23.38C417.054 23.7267 416.841 24.2133 416.841 24.84C416.841 25.4667 417.047 25.9533 417.461 26.3C417.887 26.6333 418.481 26.8 419.241 26.8Z"
        fill="#A5A5A5"/>
  <path d="M613.839 27.4605L610.164 23.7852C611.049 22.6072 611.527 21.1733 611.525 19.7C611.525 15.9367 608.463 12.875 604.7 12.875C600.937 12.875 597.875 15.9367 597.875 19.7C597.875 23.4633 600.937 26.525 604.7 26.525C606.173 26.5266 607.607 26.0489 608.785 25.1641L612.461 28.8395C612.647 29.0058 612.889 29.0945 613.139 29.0876C613.388 29.0806 613.625 28.9784 613.802 28.8019C613.978 28.6255 614.081 28.3881 614.088 28.1387C614.095 27.8893 614.006 27.6466 613.839 27.4605V27.4605ZM599.825 19.7C599.825 18.7358 600.111 17.7933 600.647 16.9916C601.182 16.1899 601.944 15.5651 602.834 15.1961C603.725 14.8271 604.705 14.7306 605.651 14.9187C606.597 15.1068 607.465 15.5711 608.147 16.2529C608.829 16.9346 609.293 17.8033 609.481 18.7489C609.669 19.6946 609.573 20.6748 609.204 21.5656C608.835 22.4564 608.21 23.2177 607.408 23.7534C606.607 24.2891 605.664 24.575 604.7 24.575C603.408 24.5735 602.168 24.0593 601.255 23.1454C600.341 22.2315 599.827 20.9925 599.825 19.7V19.7Z"
        fill="#A5A5A5"/>
  <rect x="0.5" y="0.5" width="303" height="40" rx="4.5" fill="white" stroke="#A5A5A5"/>
  <path d="M13.5035 14.88C13.5035 14.6267 13.5968 14.42 13.7835 14.26C13.9702 14.0867 14.1968 14 14.4635 14H23.3835C23.3835 14.56 23.2702 14.9733 23.0435 15.24C22.8168 15.5067 22.4702 15.64 22.0035 15.64H15.3835V20.02H20.9835C20.9835 20.58 20.8702 20.9933 20.6435 21.26C20.4168 21.5267 20.0702 21.66 19.6035 21.66H15.3835V26.66C15.3835 27.18 15.2302 27.5667 14.9235 27.82C14.6168 28.06 14.1435 28.18 13.5035 28.18V14.88ZM25.4876 16.32C25.1142 16.32 24.8009 16.2 24.5476 15.96C24.2942 15.72 24.1676 15.42 24.1676 15.06C24.1676 14.7 24.2942 14.4067 24.5476 14.18C24.8009 13.94 25.1142 13.82 25.4876 13.82C25.8476 13.82 26.1542 13.94 26.4076 14.18C26.6609 14.4067 26.7876 14.7 26.7876 15.06C26.7876 15.42 26.6609 15.72 26.4076 15.96C26.1542 16.2 25.8476 16.32 25.4876 16.32ZM24.6076 19.1C24.6076 18.66 24.7476 18.34 25.0276 18.14C25.3209 17.9267 25.7609 17.82 26.3476 17.82V26.9C26.3476 27.34 26.2009 27.6667 25.9076 27.88C25.6276 28.08 25.1942 28.18 24.6076 28.18V19.1ZM32.4973 28.18C31.5239 28.18 30.7973 27.9133 30.3173 27.38C29.8373 26.8333 29.5973 26.12 29.5973 25.24V15.1C29.5973 14.66 29.7373 14.34 30.0173 14.14C30.3106 13.9267 30.7506 13.82 31.3373 13.82V25.18C31.3373 25.7 31.4439 26.0733 31.6573 26.3C31.8706 26.5267 32.2239 26.64 32.7173 26.64C33.2106 26.64 33.6639 26.52 34.0773 26.28C34.2506 26.48 34.3373 26.7133 34.3373 26.98C34.3373 27.3 34.1706 27.58 33.8373 27.82C33.5039 28.06 33.0573 28.18 32.4973 28.18ZM39.1046 28.18C38.1579 28.18 37.4513 27.9133 36.9846 27.38C36.5179 26.8333 36.2846 26.12 36.2846 25.24V19.4H34.4246C34.4246 18.9467 34.5246 18.6 34.7246 18.36C34.9246 18.12 35.1979 18 35.5446 18H36.3046V16.1C36.3046 15.66 36.4446 15.34 36.7246 15.14C37.0179 14.9267 37.4513 14.82 38.0246 14.82V18H40.6846C40.6846 18.9333 40.2646 19.4 39.4246 19.4H38.0446V25.18C38.0446 25.7133 38.1379 26.0933 38.3246 26.32C38.5246 26.5333 38.8779 26.64 39.3846 26.64C39.8513 26.64 40.2913 26.52 40.7046 26.28C40.8779 26.4533 40.9646 26.6867 40.9646 26.98C40.9646 27.3 40.7979 27.58 40.4646 27.82C40.1313 28.06 39.6779 28.18 39.1046 28.18ZM47.4138 19.36C46.6672 19.36 46.0472 19.5867 45.5538 20.04C45.0605 20.48 44.8138 21.02 44.8138 21.66V26.9C44.8138 27.34 44.6672 27.6667 44.3738 27.88C44.0938 28.08 43.6605 28.18 43.0738 28.18V19.3C43.0738 18.3133 43.6338 17.82 44.7538 17.82V19.04C44.5405 19.2667 44.3938 19.4667 44.3138 19.64L44.3938 19.72C45.2472 18.4533 46.3138 17.82 47.5938 17.82C48.0738 17.82 48.4405 17.94 48.6938 18.18C48.9472 18.4067 49.0738 18.6867 49.0738 19.02C49.0738 19.26 49.0138 19.4733 48.8938 19.66C48.5205 19.46 48.0272 19.36 47.4138 19.36ZM53.6009 28.18C52.4542 28.18 51.5275 27.8733 50.8209 27.26C50.1275 26.6467 49.7809 25.84 49.7809 24.84C49.7809 23.8267 50.1475 23.0133 50.8809 22.4C51.6142 21.7733 52.5809 21.46 53.7809 21.46C55.0609 21.46 56.1142 21.9133 56.9409 22.82L57.0209 22.74C56.8742 22.58 56.7075 22.4133 56.5209 22.24V21.4C56.5209 20.72 56.3075 20.1933 55.8809 19.82C55.4542 19.4467 54.8475 19.26 54.0609 19.26C52.6609 19.26 51.6609 19.8133 51.0609 20.92C50.8475 20.8133 50.6675 20.6733 50.5209 20.5C50.3875 20.3133 50.3209 20.1267 50.3209 19.94C50.3209 19.58 50.5009 19.24 50.8609 18.92C51.2209 18.5867 51.6942 18.32 52.2809 18.12C52.8809 17.92 53.5075 17.82 54.1609 17.82C55.4275 17.82 56.4209 18.1333 57.1409 18.76C57.8742 19.3867 58.2409 20.2533 58.2409 21.36V26.84C58.2409 27.3067 58.1075 27.6467 57.8409 27.86C57.5742 28.0733 57.1542 28.18 56.5809 28.18V27.24C56.8609 26.9467 57.0142 26.7733 57.0409 26.72L56.9609 26.64C56.0942 27.6667 54.9742 28.18 53.6009 28.18ZM53.9009 26.8C54.7275 26.8 55.3742 26.6267 55.8409 26.28C56.3209 25.9333 56.5609 25.4533 56.5609 24.84C56.5609 24.2267 56.3275 23.74 55.8609 23.38C55.3942 23.02 54.7542 22.84 53.9409 22.84C53.1809 22.84 52.5809 23.02 52.1409 23.38C51.7142 23.7267 51.5009 24.2133 51.5009 24.84C51.5009 25.4667 51.7075 25.9533 52.1209 26.3C52.5475 26.6333 53.1409 26.8 53.9009 26.8ZM64.6049 28.18C63.4583 28.18 62.5249 27.8667 61.8049 27.24C61.0983 26.6 60.7449 25.7533 60.7449 24.7V21.28C60.7449 20.6 60.9116 20 61.2449 19.48C61.5783 18.9467 62.0383 18.54 62.6249 18.26C63.2249 17.9667 63.9116 17.82 64.6849 17.82C65.3116 17.82 65.8916 17.9533 66.4249 18.22C66.9583 18.4733 67.4249 18.8133 67.8249 19.24L67.8849 19.14C67.7916 19.0067 67.6516 18.86 67.4649 18.7V15.18C67.4649 14.74 67.6116 14.4067 67.9049 14.18C68.1983 13.94 68.6383 13.82 69.2249 13.82V26.76C69.2249 27.2 69.0916 27.5467 68.8249 27.8C68.5716 28.0533 68.1583 28.18 67.5849 28.18V27.06C67.7716 26.82 67.8983 26.6467 67.9649 26.54L67.9049 26.46C67.4783 26.9933 67.0049 27.4133 66.4849 27.72C65.9649 28.0267 65.3383 28.18 64.6049 28.18ZM64.9849 26.64C65.6916 26.64 66.2849 26.46 66.7649 26.1C67.2449 25.7267 67.4849 25.2667 67.4849 24.72V21.26C67.4849 20.7267 67.2583 20.28 66.8049 19.92C66.3516 19.5467 65.7383 19.36 64.9649 19.36C64.1783 19.36 63.5649 19.54 63.1249 19.9C62.6983 20.2467 62.4849 20.7333 62.4849 21.36V24.62C62.4849 25.2733 62.6983 25.7733 63.1249 26.12C63.5649 26.4667 64.1849 26.64 64.9849 26.64ZM75.8191 28.18C75.0058 28.18 74.2658 28.0267 73.5991 27.72C72.9458 27.4133 72.4325 27 72.0591 26.48C71.6991 25.9467 71.5191 25.3533 71.5191 24.7V21.42C71.5191 20.7533 71.6991 20.1467 72.0591 19.6C72.4325 19.0533 72.9458 18.62 73.5991 18.3C74.2525 17.98 74.9925 17.82 75.8191 17.82C76.6458 17.82 77.3858 17.98 78.0391 18.3C78.7058 18.62 79.2191 19.0533 79.5791 19.6C79.9525 20.1467 80.1391 20.7533 80.1391 21.42V24.7C80.1391 25.3533 79.9525 25.9467 79.5791 26.48C79.2058 27 78.6925 27.4133 78.0391 27.72C77.3858 28.0267 76.6458 28.18 75.8191 28.18ZM75.8191 26.68C76.6191 26.68 77.2525 26.4933 77.7191 26.12C78.1991 25.7333 78.4391 25.2333 78.4391 24.62V21.48C78.4391 20.84 78.1991 20.32 77.7191 19.92C77.2525 19.52 76.6191 19.32 75.8191 19.32C75.0325 19.32 74.3991 19.52 73.9191 19.92C73.4391 20.32 73.1991 20.84 73.1991 21.48V24.62C73.1991 25.2333 73.4325 25.7333 73.8991 26.12C74.3791 26.4933 75.0191 26.68 75.8191 26.68ZM87.6051 19.24C87.6051 18.8 87.7384 18.4533 88.0051 18.2C88.2851 17.9467 88.7051 17.82 89.2651 17.82V18.94L88.8651 19.46L88.9251 19.54C89.3384 19.0067 89.8117 18.5867 90.3451 18.28C90.8784 17.9733 91.5117 17.82 92.2451 17.82C93.3917 17.82 94.3184 18.14 95.0251 18.78C95.7317 19.4067 96.0851 20.2467 96.0851 21.3V24.72C96.0851 25.7733 95.7184 26.6133 94.9851 27.24C94.2517 27.8667 93.2984 28.18 92.1251 28.18C91.4984 28.18 90.9184 28.0533 90.3851 27.8C89.8651 27.5333 89.4051 27.1867 89.0051 26.76L88.9451 26.86C89.0384 26.9933 89.1784 27.14 89.3651 27.3V30.82C89.3651 31.7267 88.7784 32.18 87.6051 32.18V19.24ZM91.8651 26.64C92.6517 26.64 93.2651 26.4667 93.7051 26.12C94.1451 25.76 94.3651 25.2667 94.3651 24.64V21.38C94.3651 20.7267 94.1451 20.2267 93.7051 19.88C93.2651 19.5333 92.6451 19.36 91.8451 19.36C91.1384 19.36 90.5451 19.5467 90.0651 19.92C89.5851 20.28 89.3451 20.7333 89.3451 21.28V24.74C89.3451 25.2733 89.5717 25.7267 90.0251 26.1C90.4784 26.46 91.0917 26.64 91.8651 26.64ZM102.186 28.18C101.373 28.18 100.633 28.0267 99.9663 27.72C99.313 27.4133 98.7997 27 98.4263 26.48C98.0663 25.9467 97.8863 25.3533 97.8863 24.7V21.42C97.8863 20.7533 98.0663 20.1467 98.4263 19.6C98.7997 19.0533 99.313 18.62 99.9663 18.3C100.62 17.98 101.36 17.82 102.186 17.82C103.013 17.82 103.753 17.98 104.406 18.3C105.073 18.62 105.586 19.0533 105.946 19.6C106.32 20.1467 106.506 20.7533 106.506 21.42V24.7C106.506 25.3533 106.32 25.9467 105.946 26.48C105.573 27 105.06 27.4133 104.406 27.72C103.753 28.0267 103.013 28.18 102.186 28.18ZM102.186 26.68C102.986 26.68 103.62 26.4933 104.086 26.12C104.566 25.7333 104.806 25.2333 104.806 24.62V21.48C104.806 20.84 104.566 20.32 104.086 19.92C103.62 19.52 102.986 19.32 102.186 19.32C101.4 19.32 100.766 19.52 100.286 19.92C99.8063 20.32 99.5663 20.84 99.5663 21.48V24.62C99.5663 25.2333 99.7997 25.7333 100.266 26.12C100.746 26.4933 101.386 26.68 102.186 26.68ZM113.156 19.36C112.409 19.36 111.789 19.5867 111.296 20.04C110.803 20.48 110.556 21.02 110.556 21.66V26.9C110.556 27.34 110.409 27.6667 110.116 27.88C109.836 28.08 109.403 28.18 108.816 28.18V19.3C108.816 18.3133 109.376 17.82 110.496 17.82V19.04C110.283 19.2667 110.136 19.4667 110.056 19.64L110.136 19.72C110.989 18.4533 112.056 17.82 113.336 17.82C113.816 17.82 114.183 17.94 114.436 18.18C114.689 18.4067 114.816 18.6867 114.816 19.02C114.816 19.26 114.756 19.4733 114.636 19.66C114.263 19.46 113.769 19.36 113.156 19.36ZM128.778 14C128.898 13.76 129.058 13.58 129.258 13.46C129.471 13.3267 129.704 13.26 129.958 13.26C130.291 13.26 130.624 13.3667 130.958 13.58L123.738 28C123.484 28.48 123.098 28.72 122.578 28.72C122.231 28.72 121.898 28.6067 121.578 28.38L128.778 14ZM138.406 15.44C138.406 14.9333 138.559 14.54 138.866 14.26C139.186 13.9667 139.626 13.82 140.186 13.82L147.946 25.62L148.086 25.5L147.506 24.54V13.82C148.119 13.82 148.579 13.9533 148.886 14.22C149.206 14.4867 149.366 14.8733 149.366 15.38V26.7C149.366 27.1267 149.213 27.48 148.906 27.76C148.613 28.04 148.233 28.18 147.766 28.18L139.826 16.12L139.686 16.24L140.266 17.2V26.62C140.266 27.1267 140.106 27.5133 139.786 27.78C139.479 28.0467 139.019 28.18 138.406 28.18V15.44ZM155.468 28.18C154.654 28.18 153.914 28.0267 153.248 27.72C152.594 27.4133 152.081 27 151.708 26.48C151.348 25.9467 151.168 25.3533 151.168 24.7V21.42C151.168 20.7533 151.348 20.1467 151.708 19.6C152.081 19.0533 152.594 18.62 153.248 18.3C153.901 17.98 154.641 17.82 155.468 17.82C156.294 17.82 157.034 17.98 157.688 18.3C158.354 18.62 158.868 19.0533 159.228 19.6C159.601 20.1467 159.788 20.7533 159.788 21.42V24.7C159.788 25.3533 159.601 25.9467 159.228 26.48C158.854 27 158.341 27.4133 157.688 27.72C157.034 28.0267 156.294 28.18 155.468 28.18ZM155.468 26.68C156.268 26.68 156.901 26.4933 157.368 26.12C157.848 25.7333 158.088 25.2333 158.088 24.62V21.48C158.088 20.84 157.848 20.32 157.368 19.92C156.901 19.52 156.268 19.32 155.468 19.32C154.681 19.32 154.048 19.52 153.568 19.92C153.088 20.32 152.848 20.84 152.848 21.48V24.62C152.848 25.2333 153.081 25.7333 153.548 26.12C154.028 26.4933 154.668 26.68 155.468 26.68ZM162.097 19.3C162.097 18.3133 162.651 17.82 163.757 17.82V19.1C163.584 19.2867 163.444 19.4667 163.337 19.64L163.417 19.72C163.844 19.12 164.297 18.6533 164.777 18.32C165.257 17.9867 165.811 17.82 166.437 17.82C167.651 17.82 168.484 18.4 168.937 19.56C169.697 18.4 170.711 17.82 171.977 17.82C172.924 17.82 173.651 18.14 174.157 18.78C174.677 19.4067 174.937 20.2333 174.937 21.26V26.9C174.937 27.34 174.791 27.6667 174.497 27.88C174.217 28.08 173.791 28.18 173.217 28.18V21.36C173.217 20.72 173.084 20.22 172.817 19.86C172.551 19.5 172.131 19.32 171.557 19.32C170.957 19.32 170.444 19.5267 170.017 19.94C169.591 20.34 169.377 20.88 169.377 21.56V26.9C169.377 27.34 169.237 27.6667 168.957 27.88C168.677 28.08 168.251 28.18 167.677 28.18V21.36C167.677 20.72 167.544 20.22 167.277 19.86C167.011 19.5 166.591 19.32 166.017 19.32C165.404 19.32 164.884 19.54 164.457 19.98C164.031 20.42 163.817 20.96 163.817 21.6V26.9C163.817 27.34 163.671 27.6667 163.377 27.88C163.097 28.08 162.671 28.18 162.097 28.18V19.3ZM177.546 15.18C177.546 14.2733 178.133 13.82 179.306 13.82V18.7C179.106 18.8733 178.966 19.02 178.886 19.14L178.946 19.24C179.346 18.8133 179.833 18.4733 180.406 18.22C180.993 17.9533 181.566 17.82 182.126 17.82C183.313 17.82 184.26 18.1333 184.966 18.76C185.673 19.3867 186.026 20.2267 186.026 21.28V24.7C186.026 25.3667 185.86 25.9667 185.526 26.5C185.206 27.0333 184.753 27.4467 184.166 27.74C183.58 28.0333 182.913 28.18 182.166 28.18C180.86 28.18 179.76 27.6067 178.866 26.46L178.806 26.54C178.886 26.66 179.02 26.8267 179.206 27.04C179.206 27.4267 179.073 27.7133 178.806 27.9C178.54 28.0867 178.12 28.18 177.546 28.18V15.18ZM181.786 26.64C182.6 26.64 183.22 26.4667 183.646 26.12C184.086 25.7733 184.306 25.2733 184.306 24.62V21.36C184.306 20.7333 184.086 20.2467 183.646 19.9C183.206 19.54 182.593 19.36 181.806 19.36C181.113 19.36 180.52 19.5467 180.026 19.92C179.533 20.2933 179.286 20.74 179.286 21.26V24.72C179.286 25.2667 179.526 25.7267 180.006 26.1C180.486 26.46 181.08 26.64 181.786 26.64ZM192.961 19.36C192.214 19.36 191.594 19.5867 191.101 20.04C190.607 20.48 190.361 21.02 190.361 21.66V26.9C190.361 27.34 190.214 27.6667 189.921 27.88C189.641 28.08 189.207 28.18 188.621 28.18V19.3C188.621 18.3133 189.181 17.82 190.301 17.82V19.04C190.087 19.2667 189.941 19.4667 189.861 19.64L189.941 19.72C190.794 18.4533 191.861 17.82 193.141 17.82C193.621 17.82 193.987 17.94 194.241 18.18C194.494 18.4067 194.621 18.6867 194.621 19.02C194.621 19.26 194.561 19.4733 194.441 19.66C194.067 19.46 193.574 19.36 192.961 19.36ZM199.848 28.18C199.034 28.18 198.308 28.0267 197.668 27.72C197.028 27.4 196.528 26.9667 196.168 26.42C195.808 25.86 195.628 25.2333 195.628 24.54V21.58C195.628 20.8733 195.814 20.2333 196.188 19.66C196.574 19.0867 197.088 18.64 197.728 18.32C198.381 17.9867 199.088 17.82 199.848 17.82C200.608 17.82 201.301 17.98 201.928 18.3C202.568 18.62 203.068 19.06 203.428 19.62C203.801 20.18 203.988 20.8133 203.988 21.52V22.8C203.988 23.0133 203.908 23.1933 203.748 23.34C203.588 23.4867 203.394 23.56 203.168 23.56H197.328V24.46C197.328 25.14 197.541 25.6867 197.968 26.1C198.408 26.5133 199.034 26.72 199.848 26.72C200.661 26.72 201.281 26.54 201.708 26.18C202.134 25.82 202.348 25.3333 202.348 24.72C202.748 24.6933 203.081 24.7733 203.348 24.96C203.628 25.1333 203.768 25.3933 203.768 25.74C203.768 26.1667 203.581 26.5667 203.208 26.94C202.848 27.3133 202.368 27.6133 201.768 27.84C201.168 28.0667 200.528 28.18 199.848 28.18ZM202.368 22.2V21.52C202.368 20.8533 202.134 20.3133 201.668 19.9C201.214 19.4733 200.608 19.26 199.848 19.26C199.088 19.26 198.474 19.4733 198.008 19.9C197.554 20.3133 197.328 20.8533 197.328 21.52V22.2H202.368Z"
        fill="#A5A5A5"/>
  <path d="M282.5 27.5L276.005 16.25H288.995L282.5 27.5Z" fill="#A5A5A5"/>
</svg>
