<svg width="1151" height="41" viewBox="0 0 1151 41" fill="none" xmlns="http://www.w3.org/2000/svg">
<rect x="847.5" y="0.5" width="303" height="40" rx="4.5" fill="white" stroke="#A5A5A5"/>
<path d="M861.475 28C861.209 28 860.982 27.9133 860.795 27.74C860.609 27.5667 860.515 27.36 860.515 27.12V14.88C860.515 14.6267 860.609 14.42 860.795 14.26C860.982 14.0867 861.209 14 861.475 14H867.035C868.195 14 869.115 14.3467 869.795 15.04C870.489 15.7333 870.835 16.6667 870.835 17.84C870.835 18.4667 870.669 19.0533 870.335 19.6C870.002 20.1467 869.569 20.5533 869.035 20.82V20.86C869.795 21.0867 870.382 21.48 870.795 22.04C871.209 22.5867 871.415 23.2533 871.415 24.04C871.415 24.8133 871.249 25.5 870.915 26.1C870.595 26.7 870.142 27.1667 869.555 27.5C868.969 27.8333 868.295 28 867.535 28H861.475ZM866.995 20.18C867.542 20.18 868.009 19.96 868.395 19.52C868.795 19.0667 868.995 18.52 868.995 17.88C868.995 17.1733 868.815 16.62 868.455 16.22C868.109 15.82 867.622 15.62 866.995 15.62H862.375V20.18H866.995ZM867.395 26.38C868.075 26.38 868.609 26.18 868.995 25.78C869.382 25.3667 869.575 24.7933 869.575 24.06C869.575 23.3533 869.382 22.8 868.995 22.4C868.622 22 868.089 21.8 867.395 21.8H862.375V26.38H867.395ZM881.998 26.7C881.998 27.6867 881.438 28.18 880.318 28.18V26.9C880.438 26.78 880.578 26.6 880.738 26.36L880.658 26.28C880.258 26.8533 879.752 27.3133 879.138 27.66C878.538 28.0067 877.878 28.18 877.158 28.18C876.438 28.18 875.798 28.0267 875.238 27.72C874.692 27.4133 874.265 26.9867 873.958 26.44C873.665 25.8933 873.518 25.28 873.518 24.6V19.1C873.518 18.66 873.665 18.34 873.958 18.14C874.252 17.9267 874.692 17.82 875.278 17.82V24.52C875.278 25.16 875.465 25.6733 875.838 26.06C876.225 26.4467 876.792 26.64 877.538 26.64C878.032 26.64 878.485 26.54 878.898 26.34C879.312 26.1267 879.638 25.8467 879.878 25.5C880.132 25.14 880.258 24.7533 880.258 24.34V19.1C880.258 18.66 880.398 18.34 880.678 18.14C880.972 17.9267 881.412 17.82 881.998 17.82V26.7ZM878.078 14.08C878.265 13.6267 878.778 13.4 879.618 13.4H880.798L878.758 16.36C878.652 16.5333 878.518 16.6467 878.358 16.7C878.198 16.7533 877.945 16.78 877.598 16.78L876.958 16.76L878.078 14.08ZM888.413 28.18C887.733 28.18 887.093 28.08 886.493 27.88C885.893 27.6667 885.406 27.3667 885.033 26.98C884.673 26.5933 884.493 26.14 884.493 25.62C884.493 24.98 884.879 24.6333 885.653 24.58C885.786 25.3267 886.099 25.88 886.593 26.24C887.099 26.5867 887.739 26.76 888.513 26.76C889.286 26.76 889.886 26.6467 890.313 26.42C890.739 26.1933 890.953 25.8467 890.953 25.38C890.953 25.0467 890.866 24.78 890.693 24.58C890.519 24.3667 890.239 24.1867 889.853 24.04C889.479 23.88 888.939 23.7267 888.233 23.58C887.353 23.38 886.653 23.1667 886.133 22.94C885.613 22.7133 885.213 22.4133 884.933 22.04C884.666 21.6667 884.533 21.1733 884.533 20.56C884.533 20.04 884.693 19.5733 885.013 19.16C885.333 18.7333 885.773 18.4067 886.333 18.18C886.906 17.94 887.553 17.82 888.273 17.82C888.939 17.82 889.566 17.9133 890.153 18.1C890.753 18.2867 891.233 18.5533 891.593 18.9C891.966 19.2467 892.153 19.6467 892.153 20.1C892.153 20.4067 892.033 20.6533 891.793 20.84C891.553 21.0133 891.219 21.1133 890.793 21.14C890.753 20.5533 890.513 20.0933 890.073 19.76C889.646 19.4133 889.046 19.24 888.273 19.24C887.633 19.24 887.126 19.36 886.753 19.6C886.379 19.84 886.193 20.16 886.193 20.56C886.193 20.9867 886.366 21.3067 886.713 21.52C887.073 21.72 887.679 21.9133 888.533 22.1C889.933 22.38 890.959 22.7667 891.613 23.26C892.279 23.74 892.613 24.4267 892.613 25.32C892.613 26.2267 892.246 26.9333 891.513 27.44C890.779 27.9333 889.746 28.18 888.413 28.18ZM903.21 30.82C903.21 31.7267 902.623 32.18 901.45 32.18V27.3C901.636 27.14 901.776 26.9933 901.87 26.86L901.81 26.76C901.423 27.1733 900.936 27.5133 900.35 27.78C899.776 28.0467 899.196 28.18 898.61 28.18C897.436 28.18 896.49 27.8667 895.77 27.24C895.063 26.6133 894.71 25.7733 894.71 24.72V21.3C894.71 20.6067 894.876 20 895.21 19.48C895.556 18.9467 896.023 18.54 896.61 18.26C897.21 17.9667 897.87 17.82 898.59 17.82C899.896 17.82 900.99 18.3933 901.87 19.54L901.95 19.46L901.55 18.96C901.55 18.5867 901.676 18.3067 901.93 18.12C902.196 17.92 902.623 17.82 903.21 17.82V30.82ZM898.97 19.36C898.17 19.36 897.55 19.5333 897.11 19.88C896.67 20.2267 896.45 20.7267 896.45 21.38V24.64C896.45 25.2667 896.67 25.76 897.11 26.12C897.55 26.4667 898.156 26.64 898.93 26.64C899.636 26.64 900.236 26.4533 900.73 26.08C901.223 25.7067 901.47 25.26 901.47 24.74V21.28C901.47 20.7467 901.23 20.2933 900.75 19.92C900.27 19.5467 899.676 19.36 898.97 19.36ZM914.284 26.7C914.284 27.6867 913.724 28.18 912.604 28.18V26.9C912.724 26.78 912.864 26.6 913.024 26.36L912.944 26.28C912.544 26.8533 912.037 27.3133 911.424 27.66C910.824 28.0067 910.164 28.18 909.444 28.18C908.724 28.18 908.084 28.0267 907.524 27.72C906.977 27.4133 906.55 26.9867 906.244 26.44C905.95 25.8933 905.804 25.28 905.804 24.6V19.1C905.804 18.66 905.95 18.34 906.244 18.14C906.537 17.9267 906.977 17.82 907.564 17.82V24.52C907.564 25.16 907.75 25.6733 908.124 26.06C908.51 26.4467 909.077 26.64 909.824 26.64C910.317 26.64 910.77 26.54 911.184 26.34C911.597 26.1267 911.924 25.8467 912.164 25.5C912.417 25.14 912.544 24.7533 912.544 24.34V19.1C912.544 18.66 912.684 18.34 912.964 18.14C913.257 17.9267 913.697 17.82 914.284 17.82V26.7ZM921.098 28.18C920.284 28.18 919.558 28.0267 918.918 27.72C918.278 27.4 917.778 26.9667 917.418 26.42C917.058 25.86 916.878 25.2333 916.878 24.54V21.58C916.878 20.8733 917.064 20.2333 917.438 19.66C917.824 19.0867 918.338 18.64 918.978 18.32C919.631 17.9867 920.338 17.82 921.098 17.82C921.858 17.82 922.551 17.98 923.178 18.3C923.818 18.62 924.318 19.06 924.678 19.62C925.051 20.18 925.238 20.8133 925.238 21.52V22.8C925.238 23.0133 925.158 23.1933 924.998 23.34C924.838 23.4867 924.644 23.56 924.418 23.56H918.578V24.46C918.578 25.14 918.791 25.6867 919.218 26.1C919.658 26.5133 920.284 26.72 921.098 26.72C921.911 26.72 922.531 26.54 922.958 26.18C923.384 25.82 923.598 25.3333 923.598 24.72C923.998 24.6933 924.331 24.7733 924.598 24.96C924.878 25.1333 925.018 25.3933 925.018 25.74C925.018 26.1667 924.831 26.5667 924.458 26.94C924.098 27.3133 923.618 27.6133 923.018 27.84C922.418 28.0667 921.778 28.18 921.098 28.18ZM923.618 22.2V21.52C923.618 20.8533 923.384 20.3133 922.918 19.9C922.464 19.4733 921.858 19.26 921.098 19.26C920.338 19.26 919.724 19.4733 919.258 19.9C918.804 20.3133 918.578 20.8533 918.578 21.52V22.2H923.618ZM931.206 28.18C930.06 28.18 929.126 27.8667 928.406 27.24C927.7 26.6 927.346 25.7533 927.346 24.7V21.28C927.346 20.6 927.513 20 927.846 19.48C928.18 18.9467 928.64 18.54 929.226 18.26C929.826 17.9667 930.513 17.82 931.286 17.82C931.913 17.82 932.493 17.9533 933.026 18.22C933.56 18.4733 934.026 18.8133 934.426 19.24L934.486 19.14C934.393 19.0067 934.253 18.86 934.066 18.7V15.18C934.066 14.74 934.213 14.4067 934.506 14.18C934.8 13.94 935.24 13.82 935.826 13.82V26.76C935.826 27.2 935.693 27.5467 935.426 27.8C935.173 28.0533 934.76 28.18 934.186 28.18V27.06C934.373 26.82 934.5 26.6467 934.566 26.54L934.506 26.46C934.08 26.9933 933.606 27.4133 933.086 27.72C932.566 28.0267 931.94 28.18 931.206 28.18ZM931.586 26.64C932.293 26.64 932.886 26.46 933.366 26.1C933.846 25.7267 934.086 25.2667 934.086 24.72V21.26C934.086 20.7267 933.86 20.28 933.406 19.92C932.953 19.5467 932.34 19.36 931.566 19.36C930.78 19.36 930.166 19.54 929.726 19.9C929.3 20.2467 929.086 20.7333 929.086 21.36V24.62C929.086 25.2733 929.3 25.7733 929.726 26.12C930.166 26.4667 930.786 26.64 931.586 26.64ZM941.941 28.18C940.794 28.18 939.867 27.8733 939.161 27.26C938.467 26.6467 938.121 25.84 938.121 24.84C938.121 23.8267 938.487 23.0133 939.221 22.4C939.954 21.7733 940.921 21.46 942.121 21.46C943.401 21.46 944.454 21.9133 945.281 22.82L945.361 22.74C945.214 22.58 945.047 22.4133 944.861 22.24V21.4C944.861 20.72 944.647 20.1933 944.221 19.82C943.794 19.4467 943.187 19.26 942.401 19.26C941.001 19.26 940.001 19.8133 939.401 20.92C939.187 20.8133 939.007 20.6733 938.861 20.5C938.727 20.3133 938.661 20.1267 938.661 19.94C938.661 19.58 938.841 19.24 939.201 18.92C939.561 18.5867 940.034 18.32 940.621 18.12C941.221 17.92 941.847 17.82 942.501 17.82C943.767 17.82 944.761 18.1333 945.481 18.76C946.214 19.3867 946.581 20.2533 946.581 21.36V26.84C946.581 27.3067 946.447 27.6467 946.181 27.86C945.914 28.0733 945.494 28.18 944.921 28.18V27.24C945.201 26.9467 945.354 26.7733 945.381 26.72L945.301 26.64C944.434 27.6667 943.314 28.18 941.941 28.18ZM942.241 26.8C943.067 26.8 943.714 26.6267 944.181 26.28C944.661 25.9333 944.901 25.4533 944.901 24.84C944.901 24.2267 944.667 23.74 944.201 23.38C943.734 23.02 943.094 22.84 942.281 22.84C941.521 22.84 940.921 23.02 940.481 23.38C940.054 23.7267 939.841 24.2133 939.841 24.84C939.841 25.4667 940.047 25.9533 940.461 26.3C940.887 26.6333 941.481 26.8 942.241 26.8Z" fill="#A5A5A5"/>
<path d="M1136.84 27.4605L1133.16 23.7852C1134.05 22.6072 1134.53 21.1733 1134.53 19.7C1134.53 15.9367 1131.46 12.875 1127.7 12.875C1123.94 12.875 1120.88 15.9367 1120.88 19.7C1120.88 23.4633 1123.94 26.525 1127.7 26.525C1129.17 26.5266 1130.61 26.0489 1131.79 25.1641L1135.46 28.8395C1135.65 29.0058 1135.89 29.0945 1136.14 29.0876C1136.39 29.0806 1136.63 28.9784 1136.8 28.8019C1136.98 28.6255 1137.08 28.3881 1137.09 28.1387C1137.09 27.8893 1137.01 27.6466 1136.84 27.4605V27.4605ZM1122.83 19.7C1122.83 18.7358 1123.11 17.7933 1123.65 16.9916C1124.18 16.1899 1124.94 15.5651 1125.83 15.1961C1126.73 14.8271 1127.71 14.7306 1128.65 14.9187C1129.6 15.1068 1130.47 15.5711 1131.15 16.2529C1131.83 16.9346 1132.29 17.8033 1132.48 18.7489C1132.67 19.6946 1132.57 20.6748 1132.2 21.5656C1131.83 22.4564 1131.21 23.2177 1130.41 23.7534C1129.61 24.2891 1128.66 24.575 1127.7 24.575C1126.41 24.5735 1125.17 24.0593 1124.25 23.1454C1123.34 22.2315 1122.83 20.9925 1122.83 19.7V19.7Z" fill="#A5A5A5"/>
<rect x="523.5" y="0.5" width="303" height="40" rx="4.5" fill="white" stroke="#A5A5A5"/>
<path d="M536.504 14.88C536.504 14.6267 536.597 14.42 536.784 14.26C536.97 14.0867 537.197 14 537.464 14H546.384C546.384 14.56 546.27 14.9733 546.044 15.24C545.817 15.5067 545.47 15.64 545.004 15.64H538.384V20.02H543.984C543.984 20.58 543.87 20.9933 543.644 21.26C543.417 21.5267 543.07 21.66 542.604 21.66H538.384V26.66C538.384 27.18 538.23 27.5667 537.924 27.82C537.617 28.06 537.144 28.18 536.504 28.18V14.88ZM548.488 16.32C548.114 16.32 547.801 16.2 547.548 15.96C547.294 15.72 547.168 15.42 547.168 15.06C547.168 14.7 547.294 14.4067 547.548 14.18C547.801 13.94 548.114 13.82 548.488 13.82C548.848 13.82 549.154 13.94 549.408 14.18C549.661 14.4067 549.788 14.7 549.788 15.06C549.788 15.42 549.661 15.72 549.408 15.96C549.154 16.2 548.848 16.32 548.488 16.32ZM547.608 19.1C547.608 18.66 547.748 18.34 548.028 18.14C548.321 17.9267 548.761 17.82 549.348 17.82V26.9C549.348 27.34 549.201 27.6667 548.908 27.88C548.628 28.08 548.194 28.18 547.608 28.18V19.1ZM555.497 28.18C554.524 28.18 553.797 27.9133 553.317 27.38C552.837 26.8333 552.597 26.12 552.597 25.24V15.1C552.597 14.66 552.737 14.34 553.017 14.14C553.311 13.9267 553.751 13.82 554.337 13.82V25.18C554.337 25.7 554.444 26.0733 554.657 26.3C554.871 26.5267 555.224 26.64 555.717 26.64C556.211 26.64 556.664 26.52 557.077 26.28C557.251 26.48 557.337 26.7133 557.337 26.98C557.337 27.3 557.171 27.58 556.837 27.82C556.504 28.06 556.057 28.18 555.497 28.18ZM562.105 28.18C561.158 28.18 560.451 27.9133 559.985 27.38C559.518 26.8333 559.285 26.12 559.285 25.24V19.4H557.425C557.425 18.9467 557.525 18.6 557.725 18.36C557.925 18.12 558.198 18 558.545 18H559.305V16.1C559.305 15.66 559.445 15.34 559.725 15.14C560.018 14.9267 560.451 14.82 561.025 14.82V18H563.685C563.685 18.9333 563.265 19.4 562.425 19.4H561.045V25.18C561.045 25.7133 561.138 26.0933 561.325 26.32C561.525 26.5333 561.878 26.64 562.385 26.64C562.851 26.64 563.291 26.52 563.705 26.28C563.878 26.4533 563.965 26.6867 563.965 26.98C563.965 27.3 563.798 27.58 563.465 27.82C563.131 28.06 562.678 28.18 562.105 28.18ZM570.414 19.36C569.667 19.36 569.047 19.5867 568.554 20.04C568.06 20.48 567.814 21.02 567.814 21.66V26.9C567.814 27.34 567.667 27.6667 567.374 27.88C567.094 28.08 566.66 28.18 566.074 28.18V19.3C566.074 18.3133 566.634 17.82 567.754 17.82V19.04C567.54 19.2667 567.394 19.4667 567.314 19.64L567.394 19.72C568.247 18.4533 569.314 17.82 570.594 17.82C571.074 17.82 571.44 17.94 571.694 18.18C571.947 18.4067 572.074 18.6867 572.074 19.02C572.074 19.26 572.014 19.4733 571.894 19.66C571.52 19.46 571.027 19.36 570.414 19.36ZM576.601 28.18C575.454 28.18 574.528 27.8733 573.821 27.26C573.128 26.6467 572.781 25.84 572.781 24.84C572.781 23.8267 573.148 23.0133 573.881 22.4C574.614 21.7733 575.581 21.46 576.781 21.46C578.061 21.46 579.114 21.9133 579.941 22.82L580.021 22.74C579.874 22.58 579.708 22.4133 579.521 22.24V21.4C579.521 20.72 579.308 20.1933 578.881 19.82C578.454 19.4467 577.848 19.26 577.061 19.26C575.661 19.26 574.661 19.8133 574.061 20.92C573.848 20.8133 573.668 20.6733 573.521 20.5C573.388 20.3133 573.321 20.1267 573.321 19.94C573.321 19.58 573.501 19.24 573.861 18.92C574.221 18.5867 574.694 18.32 575.281 18.12C575.881 17.92 576.508 17.82 577.161 17.82C578.428 17.82 579.421 18.1333 580.141 18.76C580.874 19.3867 581.241 20.2533 581.241 21.36V26.84C581.241 27.3067 581.108 27.6467 580.841 27.86C580.574 28.0733 580.154 28.18 579.581 28.18V27.24C579.861 26.9467 580.014 26.7733 580.041 26.72L579.961 26.64C579.094 27.6667 577.974 28.18 576.601 28.18ZM576.901 26.8C577.728 26.8 578.374 26.6267 578.841 26.28C579.321 25.9333 579.561 25.4533 579.561 24.84C579.561 24.2267 579.328 23.74 578.861 23.38C578.394 23.02 577.754 22.84 576.941 22.84C576.181 22.84 575.581 23.02 575.141 23.38C574.714 23.7267 574.501 24.2133 574.501 24.84C574.501 25.4667 574.708 25.9533 575.121 26.3C575.548 26.6333 576.141 26.8 576.901 26.8ZM587.605 28.18C586.458 28.18 585.525 27.8667 584.805 27.24C584.098 26.6 583.745 25.7533 583.745 24.7V21.28C583.745 20.6 583.912 20 584.245 19.48C584.578 18.9467 585.038 18.54 585.625 18.26C586.225 17.9667 586.912 17.82 587.685 17.82C588.312 17.82 588.892 17.9533 589.425 18.22C589.958 18.4733 590.425 18.8133 590.825 19.24L590.885 19.14C590.792 19.0067 590.652 18.86 590.465 18.7V15.18C590.465 14.74 590.612 14.4067 590.905 14.18C591.198 13.94 591.638 13.82 592.225 13.82V26.76C592.225 27.2 592.092 27.5467 591.825 27.8C591.572 28.0533 591.158 28.18 590.585 28.18V27.06C590.772 26.82 590.898 26.6467 590.965 26.54L590.905 26.46C590.478 26.9933 590.005 27.4133 589.485 27.72C588.965 28.0267 588.338 28.18 587.605 28.18ZM587.985 26.64C588.692 26.64 589.285 26.46 589.765 26.1C590.245 25.7267 590.485 25.2667 590.485 24.72V21.26C590.485 20.7267 590.258 20.28 589.805 19.92C589.352 19.5467 588.738 19.36 587.965 19.36C587.178 19.36 586.565 19.54 586.125 19.9C585.698 20.2467 585.485 20.7333 585.485 21.36V24.62C585.485 25.2733 585.698 25.7733 586.125 26.12C586.565 26.4667 587.185 26.64 587.985 26.64ZM598.819 28.18C598.006 28.18 597.266 28.0267 596.599 27.72C595.946 27.4133 595.432 27 595.059 26.48C594.699 25.9467 594.519 25.3533 594.519 24.7V21.42C594.519 20.7533 594.699 20.1467 595.059 19.6C595.432 19.0533 595.946 18.62 596.599 18.3C597.252 17.98 597.992 17.82 598.819 17.82C599.646 17.82 600.386 17.98 601.039 18.3C601.706 18.62 602.219 19.0533 602.579 19.6C602.952 20.1467 603.139 20.7533 603.139 21.42V24.7C603.139 25.3533 602.952 25.9467 602.579 26.48C602.206 27 601.692 27.4133 601.039 27.72C600.386 28.0267 599.646 28.18 598.819 28.18ZM598.819 26.68C599.619 26.68 600.252 26.4933 600.719 26.12C601.199 25.7333 601.439 25.2333 601.439 24.62V21.48C601.439 20.84 601.199 20.32 600.719 19.92C600.252 19.52 599.619 19.32 598.819 19.32C598.032 19.32 597.399 19.52 596.919 19.92C596.439 20.32 596.199 20.84 596.199 21.48V24.62C596.199 25.2333 596.432 25.7333 596.899 26.12C597.379 26.4933 598.019 26.68 598.819 26.68ZM610.605 19.24C610.605 18.8 610.738 18.4533 611.005 18.2C611.285 17.9467 611.705 17.82 612.265 17.82V18.94L611.865 19.46L611.925 19.54C612.338 19.0067 612.812 18.5867 613.345 18.28C613.878 17.9733 614.512 17.82 615.245 17.82C616.392 17.82 617.318 18.14 618.025 18.78C618.732 19.4067 619.085 20.2467 619.085 21.3V24.72C619.085 25.7733 618.718 26.6133 617.985 27.24C617.252 27.8667 616.298 28.18 615.125 28.18C614.498 28.18 613.918 28.0533 613.385 27.8C612.865 27.5333 612.405 27.1867 612.005 26.76L611.945 26.86C612.038 26.9933 612.178 27.14 612.365 27.3V30.82C612.365 31.7267 611.778 32.18 610.605 32.18V19.24ZM614.865 26.64C615.652 26.64 616.265 26.4667 616.705 26.12C617.145 25.76 617.365 25.2667 617.365 24.64V21.38C617.365 20.7267 617.145 20.2267 616.705 19.88C616.265 19.5333 615.645 19.36 614.845 19.36C614.138 19.36 613.545 19.5467 613.065 19.92C612.585 20.28 612.345 20.7333 612.345 21.28V24.74C612.345 25.2733 612.572 25.7267 613.025 26.1C613.478 26.46 614.092 26.64 614.865 26.64ZM625.186 28.18C624.373 28.18 623.633 28.0267 622.966 27.72C622.313 27.4133 621.8 27 621.426 26.48C621.066 25.9467 620.886 25.3533 620.886 24.7V21.42C620.886 20.7533 621.066 20.1467 621.426 19.6C621.8 19.0533 622.313 18.62 622.966 18.3C623.62 17.98 624.36 17.82 625.186 17.82C626.013 17.82 626.753 17.98 627.406 18.3C628.073 18.62 628.586 19.0533 628.946 19.6C629.32 20.1467 629.506 20.7533 629.506 21.42V24.7C629.506 25.3533 629.32 25.9467 628.946 26.48C628.573 27 628.06 27.4133 627.406 27.72C626.753 28.0267 626.013 28.18 625.186 28.18ZM625.186 26.68C625.986 26.68 626.62 26.4933 627.086 26.12C627.566 25.7333 627.806 25.2333 627.806 24.62V21.48C627.806 20.84 627.566 20.32 627.086 19.92C626.62 19.52 625.986 19.32 625.186 19.32C624.4 19.32 623.766 19.52 623.286 19.92C622.806 20.32 622.566 20.84 622.566 21.48V24.62C622.566 25.2333 622.8 25.7333 623.266 26.12C623.746 26.4933 624.386 26.68 625.186 26.68ZM636.156 19.36C635.409 19.36 634.789 19.5867 634.296 20.04C633.803 20.48 633.556 21.02 633.556 21.66V26.9C633.556 27.34 633.409 27.6667 633.116 27.88C632.836 28.08 632.403 28.18 631.816 28.18V19.3C631.816 18.3133 632.376 17.82 633.496 17.82V19.04C633.283 19.2667 633.136 19.4667 633.056 19.64L633.136 19.72C633.989 18.4533 635.056 17.82 636.336 17.82C636.816 17.82 637.183 17.94 637.436 18.18C637.689 18.4067 637.816 18.6867 637.816 19.02C637.816 19.26 637.756 19.4733 637.636 19.66C637.263 19.46 636.769 19.36 636.156 19.36ZM651.778 14C651.898 13.76 652.058 13.58 652.258 13.46C652.471 13.3267 652.704 13.26 652.958 13.26C653.291 13.26 653.624 13.3667 653.958 13.58L646.738 28C646.484 28.48 646.098 28.72 645.578 28.72C645.231 28.72 644.898 28.6067 644.578 28.38L651.778 14ZM661.406 15.44C661.406 14.9333 661.559 14.54 661.866 14.26C662.186 13.9667 662.626 13.82 663.186 13.82L670.946 25.62L671.086 25.5L670.506 24.54V13.82C671.119 13.82 671.579 13.9533 671.886 14.22C672.206 14.4867 672.366 14.8733 672.366 15.38V26.7C672.366 27.1267 672.213 27.48 671.906 27.76C671.613 28.04 671.233 28.18 670.766 28.18L662.826 16.12L662.686 16.24L663.266 17.2V26.62C663.266 27.1267 663.106 27.5133 662.786 27.78C662.479 28.0467 662.019 28.18 661.406 28.18V15.44ZM678.468 28.18C677.654 28.18 676.914 28.0267 676.248 27.72C675.594 27.4133 675.081 27 674.708 26.48C674.348 25.9467 674.168 25.3533 674.168 24.7V21.42C674.168 20.7533 674.348 20.1467 674.708 19.6C675.081 19.0533 675.594 18.62 676.248 18.3C676.901 17.98 677.641 17.82 678.468 17.82C679.294 17.82 680.034 17.98 680.688 18.3C681.354 18.62 681.868 19.0533 682.228 19.6C682.601 20.1467 682.788 20.7533 682.788 21.42V24.7C682.788 25.3533 682.601 25.9467 682.228 26.48C681.854 27 681.341 27.4133 680.688 27.72C680.034 28.0267 679.294 28.18 678.468 28.18ZM678.468 26.68C679.268 26.68 679.901 26.4933 680.368 26.12C680.848 25.7333 681.088 25.2333 681.088 24.62V21.48C681.088 20.84 680.848 20.32 680.368 19.92C679.901 19.52 679.268 19.32 678.468 19.32C677.681 19.32 677.048 19.52 676.568 19.92C676.088 20.32 675.848 20.84 675.848 21.48V24.62C675.848 25.2333 676.081 25.7333 676.548 26.12C677.028 26.4933 677.668 26.68 678.468 26.68ZM685.097 19.3C685.097 18.3133 685.651 17.82 686.757 17.82V19.1C686.584 19.2867 686.444 19.4667 686.337 19.64L686.417 19.72C686.844 19.12 687.297 18.6533 687.777 18.32C688.257 17.9867 688.811 17.82 689.437 17.82C690.651 17.82 691.484 18.4 691.937 19.56C692.697 18.4 693.711 17.82 694.977 17.82C695.924 17.82 696.651 18.14 697.157 18.78C697.677 19.4067 697.937 20.2333 697.937 21.26V26.9C697.937 27.34 697.791 27.6667 697.497 27.88C697.217 28.08 696.791 28.18 696.217 28.18V21.36C696.217 20.72 696.084 20.22 695.817 19.86C695.551 19.5 695.131 19.32 694.557 19.32C693.957 19.32 693.444 19.5267 693.017 19.94C692.591 20.34 692.377 20.88 692.377 21.56V26.9C692.377 27.34 692.237 27.6667 691.957 27.88C691.677 28.08 691.251 28.18 690.677 28.18V21.36C690.677 20.72 690.544 20.22 690.277 19.86C690.011 19.5 689.591 19.32 689.017 19.32C688.404 19.32 687.884 19.54 687.457 19.98C687.031 20.42 686.817 20.96 686.817 21.6V26.9C686.817 27.34 686.671 27.6667 686.377 27.88C686.097 28.08 685.671 28.18 685.097 28.18V19.3ZM700.546 15.18C700.546 14.2733 701.133 13.82 702.306 13.82V18.7C702.106 18.8733 701.966 19.02 701.886 19.14L701.946 19.24C702.346 18.8133 702.833 18.4733 703.406 18.22C703.993 17.9533 704.566 17.82 705.126 17.82C706.313 17.82 707.26 18.1333 707.966 18.76C708.673 19.3867 709.026 20.2267 709.026 21.28V24.7C709.026 25.3667 708.86 25.9667 708.526 26.5C708.206 27.0333 707.753 27.4467 707.166 27.74C706.58 28.0333 705.913 28.18 705.166 28.18C703.86 28.18 702.76 27.6067 701.866 26.46L701.806 26.54C701.886 26.66 702.02 26.8267 702.206 27.04C702.206 27.4267 702.073 27.7133 701.806 27.9C701.54 28.0867 701.12 28.18 700.546 28.18V15.18ZM704.786 26.64C705.6 26.64 706.22 26.4667 706.646 26.12C707.086 25.7733 707.306 25.2733 707.306 24.62V21.36C707.306 20.7333 707.086 20.2467 706.646 19.9C706.206 19.54 705.593 19.36 704.806 19.36C704.113 19.36 703.52 19.5467 703.026 19.92C702.533 20.2933 702.286 20.74 702.286 21.26V24.72C702.286 25.2667 702.526 25.7267 703.006 26.1C703.486 26.46 704.08 26.64 704.786 26.64ZM715.961 19.36C715.214 19.36 714.594 19.5867 714.101 20.04C713.607 20.48 713.361 21.02 713.361 21.66V26.9C713.361 27.34 713.214 27.6667 712.921 27.88C712.641 28.08 712.207 28.18 711.621 28.18V19.3C711.621 18.3133 712.181 17.82 713.301 17.82V19.04C713.087 19.2667 712.941 19.4667 712.861 19.64L712.941 19.72C713.794 18.4533 714.861 17.82 716.141 17.82C716.621 17.82 716.987 17.94 717.241 18.18C717.494 18.4067 717.621 18.6867 717.621 19.02C717.621 19.26 717.561 19.4733 717.441 19.66C717.067 19.46 716.574 19.36 715.961 19.36ZM722.848 28.18C722.034 28.18 721.308 28.0267 720.668 27.72C720.028 27.4 719.528 26.9667 719.168 26.42C718.808 25.86 718.628 25.2333 718.628 24.54V21.58C718.628 20.8733 718.814 20.2333 719.188 19.66C719.574 19.0867 720.088 18.64 720.728 18.32C721.381 17.9867 722.088 17.82 722.848 17.82C723.608 17.82 724.301 17.98 724.928 18.3C725.568 18.62 726.068 19.06 726.428 19.62C726.801 20.18 726.988 20.8133 726.988 21.52V22.8C726.988 23.0133 726.908 23.1933 726.748 23.34C726.588 23.4867 726.394 23.56 726.168 23.56H720.328V24.46C720.328 25.14 720.541 25.6867 720.968 26.1C721.408 26.5133 722.034 26.72 722.848 26.72C723.661 26.72 724.281 26.54 724.708 26.18C725.134 25.82 725.348 25.3333 725.348 24.72C725.748 24.6933 726.081 24.7733 726.348 24.96C726.628 25.1333 726.768 25.3933 726.768 25.74C726.768 26.1667 726.581 26.5667 726.208 26.94C725.848 27.3133 725.368 27.6133 724.768 27.84C724.168 28.0667 723.528 28.18 722.848 28.18ZM725.368 22.2V21.52C725.368 20.8533 725.134 20.3133 724.668 19.9C724.214 19.4733 723.608 19.26 722.848 19.26C722.088 19.26 721.474 19.4733 721.008 19.9C720.554 20.3133 720.328 20.8533 720.328 21.52V22.2H725.368Z" fill="#A5A5A5"/>
<path d="M805.5 27.5L799.005 16.25H811.995L805.5 27.5Z" fill="#A5A5A5"/>
<path d="M6.47133 28.18C5.43133 28.18 4.49133 27.9533 3.65133 27.5C2.82466 27.0467 2.17799 26.42 1.71133 25.62C1.24466 24.8067 1.01133 23.9 1.01133 22.9C1.01133 22.22 1.15133 21.5467 1.43133 20.88C1.71133 20.2 2.11133 19.58 2.63133 19.02L6.97133 14.32C7.26466 13.9867 7.59799 13.82 7.97133 13.82C8.438 13.82 8.84466 14.0133 9.19133 14.4L6.09133 17.76C5.78466 17.8267 5.458 17.9333 5.11133 18.08L5.19133 18.24C5.43133 18.1467 5.71133 18.0667 6.03133 18C6.35133 17.9333 6.638 17.9 6.89133 17.9C7.82466 17.9 8.67799 18.12 9.45133 18.56C10.2247 19 10.8313 19.6 11.2713 20.36C11.7113 21.12 11.9313 21.9667 11.9313 22.9C11.9313 23.9 11.6913 24.8067 11.2113 25.62C10.7447 26.42 10.098 27.0467 9.27133 27.5C8.44466 27.9533 7.51133 28.18 6.47133 28.18ZM6.47133 26.52C7.15133 26.52 7.76466 26.3667 8.31133 26.06C8.87133 25.74 9.30466 25.3067 9.61133 24.76C9.93133 24.2 10.0913 23.58 10.0913 22.9C10.0913 22.22 9.93133 21.6067 9.61133 21.06C9.30466 20.5 8.87133 20.0667 8.31133 19.76C7.76466 19.44 7.15133 19.28 6.47133 19.28C5.79133 19.28 5.178 19.44 4.63133 19.76C4.08466 20.0667 3.65133 20.5 3.33133 21.06C3.02466 21.6067 2.87133 22.22 2.87133 22.9C2.87133 23.58 3.02466 24.2 3.33133 24.76C3.65133 25.3067 4.08466 25.74 4.63133 26.06C5.178 26.3667 5.79133 26.52 6.47133 26.52ZM21.8462 15.64H14.9462C14.4928 15.64 14.1395 15.5 13.8862 15.22C13.6462 14.94 13.5262 14.5333 13.5262 14H23.2462C23.5262 14 23.7462 14.0733 23.9062 14.22C24.0662 14.3667 24.1462 14.56 24.1462 14.8C24.1462 14.96 24.1128 15.1067 24.0462 15.24L17.8662 27.46C17.6262 27.94 17.2595 28.18 16.7662 28.18C16.3528 28.18 15.9862 28.0667 15.6662 27.84L21.8462 15.64ZM31.0179 28.18C30.0046 28.18 29.0979 28.02 28.2979 27.7C27.4979 27.38 26.8712 26.94 26.4179 26.38C25.9646 25.8067 25.7379 25.16 25.7379 24.44C25.7379 23.9333 25.8846 23.5667 26.1779 23.34C26.4846 23.1 26.9512 22.9867 27.5779 23C27.5512 23.3733 27.5379 23.62 27.5379 23.74C27.5379 24.6333 27.8379 25.32 28.4379 25.8C29.0379 26.2667 29.8979 26.5 31.0179 26.5C33.3379 26.5 34.4979 25.7067 34.4979 24.12C34.4979 23.3333 34.2246 22.7333 33.6779 22.32C33.1312 21.8933 32.3379 21.68 31.2979 21.68H30.5979C30.3579 21.68 30.1579 21.6067 29.9979 21.46C29.8512 21.3 29.7779 21.1 29.7779 20.86C29.7779 20.6067 29.8512 20.4067 29.9979 20.26C30.1579 20.1133 30.3579 20.04 30.5979 20.04H31.3179C32.1712 20.04 32.8446 19.8333 33.3379 19.42C33.8446 18.9933 34.0979 18.4267 34.0979 17.72C34.0979 16.9867 33.8446 16.4333 33.3379 16.06C32.8446 15.6867 32.1112 15.5 31.1379 15.5C30.0979 15.5 29.2979 15.6867 28.7379 16.06C28.1912 16.42 27.9179 16.9467 27.9179 17.64C27.9179 17.92 27.9446 18.16 27.9979 18.36C27.4379 18.3867 26.9846 18.28 26.6379 18.04C26.2912 17.8 26.1179 17.4667 26.1179 17.04C26.1179 16.4267 26.3312 15.88 26.7579 15.4C27.1979 14.9067 27.7979 14.52 28.5579 14.24C29.3179 13.96 30.1779 13.82 31.1379 13.82C32.1112 13.82 32.9646 13.98 33.6979 14.3C34.4446 14.62 35.0179 15.0733 35.4179 15.66C35.8179 16.2467 36.0179 16.9333 36.0179 17.72C36.0179 19.0933 35.2912 20.1333 33.8379 20.84C34.7312 21.2 35.3779 21.64 35.7779 22.16C36.1912 22.68 36.3979 23.3333 36.3979 24.12C36.3979 25.3733 35.9179 26.3667 34.9579 27.1C33.9979 27.82 32.6846 28.18 31.0179 28.18ZM43.8551 14.88C43.8551 14.6267 43.9417 14.42 44.1151 14.26C44.3017 14.0867 44.5351 14 44.8151 14H50.3351C51.6284 14 52.6551 14.38 53.4151 15.14C54.1884 15.8867 54.5751 16.8867 54.5751 18.14C54.5751 19.7133 53.8884 20.8267 52.5151 21.48V21.54C53.1151 21.7933 53.5751 22.18 53.8951 22.7C54.2151 23.2067 54.3751 23.8267 54.3751 24.56V26.62C54.3751 27.1267 54.2151 27.5133 53.8951 27.78C53.5751 28.0467 53.1084 28.18 52.4951 28.18V24.68C52.4951 23.8933 52.3151 23.3 51.9551 22.9C51.6084 22.4867 51.0884 22.28 50.3951 22.28H45.7151V26.62C45.7151 27.1267 45.5551 27.5133 45.2351 27.78C44.9284 28.0467 44.4684 28.18 43.8551 28.18V14.88ZM50.2751 20.66C51.0084 20.66 51.5884 20.4333 52.0151 19.98C52.4551 19.5267 52.6751 18.9067 52.6751 18.12C52.6751 17.32 52.4684 16.7067 52.0551 16.28C51.6417 15.8533 51.0484 15.64 50.2751 15.64H45.7151V20.66H50.2751ZM60.6876 28.18C59.8742 28.18 59.1476 28.0267 58.5076 27.72C57.8676 27.4 57.3676 26.9667 57.0076 26.42C56.6476 25.86 56.4676 25.2333 56.4676 24.54V21.58C56.4676 20.8733 56.6542 20.2333 57.0276 19.66C57.4142 19.0867 57.9276 18.64 58.5676 18.32C59.2209 17.9867 59.9276 17.82 60.6876 17.82C61.4476 17.82 62.1409 17.98 62.7676 18.3C63.4076 18.62 63.9076 19.06 64.2676 19.62C64.6409 20.18 64.8276 20.8133 64.8276 21.52V22.8C64.8276 23.0133 64.7476 23.1933 64.5876 23.34C64.4276 23.4867 64.2342 23.56 64.0076 23.56H58.1676V24.46C58.1676 25.14 58.3809 25.6867 58.8076 26.1C59.2476 26.5133 59.8742 26.72 60.6876 26.72C61.5009 26.72 62.1209 26.54 62.5476 26.18C62.9742 25.82 63.1876 25.3333 63.1876 24.72C63.5876 24.6933 63.9209 24.7733 64.1876 24.96C64.4676 25.1333 64.6076 25.3933 64.6076 25.74C64.6076 26.1667 64.4209 26.5667 64.0476 26.94C63.6876 27.3133 63.2076 27.6133 62.6076 27.84C62.0076 28.0667 61.3676 28.18 60.6876 28.18ZM63.2076 22.2V21.52C63.2076 20.8533 62.9742 20.3133 62.5076 19.9C62.0542 19.4733 61.4476 19.26 60.6876 19.26C59.9276 19.26 59.3142 19.4733 58.8476 19.9C58.3942 20.3133 58.1676 20.8533 58.1676 21.52V22.2H63.2076ZM70.7563 28.18C70.0763 28.18 69.4363 28.08 68.8363 27.88C68.2363 27.6667 67.7497 27.3667 67.3763 26.98C67.0163 26.5933 66.8363 26.14 66.8363 25.62C66.8363 24.98 67.223 24.6333 67.9963 24.58C68.1297 25.3267 68.443 25.88 68.9363 26.24C69.443 26.5867 70.083 26.76 70.8563 26.76C71.6297 26.76 72.2297 26.6467 72.6563 26.42C73.083 26.1933 73.2963 25.8467 73.2963 25.38C73.2963 25.0467 73.2097 24.78 73.0363 24.58C72.863 24.3667 72.583 24.1867 72.1963 24.04C71.823 23.88 71.283 23.7267 70.5763 23.58C69.6963 23.38 68.9963 23.1667 68.4763 22.94C67.9563 22.7133 67.5563 22.4133 67.2763 22.04C67.0097 21.6667 66.8763 21.1733 66.8763 20.56C66.8763 20.04 67.0363 19.5733 67.3563 19.16C67.6763 18.7333 68.1163 18.4067 68.6763 18.18C69.2497 17.94 69.8963 17.82 70.6163 17.82C71.283 17.82 71.9097 17.9133 72.4963 18.1C73.0963 18.2867 73.5763 18.5533 73.9363 18.9C74.3097 19.2467 74.4963 19.6467 74.4963 20.1C74.4963 20.4067 74.3763 20.6533 74.1363 20.84C73.8963 21.0133 73.563 21.1133 73.1363 21.14C73.0963 20.5533 72.8563 20.0933 72.4163 19.76C71.9897 19.4133 71.3897 19.24 70.6163 19.24C69.9763 19.24 69.4697 19.36 69.0963 19.6C68.723 19.84 68.5363 20.16 68.5363 20.56C68.5363 20.9867 68.7097 21.3067 69.0563 21.52C69.4163 21.72 70.023 21.9133 70.8763 22.1C72.2763 22.38 73.303 22.7667 73.9563 23.26C74.623 23.74 74.9563 24.4267 74.9563 25.32C74.9563 26.2267 74.5897 26.9333 73.8563 27.44C73.123 27.9333 72.0897 28.18 70.7563 28.18ZM85.5335 26.7C85.5335 27.6867 84.9735 28.18 83.8535 28.18V26.9C83.9735 26.78 84.1135 26.6 84.2735 26.36L84.1935 26.28C83.7935 26.8533 83.2868 27.3133 82.6735 27.66C82.0735 28.0067 81.4135 28.18 80.6935 28.18C79.9735 28.18 79.3335 28.0267 78.7735 27.72C78.2268 27.4133 77.8002 26.9867 77.4935 26.44C77.2002 25.8933 77.0535 25.28 77.0535 24.6V19.1C77.0535 18.66 77.2002 18.34 77.4935 18.14C77.7868 17.9267 78.2268 17.82 78.8135 17.82V24.52C78.8135 25.16 79.0002 25.6733 79.3735 26.06C79.7602 26.4467 80.3268 26.64 81.0735 26.64C81.5668 26.64 82.0202 26.54 82.4335 26.34C82.8468 26.1267 83.1735 25.8467 83.4135 25.5C83.6668 25.14 83.7935 24.7533 83.7935 24.34V19.1C83.7935 18.66 83.9335 18.34 84.2135 18.14C84.5068 17.9267 84.9468 17.82 85.5335 17.82V26.7ZM91.2277 28.18C90.2544 28.18 89.5277 27.9133 89.0477 27.38C88.5677 26.8333 88.3277 26.12 88.3277 25.24V15.1C88.3277 14.66 88.4677 14.34 88.7477 14.14C89.0411 13.9267 89.4811 13.82 90.0677 13.82V25.18C90.0677 25.7 90.1744 26.0733 90.3877 26.3C90.6011 26.5267 90.9544 26.64 91.4477 26.64C91.9411 26.64 92.3944 26.52 92.8077 26.28C92.9811 26.48 93.0677 26.7133 93.0677 26.98C93.0677 27.3 92.9011 27.58 92.5677 27.82C92.2344 28.06 91.7877 28.18 91.2277 28.18ZM97.8351 28.18C96.8884 28.18 96.1817 27.9133 95.7151 27.38C95.2484 26.8333 95.0151 26.12 95.0151 25.24V19.4H93.1551C93.1551 18.9467 93.2551 18.6 93.4551 18.36C93.6551 18.12 93.9284 18 94.2751 18H95.0351V16.1C95.0351 15.66 95.1751 15.34 95.4551 15.14C95.7484 14.9267 96.1817 14.82 96.7551 14.82V18H99.4151C99.4151 18.9333 98.9951 19.4 98.1551 19.4H96.7751V25.18C96.7751 25.7133 96.8684 26.0933 97.0551 26.32C97.2551 26.5333 97.6084 26.64 98.1151 26.64C98.5817 26.64 99.0217 26.52 99.4351 26.28C99.6084 26.4533 99.6951 26.6867 99.6951 26.98C99.6951 27.3 99.5284 27.58 99.1951 27.82C98.8617 28.06 98.4084 28.18 97.8351 28.18ZM104.831 28.18C103.685 28.18 102.758 27.8733 102.051 27.26C101.358 26.6467 101.011 25.84 101.011 24.84C101.011 23.8267 101.378 23.0133 102.111 22.4C102.845 21.7733 103.811 21.46 105.011 21.46C106.291 21.46 107.345 21.9133 108.171 22.82L108.251 22.74C108.105 22.58 107.938 22.4133 107.751 22.24V21.4C107.751 20.72 107.538 20.1933 107.111 19.82C106.685 19.4467 106.078 19.26 105.291 19.26C103.891 19.26 102.891 19.8133 102.291 20.92C102.078 20.8133 101.898 20.6733 101.751 20.5C101.618 20.3133 101.551 20.1267 101.551 19.94C101.551 19.58 101.731 19.24 102.091 18.92C102.451 18.5867 102.925 18.32 103.511 18.12C104.111 17.92 104.738 17.82 105.391 17.82C106.658 17.82 107.651 18.1333 108.371 18.76C109.105 19.3867 109.471 20.2533 109.471 21.36V26.84C109.471 27.3067 109.338 27.6467 109.071 27.86C108.805 28.0733 108.385 28.18 107.811 28.18V27.24C108.091 26.9467 108.245 26.7733 108.271 26.72L108.191 26.64C107.325 27.6667 106.205 28.18 104.831 28.18ZM105.131 26.8C105.958 26.8 106.605 26.6267 107.071 26.28C107.551 25.9333 107.791 25.4533 107.791 24.84C107.791 24.2267 107.558 23.74 107.091 23.38C106.625 23.02 105.985 22.84 105.171 22.84C104.411 22.84 103.811 23.02 103.371 23.38C102.945 23.7267 102.731 24.2133 102.731 24.84C102.731 25.4667 102.938 25.9533 103.351 26.3C103.778 26.6333 104.371 26.8 105.131 26.8ZM115.835 28.18C114.689 28.18 113.755 27.8667 113.035 27.24C112.329 26.6 111.975 25.7533 111.975 24.7V21.28C111.975 20.6 112.142 20 112.475 19.48C112.809 18.9467 113.269 18.54 113.855 18.26C114.455 17.9667 115.142 17.82 115.915 17.82C116.542 17.82 117.122 17.9533 117.655 18.22C118.189 18.4733 118.655 18.8133 119.055 19.24L119.115 19.14C119.022 19.0067 118.882 18.86 118.695 18.7V15.18C118.695 14.74 118.842 14.4067 119.135 14.18C119.429 13.94 119.869 13.82 120.455 13.82V26.76C120.455 27.2 120.322 27.5467 120.055 27.8C119.802 28.0533 119.389 28.18 118.815 28.18V27.06C119.002 26.82 119.129 26.6467 119.195 26.54L119.135 26.46C118.709 26.9933 118.235 27.4133 117.715 27.72C117.195 28.0267 116.569 28.18 115.835 28.18ZM116.215 26.64C116.922 26.64 117.515 26.46 117.995 26.1C118.475 25.7267 118.715 25.2667 118.715 24.72V21.26C118.715 20.7267 118.489 20.28 118.035 19.92C117.582 19.5467 116.969 19.36 116.195 19.36C115.409 19.36 114.795 19.54 114.355 19.9C113.929 20.2467 113.715 20.7333 113.715 21.36V24.62C113.715 25.2733 113.929 25.7733 114.355 26.12C114.795 26.4667 115.415 26.64 116.215 26.64ZM127.05 28.18C126.236 28.18 125.496 28.0267 124.83 27.72C124.176 27.4133 123.663 27 123.29 26.48C122.93 25.9467 122.75 25.3533 122.75 24.7V21.42C122.75 20.7533 122.93 20.1467 123.29 19.6C123.663 19.0533 124.176 18.62 124.83 18.3C125.483 17.98 126.223 17.82 127.05 17.82C127.876 17.82 128.616 17.98 129.27 18.3C129.936 18.62 130.45 19.0533 130.81 19.6C131.183 20.1467 131.37 20.7533 131.37 21.42V24.7C131.37 25.3533 131.183 25.9467 130.81 26.48C130.436 27 129.923 27.4133 129.27 27.72C128.616 28.0267 127.876 28.18 127.05 28.18ZM127.05 26.68C127.85 26.68 128.483 26.4933 128.95 26.12C129.43 25.7333 129.67 25.2333 129.67 24.62V21.48C129.67 20.84 129.43 20.32 128.95 19.92C128.483 19.52 127.85 19.32 127.05 19.32C126.263 19.32 125.63 19.52 125.15 19.92C124.67 20.32 124.43 20.84 124.43 21.48V24.62C124.43 25.2333 124.663 25.7333 125.13 26.12C125.61 26.4933 126.25 26.68 127.05 26.68ZM136.791 28.18C136.111 28.18 135.471 28.08 134.871 27.88C134.271 27.6667 133.785 27.3667 133.411 26.98C133.051 26.5933 132.871 26.14 132.871 25.62C132.871 24.98 133.258 24.6333 134.031 24.58C134.165 25.3267 134.478 25.88 134.971 26.24C135.478 26.5867 136.118 26.76 136.891 26.76C137.665 26.76 138.265 26.6467 138.691 26.42C139.118 26.1933 139.331 25.8467 139.331 25.38C139.331 25.0467 139.245 24.78 139.071 24.58C138.898 24.3667 138.618 24.1867 138.231 24.04C137.858 23.88 137.318 23.7267 136.611 23.58C135.731 23.38 135.031 23.1667 134.511 22.94C133.991 22.7133 133.591 22.4133 133.311 22.04C133.045 21.6667 132.911 21.1733 132.911 20.56C132.911 20.04 133.071 19.5733 133.391 19.16C133.711 18.7333 134.151 18.4067 134.711 18.18C135.285 17.94 135.931 17.82 136.651 17.82C137.318 17.82 137.945 17.9133 138.531 18.1C139.131 18.2867 139.611 18.5533 139.971 18.9C140.345 19.2467 140.531 19.6467 140.531 20.1C140.531 20.4067 140.411 20.6533 140.171 20.84C139.931 21.0133 139.598 21.1133 139.171 21.14C139.131 20.5533 138.891 20.0933 138.451 19.76C138.025 19.4133 137.425 19.24 136.651 19.24C136.011 19.24 135.505 19.36 135.131 19.6C134.758 19.84 134.571 20.16 134.571 20.56C134.571 20.9867 134.745 21.3067 135.091 21.52C135.451 21.72 136.058 21.9133 136.911 22.1C138.311 22.38 139.338 22.7667 139.991 23.26C140.658 23.74 140.991 24.4267 140.991 25.32C140.991 26.2267 140.625 26.9333 139.891 27.44C139.158 27.9333 138.125 28.18 136.791 28.18Z" fill="#A5A5A5"/>
</svg>
