<svg width="151" height="42" viewBox="0 0 151 42" fill="none" xmlns="http://www.w3.org/2000/svg">
  <path d="M77.652 15.108C77.652 14.6227 77.8293 14.2213 78.184 13.904C78.5387 13.568 78.9867 13.4 79.528 13.4H87.004C89.02 13.4 90.5787 13.932 91.68 14.996C92.8 16.06 93.36 17.5533 93.36 19.476C93.36 20.5773 93.136 21.5107 92.688 22.276C92.24 23.0227 91.5587 23.62 90.644 24.068V24.152C92.2867 24.88 93.108 26.2613 93.108 28.296V30.48C93.108 31.376 92.7907 32.0667 92.156 32.552C91.5213 33.0187 90.588 33.252 89.356 33.252V28.464C89.356 27.4747 89.16 26.7467 88.768 26.28C88.376 25.8133 87.7787 25.58 86.976 25.58H81.348V30.48C81.348 31.3947 81.0307 32.0853 80.396 32.552C79.78 33.0187 78.8653 33.252 77.652 33.252V15.108ZM86.808 22.388C87.704 22.388 88.3947 22.136 88.88 21.632C89.3653 21.1093 89.608 20.3813 89.608 19.448C89.608 17.544 88.6747 16.592 86.808 16.592H81.348V22.388H86.808ZM108.786 30.536C108.786 31.4133 108.506 32.0853 107.946 32.552C107.405 33.0187 106.574 33.252 105.454 33.252V31.572C105.697 31.292 105.921 30.984 106.126 30.648L105.958 30.536C104.764 32.3467 103.158 33.252 101.142 33.252C100.19 33.252 99.3318 33.0373 98.5665 32.608C97.8198 32.16 97.2225 31.544 96.7745 30.76C96.3451 29.976 96.1305 29.0893 96.1305 28.1V20.876C96.1305 20.1107 96.4105 19.5693 96.9705 19.252C97.5491 18.916 98.4265 18.748 99.6025 18.748V27.848C99.6025 28.576 99.8265 29.1547 100.274 29.584C100.722 30.0133 101.366 30.228 102.206 30.228C103.14 30.228 103.886 29.9387 104.446 29.36C105.025 28.7627 105.314 28.0253 105.314 27.148V20.876C105.314 20.1107 105.594 19.5693 106.154 19.252C106.714 18.916 107.592 18.748 108.786 18.748V30.536ZM118.222 33.252C116.71 33.252 115.59 32.8133 114.862 31.936C114.134 31.0587 113.77 29.9293 113.77 28.548V21.604H110.886C110.886 20.7267 111.054 20.0733 111.39 19.644C111.726 19.2147 112.174 19 112.734 19H113.826V16.676C113.826 15.9107 114.106 15.3693 114.666 15.052C115.226 14.716 116.076 14.548 117.214 14.548V19H120.938C120.938 19.9333 120.761 20.6053 120.406 21.016C120.052 21.408 119.482 21.604 118.698 21.604H117.27V28.408C117.27 29.0613 117.392 29.528 117.634 29.808C117.896 30.088 118.334 30.228 118.95 30.228C119.604 30.228 120.257 30.0507 120.91 29.696C121.097 29.864 121.246 30.0787 121.358 30.34C121.47 30.5827 121.526 30.8347 121.526 31.096C121.526 31.656 121.237 32.16 120.658 32.608C120.08 33.0373 119.268 33.252 118.222 33.252ZM127.964 33.252C127.012 33.252 126.135 33.0653 125.332 32.692C124.548 32.3187 123.913 31.7867 123.428 31.096C122.961 30.3867 122.728 29.5467 122.728 28.576C122.728 27.6053 122.98 26.7653 123.484 26.056C123.988 25.328 124.669 24.7773 125.528 24.404C126.405 24.012 127.367 23.816 128.412 23.816C129.271 23.816 130.036 23.956 130.708 24.236C131.399 24.4973 132.033 24.8987 132.612 25.44L132.752 25.3C132.584 25.132 132.295 24.88 131.884 24.544V23.984C131.884 23.2187 131.613 22.612 131.072 22.164C130.531 21.716 129.775 21.492 128.804 21.492C127.068 21.492 125.789 22.1267 124.968 23.396C124.557 23.2653 124.212 23.06 123.932 22.78C123.652 22.4813 123.512 22.164 123.512 21.828C123.512 21.268 123.764 20.7547 124.268 20.288C124.772 19.8213 125.453 19.448 126.312 19.168C127.171 18.888 128.104 18.748 129.112 18.748C131.091 18.748 132.621 19.2147 133.704 20.148C134.787 21.0627 135.328 22.3133 135.328 23.9V30.9C135.328 31.7213 135.067 32.3187 134.544 32.692C134.021 33.0653 133.2 33.252 132.08 33.252V32.104C132.397 31.7867 132.612 31.5533 132.724 31.404L132.612 31.264C131.996 31.9173 131.333 32.412 130.624 32.748C129.933 33.084 129.047 33.252 127.964 33.252ZM128.86 30.704C129.831 30.704 130.587 30.5173 131.128 30.144C131.669 29.7707 131.94 29.2387 131.94 28.548C131.94 27.876 131.66 27.344 131.1 26.952C130.559 26.56 129.821 26.364 128.888 26.364C128.029 26.364 127.348 26.56 126.844 26.952C126.359 27.3253 126.116 27.8573 126.116 28.548C126.116 29.2573 126.359 29.7987 126.844 30.172C127.329 30.5267 128.001 30.704 128.86 30.704ZM143.738 33.252C141.946 33.252 140.5 32.9347 139.398 32.3C138.316 31.6467 137.765 30.7787 137.746 29.696C137.746 29.2293 137.933 28.8373 138.306 28.52C138.698 28.2027 139.314 28.0347 140.154 28.016C140.322 28.8373 140.714 29.472 141.33 29.92C141.946 30.3493 142.693 30.564 143.57 30.564C144.522 30.564 145.269 30.4427 145.81 30.2C146.352 29.9573 146.622 29.5933 146.622 29.108C146.622 28.66 146.398 28.2867 145.95 27.988C145.521 27.6893 144.662 27.3907 143.374 27.092C141.974 26.756 140.882 26.42 140.098 26.084C139.333 25.748 138.764 25.3187 138.39 24.796C138.017 24.2733 137.83 23.5827 137.83 22.724C137.83 21.5293 138.334 20.568 139.342 19.84C140.35 19.112 141.732 18.748 143.486 18.748C145.185 18.748 146.594 19.056 147.714 19.672C148.834 20.2693 149.394 21.072 149.394 22.08C149.394 22.584 149.208 22.9573 148.834 23.2C148.461 23.4427 147.845 23.5733 146.986 23.592C146.8 22.8453 146.445 22.2853 145.922 21.912C145.4 21.5387 144.662 21.352 143.71 21.352C143.001 21.352 142.385 21.4733 141.862 21.716C141.358 21.9587 141.106 22.276 141.106 22.668C141.106 23.0787 141.321 23.396 141.75 23.62C142.18 23.844 142.926 24.068 143.99 24.292C146.081 24.74 147.593 25.3373 148.526 26.084C149.478 26.8307 149.954 27.848 149.954 29.136C149.954 30.3867 149.394 31.3853 148.274 32.132C147.173 32.8787 145.661 33.252 143.738 33.252Z"
        fill="#B1B1B1"/>
  <path fill-rule="evenodd" clip-rule="evenodd"
        d="M13.6586 37.6743C12.8349 40.0209 10.6124 41.7021 8 41.7021C4.68629 41.7021 2 38.9972 2 35.6604C2 32.3237 4.68629 29.6187 8 29.6187C10.6124 29.6187 12.8349 31.2999 13.6586 33.6465H31C33.7614 33.6465 36 31.3924 36 28.6117C36 25.8311 33.7614 23.577 31 23.577H9C4.02944 23.577 0 19.5195 0 14.5144C0 9.5093 4.02944 5.45185 9 5.45185H15.1716L12.5858 2.84809L15.4142 0L22.8284 7.46576L15.4142 14.9315L12.5858 12.0834L15.1716 9.47966H9C6.23858 9.47966 4 11.7338 4 14.5144C4 17.295 6.23858 19.5492 9 19.5492H31C35.9706 19.5492 40 23.6066 40 28.6117C40 33.6169 35.9706 37.6743 31 37.6743H13.6586ZM8 33.6465C6.89543 33.6465 6 34.5482 6 35.6604C6 36.7727 6.89543 37.6743 8 37.6743C9.10457 37.6743 10 36.7727 10 35.6604C10 34.5482 9.10457 33.6465 8 33.6465ZM32 1.42405C35.3137 1.42405 38 4.12901 38 7.46576C38 10.8025 35.3137 13.5075 32 13.5075C28.6863 13.5075 26 10.8025 26 7.46576C26 4.12901 28.6863 1.42405 32 1.42405ZM32 5.45185C30.8954 5.45185 30 6.35351 30 7.46576C30 8.57801 30.8954 9.47966 32 9.47966C33.1046 9.47966 34 8.57801 34 7.46576C34 6.35351 33.1046 5.45185 32 5.45185Z"
        fill="#B1B1B1"/>
</svg>
