<svg width="145" height="37" viewBox="0 0 145 37" fill="none" xmlns="http://www.w3.org/2000/svg">
  <path d="M78.212 12.948C78.212 12.0707 78.5387 11.3893 79.192 10.904C79.8453 10.4 80.7693 10.148 81.964 10.148V27.452C81.964 28.348 81.6373 29.0387 80.984 29.524C80.3307 30.0093 79.4067 30.252 78.212 30.252V12.948ZM85.8004 18.436C85.8004 17.5773 86.0711 16.9147 86.6124 16.448C87.1724 15.9813 88.0124 15.748 89.1324 15.748V17.428C88.9084 17.6893 88.6844 17.988 88.4604 18.324L88.6284 18.436C89.1884 17.596 89.9071 16.9427 90.7844 16.476C91.6618 15.9907 92.6324 15.748 93.6964 15.748C94.6484 15.748 95.4884 15.9627 96.2164 16.392C96.9444 16.8213 97.5044 17.4093 97.8964 18.156C98.3071 18.9027 98.5124 19.7427 98.5124 20.676V28.124C98.5124 28.8707 98.2231 29.412 97.6444 29.748C97.0658 30.084 96.1884 30.252 95.0124 30.252V21.18C95.0124 20.4707 94.7978 19.892 94.3684 19.444C93.9578 18.996 93.3511 18.772 92.5484 18.772C91.5964 18.772 90.8124 19.0707 90.1964 19.668C89.5804 20.2467 89.2724 20.9747 89.2724 21.852V28.124C89.2724 28.8707 88.9924 29.412 88.4324 29.748C87.8724 30.084 86.9951 30.252 85.8004 30.252V18.436ZM103.956 14.432C103.284 14.432 102.724 14.236 102.276 13.844C101.847 13.4333 101.632 12.9107 101.632 12.276C101.632 11.66 101.847 11.156 102.276 10.764C102.724 10.3533 103.284 10.148 103.956 10.148C104.628 10.148 105.179 10.3533 105.608 10.764C106.056 11.156 106.28 11.66 106.28 12.276C106.28 12.9107 106.056 13.4333 105.608 13.844C105.179 14.236 104.628 14.432 103.956 14.432ZM102.192 17.876C102.192 17.1107 102.482 16.5693 103.06 16.252C103.639 15.916 104.516 15.748 105.692 15.748V28.124C105.692 28.8707 105.403 29.412 104.824 29.748C104.246 30.084 103.368 30.252 102.192 30.252V17.876ZM115.61 30.252C114.396 30.252 113.323 30.0373 112.39 29.608C111.456 29.16 110.728 28.544 110.206 27.76C109.683 26.976 109.422 26.0893 109.422 25.1V21.18C109.422 20.116 109.683 19.1733 110.206 18.352C110.728 17.5307 111.456 16.896 112.39 16.448C113.323 15.9813 114.387 15.748 115.582 15.748C116.702 15.748 117.691 15.9067 118.55 16.224C119.427 16.5413 120.108 16.9893 120.594 17.568C121.079 18.128 121.322 18.7813 121.322 19.528C121.322 20.1067 121.098 20.5733 120.65 20.928C120.202 21.2827 119.614 21.46 118.886 21.46C118.68 21.46 118.531 21.4507 118.438 21.432C118.438 20.6293 118.176 19.9853 117.654 19.5C117.15 19.0147 116.487 18.772 115.666 18.772C114.844 18.772 114.172 19.0053 113.65 19.472C113.146 19.9387 112.894 20.5547 112.894 21.32V24.848C112.894 25.5573 113.155 26.136 113.678 26.584C114.2 27.0133 114.872 27.228 115.694 27.228C116.515 27.228 117.187 26.9853 117.71 26.5C118.232 25.996 118.494 25.3613 118.494 24.596C118.606 24.5773 118.764 24.568 118.97 24.568C119.698 24.568 120.286 24.736 120.734 25.072C121.182 25.408 121.406 25.8653 121.406 26.444C121.406 27.1907 121.154 27.8533 120.65 28.432C120.164 28.992 119.483 29.44 118.606 29.776C117.728 30.0933 116.73 30.252 115.61 30.252ZM126.406 14.432C125.734 14.432 125.174 14.236 124.726 13.844C124.296 13.4333 124.082 12.9107 124.082 12.276C124.082 11.66 124.296 11.156 124.726 10.764C125.174 10.3533 125.734 10.148 126.406 10.148C127.078 10.148 127.628 10.3533 128.058 10.764C128.506 11.156 128.73 11.66 128.73 12.276C128.73 12.9107 128.506 13.4333 128.058 13.844C127.628 14.236 127.078 14.432 126.406 14.432ZM124.642 17.876C124.642 17.1107 124.931 16.5693 125.51 16.252C126.088 15.916 126.966 15.748 128.142 15.748V28.124C128.142 28.8707 127.852 29.412 127.274 29.748C126.695 30.084 125.818 30.252 124.642 30.252V17.876ZM137.18 30.252C135.966 30.252 134.865 30.0373 133.876 29.608C132.905 29.16 132.14 28.544 131.58 27.76C131.02 26.976 130.74 26.0893 130.74 25.1V21.152C130.74 20.144 131.01 19.2293 131.552 18.408C132.112 17.5867 132.877 16.9427 133.848 16.476C134.818 15.9907 135.929 15.748 137.18 15.748C138.43 15.748 139.541 15.9907 140.512 16.476C141.501 16.9427 142.266 17.5867 142.808 18.408C143.368 19.2293 143.648 20.144 143.648 21.152V25.1C143.648 26.0893 143.358 26.976 142.78 27.76C142.22 28.544 141.445 29.16 140.456 29.608C139.485 30.0373 138.393 30.252 137.18 30.252ZM137.18 27.256C138.113 27.256 138.841 27.0413 139.364 26.612C139.905 26.1827 140.176 25.604 140.176 24.876V21.32C140.176 20.5547 139.905 19.9387 139.364 19.472C138.841 18.9867 138.113 18.744 137.18 18.744C136.265 18.744 135.537 18.9867 134.996 19.472C134.454 19.9387 134.184 20.5547 134.184 21.32V24.876C134.184 25.604 134.454 26.1827 134.996 26.612C135.537 27.0413 136.265 27.256 137.18 27.256Z"
        fill="#B1B1B1"/>
  <path d="M36.6667 18.472C36.5205 18.4727 36.3755 18.4482 36.2402 18.3998C36.1048 18.3514 35.9817 18.2801 35.8778 18.19L20.0001 4.28723L4.12229 18.19C3.90974 18.3493 3.63632 18.4325 3.35668 18.4231C3.07704 18.4136 2.81177 18.3122 2.61389 18.139C2.41601 17.9659 2.30008 17.7338 2.28928 17.4891C2.27848 17.2444 2.3736 17.0052 2.55563 16.8192L19.2223 2.23584C19.4305 2.05476 19.7121 1.95313 20.0056 1.95312C20.2992 1.95312 20.5808 2.05476 20.789 2.23584L37.4556 16.8192C37.6085 16.9557 37.7121 17.1285 37.7533 17.3162C37.7945 17.5039 37.7716 17.6981 37.6874 17.8744C37.6033 18.0508 37.4615 18.2015 37.28 18.3078C37.0985 18.4141 36.8852 18.4712 36.6667 18.472Z"
        fill="#B1B1B1"/>
  <path d="M20 7.57227L6.66663 19.2778V31.1098C6.66663 31.6255 6.90075 32.12 7.3175 32.4847C7.73425 32.8493 8.29948 33.0542 8.88885 33.0542H16.6666V23.332H23.3333V33.0542H31.1111C31.7004 33.0542 32.2657 32.8493 32.6824 32.4847C33.0992 32.12 33.3333 31.6255 33.3333 31.1098V19.2098L20 7.57227Z"
        fill="#B1B1B1"/>
</svg>
