<svg width="188" height="47" viewBox="0 0 188 47" fill="none" xmlns="http://www.w3.org/2000/svg">
  <path d="M30.8436 23.5C28.9563 23.5 27.1314 22.6573 25.703 21.128C24.3141 19.6363 23.4659 17.647 23.3163 15.5284C23.1566 13.2683 23.846 11.19 25.2569 9.67539C26.6678 8.16074 28.6405 7.34375 30.8436 7.34375C33.0312 7.34375 35.0094 8.17543 36.4157 9.68641C37.8358 11.2121 38.527 13.2867 38.3673 15.5274C38.214 17.6489 37.3667 19.6372 35.9806 21.1271C34.5559 22.6573 32.7319 23.5 30.8436 23.5ZM42.9452 39.6563H18.743C18.3539 39.6583 17.9695 39.5711 17.6193 39.4013C17.2692 39.2315 16.9627 38.9836 16.7234 38.6768C16.4696 38.3441 16.2944 37.9584 16.2107 37.5484C16.1271 37.1384 16.1373 36.7148 16.2406 36.3093C17.0135 33.2057 18.9284 30.6317 21.7778 28.8664C24.3068 27.3004 27.5261 26.4375 30.8436 26.4375C34.2264 26.4375 37.3612 27.2637 39.9049 28.8288C42.7607 30.5849 44.6784 33.1736 45.4476 36.3148C45.5496 36.7206 45.5587 37.1442 45.4741 37.554C45.3896 37.9637 45.2136 38.3491 44.9593 38.6814C44.7202 38.9868 44.4144 39.2335 44.0653 39.4024C43.7162 39.5714 43.3331 39.6582 42.9452 39.6563V39.6563ZM13.494 23.8672C10.2637 23.8672 7.42351 20.8636 7.16005 17.1724C7.0297 15.2814 7.61904 13.5327 8.8124 12.2503C9.9929 10.9807 11.6581 10.2813 13.494 10.2813C15.33 10.2813 16.9823 10.9844 18.1692 12.2613C19.3718 13.5538 19.9593 15.2989 19.8216 17.1743C19.5581 20.8645 16.7189 23.8672 13.494 23.8672ZM19.5214 26.7542C17.9067 25.9647 15.811 25.57 13.495 25.57C10.7906 25.57 8.16431 26.275 6.09888 27.5547C3.75714 29.0078 2.18191 31.1237 1.54575 33.6784C1.45266 34.0459 1.44385 34.4296 1.52 34.801C1.59614 35.1723 1.75526 35.5216 1.98546 35.8228C2.20389 36.1032 2.48372 36.3298 2.80343 36.4851C3.12315 36.6404 3.47422 36.7204 3.82966 36.7188H14.0191C14.1911 36.7187 14.3576 36.6583 14.4896 36.5481C14.6217 36.4379 14.7108 36.2849 14.7416 36.1156C14.7517 36.0578 14.7645 36 14.7792 35.9431C15.5576 32.8165 17.3816 30.1746 20.0768 28.2487C20.1759 28.1772 20.2556 28.0821 20.3088 27.9721C20.3619 27.862 20.3867 27.7405 20.3809 27.6184C20.3752 27.4963 20.3391 27.3776 20.2759 27.2731C20.2127 27.1685 20.1244 27.0813 20.019 27.0195C19.8748 26.935 19.7096 26.846 19.5214 26.7542V26.7542Z"
        fill="#B1B1B1"/>
  <path d="M77.652 17.616C77.652 16.7013 77.96 15.9827 78.576 15.46C79.192 14.9187 80.0227 14.648 81.068 14.648L90.532 29.432L90.812 29.208L89.664 27.304V14.648C90.8773 14.648 91.792 14.8813 92.408 15.348C93.0427 15.8147 93.36 16.5053 93.36 17.42V32.204C93.36 32.8947 93.0613 33.492 92.464 33.996C91.8853 34.5 91.2133 34.752 90.448 34.752L80.48 19.156L80.2 19.408L81.348 21.312V31.98C81.348 32.8947 81.0307 33.5853 80.396 34.052C79.78 34.5187 78.8653 34.752 77.652 34.752V17.616ZM101.77 34.752C100.556 34.752 99.455 34.5373 98.4656 34.108C97.495 33.66 96.7296 33.044 96.1696 32.26C95.6096 31.476 95.3296 30.5893 95.3296 29.6V25.652C95.3296 24.644 95.6003 23.7293 96.1416 22.908C96.7016 22.0867 97.467 21.4427 98.4376 20.976C99.4083 20.4907 100.519 20.248 101.77 20.248C103.02 20.248 104.131 20.4907 105.102 20.976C106.091 21.4427 106.856 22.0867 107.398 22.908C107.958 23.7293 108.238 24.644 108.238 25.652V29.6C108.238 30.5893 107.948 31.476 107.37 32.26C106.81 33.044 106.035 33.66 105.046 34.108C104.075 34.5373 102.983 34.752 101.77 34.752ZM101.77 31.756C102.703 31.756 103.431 31.5413 103.954 31.112C104.495 30.6827 104.766 30.104 104.766 29.376V25.82C104.766 25.0547 104.495 24.4387 103.954 23.972C103.431 23.4867 102.703 23.244 101.77 23.244C100.855 23.244 100.127 23.4867 99.5856 23.972C99.0443 24.4387 98.7736 25.0547 98.7736 25.82V29.376C98.7736 30.104 99.0443 30.6827 99.5856 31.112C100.127 31.5413 100.855 31.756 101.77 31.756ZM115.93 34.752C114.138 34.752 112.691 34.4347 111.59 33.8C110.507 33.1467 109.956 32.2787 109.938 31.196C109.938 30.7293 110.124 30.3373 110.498 30.02C110.89 29.7027 111.506 29.5347 112.346 29.516C112.514 30.3373 112.906 30.972 113.522 31.42C114.138 31.8493 114.884 32.064 115.762 32.064C116.714 32.064 117.46 31.9427 118.002 31.7C118.543 31.4573 118.814 31.0933 118.814 30.608C118.814 30.16 118.59 29.7867 118.142 29.488C117.712 29.1893 116.854 28.8907 115.566 28.592C114.166 28.256 113.074 27.92 112.29 27.584C111.524 27.248 110.955 26.8187 110.582 26.296C110.208 25.7733 110.022 25.0827 110.022 24.224C110.022 23.0293 110.526 22.068 111.534 21.34C112.542 20.612 113.923 20.248 115.678 20.248C117.376 20.248 118.786 20.556 119.906 21.172C121.026 21.7693 121.586 22.572 121.586 23.58C121.586 24.084 121.399 24.4573 121.026 24.7C120.652 24.9427 120.036 25.0733 119.178 25.092C118.991 24.3453 118.636 23.7853 118.114 23.412C117.591 23.0387 116.854 22.852 115.902 22.852C115.192 22.852 114.576 22.9733 114.054 23.216C113.55 23.4587 113.298 23.776 113.298 24.168C113.298 24.5787 113.512 24.896 113.942 25.12C114.371 25.344 115.118 25.568 116.182 25.792C118.272 26.24 119.784 26.8373 120.718 27.584C121.67 28.3307 122.146 29.348 122.146 30.636C122.146 31.8867 121.586 32.8853 120.466 33.632C119.364 34.3787 117.852 34.752 115.93 34.752ZM129.797 34.752C128.584 34.752 127.482 34.5373 126.493 34.108C125.522 33.66 124.757 33.044 124.197 32.26C123.637 31.476 123.357 30.5893 123.357 29.6V25.652C123.357 24.644 123.628 23.7293 124.169 22.908C124.729 22.0867 125.494 21.4427 126.465 20.976C127.436 20.4907 128.546 20.248 129.797 20.248C131.048 20.248 132.158 20.4907 133.129 20.976C134.118 21.4427 134.884 22.0867 135.425 22.908C135.985 23.7293 136.265 24.644 136.265 25.652V29.6C136.265 30.5893 135.976 31.476 135.397 32.26C134.837 33.044 134.062 33.66 133.073 34.108C132.102 34.5373 131.01 34.752 129.797 34.752ZM129.797 31.756C130.73 31.756 131.458 31.5413 131.981 31.112C132.522 30.6827 132.793 30.104 132.793 29.376V25.82C132.793 25.0547 132.522 24.4387 131.981 23.972C131.458 23.4867 130.73 23.244 129.797 23.244C128.882 23.244 128.154 23.4867 127.613 23.972C127.072 24.4387 126.801 25.0547 126.801 25.82V29.376C126.801 30.104 127.072 30.6827 127.613 31.112C128.154 31.5413 128.882 31.756 129.797 31.756ZM144.527 34.752C143.015 34.752 141.895 34.3133 141.167 33.436C140.439 32.5587 140.075 31.4293 140.075 30.048V23.104H137.191C137.191 22.2267 137.359 21.5733 137.695 21.144C138.031 20.7147 138.479 20.5 139.039 20.5H140.131V18.176C140.131 17.4107 140.411 16.8693 140.971 16.552C141.531 16.216 142.38 16.048 143.519 16.048V20.5H147.243C147.243 21.4333 147.066 22.1053 146.711 22.516C146.356 22.908 145.787 23.104 145.003 23.104H143.575V29.908C143.575 30.5613 143.696 31.028 143.939 31.308C144.2 31.588 144.639 31.728 145.255 31.728C145.908 31.728 146.562 31.5507 147.215 31.196C147.402 31.364 147.551 31.5787 147.663 31.84C147.775 32.0827 147.831 32.3347 147.831 32.596C147.831 33.156 147.542 33.66 146.963 34.108C146.384 34.5373 145.572 34.752 144.527 34.752ZM157.664 23.272C156.563 23.272 155.667 23.5707 154.976 24.168C154.286 24.7467 153.94 25.4747 153.94 26.352V32.624C153.94 33.3707 153.66 33.912 153.1 34.248C152.54 34.584 151.663 34.752 150.468 34.752V22.936C150.468 22.0773 150.739 21.4147 151.28 20.948C151.84 20.4813 152.68 20.248 153.8 20.248V21.9C153.52 22.2173 153.296 22.5253 153.128 22.824L153.296 22.936C154.472 21.144 155.947 20.248 157.72 20.248C158.523 20.248 159.13 20.4627 159.54 20.892C159.951 21.3027 160.156 21.8253 160.156 22.46C160.156 22.9453 160.026 23.356 159.764 23.692C159.26 23.412 158.56 23.272 157.664 23.272ZM166.574 34.752C165.361 34.752 164.26 34.5373 163.27 34.108C162.3 33.66 161.534 33.044 160.974 32.26C160.414 31.476 160.134 30.5893 160.134 29.6V25.652C160.134 24.644 160.405 23.7293 160.946 22.908C161.506 22.0867 162.272 21.4427 163.242 20.976C164.213 20.4907 165.324 20.248 166.574 20.248C167.825 20.248 168.936 20.4907 169.906 20.976C170.896 21.4427 171.661 22.0867 172.202 22.908C172.762 23.7293 173.042 24.644 173.042 25.652V29.6C173.042 30.5893 172.753 31.476 172.174 32.26C171.614 33.044 170.84 33.66 169.85 34.108C168.88 34.5373 167.788 34.752 166.574 34.752ZM166.574 31.756C167.508 31.756 168.236 31.5413 168.758 31.112C169.3 30.6827 169.57 30.104 169.57 29.376V25.82C169.57 25.0547 169.3 24.4387 168.758 23.972C168.236 23.4867 167.508 23.244 166.574 23.244C165.66 23.244 164.932 23.4867 164.39 23.972C163.849 24.4387 163.578 25.0547 163.578 25.82V29.376C163.578 30.104 163.849 30.6827 164.39 31.112C164.932 31.5413 165.66 31.756 166.574 31.756ZM180.734 34.752C178.942 34.752 177.496 34.4347 176.394 33.8C175.312 33.1467 174.761 32.2787 174.742 31.196C174.742 30.7293 174.929 30.3373 175.302 30.02C175.694 29.7027 176.31 29.5347 177.15 29.516C177.318 30.3373 177.71 30.972 178.326 31.42C178.942 31.8493 179.689 32.064 180.566 32.064C181.518 32.064 182.265 31.9427 182.806 31.7C183.348 31.4573 183.618 31.0933 183.618 30.608C183.618 30.16 183.394 29.7867 182.946 29.488C182.517 29.1893 181.658 28.8907 180.37 28.592C178.97 28.256 177.878 27.92 177.094 27.584C176.329 27.248 175.76 26.8187 175.386 26.296C175.013 25.7733 174.826 25.0827 174.826 24.224C174.826 23.0293 175.33 22.068 176.338 21.34C177.346 20.612 178.728 20.248 180.482 20.248C182.181 20.248 183.59 20.556 184.71 21.172C185.83 21.7693 186.39 22.572 186.39 23.58C186.39 24.084 186.204 24.4573 185.83 24.7C185.457 24.9427 184.841 25.0733 183.982 25.092C183.796 24.3453 183.441 23.7853 182.918 23.412C182.396 23.0387 181.658 22.852 180.706 22.852C179.997 22.852 179.381 22.9733 178.858 23.216C178.354 23.4587 178.102 23.776 178.102 24.168C178.102 24.5787 178.317 24.896 178.746 25.12C179.176 25.344 179.922 25.568 180.986 25.792C183.077 26.24 184.589 26.8373 185.522 27.584C186.474 28.3307 186.95 29.348 186.95 30.636C186.95 31.8867 186.39 32.8853 185.27 33.632C184.169 34.3787 182.657 34.752 180.734 34.752Z"
        fill="#B1B1B1"/>
</svg>
