<svg width="175" height="41" viewBox="0 0 175 41" fill="none" xmlns="http://www.w3.org/2000/svg">
  <path d="M79.64 31.252C78.8373 31.1587 78.2027 30.8787 77.736 30.412C77.288 29.9453 77.064 29.3573 77.064 28.648C77.064 28.1067 77.1947 27.5467 77.456 26.968L83.868 12.38C84.2227 11.5587 84.8387 11.148 85.716 11.148C86.5747 11.148 87.1813 11.5587 87.536 12.38L93.948 26.968C94.2093 27.584 94.34 28.144 94.34 28.648C94.34 29.3573 94.1067 29.9453 93.64 30.412C93.192 30.8787 92.5573 31.1587 91.736 31.252L89.384 25.932H82.02L79.64 31.252ZM88.236 22.74L85.156 15.068L84.82 15.208L85.492 16.944L83.14 22.74H88.236ZM100.707 15.432C100.035 15.432 99.4752 15.236 99.0272 14.844C98.5978 14.4333 98.3832 13.9107 98.3832 13.276C98.3832 12.66 98.5978 12.156 99.0272 11.764C99.4752 11.3533 100.035 11.148 100.707 11.148C101.379 11.148 101.93 11.3533 102.359 11.764C102.807 12.156 103.031 12.66 103.031 13.276C103.031 13.9107 102.807 14.4333 102.359 14.844C101.93 15.236 101.379 15.432 100.707 15.432ZM97.4032 36.852C96.3392 36.852 95.4712 36.6 94.7992 36.096C94.1458 35.592 93.8192 34.976 93.8192 34.248C93.8192 33.6133 94.0618 33.156 94.5472 32.876C95.1072 33.5107 95.8818 33.828 96.8712 33.828C97.5618 33.828 98.0752 33.6413 98.4112 33.268C98.7658 32.9133 98.9432 32.4093 98.9432 31.756V18.876C98.9432 18.1107 99.2325 17.5693 99.8112 17.252C100.39 16.916 101.267 16.748 102.443 16.748V31.784C102.443 32.736 102.228 33.5947 101.799 34.36C101.388 35.1253 100.8 35.732 100.035 36.18C99.2698 36.628 98.3925 36.852 97.4032 36.852ZM118.74 28.536C118.74 29.4133 118.46 30.0853 117.9 30.552C117.358 31.0187 116.528 31.252 115.408 31.252V29.572C115.65 29.292 115.874 28.984 116.08 28.648L115.912 28.536C114.717 30.3467 113.112 31.252 111.096 31.252C110.144 31.252 109.285 31.0373 108.52 30.608C107.773 30.16 107.176 29.544 106.728 28.76C106.298 27.976 106.084 27.0893 106.084 26.1V18.876C106.084 18.1107 106.364 17.5693 106.924 17.252C107.502 16.916 108.38 16.748 109.556 16.748V25.848C109.556 26.576 109.78 27.1547 110.228 27.584C110.676 28.0133 111.32 28.228 112.16 28.228C113.093 28.228 113.84 27.9387 114.4 27.36C114.978 26.7627 115.268 26.0253 115.268 25.148V18.876C115.268 18.1107 115.548 17.5693 116.108 17.252C116.668 16.916 117.545 16.748 118.74 16.748V28.536ZM127.715 31.252C125.923 31.252 124.476 30.9347 123.375 30.3C122.292 29.6467 121.742 28.7787 121.723 27.696C121.723 27.2293 121.91 26.8373 122.283 26.52C122.675 26.2027 123.291 26.0347 124.131 26.016C124.299 26.8373 124.691 27.472 125.307 27.92C125.923 28.3493 126.67 28.564 127.547 28.564C128.499 28.564 129.246 28.4427 129.787 28.2C130.328 27.9573 130.599 27.5933 130.599 27.108C130.599 26.66 130.375 26.2867 129.927 25.988C129.498 25.6893 128.639 25.3907 127.351 25.092C125.951 24.756 124.859 24.42 124.075 24.084C123.31 23.748 122.74 23.3187 122.367 22.796C121.994 22.2733 121.807 21.5827 121.807 20.724C121.807 19.5293 122.311 18.568 123.319 17.84C124.327 17.112 125.708 16.748 127.463 16.748C129.162 16.748 130.571 17.056 131.691 17.672C132.811 18.2693 133.371 19.072 133.371 20.08C133.371 20.584 133.184 20.9573 132.811 21.2C132.438 21.4427 131.822 21.5733 130.963 21.592C130.776 20.8453 130.422 20.2853 129.899 19.912C129.376 19.5387 128.639 19.352 127.687 19.352C126.978 19.352 126.362 19.4733 125.839 19.716C125.335 19.9587 125.083 20.276 125.083 20.668C125.083 21.0787 125.298 21.396 125.727 21.62C126.156 21.844 126.903 22.068 127.967 22.292C130.058 22.74 131.57 23.3373 132.503 24.084C133.455 24.8307 133.931 25.848 133.931 27.136C133.931 28.3867 133.371 29.3853 132.251 30.132C131.15 30.8787 129.638 31.252 127.715 31.252ZM141.847 31.252C140.335 31.252 139.215 30.8133 138.487 29.936C137.759 29.0587 137.395 27.9293 137.395 26.548V19.604H134.511C134.511 18.7267 134.679 18.0733 135.015 17.644C135.351 17.2147 135.799 17 136.359 17H137.451V14.676C137.451 13.9107 137.731 13.3693 138.291 13.052C138.851 12.716 139.701 12.548 140.839 12.548V17H144.563C144.563 17.9333 144.386 18.6053 144.031 19.016C143.677 19.408 143.107 19.604 142.323 19.604H140.895V26.408C140.895 27.0613 141.017 27.528 141.259 27.808C141.521 28.088 141.959 28.228 142.575 28.228C143.229 28.228 143.882 28.0507 144.535 27.696C144.722 27.864 144.871 28.0787 144.983 28.34C145.095 28.5827 145.151 28.8347 145.151 29.096C145.151 29.656 144.862 30.16 144.283 30.608C143.705 31.0373 142.893 31.252 141.847 31.252ZM153.154 31.252C151.997 31.252 150.942 31.028 149.99 30.58C149.038 30.1133 148.282 29.488 147.722 28.704C147.162 27.9013 146.882 27.0053 146.882 26.016V22.292C146.882 21.2467 147.172 20.304 147.75 19.464C148.329 18.624 149.094 17.9613 150.046 17.476C151.017 16.9907 152.062 16.748 153.182 16.748C154.284 16.748 155.292 16.9813 156.206 17.448C157.14 17.896 157.877 18.5307 158.418 19.352C158.96 20.1547 159.23 21.0787 159.23 22.124V23.692C159.23 24.1027 159.072 24.448 158.754 24.728C158.456 25.008 158.073 25.148 157.606 25.148H150.27V25.764C150.27 26.5667 150.513 27.22 150.998 27.724C151.484 28.228 152.212 28.48 153.182 28.48C154.116 28.48 154.806 28.2747 155.254 27.864C155.721 27.4533 155.954 26.9213 155.954 26.268C156.29 26.2307 156.524 26.212 156.654 26.212C157.345 26.212 157.886 26.3707 158.278 26.688C158.67 26.9867 158.866 27.416 158.866 27.976C158.866 28.5173 158.614 29.04 158.11 29.544C157.606 30.048 156.916 30.4587 156.038 30.776C155.161 31.0933 154.2 31.252 153.154 31.252ZM156.066 22.656V22.124C156.066 21.34 155.796 20.7053 155.254 20.22C154.713 19.7347 154.013 19.492 153.154 19.492C152.296 19.492 151.596 19.7347 151.054 20.22C150.532 20.6867 150.27 21.3213 150.27 22.124V22.656H156.066ZM167.609 31.252C165.817 31.252 164.371 30.9347 163.269 30.3C162.187 29.6467 161.636 28.7787 161.617 27.696C161.617 27.2293 161.804 26.8373 162.177 26.52C162.569 26.2027 163.185 26.0347 164.025 26.016C164.193 26.8373 164.585 27.472 165.201 27.92C165.817 28.3493 166.564 28.564 167.441 28.564C168.393 28.564 169.14 28.4427 169.681 28.2C170.223 27.9573 170.493 27.5933 170.493 27.108C170.493 26.66 170.269 26.2867 169.821 25.988C169.392 25.6893 168.533 25.3907 167.245 25.092C165.845 24.756 164.753 24.42 163.969 24.084C163.204 23.748 162.635 23.3187 162.261 22.796C161.888 22.2733 161.701 21.5827 161.701 20.724C161.701 19.5293 162.205 18.568 163.213 17.84C164.221 17.112 165.603 16.748 167.357 16.748C169.056 16.748 170.465 17.056 171.585 17.672C172.705 18.2693 173.265 19.072 173.265 20.08C173.265 20.584 173.079 20.9573 172.705 21.2C172.332 21.4427 171.716 21.5733 170.857 21.592C170.671 20.8453 170.316 20.2853 169.793 19.912C169.271 19.5387 168.533 19.352 167.581 19.352C166.872 19.352 166.256 19.4733 165.733 19.716C165.229 19.9587 164.977 20.276 164.977 20.668C164.977 21.0787 165.192 21.396 165.621 21.62C166.051 21.844 166.797 22.068 167.861 22.292C169.952 22.74 171.464 23.3373 172.397 24.084C173.349 24.8307 173.825 25.848 173.825 27.136C173.825 28.3867 173.265 29.3853 172.145 30.132C171.044 30.8787 169.532 31.252 167.609 31.252Z"
        fill="#B1B1B1"/>
  <path d="M36.7318 22.021C36.4054 21.6561 36.2254 21.1869 36.2254 20.7012C36.2254 20.2154 36.4054 19.7463 36.7318 19.3814L39.3375 16.5017C39.6247 16.1871 39.803 15.7912 39.8469 15.3709C39.8908 14.9506 39.798 14.5274 39.5818 14.1621L35.5104 7.243C35.2964 6.87809 34.9706 6.58884 34.5795 6.41649C34.1884 6.24413 33.7518 6.19746 33.3321 6.28313L29.5049 7.04303C29.0179 7.14187 28.511 7.0622 28.0797 6.81906C27.6484 6.57592 27.3226 6.18611 27.1638 5.72321L25.922 2.06371C25.7854 1.66652 25.5252 1.32154 25.1782 1.07752C24.8312 0.833512 24.4148 0.702809 23.9881 0.703891H15.8451C15.4012 0.68113 14.9619 0.801731 14.5943 1.04727C14.2267 1.29281 13.951 1.6498 13.8094 2.06371L12.6693 5.72321C12.5106 6.18611 12.1848 6.57592 11.7535 6.81906C11.3222 7.0622 10.8152 7.14187 10.3282 7.04303L6.39925 6.28313C6.00137 6.2279 5.59575 6.28958 5.23348 6.46039C4.87121 6.6312 4.56851 6.90351 4.36351 7.243L0.292029 14.1621C0.0704591 14.5233 -0.0291659 14.9441 0.00739696 15.3643C0.0439599 15.7846 0.214838 16.1827 0.495603 16.5017L3.08099 19.3814C3.40736 19.7463 3.58735 20.2154 3.58735 20.7012C3.58735 21.1869 3.40736 21.6561 3.08099 22.021L0.495603 24.9006C0.214838 25.2197 0.0439599 25.6178 0.00739696 26.038C-0.0291659 26.4582 0.0704591 26.879 0.292029 27.2403L4.36351 34.1593C4.57746 34.5242 4.90322 34.8135 5.29436 34.9859C5.68549 35.1582 6.12203 35.2049 6.54176 35.1192L10.3689 34.3593C10.8559 34.2605 11.3629 34.3401 11.7942 34.5833C12.2255 34.8264 12.5513 35.2162 12.7101 35.6791L13.9519 39.3386C14.0935 39.7525 14.3692 40.1095 14.7368 40.3551C15.1044 40.6006 15.5437 40.7212 15.9876 40.6985H24.1306C24.5573 40.6995 24.9737 40.5688 25.3207 40.3248C25.6678 40.0808 25.9279 39.7358 26.0645 39.3386L27.3063 35.6791C27.4651 35.2162 27.7909 34.8264 28.2222 34.5833C28.6535 34.3401 29.1604 34.2605 29.6474 34.3593L33.4746 35.1192C33.8943 35.2049 34.3309 35.1582 34.722 34.9859C35.1131 34.8135 35.4389 34.5242 35.6529 34.1593L39.7243 27.2403C39.9405 26.875 40.0333 26.4518 39.9894 26.0314C39.9455 25.6111 39.7672 25.2152 39.4801 24.9006L36.7318 22.021ZM33.6985 24.7006L35.3271 26.5004L32.7214 30.9398L30.3192 30.4598C28.853 30.1654 27.3278 30.4101 26.0332 31.1474C24.7385 31.8846 23.7644 33.0632 23.2959 34.4593L22.5223 36.699H17.3108L16.578 34.4193C16.1094 33.0232 15.1354 31.8446 13.8407 31.1074C12.546 30.3701 11.0208 30.1254 9.55465 30.4199L7.15248 30.8998L4.50601 26.4804L6.13461 24.6806C7.1361 23.5807 7.68977 22.1568 7.68977 20.6812C7.68977 19.2055 7.1361 17.7816 6.13461 16.6817L4.50601 14.882L7.11176 10.4826L9.51394 10.9625C10.9801 11.2569 12.5053 11.0123 13.8 10.275C15.0947 9.53772 16.0687 8.35917 16.5372 6.96304L17.3108 4.70335H22.5223L23.2959 6.98304C23.7644 8.37917 24.7385 9.55772 26.0332 10.295C27.3278 11.0322 28.853 11.2769 30.3192 10.9825L32.7214 10.5026L35.3271 14.942L33.6985 16.7417C32.7083 17.8391 32.1615 19.2547 32.1615 20.7212C32.1615 22.1876 32.7083 23.6033 33.6985 24.7006V24.7006ZM19.9166 12.7023C18.306 12.7023 16.7317 13.1714 15.3926 14.0503C14.0535 14.9293 13.0098 16.1785 12.3935 17.6401C11.7771 19.1017 11.6159 20.71 11.9301 22.2617C12.2443 23.8133 13.0198 25.2386 14.1586 26.3573C15.2974 27.4759 16.7484 28.2377 18.328 28.5464C19.9075 28.855 21.5448 28.6966 23.0328 28.0912C24.5207 27.4858 25.7924 26.4605 26.6872 25.1451C27.582 23.8297 28.0595 22.2832 28.0595 20.7012C28.0595 18.5797 27.2016 16.5452 25.6745 15.0451C24.1474 13.545 22.0762 12.7023 19.9166 12.7023V12.7023ZM19.9166 24.7006C19.1113 24.7006 18.3241 24.4661 17.6546 24.0266C16.985 23.5871 16.4632 22.9625 16.155 22.2317C15.8469 21.5009 15.7662 20.6967 15.9233 19.9209C16.0804 19.1451 16.4682 18.4325 17.0376 17.8731C17.607 17.3138 18.3325 16.9329 19.1223 16.7786C19.9121 16.6242 20.7307 16.7034 21.4747 17.0062C22.2186 17.3089 22.8545 17.8215 23.3019 18.4792C23.7493 19.1369 23.9881 19.9102 23.9881 20.7012C23.9881 21.7619 23.5591 22.7792 22.7955 23.5292C22.032 24.2793 20.9964 24.7006 19.9166 24.7006Z"
        fill="#B1B1B1"/>
</svg>
