<svg width="205" height="41" viewBox="0 0 205 41" fill="none" xmlns="http://www.w3.org/2000/svg">
  <path d="M77.652 16.108C77.652 15.6227 77.8293 15.2213 78.184 14.904C78.5387 14.568 78.9867 14.4 79.528 14.4H87.312C88.656 14.4 89.8413 14.6707 90.868 15.212C91.9133 15.7347 92.716 16.4907 93.276 17.48C93.8547 18.4507 94.144 19.58 94.144 20.868C94.144 22.1747 93.864 23.3227 93.304 24.312C92.744 25.2827 91.9507 26.0387 90.924 26.58C89.8973 27.1027 88.6933 27.364 87.312 27.364H81.404V31.48C81.404 32.376 81.0773 33.0667 80.424 33.552C79.7893 34.0187 78.8653 34.252 77.652 34.252V16.108ZM87.312 24.116C88.3013 24.116 89.0667 23.8267 89.608 23.248C90.1493 22.6693 90.42 21.8667 90.42 20.84C90.42 19.832 90.14 19.048 89.58 18.488C89.0387 17.928 88.2827 17.648 87.312 17.648H81.404V24.116H87.312ZM103.059 22.772C101.958 22.772 101.062 23.0707 100.371 23.668C99.6803 24.2467 99.3349 24.9747 99.3349 25.852V32.124C99.3349 32.8707 99.0549 33.412 98.4949 33.748C97.9349 34.084 97.0576 34.252 95.8629 34.252V22.436C95.8629 21.5773 96.1336 20.9147 96.6749 20.448C97.2349 19.9813 98.0749 19.748 99.1949 19.748V21.4C98.9149 21.7173 98.6909 22.0253 98.5229 22.324L98.6909 22.436C99.8669 20.644 101.342 19.748 103.115 19.748C103.918 19.748 104.524 19.9627 104.935 20.392C105.346 20.8027 105.551 21.3253 105.551 21.96C105.551 22.4453 105.42 22.856 105.159 23.192C104.655 22.912 103.955 22.772 103.059 22.772ZM111.969 34.252C110.756 34.252 109.654 34.0373 108.665 33.608C107.694 33.16 106.929 32.544 106.369 31.76C105.809 30.976 105.529 30.0893 105.529 29.1V25.152C105.529 24.144 105.8 23.2293 106.341 22.408C106.901 21.5867 107.666 20.9427 108.637 20.476C109.608 19.9907 110.718 19.748 111.969 19.748C113.22 19.748 114.33 19.9907 115.301 20.476C116.29 20.9427 117.056 21.5867 117.597 22.408C118.157 23.2293 118.437 24.144 118.437 25.152V29.1C118.437 30.0893 118.148 30.976 117.569 31.76C117.009 32.544 116.234 33.16 115.245 33.608C114.274 34.0373 113.182 34.252 111.969 34.252ZM111.969 31.256C112.902 31.256 113.63 31.0413 114.153 30.612C114.694 30.1827 114.965 29.604 114.965 28.876V25.32C114.965 24.5547 114.694 23.9387 114.153 23.472C113.63 22.9867 112.902 22.744 111.969 22.744C111.054 22.744 110.326 22.9867 109.785 23.472C109.244 23.9387 108.973 24.5547 108.973 25.32V28.876C108.973 29.604 109.244 30.1827 109.785 30.612C110.326 31.0413 111.054 31.256 111.969 31.256ZM125.652 34.252C124.644 34.252 123.738 34.0373 122.936 33.608C122.133 33.1787 121.498 32.5907 121.032 31.844C120.565 31.0787 120.332 30.2013 120.332 29.212V24.788C120.332 23.8173 120.574 22.9493 121.06 22.184C121.545 21.4187 122.217 20.8213 123.076 20.392C123.953 19.9627 124.924 19.748 125.988 19.748C126.678 19.748 127.388 19.8973 128.116 20.196C128.862 20.476 129.488 20.8587 129.992 21.344L130.104 21.204C130.01 21.0547 129.805 20.868 129.488 20.644V16.5C129.488 15.7533 129.777 15.1747 130.356 14.764C130.953 14.3533 131.849 14.148 133.044 14.148V31.844C133.044 32.5347 132.782 33.1133 132.26 33.58C131.737 34.028 130.925 34.252 129.824 34.252V32.712C130.066 32.4133 130.244 32.1707 130.356 31.984L130.216 31.872C129.637 32.656 128.993 33.2533 128.284 33.664C127.593 34.056 126.716 34.252 125.652 34.252ZM126.688 31.228C127.528 31.228 128.209 31.032 128.732 30.64C129.273 30.2293 129.544 29.716 129.544 29.1V24.872C129.544 24.2747 129.273 23.78 128.732 23.388C128.209 22.9773 127.518 22.772 126.66 22.772C125.745 22.772 125.036 22.968 124.532 23.36C124.046 23.7333 123.804 24.2747 123.804 24.984V28.96C123.804 29.7067 124.046 30.276 124.532 30.668C125.036 31.0413 125.754 31.228 126.688 31.228ZM148.736 31.536C148.736 32.4133 148.456 33.0853 147.896 33.552C147.354 34.0187 146.524 34.252 145.404 34.252V32.572C145.646 32.292 145.87 31.984 146.076 31.648L145.908 31.536C144.713 33.3467 143.108 34.252 141.092 34.252C140.14 34.252 139.281 34.0373 138.516 33.608C137.769 33.16 137.172 32.544 136.724 31.76C136.294 30.976 136.08 30.0893 136.08 29.1V21.876C136.08 21.1107 136.36 20.5693 136.92 20.252C137.498 19.916 138.376 19.748 139.552 19.748V28.848C139.552 29.576 139.776 30.1547 140.224 30.584C140.672 31.0133 141.316 31.228 142.156 31.228C143.089 31.228 143.836 30.9387 144.396 30.36C144.974 29.7627 145.264 29.0253 145.264 28.148V21.876C145.264 21.1107 145.544 20.5693 146.104 20.252C146.664 19.916 147.541 19.748 148.736 19.748V31.536ZM158.047 34.252C156.834 34.252 155.76 34.0373 154.827 33.608C153.894 33.16 153.166 32.544 152.643 31.76C152.12 30.976 151.859 30.0893 151.859 29.1V25.18C151.859 24.116 152.12 23.1733 152.643 22.352C153.166 21.5307 153.894 20.896 154.827 20.448C155.76 19.9813 156.824 19.748 158.019 19.748C159.139 19.748 160.128 19.9067 160.987 20.224C161.864 20.5413 162.546 20.9893 163.031 21.568C163.516 22.128 163.759 22.7813 163.759 23.528C163.759 24.1067 163.535 24.5733 163.087 24.928C162.639 25.2827 162.051 25.46 161.323 25.46C161.118 25.46 160.968 25.4507 160.875 25.432C160.875 24.6293 160.614 23.9853 160.091 23.5C159.587 23.0147 158.924 22.772 158.103 22.772C157.282 22.772 156.61 23.0053 156.087 23.472C155.583 23.9387 155.331 24.5547 155.331 25.32V28.848C155.331 29.5573 155.592 30.136 156.115 30.584C156.638 31.0133 157.31 31.228 158.131 31.228C158.952 31.228 159.624 30.9853 160.147 30.5C160.67 29.996 160.931 29.3613 160.931 28.596C161.043 28.5773 161.202 28.568 161.407 28.568C162.135 28.568 162.723 28.736 163.171 29.072C163.619 29.408 163.843 29.8653 163.843 30.444C163.843 31.1907 163.591 31.8533 163.087 32.432C162.602 32.992 161.92 33.44 161.043 33.776C160.166 34.0933 159.167 34.252 158.047 34.252ZM172.254 34.252C170.742 34.252 169.622 33.8133 168.894 32.936C168.166 32.0587 167.802 30.9293 167.802 29.548V22.604H164.918C164.918 21.7267 165.086 21.0733 165.422 20.644C165.758 20.2147 166.206 20 166.766 20H167.858V17.676C167.858 16.9107 168.138 16.3693 168.698 16.052C169.258 15.716 170.107 15.548 171.246 15.548V20H174.97C174.97 20.9333 174.792 21.6053 174.438 22.016C174.083 22.408 173.514 22.604 172.73 22.604H171.302V29.408C171.302 30.0613 171.423 30.528 171.666 30.808C171.927 31.088 172.366 31.228 172.982 31.228C173.635 31.228 174.288 31.0507 174.942 30.696C175.128 30.864 175.278 31.0787 175.39 31.34C175.502 31.5827 175.558 31.8347 175.558 32.096C175.558 32.656 175.268 33.16 174.69 33.608C174.111 34.0373 173.299 34.252 172.254 34.252ZM183.336 34.252C182.123 34.252 181.021 34.0373 180.032 33.608C179.061 33.16 178.296 32.544 177.736 31.76C177.176 30.976 176.896 30.0893 176.896 29.1V25.152C176.896 24.144 177.167 23.2293 177.708 22.408C178.268 21.5867 179.033 20.9427 180.004 20.476C180.975 19.9907 182.085 19.748 183.336 19.748C184.587 19.748 185.697 19.9907 186.668 20.476C187.657 20.9427 188.423 21.5867 188.964 22.408C189.524 23.2293 189.804 24.144 189.804 25.152V29.1C189.804 30.0893 189.515 30.976 188.936 31.76C188.376 32.544 187.601 33.16 186.612 33.608C185.641 34.0373 184.549 34.252 183.336 34.252ZM183.336 31.256C184.269 31.256 184.997 31.0413 185.52 30.612C186.061 30.1827 186.332 29.604 186.332 28.876V25.32C186.332 24.5547 186.061 23.9387 185.52 23.472C184.997 22.9867 184.269 22.744 183.336 22.744C182.421 22.744 181.693 22.9867 181.152 23.472C180.611 23.9387 180.34 24.5547 180.34 25.32V28.876C180.34 29.604 180.611 30.1827 181.152 30.612C181.693 31.0413 182.421 31.256 183.336 31.256ZM197.496 34.252C195.704 34.252 194.257 33.9347 193.156 33.3C192.073 32.6467 191.523 31.7787 191.504 30.696C191.504 30.2293 191.691 29.8373 192.064 29.52C192.456 29.2027 193.072 29.0347 193.912 29.016C194.08 29.8373 194.472 30.472 195.088 30.92C195.704 31.3493 196.451 31.564 197.328 31.564C198.28 31.564 199.027 31.4427 199.568 31.2C200.109 30.9573 200.38 30.5933 200.38 30.108C200.38 29.66 200.156 29.2867 199.708 28.988C199.279 28.6893 198.42 28.3907 197.132 28.092C195.732 27.756 194.64 27.42 193.856 27.084C193.091 26.748 192.521 26.3187 192.148 25.796C191.775 25.2733 191.588 24.5827 191.588 23.724C191.588 22.5293 192.092 21.568 193.1 20.84C194.108 20.112 195.489 19.748 197.244 19.748C198.943 19.748 200.352 20.056 201.472 20.672C202.592 21.2693 203.152 22.072 203.152 23.08C203.152 23.584 202.965 23.9573 202.592 24.2C202.219 24.4427 201.603 24.5733 200.744 24.592C200.557 23.8453 200.203 23.2853 199.68 22.912C199.157 22.5387 198.42 22.352 197.468 22.352C196.759 22.352 196.143 22.4733 195.62 22.716C195.116 22.9587 194.864 23.276 194.864 23.668C194.864 24.0787 195.079 24.396 195.508 24.62C195.937 24.844 196.684 25.068 197.748 25.292C199.839 25.74 201.351 26.3373 202.284 27.084C203.236 27.8307 203.712 28.848 203.712 30.136C203.712 31.3867 203.152 32.3853 202.032 33.132C200.931 33.8787 199.419 34.252 197.496 34.252Z"
        fill="#B1B1B1"/>
  <path d="M0 0H40V40H0V0Z" fill="white" fill-opacity="0.01"/>
  <path d="M3.33329 11.666L2.58793 10.1753C2.02329 10.4576 1.66663 11.0348 1.66663 11.666H3.33329ZM20 3.33268L20.7453 1.84197C20.2761 1.60736 19.7238 1.60736 19.2546 1.84197L20 3.33268ZM36.6666 11.666H38.3333C38.3333 11.0348 37.9766 10.4576 37.412 10.1753L36.6666 11.666ZM36.6666 28.3327L37.412 29.8234C37.9766 29.5411 38.3333 28.9639 38.3333 28.3327H36.6666ZM20 36.666L19.2546 38.1568C19.7238 38.3913 20.2761 38.3913 20.7453 38.1568L20 36.666ZM3.33329 28.3327H1.66663C1.66663 28.9639 2.02329 29.5411 2.58793 29.8234L3.33329 28.3327ZM4.07865 13.1568L20.7453 4.82339L19.2546 1.84197L2.58793 10.1753L4.07865 13.1568ZM35 11.666V28.3327H38.3333V11.666H35ZM35.9213 26.8419L19.2546 35.1753L20.7453 38.1568L37.412 29.8234L35.9213 26.8419ZM20.7453 35.1753L4.07865 26.8419L2.58793 29.8234L19.2546 38.1568L20.7453 35.1753ZM4.99996 28.3327V11.666H1.66663V28.3327H4.99996ZM37.412 10.1753L20.7453 1.84197L19.2546 4.82339L35.9213 13.1568L37.412 10.1753Z"
        fill="#B1B1B1"/>
  <path d="M3.33337 11.666L20 19.9993" stroke="#B1B1B1" stroke-width="4" stroke-linecap="round"
        stroke-linejoin="round"/>
  <path d="M20 36.6667V20" stroke="#B1B1B1" stroke-width="4" stroke-linecap="round" stroke-linejoin="round"/>
  <path d="M36.6667 11.666L20 19.9993" stroke="#B1B1B1" stroke-width="4" stroke-linecap="round"
        stroke-linejoin="round"/>
  <path d="M29.0787 8.99176C29.902 8.5801 30.2357 7.57895 29.8241 6.75565C29.4124 5.93236 28.4112 5.59865 27.588 6.0103L29.0787 8.99176ZM10.9213 14.3436C10.098 14.7553 9.76434 15.7564 10.1759 16.5797C10.5876 17.403 11.5888 17.7367 12.412 17.3251L10.9213 14.3436ZM27.588 6.0103L10.9213 14.3436L12.412 17.3251L29.0787 8.99176L27.588 6.0103Z"
        fill="#B1B1B1"/>
</svg>
