<svg width="140" height="41" viewBox="0 0 140 41" fill="none" xmlns="http://www.w3.org/2000/svg">
  <path d="M85.352 30.252C83.672 30.252 82.2067 30.0467 80.956 29.636C79.7053 29.2253 78.744 28.6467 78.072 27.9C77.4187 27.1347 77.092 26.248 77.092 25.24C77.092 23.7093 78.128 22.944 80.2 22.944C80.2747 24.3627 80.7507 25.436 81.628 26.164C82.524 26.892 83.7747 27.256 85.38 27.256C86.7053 27.256 87.732 27.032 88.46 26.584C89.188 26.1173 89.552 25.4733 89.552 24.652C89.552 24.1107 89.412 23.672 89.132 23.336C88.852 22.9813 88.376 22.6733 87.704 22.412C87.032 22.132 86.052 21.852 84.764 21.572C82.9347 21.1427 81.488 20.6667 80.424 20.144C79.3787 19.6213 78.6227 18.996 78.156 18.268C77.6893 17.5213 77.456 16.5973 77.456 15.496C77.456 14.432 77.764 13.4987 78.38 12.696C79.0147 11.8933 79.9013 11.268 81.04 10.82C82.1973 10.372 83.5227 10.148 85.016 10.148C86.4533 10.148 87.732 10.344 88.852 10.736C89.9907 11.1093 90.8773 11.6413 91.512 12.332C92.1653 13.0227 92.492 13.816 92.492 14.712C92.492 16.0933 91.4933 16.812 89.496 16.868C89.384 15.58 88.9733 14.6373 88.264 14.04C87.5547 13.4427 86.472 13.144 85.016 13.144C83.7653 13.144 82.804 13.3493 82.132 13.76C81.46 14.1707 81.124 14.7493 81.124 15.496C81.124 16.0187 81.2547 16.4573 81.516 16.812C81.7773 17.148 82.216 17.4467 82.832 17.708C83.448 17.9507 84.3253 18.2027 85.464 18.464C87.3867 18.8933 88.908 19.3787 90.028 19.92C91.148 20.4427 91.96 21.0867 92.464 21.852C92.968 22.5987 93.22 23.5227 93.22 24.624C93.22 25.7627 92.8933 26.7613 92.24 27.62C91.6053 28.46 90.6907 29.1133 89.496 29.58C88.32 30.028 86.9387 30.252 85.352 30.252ZM100.566 30.252C99.6136 30.252 98.7363 30.0653 97.9336 29.692C97.1496 29.3187 96.515 28.7867 96.0296 28.096C95.563 27.3867 95.3296 26.5467 95.3296 25.576C95.3296 24.6053 95.5816 23.7653 96.0856 23.056C96.5896 22.328 97.271 21.7773 98.1296 21.404C99.007 21.012 99.9683 20.816 101.014 20.816C101.872 20.816 102.638 20.956 103.31 21.236C104 21.4973 104.635 21.8987 105.214 22.44L105.354 22.3C105.186 22.132 104.896 21.88 104.486 21.544V20.984C104.486 20.2187 104.215 19.612 103.674 19.164C103.132 18.716 102.376 18.492 101.406 18.492C99.6696 18.492 98.391 19.1267 97.5696 20.396C97.159 20.2653 96.8136 20.06 96.5336 19.78C96.2536 19.4813 96.1136 19.164 96.1136 18.828C96.1136 18.268 96.3656 17.7547 96.8696 17.288C97.3736 16.8213 98.055 16.448 98.9136 16.168C99.7723 15.888 100.706 15.748 101.714 15.748C103.692 15.748 105.223 16.2147 106.306 17.148C107.388 18.0627 107.93 19.3133 107.93 20.9V27.9C107.93 28.7213 107.668 29.3187 107.146 29.692C106.623 30.0653 105.802 30.252 104.682 30.252V29.104C104.999 28.7867 105.214 28.5533 105.326 28.404L105.214 28.264C104.598 28.9173 103.935 29.412 103.226 29.748C102.535 30.084 101.648 30.252 100.566 30.252ZM101.462 27.704C102.432 27.704 103.188 27.5173 103.73 27.144C104.271 26.7707 104.542 26.2387 104.542 25.548C104.542 24.876 104.262 24.344 103.702 23.952C103.16 23.56 102.423 23.364 101.49 23.364C100.631 23.364 99.9496 23.56 99.4456 23.952C98.9603 24.3253 98.7176 24.8573 98.7176 25.548C98.7176 26.2573 98.9603 26.7987 99.4456 27.172C99.931 27.5267 100.603 27.704 101.462 27.704ZM115.658 30.252C114.109 30.252 112.933 29.8133 112.13 28.936C111.346 28.04 110.954 26.9107 110.954 25.548V12.276C110.954 11.5107 111.234 10.9693 111.794 10.652C112.373 10.316 113.259 10.148 114.454 10.148V25.408C114.454 26.0427 114.594 26.5093 114.874 26.808C115.154 27.088 115.602 27.228 116.218 27.228C116.909 27.228 117.599 27.0507 118.29 26.696C118.477 26.864 118.617 27.0787 118.71 27.34C118.822 27.5827 118.878 27.8347 118.878 28.096C118.878 28.656 118.598 29.16 118.038 29.608C117.478 30.0373 116.685 30.252 115.658 30.252ZM123.617 14.432C122.945 14.432 122.385 14.236 121.937 13.844C121.507 13.4333 121.293 12.9107 121.293 12.276C121.293 11.66 121.507 11.156 121.937 10.764C122.385 10.3533 122.945 10.148 123.617 10.148C124.289 10.148 124.839 10.3533 125.269 10.764C125.717 11.156 125.941 11.66 125.941 12.276C125.941 12.9107 125.717 13.4333 125.269 13.844C124.839 14.236 124.289 14.432 123.617 14.432ZM121.853 17.876C121.853 17.1107 122.142 16.5693 122.721 16.252C123.299 15.916 124.177 15.748 125.353 15.748V28.124C125.353 28.8707 125.063 29.412 124.485 29.748C123.906 30.084 123.029 30.252 121.853 30.252V17.876ZM136.446 18.772C135.344 18.772 134.448 19.0707 133.758 19.668C133.067 20.2467 132.722 20.9747 132.722 21.852V28.124C132.722 28.8707 132.442 29.412 131.882 29.748C131.322 30.084 130.444 30.252 129.25 30.252V18.436C129.25 17.5773 129.52 16.9147 130.062 16.448C130.622 15.9813 131.462 15.748 132.582 15.748V17.4C132.302 17.7173 132.078 18.0253 131.91 18.324L132.078 18.436C133.254 16.644 134.728 15.748 136.502 15.748C137.304 15.748 137.911 15.9627 138.322 16.392C138.732 16.8027 138.938 17.3253 138.938 17.96C138.938 18.4453 138.807 18.856 138.546 19.192C138.042 18.912 137.342 18.772 136.446 18.772Z"
        fill="#B1B1B1"/>
  <path d="M31.6129 4.99482C36.6936 8.56624 40 14.4075 40 21.0186C40 31.8757 31.0645 40.6773 20.0403 40.7011C9.03227 40.7249 0.0161437 31.8916 1.47191e-05 21.0504C-0.00804979 14.4392 3.2984 8.58211 8.37098 5.00275C9.31453 4.34402 10.629 4.6218 11.1936 5.61386L12.4678 7.84402C12.9436 8.67735 12.7178 9.73291 11.9355 10.3043C8.58872 12.7488 6.45162 16.6218 6.45162 21.0107C6.44356 28.3361 12.4597 34.3519 20 34.3519C27.3871 34.3519 33.5968 28.463 33.5484 20.9313C33.5242 16.8202 31.5565 12.852 28.0565 10.2964C27.2742 9.72497 27.0565 8.66942 27.5323 7.84402L28.8065 5.61386C29.371 4.62974 30.6774 4.33609 31.6129 4.99482ZM23.2258 21.6535V2.60593C23.2258 1.55038 22.3629 0.701172 21.2903 0.701172H18.7097C17.6371 0.701172 16.7742 1.55038 16.7742 2.60593V21.6535C16.7742 22.7091 17.6371 23.5583 18.7097 23.5583H21.2903C22.3629 23.5583 23.2258 22.7091 23.2258 21.6535Z"
        fill="#B1B1B1"/>
</svg>
