<svg width="136" height="35" viewBox="0 0 136 35" fill="none" xmlns="http://www.w3.org/2000/svg">
  <path d="M17.5 8.75C16.4184 8.75 15.3611 9.07074 14.4617 9.67165C13.5624 10.2726 12.8615 11.1267 12.4475 12.1259C12.0336 13.1252 11.9253 14.2248 12.1363 15.2856C12.3473 16.3465 12.8682 17.3209 13.633 18.0857C14.3978 18.8506 15.3723 19.3714 16.4331 19.5824C17.4939 19.7934 18.5935 19.6851 19.5928 19.2712C20.5921 18.8573 21.4462 18.1564 22.0471 17.257C22.648 16.3577 22.9688 15.3004 22.9688 14.2187C22.9688 12.7683 22.3926 11.3773 21.367 10.3518C20.3414 9.32617 18.9504 8.75 17.5 8.75Z"
        fill="#3A3A3A"/>
  <path d="M17.5 2.1875C14.4715 2.1875 11.511 3.08556 8.99284 4.76812C6.47471 6.45068 4.51207 8.84217 3.3531 11.6402C2.19413 14.4382 1.8909 17.517 2.48173 20.4873C3.07257 23.4577 4.53094 26.1861 6.67243 28.3276C8.81392 30.4691 11.5424 31.9274 14.5127 32.5183C17.483 33.1091 20.5619 32.8059 23.3598 31.6469C26.1578 30.4879 28.5493 28.5253 30.2319 26.0072C31.9144 23.489 32.8125 20.5285 32.8125 17.5C32.8079 13.4403 31.1932 9.54814 28.3225 6.67748C25.4519 3.80682 21.5597 2.19207 17.5 2.1875V2.1875ZM26.2418 27.2626C26.2201 25.8279 25.6355 24.4591 24.6141 23.4513C23.5926 22.4436 22.2161 21.8774 20.7813 21.875H14.2188C12.7839 21.8774 11.4074 22.4436 10.386 23.4513C9.36453 24.4591 8.77995 25.8279 8.75821 27.2626C6.77476 25.4915 5.37604 23.1598 4.74725 20.5761C4.11846 17.9925 4.28926 15.2787 5.23703 12.7943C6.18481 10.3099 7.86486 8.17192 10.0547 6.66353C12.2446 5.15513 14.8409 4.34747 17.5 4.34747C20.1591 4.34747 22.7554 5.15513 24.9453 6.66353C27.1352 8.17192 28.8152 10.3099 29.763 12.7943C30.7108 15.2787 30.8816 17.9925 30.2528 20.5761C29.624 23.1598 28.2252 25.4915 26.2418 27.2626V27.2626Z"
        fill="#3A3A3A"/>
  <path d="M51.9 25.68C50.8467 25.68 49.8933 25.4667 49.04 25.04C48.1867 24.6133 47.5133 24.0267 47.02 23.28C46.54 22.52 46.3 21.6733 46.3 20.74V12.88C46.3 12.3733 46.46 11.9867 46.78 11.72C47.1 11.4533 47.5667 11.32 48.18 11.32V20.74C48.18 21.7133 48.52 22.5 49.2 23.1C49.8933 23.7 50.7933 24 51.9 24C53.0067 24 53.9 23.7 54.58 23.1C55.26 22.5 55.6 21.7133 55.6 20.74V12.88C55.6 12.3733 55.76 11.9867 56.08 11.72C56.4 11.4533 56.8667 11.32 57.48 11.32V20.74C57.48 21.6733 57.24 22.52 56.76 23.28C56.28 24.0267 55.6133 24.6133 54.76 25.04C53.9067 25.4667 52.9533 25.68 51.9 25.68ZM63.8091 25.68C63.1291 25.68 62.4891 25.58 61.8891 25.38C61.2891 25.1667 60.8024 24.8667 60.4291 24.48C60.0691 24.0933 59.8891 23.64 59.8891 23.12C59.8891 22.48 60.2757 22.1333 61.0491 22.08C61.1824 22.8267 61.4957 23.38 61.9891 23.74C62.4957 24.0867 63.1357 24.26 63.9091 24.26C64.6824 24.26 65.2824 24.1467 65.7091 23.92C66.1357 23.6933 66.3491 23.3467 66.3491 22.88C66.3491 22.5467 66.2624 22.28 66.0891 22.08C65.9157 21.8667 65.6357 21.6867 65.2491 21.54C64.8757 21.38 64.3357 21.2267 63.6291 21.08C62.7491 20.88 62.0491 20.6667 61.5291 20.44C61.0091 20.2133 60.6091 19.9133 60.3291 19.54C60.0624 19.1667 59.9291 18.6733 59.9291 18.06C59.9291 17.54 60.0891 17.0733 60.4091 16.66C60.7291 16.2333 61.1691 15.9067 61.7291 15.68C62.3024 15.44 62.9491 15.32 63.6691 15.32C64.3357 15.32 64.9624 15.4133 65.5491 15.6C66.1491 15.7867 66.6291 16.0533 66.9891 16.4C67.3624 16.7467 67.5491 17.1467 67.5491 17.6C67.5491 17.9067 67.4291 18.1533 67.1891 18.34C66.9491 18.5133 66.6157 18.6133 66.1891 18.64C66.1491 18.0533 65.9091 17.5933 65.4691 17.26C65.0424 16.9133 64.4424 16.74 63.6691 16.74C63.0291 16.74 62.5224 16.86 62.1491 17.1C61.7757 17.34 61.5891 17.66 61.5891 18.06C61.5891 18.4867 61.7624 18.8067 62.1091 19.02C62.4691 19.22 63.0757 19.4133 63.9291 19.6C65.3291 19.88 66.3557 20.2667 67.0091 20.76C67.6757 21.24 68.0091 21.9267 68.0091 22.82C68.0091 23.7267 67.6424 24.4333 66.9091 24.94C66.1757 25.4333 65.1424 25.68 63.8091 25.68ZM74.3263 25.68C73.5129 25.68 72.7863 25.5267 72.1463 25.22C71.5063 24.9 71.0063 24.4667 70.6463 23.92C70.2863 23.36 70.1063 22.7333 70.1063 22.04V19.08C70.1063 18.3733 70.2929 17.7333 70.6663 17.16C71.0529 16.5867 71.5663 16.14 72.2063 15.82C72.8596 15.4867 73.5663 15.32 74.3263 15.32C75.0863 15.32 75.7796 15.48 76.4063 15.8C77.0463 16.12 77.5463 16.56 77.9063 17.12C78.2796 17.68 78.4663 18.3133 78.4663 19.02V20.3C78.4663 20.5133 78.3863 20.6933 78.2263 20.84C78.0663 20.9867 77.8729 21.06 77.6463 21.06H71.8063V21.96C71.8063 22.64 72.0196 23.1867 72.4463 23.6C72.8863 24.0133 73.5129 24.22 74.3263 24.22C75.1396 24.22 75.7596 24.04 76.1863 23.68C76.6129 23.32 76.8263 22.8333 76.8263 22.22C77.2263 22.1933 77.5596 22.2733 77.8263 22.46C78.1063 22.6333 78.2463 22.8933 78.2463 23.24C78.2463 23.6667 78.0596 24.0667 77.6863 24.44C77.3263 24.8133 76.8463 25.1133 76.2463 25.34C75.6463 25.5667 75.0063 25.68 74.3263 25.68ZM76.8463 19.7V19.02C76.8463 18.3533 76.6129 17.8133 76.1463 17.4C75.6929 16.9733 75.0863 16.76 74.3263 16.76C73.5663 16.76 72.9529 16.9733 72.4863 17.4C72.0329 17.8133 71.8063 18.3533 71.8063 19.02V19.7H76.8463ZM85.115 16.86C84.3683 16.86 83.7483 17.0867 83.255 17.54C82.7617 17.98 82.515 18.52 82.515 19.16V24.4C82.515 24.84 82.3683 25.1667 82.075 25.38C81.795 25.58 81.3617 25.68 80.775 25.68V16.8C80.775 15.8133 81.335 15.32 82.455 15.32V16.54C82.2417 16.7667 82.095 16.9667 82.015 17.14L82.095 17.22C82.9483 15.9533 84.015 15.32 85.295 15.32C85.775 15.32 86.1417 15.44 86.395 15.68C86.6483 15.9067 86.775 16.1867 86.775 16.52C86.775 16.76 86.715 16.9733 86.595 17.16C86.2217 16.96 85.7283 16.86 85.115 16.86ZM88.8805 16.8C88.8805 15.8133 89.4405 15.32 90.5605 15.32V16.6C90.4405 16.72 90.3005 16.9 90.1405 17.14L90.2205 17.22C90.6205 16.66 91.1405 16.2067 91.7805 15.86C92.4205 15.5 93.1138 15.32 93.8605 15.32C94.9405 15.32 95.7938 15.64 96.4205 16.28C97.0471 16.92 97.3605 17.7467 97.3605 18.76V24.4C97.3605 24.84 97.2138 25.1667 96.9205 25.38C96.6405 25.58 96.2071 25.68 95.6205 25.68V18.94C95.6205 18.3 95.4405 17.7933 95.0805 17.42C94.7205 17.0467 94.1738 16.86 93.4405 16.86C92.9471 16.86 92.4805 16.9667 92.0405 17.18C91.6138 17.38 91.2671 17.66 91.0005 18.02C90.7471 18.3667 90.6205 18.7467 90.6205 19.16V24.4C90.6205 24.84 90.4738 25.1667 90.1805 25.38C89.9005 25.58 89.4671 25.68 88.8805 25.68V16.8ZM103.275 25.68C102.128 25.68 101.201 25.3733 100.495 24.76C99.8014 24.1467 99.4547 23.34 99.4547 22.34C99.4547 21.3267 99.8214 20.5133 100.555 19.9C101.288 19.2733 102.255 18.96 103.455 18.96C104.735 18.96 105.788 19.4133 106.615 20.32L106.695 20.24C106.548 20.08 106.381 19.9133 106.195 19.74V18.9C106.195 18.22 105.981 17.6933 105.555 17.32C105.128 16.9467 104.521 16.76 103.735 16.76C102.335 16.76 101.335 17.3133 100.735 18.42C100.521 18.3133 100.341 18.1733 100.195 18C100.061 17.8133 99.9947 17.6267 99.9947 17.44C99.9947 17.08 100.175 16.74 100.535 16.42C100.895 16.0867 101.368 15.82 101.955 15.62C102.555 15.42 103.181 15.32 103.835 15.32C105.101 15.32 106.095 15.6333 106.815 16.26C107.548 16.8867 107.915 17.7533 107.915 18.86V24.34C107.915 24.8067 107.781 25.1467 107.515 25.36C107.248 25.5733 106.828 25.68 106.255 25.68V24.74C106.535 24.4467 106.688 24.2733 106.715 24.22L106.635 24.14C105.768 25.1667 104.648 25.68 103.275 25.68ZM103.575 24.3C104.401 24.3 105.048 24.1267 105.515 23.78C105.995 23.4333 106.235 22.9533 106.235 22.34C106.235 21.7267 106.001 21.24 105.535 20.88C105.068 20.52 104.428 20.34 103.615 20.34C102.855 20.34 102.255 20.52 101.815 20.88C101.388 21.2267 101.175 21.7133 101.175 22.34C101.175 22.9667 101.381 23.4533 101.795 23.8C102.221 24.1333 102.815 24.3 103.575 24.3ZM110.619 16.8C110.619 15.8133 111.172 15.32 112.279 15.32V16.6C112.105 16.7867 111.965 16.9667 111.859 17.14L111.939 17.22C112.365 16.62 112.819 16.1533 113.299 15.82C113.779 15.4867 114.332 15.32 114.959 15.32C116.172 15.32 117.005 15.9 117.459 17.06C118.219 15.9 119.232 15.32 120.499 15.32C121.445 15.32 122.172 15.64 122.679 16.28C123.199 16.9067 123.459 17.7333 123.459 18.76V24.4C123.459 24.84 123.312 25.1667 123.019 25.38C122.739 25.58 122.312 25.68 121.739 25.68V18.86C121.739 18.22 121.605 17.72 121.339 17.36C121.072 17 120.652 16.82 120.079 16.82C119.479 16.82 118.965 17.0267 118.539 17.44C118.112 17.84 117.899 18.38 117.899 19.06V24.4C117.899 24.84 117.759 25.1667 117.479 25.38C117.199 25.58 116.772 25.68 116.199 25.68V18.86C116.199 18.22 116.065 17.72 115.799 17.36C115.532 17 115.112 16.82 114.539 16.82C113.925 16.82 113.405 17.04 112.979 17.48C112.552 17.92 112.339 18.46 112.339 19.1V24.4C112.339 24.84 112.192 25.1667 111.899 25.38C111.619 25.58 111.192 25.68 110.619 25.68V16.8ZM130.088 25.68C129.275 25.68 128.548 25.5267 127.908 25.22C127.268 24.9 126.768 24.4667 126.408 23.92C126.048 23.36 125.868 22.7333 125.868 22.04V19.08C125.868 18.3733 126.055 17.7333 126.428 17.16C126.815 16.5867 127.328 16.14 127.968 15.82C128.621 15.4867 129.328 15.32 130.088 15.32C130.848 15.32 131.541 15.48 132.168 15.8C132.808 16.12 133.308 16.56 133.668 17.12C134.041 17.68 134.228 18.3133 134.228 19.02V20.3C134.228 20.5133 134.148 20.6933 133.988 20.84C133.828 20.9867 133.635 21.06 133.408 21.06H127.568V21.96C127.568 22.64 127.781 23.1867 128.208 23.6C128.648 24.0133 129.275 24.22 130.088 24.22C130.901 24.22 131.521 24.04 131.948 23.68C132.375 23.32 132.588 22.8333 132.588 22.22C132.988 22.1933 133.321 22.2733 133.588 22.46C133.868 22.6333 134.008 22.8933 134.008 23.24C134.008 23.6667 133.821 24.0667 133.448 24.44C133.088 24.8133 132.608 25.1133 132.008 25.34C131.408 25.5667 130.768 25.68 130.088 25.68ZM132.608 19.7V19.02C132.608 18.3533 132.375 17.8133 131.908 17.4C131.455 16.9733 130.848 16.76 130.088 16.76C129.328 16.76 128.715 16.9733 128.248 17.4C127.795 17.8133 127.568 18.3533 127.568 19.02V19.7H132.608Z"
        fill="#3A3A3A"/>
</svg>
